<?xml version="1.0" standalone="no"?>
<!DOCTYPE svg PUBLIC "-//W3C//DTD SVG 20010904//EN"
 "http://www.w3.org/TR/2001/REC-SVG-20010904/DTD/svg10.dtd">
<svg version="1.0" xmlns="http://www.w3.org/2000/svg"
 width="402.000000pt" height="47.000000pt" viewBox="0 0 402.000000 47.000000"
 preserveAspectRatio="xMidYMid meet">
<metadata>
Created by potrace 1.15, written by Peter Selinger 2001-2017
</metadata>
<g transform="translate(0.000000,47.000000) scale(0.100000,-0.100000)"
fill="#000000" stroke="none">
<path d="M3670 445 c0 -8 -9 -15 -20 -15 -11 0 -20 -4 -20 -10 0 -6 -50 -10
-130 -10 -123 0 -130 -1 -130 -20 0 -17 -7 -20 -40 -20 -29 0 -40 -4 -40 -15
0 -13 -56 -15 -443 -15 -244 0 -985 -3 -1646 -7 l-1202 -6 3 -36 c3 -35 5 -36
46 -39 54 -4 54 -20 0 -24 l-43 -3 -3 -107 -3 -108 616 0 615 0 0 65 0 65
1395 0 1395 0 0 160 0 160 -175 0 c-149 0 -175 -2 -175 -15z"/>
</g>
</svg>
