<?xml version="1.0" standalone="no"?>
<!DOCTYPE svg PUBLIC "-//W3C//DTD SVG 20010904//EN"
 "http://www.w3.org/TR/2001/REC-SVG-20010904/DTD/svg10.dtd">
<svg version="1.0" xmlns="http://www.w3.org/2000/svg"
 width="400.000000pt" height="32.000000pt" viewBox="0 0 400.000000 32.000000"
 preserveAspectRatio="xMidYMid meet">
<metadata>
Created by potrace 1.15, written by Peter Selinger 2001-2017
</metadata>
<g transform="translate(0.000000,32.000000) scale(0.100000,-0.100000)"
fill="#000000" stroke="none">
<path d="M3050 276 c0 -28 4 -35 23 -39 12 -2 -49 -5 -135 -6 -133 -1 -158 -3
-158 -16 0 -13 -59 -15 -472 -15 -260 0 -605 -3 -765 -7 l-293 -6 0 -32 0 -32
-97 -6 c-54 -4 -126 -7 -161 -7 l-63 0 3 -38 3 -37 118 -3 c67 -1 117 -7 117
-12 0 -6 259 -10 710 -10 l710 0 0 55 0 55 705 0 705 0 0 95 0 95 -475 0 -475
0 0 -34z"/>
<path d="M2 43 l3 -38 90 0 90 0 3 38 3 37 -96 0 -96 0 3 -37z"/>
</g>
</svg>
