<?xml version="1.0" standalone="no"?>
<!DOCTYPE svg PUBLIC "-//W3C//DTD SVG 20010904//EN"
 "http://www.w3.org/TR/2001/REC-SVG-20010904/DTD/svg10.dtd">
<svg version="1.0" xmlns="http://www.w3.org/2000/svg"
 width="402.000000pt" height="106.000000pt" viewBox="0 0 402.000000 106.000000"
 preserveAspectRatio="xMidYMid meet">
<metadata>
Created by potrace 1.15, written by Peter Selinger 2001-2017
</metadata>
<g transform="translate(0.000000,106.000000) scale(0.100000,-0.100000)"
fill="#000000" stroke="none">
<path d="M1945 1049 c-792 -3 -1549 -7 -1682 -8 l-243 -1 0 -35 0 -35 58 -1
c64 0 49 -12 -32 -24 l-46 -7 2 -462 3 -461 1084 -3 c861 -2 1086 0 1093 10 4
7 8 34 8 60 l0 48 913 2 912 3 3 397 2 397 -87 3 -88 3 -3 63 -3 62 -227 -2
c-125 -1 -875 -5 -1667 -9z"/>
</g>
</svg>
