<?xml version="1.0" standalone="no"?>
<!DOCTYPE svg PUBLIC "-//W3C//DTD SVG 20010904//EN"
 "http://www.w3.org/TR/2001/REC-SVG-20010904/DTD/svg10.dtd">
<svg version="1.0" xmlns="http://www.w3.org/2000/svg"
 width="296.000000pt" height="33.000000pt" viewBox="0 0 296.000000 33.000000"
 preserveAspectRatio="xMidYMid meet">
<metadata>
Created by potrace 1.15, written by Peter Selinger 2001-2017
</metadata>
<g transform="translate(0.000000,33.000000) scale(0.100000,-0.100000)"
fill="#000000" stroke="none">
<path d="M1990 320 c-234 -4 -462 -8 -507 -9 l-83 -1 0 -39 0 -39 -77 -6
c-108 -9 -133 -15 -133 -32 0 -12 -87 -14 -589 -14 l-590 0 -7 -45 c-3 -25 -3
-65 0 -90 l7 -45 1300 0 1299 0 0 60 0 60 175 0 176 0 -3 103 -3 102 -270 1
c-148 0 -461 -3 -695 -6z"/>
</g>
</svg>
