<?xml version="1.0" standalone="no"?>
<!DOCTYPE svg PUBLIC "-//W3C//DTD SVG 20010904//EN"
 "http://www.w3.org/TR/2001/REC-SVG-20010904/DTD/svg10.dtd">
<svg version="1.0" xmlns="http://www.w3.org/2000/svg"
 width="95.000000pt" height="22.000000pt" viewBox="0 0 95.000000 22.000000"
 preserveAspectRatio="xMidYMid meet">
<metadata>
Created by potrace 1.15, written by Peter Selinger 2001-2017
</metadata>
<g transform="translate(0.000000,22.000000) scale(0.100000,-0.100000)"
fill="#000000" stroke="none">
<path d="M270 175 c0 -21 5 -36 13 -37 27 -3 -123 -16 -200 -17 l-83 -1 0 -39
c0 -26 5 -41 16 -45 9 -3 69 -6 135 -6 73 0 119 -4 119 -10 0 -6 120 -10 340
-10 l340 0 0 100 0 100 -340 0 -340 0 0 -35z"/>
</g>
</svg>
