<?xml version="1.0" standalone="no"?>
<!DOCTYPE svg PUBLIC "-//W3C//DTD SVG 20010904//EN"
 "http://www.w3.org/TR/2001/REC-SVG-20010904/DTD/svg10.dtd">
<svg version="1.0" xmlns="http://www.w3.org/2000/svg"
 width="405.000000pt" height="224.000000pt" viewBox="0 0 405.000000 224.000000"
 preserveAspectRatio="xMidYMid meet">
<metadata>
Created by potrace 1.15, written by Peter Selinger 2001-2017
</metadata>
<g transform="translate(0.000000,224.000000) scale(0.100000,-0.100000)"
fill="#000000" stroke="none">
<path d="M1358 2233 l-1348 -3 0 -40 0 -40 68 -1 c37 -1 56 -4 42 -6 -14 -3
-29 -9 -34 -14 -6 -5 -24 -9 -42 -9 -20 0 -34 -6 -38 -16 -8 -20 -8 -2058 0
-2078 6 -15 193 -16 2025 -16 l2019 0 0 1115 0 1115 -672 -2 c-370 -2 -1279
-4 -2020 -5z"/>
</g>
</svg>
