<?xml version="1.0" standalone="no"?>
<!DOCTYPE svg PUBLIC "-//W3C//DTD SVG 20010904//EN"
 "http://www.w3.org/TR/2001/REC-SVG-20010904/DTD/svg10.dtd">
<svg version="1.0" xmlns="http://www.w3.org/2000/svg"
 width="401.000000pt" height="69.000000pt" viewBox="0 0 401.000000 69.000000"
 preserveAspectRatio="xMidYMid meet">
<metadata>
Created by potrace 1.15, written by Peter Selinger 2001-2017
</metadata>
<g transform="translate(0.000000,69.000000) scale(0.100000,-0.100000)"
fill="#000000" stroke="none">
<path d="M1173 683 l-863 -3 0 -35 0 -35 83 -2 c45 -1 65 -3 44 -5 -20 -2 -37
-8 -37 -14 0 -5 -20 -9 -45 -9 -25 0 -45 -4 -45 -10 0 -6 -58 -10 -155 -10
l-155 0 0 -95 0 -95 89 0 c50 0 93 -4 96 -10 3 -6 -5 -10 -19 -10 -14 0 -28
-4 -31 -10 -3 -5 -35 -10 -71 -10 l-64 0 0 -165 0 -165 710 0 710 0 0 60 0 60
1293 2 1292 3 3 283 2 282 -987 -2 c-544 -2 -1376 -4 -1850 -5z"/>
</g>
</svg>
