<?xml version="1.0" standalone="no"?>
<!DOCTYPE svg PUBLIC "-//W3C//DTD SVG 20010904//EN"
 "http://www.w3.org/TR/2001/REC-SVG-20010904/DTD/svg10.dtd">
<svg version="1.0" xmlns="http://www.w3.org/2000/svg"
 width="403.000000pt" height="166.000000pt" viewBox="0 0 403.000000 166.000000"
 preserveAspectRatio="xMidYMid meet">
<metadata>
Created by potrace 1.15, written by Peter Selinger 2001-2017
</metadata>
<g transform="translate(0.000000,166.000000) scale(0.100000,-0.100000)"
fill="#000000" stroke="none">
<path d="M330 1610 l0 -40 46 0 c27 0 43 -4 39 -10 -3 -5 -24 -10 -45 -10 -21
0 -42 -4 -45 -10 -4 -6 -69 -10 -161 -10 l-155 0 3 -97 3 -98 147 -5 c81 -3
150 -9 154 -13 4 -4 -13 -7 -39 -7 -25 0 -49 -4 -52 -10 -3 -6 -51 -10 -109
-10 l-103 0 -5 -632 c-3 -348 -4 -636 -1 -640 2 -5 393 -8 869 -8 l864 0 0 53
0 52 1143 0 1142 0 3 768 2 767 -1850 0 -1850 0 0 -40z"/>
</g>
</svg>
