<?xml version="1.0" standalone="no"?>
<!DOCTYPE svg PUBLIC "-//W3C//DTD SVG 20010904//EN"
 "http://www.w3.org/TR/2001/REC-SVG-20010904/DTD/svg10.dtd">
<svg version="1.0" xmlns="http://www.w3.org/2000/svg"
 width="315.000000pt" height="20.000000pt" viewBox="0 0 315.000000 20.000000"
 preserveAspectRatio="xMidYMid meet">
<metadata>
Created by potrace 1.15, written by Peter Selinger 2001-2017
</metadata>
<g transform="translate(0.000000,20.000000) scale(0.100000,-0.100000)"
fill="#000000" stroke="none">
<path d="M1015 190 c-490 -4 -891 -7 -892 -8 -2 -1 -3 -20 -3 -42 0 -33 -3
-40 -19 -40 -11 0 -23 -4 -26 -10 -3 -5 -22 -10 -41 -10 -33 0 -34 -1 -34 -40
l0 -40 1575 0 1576 0 -3 98 -3 97 -620 0 c-341 1 -1020 -2 -1510 -5z"/>
</g>
</svg>
