<?xml version="1.0" standalone="no"?>
<!DOCTYPE svg PUBLIC "-//W3C//DTD SVG 20010904//EN"
 "http://www.w3.org/TR/2001/REC-SVG-20010904/DTD/svg10.dtd">
<svg version="1.0" xmlns="http://www.w3.org/2000/svg"
 width="401.000000pt" height="31.000000pt" viewBox="0 0 401.000000 31.000000"
 preserveAspectRatio="xMidYMid meet">
<metadata>
Created by potrace 1.15, written by Peter Selinger 2001-2017
</metadata>
<g transform="translate(0.000000,31.000000) scale(0.100000,-0.100000)"
fill="#000000" stroke="none">
<path d="M560 260 c0 -38 2 -40 30 -40 17 0 30 -4 30 -9 0 -14 -85 -21 -294
-22 -111 -1 -228 -4 -261 -8 l-60 -6 -3 -65 c-2 -35 0 -75 3 -87 l5 -23 868 2
867 3 3 53 3 52 1130 0 1129 0 0 95 0 95 -1725 0 -1725 0 0 -40z"/>
</g>
</svg>
