<?xml version="1.0" standalone="no"?>
<!DOCTYPE svg PUBLIC "-//W3C//DTD SVG 20010904//EN"
 "http://www.w3.org/TR/2001/REC-SVG-20010904/DTD/svg10.dtd">
<svg version="1.0" xmlns="http://www.w3.org/2000/svg"
 width="400.000000pt" height="35.000000pt" viewBox="0 0 400.000000 35.000000"
 preserveAspectRatio="xMidYMid meet">
<metadata>
Created by potrace 1.15, written by Peter Selinger 2001-2017
</metadata>
<g transform="translate(0.000000,35.000000) scale(0.100000,-0.100000)"
fill="#000000" stroke="none">
<path d="M1308 333 l-198 -3 0 -39 c0 -46 -10 -51 -118 -51 l-73 0 3 -42 3
-43 60 -7 c33 -5 724 -7 1535 -5 l1475 2 3 98 3 97 -1248 -2 c-686 -2 -1337
-4 -1445 -5z"/>
<path d="M7 194 c-10 -10 -8 -166 1 -182 7 -9 58 -12 223 -10 l214 3 0 95 0
95 -216 3 c-118 1 -218 -1 -222 -4z"/>
</g>
</svg>
