<?xml version="1.0" standalone="no"?>
<!DOCTYPE svg PUBLIC "-//W3C//DTD SVG 20010904//EN"
 "http://www.w3.org/TR/2001/REC-SVG-20010904/DTD/svg10.dtd">
<svg version="1.0" xmlns="http://www.w3.org/2000/svg"
 width="401.000000pt" height="31.000000pt" viewBox="0 0 401.000000 31.000000"
 preserveAspectRatio="xMidYMid meet">
<metadata>
Created by potrace 1.15, written by Peter Selinger 2001-2017
</metadata>
<g transform="translate(0.000000,31.000000) scale(0.100000,-0.100000)"
fill="#000000" stroke="none">
<path d="M948 303 l-548 -3 0 -40 0 -40 51 0 c31 0 48 -4 44 -10 -3 -5 -26
-10 -51 -10 -32 0 -44 -4 -44 -15 0 -12 -31 -15 -198 -17 l-197 -3 0 -80 0
-80 372 -3 373 -2 0 60 0 60 1630 0 1631 0 -3 93 -3 92 -1255 0 c-690 0 -1501
-1 -1802 -2z"/>
</g>
</svg>
