<?xml version="1.0" standalone="no"?>
<!DOCTYPE svg PUBLIC "-//W3C//DTD SVG 20010904//EN"
 "http://www.w3.org/TR/2001/REC-SVG-20010904/DTD/svg10.dtd">
<svg version="1.0" xmlns="http://www.w3.org/2000/svg"
 width="400.000000pt" height="32.000000pt" viewBox="0 0 400.000000 32.000000"
 preserveAspectRatio="xMidYMid meet">
<metadata>
Created by potrace 1.15, written by Peter Selinger 2001-2017
</metadata>
<g transform="translate(0.000000,32.000000) scale(0.100000,-0.100000)"
fill="#000000" stroke="none">
<path d="M3796 305 c-12 -9 -42 -15 -77 -15 -32 0 -61 -4 -64 -10 -3 -5 -28
-10 -56 -10 -42 0 -49 -3 -49 -20 0 -18 -7 -20 -70 -20 -56 0 -70 -3 -70 -15
0 -13 -44 -15 -340 -15 l-340 0 0 -40 0 -40 635 0 636 0 -3 98 -3 97 -90 2
c-67 2 -95 -1 -109 -12z"/>
<path d="M31 191 c-10 -6 -12 -21 -8 -49 4 -30 1 -42 -10 -46 -10 -4 -13 -18
-11 -48 l3 -43 570 0 570 0 0 95 0 95 -550 2 c-308 2 -556 -1 -564 -6z"/>
</g>
</svg>
