<?xml version="1.0" standalone="no"?>
<!DOCTYPE svg PUBLIC "-//W3C//DTD SVG 20010904//EN"
 "http://www.w3.org/TR/2001/REC-SVG-20010904/DTD/svg10.dtd">
<svg version="1.0" xmlns="http://www.w3.org/2000/svg"
 width="399.000000pt" height="33.000000pt" viewBox="0 0 399.000000 33.000000"
 preserveAspectRatio="xMidYMid meet">
<metadata>
Created by potrace 1.15, written by Peter Selinger 2001-2017
</metadata>
<g transform="translate(0.000000,33.000000) scale(0.100000,-0.100000)"
fill="#000000" stroke="none">
<path d="M1583 313 l-1023 -3 0 -39 c0 -39 1 -40 38 -44 31 -3 29 -4 -15 -5
-62 -2 -83 -9 -83 -28 0 -11 -45 -14 -247 -16 l-248 -3 0 -80 0 -80 933 -3
932 -2 0 60 0 60 1060 0 1060 0 0 95 0 95 -692 -2 c-381 -2 -1153 -4 -1715 -5z"/>
</g>
</svg>
