<?xml version="1.0" standalone="no"?>
<!DOCTYPE svg PUBLIC "-//W3C//DTD SVG 20010904//EN"
 "http://www.w3.org/TR/2001/REC-SVG-20010904/DTD/svg10.dtd">
<svg version="1.0" xmlns="http://www.w3.org/2000/svg"
 width="401.000000pt" height="117.000000pt" viewBox="0 0 401.000000 117.000000"
 preserveAspectRatio="xMidYMid meet">
<metadata>
Created by potrace 1.15, written by Peter Selinger 2001-2017
</metadata>
<g transform="translate(0.000000,117.000000) scale(0.100000,-0.100000)"
fill="#000000" stroke="none">
<path d="M860 1160 l-545 -5 -3 -37 -3 -38 98 -1 c106 -2 111 0 -55 -25 -23
-3 -45 -10 -48 -15 -3 -5 -72 -9 -155 -9 l-149 0 0 -150 0 -150 53 0 c91 0
217 -13 217 -21 0 -5 -18 -9 -40 -9 -22 0 -40 -4 -40 -10 0 -6 -38 -10 -95
-10 l-95 0 0 -154 0 -153 31 -7 c17 -3 75 -6 128 -7 100 0 179 -17 89 -18 -27
-1 -48 -5 -48 -11 0 -5 -44 -11 -97 -12 l-98 -3 0 -155 0 -155 1073 -3 1072
-2 0 55 c0 30 1 56 3 57 1 1 418 5 927 8 l925 5 3 523 2 522 -1302 -2 c-717
-2 -1548 -5 -1848 -8z"/>
</g>
</svg>
