<?xml version="1.0" standalone="no"?>
<!DOCTYPE svg PUBLIC "-//W3C//DTD SVG 20010904//EN"
 "http://www.w3.org/TR/2001/REC-SVG-20010904/DTD/svg10.dtd">
<svg version="1.0" xmlns="http://www.w3.org/2000/svg"
 width="401.000000pt" height="69.000000pt" viewBox="0 0 401.000000 69.000000"
 preserveAspectRatio="xMidYMid meet">
<metadata>
Created by potrace 1.15, written by Peter Selinger 2001-2017
</metadata>
<g transform="translate(0.000000,69.000000) scale(0.100000,-0.100000)"
fill="#000000" stroke="none">
<path d="M1690 646 c0 -33 -1 -33 -52 -40 -29 -3 -81 -6 -116 -6 -46 0 -64 -4
-68 -15 -5 -13 -96 -15 -730 -15 l-724 0 0 -285 0 -285 185 0 185 0 0 60 0 60
1820 0 1820 0 0 280 0 280 -1160 0 -1160 0 0 -34z"/>
</g>
</svg>
