<?xml version="1.0" standalone="no"?>
<!DOCTYPE svg PUBLIC "-//W3C//DTD SVG 20010904//EN"
 "http://www.w3.org/TR/2001/REC-SVG-20010904/DTD/svg10.dtd">
<svg version="1.0" xmlns="http://www.w3.org/2000/svg"
 width="402.000000pt" height="38.000000pt" viewBox="0 0 402.000000 38.000000"
 preserveAspectRatio="xMidYMid meet">
<metadata>
Created by potrace 1.15, written by Peter Selinger 2001-2017
</metadata>
<g transform="translate(0.000000,38.000000) scale(0.100000,-0.100000)"
fill="#000000" stroke="none">
<path d="M3450 370 c-58 -4 -149 -8 -202 -9 -58 0 -98 -5 -98 -11 0 -7 -239
-10 -697 -10 -384 0 -1046 -3 -1470 -7 l-773 -6 0 -47 c0 -59 -17 -69 -125
-72 l-80 -3 -3 -97 -3 -98 1226 0 1225 0 0 60 0 60 785 0 785 0 0 125 0 125
-232 -2 c-128 -1 -280 -5 -338 -8z"/>
</g>
</svg>
