<?xml version="1.0" standalone="no"?>
<!DOCTYPE svg PUBLIC "-//W3C//DTD SVG 20010904//EN"
 "http://www.w3.org/TR/2001/REC-SVG-20010904/DTD/svg10.dtd">
<svg version="1.0" xmlns="http://www.w3.org/2000/svg"
 width="401.000000pt" height="31.000000pt" viewBox="0 0 401.000000 31.000000"
 preserveAspectRatio="xMidYMid meet">
<metadata>
Created by potrace 1.15, written by Peter Selinger 2001-2017
</metadata>
<g transform="translate(0.000000,31.000000) scale(0.100000,-0.100000)"
fill="#000000" stroke="none">
<path d="M1333 303 l-903 -3 0 -40 c0 -39 1 -40 37 -40 30 0 35 -3 25 -12 -10
-10 -77 -14 -247 -16 l-234 -4 -6 -31 c-4 -18 -5 -59 -3 -92 l3 -60 328 -3
327 -2 0 55 0 55 1673 2 1672 3 0 95 0 95 -885 0 c-487 0 -1291 -1 -1787 -2z"/>
</g>
</svg>
