<?xml version="1.0" standalone="no"?>
<!DOCTYPE svg PUBLIC "-//W3C//DTD SVG 20010904//EN"
 "http://www.w3.org/TR/2001/REC-SVG-20010904/DTD/svg10.dtd">
<svg version="1.0" xmlns="http://www.w3.org/2000/svg"
 width="402.000000pt" height="83.000000pt" viewBox="0 0 402.000000 83.000000"
 preserveAspectRatio="xMidYMid meet">
<metadata>
Created by potrace 1.15, written by Peter Selinger 2001-2017
</metadata>
<g transform="translate(0.000000,83.000000) scale(0.100000,-0.100000)"
fill="#000000" stroke="none">
<path d="M320 780 l0 -40 93 -1 c80 -2 86 -3 42 -9 -27 -4 -74 -12 -104 -19
-29 -6 -118 -11 -196 -11 -121 0 -144 -2 -149 -16 -3 -9 -6 -54 -6 -100 l0
-84 113 -2 c61 -1 94 -3 72 -5 -22 -1 -73 -8 -114 -15 l-74 -11 7 -111 c3 -61
6 -164 6 -229 l0 -117 223 2 222 3 3 63 3 62 1780 0 1779 0 -2 223 -3 222 -42
3 c-29 2 -43 8 -43 18 0 10 12 14 45 14 l45 0 0 100 0 100 -1850 0 -1850 0 0
-40z"/>
</g>
</svg>
