<?xml version="1.0" standalone="no"?>
<!DOCTYPE svg PUBLIC "-//W3C//DTD SVG 20010904//EN"
 "http://www.w3.org/TR/2001/REC-SVG-20010904/DTD/svg10.dtd">
<svg version="1.0" xmlns="http://www.w3.org/2000/svg"
 width="401.000000pt" height="94.000000pt" viewBox="0 0 401.000000 94.000000"
 preserveAspectRatio="xMidYMid meet">
<metadata>
Created by potrace 1.15, written by Peter Selinger 2001-2017
</metadata>
<g transform="translate(0.000000,94.000000) scale(0.100000,-0.100000)"
fill="#000000" stroke="none">
<path d="M2500 930 c-641 -4 -1396 -8 -1678 -9 l-513 -1 3 -37 c3 -37 4 -38
46 -41 52 -4 46 -22 -9 -22 -21 0 -39 -4 -39 -10 0 -6 -58 -10 -155 -10 l-155
0 0 -94 0 -94 60 -7 c41 -5 60 -11 60 -21 0 -10 -15 -14 -60 -14 l-60 0 2
-278 3 -277 1390 0 1390 0 3 58 3 57 609 0 610 0 0 175 0 174 -77 4 -78 3 78
2 77 2 -2 223 -3 222 -170 1 c-93 0 -694 -3 -1335 -6z"/>
</g>
</svg>
