<?xml version="1.0" standalone="no"?>
<!DOCTYPE svg PUBLIC "-//W3C//DTD SVG 20010904//EN"
 "http://www.w3.org/TR/2001/REC-SVG-20010904/DTD/svg10.dtd">
<svg version="1.0" xmlns="http://www.w3.org/2000/svg"
 width="402.000000pt" height="94.000000pt" viewBox="0 0 402.000000 94.000000"
 preserveAspectRatio="xMidYMid meet">
<metadata>
Created by potrace 1.15, written by Peter Selinger 2001-2017
</metadata>
<g transform="translate(0.000000,94.000000) scale(0.100000,-0.100000)"
fill="#000000" stroke="none">
<path d="M993 923 l-673 -3 0 -40 0 -40 78 -1 77 -2 -75 -11 c-41 -7 -82 -15
-90 -19 -8 -4 -80 -8 -160 -9 l-145 -3 -3 -215 c-2 -118 0 -297 3 -397 l7
-183 833 0 833 0 6 22 c3 13 6 42 6 66 l0 42 1165 0 1165 0 0 400 0 400 -1177
-2 c-648 -2 -1481 -4 -1850 -5z"/>
</g>
</svg>
