<?xml version="1.0" standalone="no"?>
<!DOCTYPE svg PUBLIC "-//W3C//DTD SVG 20010904//EN"
 "http://www.w3.org/TR/2001/REC-SVG-20010904/DTD/svg10.dtd">
<svg version="1.0" xmlns="http://www.w3.org/2000/svg"
 width="371.000000pt" height="117.000000pt" viewBox="0 0 371.000000 117.000000"
 preserveAspectRatio="xMidYMid meet">
<metadata>
Created by potrace 1.15, written by Peter Selinger 2001-2017
</metadata>
<g transform="translate(0.000000,117.000000) scale(0.100000,-0.100000)"
fill="#000000" stroke="none">
<path d="M333 1163 l-273 -3 0 -35 0 -35 63 -1 62 -1 -50 -8 c-27 -5 -68 -12
-90 -17 l-40 -9 0 -104 0 -105 53 -3 c36 -2 52 -7 52 -17 0 -10 -16 -15 -52
-17 l-53 -3 -3 -260 c-2 -143 0 -324 3 -402 l7 -143 89 0 89 0 0 65 0 65 1760
0 1760 0 0 520 0 520 -1552 -2 c-854 -2 -1676 -4 -1825 -5z"/>
</g>
</svg>
