<?xml version="1.0" standalone="no"?>
<!DOCTYPE svg PUBLIC "-//W3C//DTD SVG 20010904//EN"
 "http://www.w3.org/TR/2001/REC-SVG-20010904/DTD/svg10.dtd">
<svg version="1.0" xmlns="http://www.w3.org/2000/svg"
 width="401.000000pt" height="35.000000pt" viewBox="0 0 401.000000 35.000000"
 preserveAspectRatio="xMidYMid meet">
<metadata>
Created by potrace 1.15, written by Peter Selinger 2001-2017
</metadata>
<g transform="translate(0.000000,35.000000) scale(0.100000,-0.100000)"
fill="#000000" stroke="none">
<path d="M1823 333 c-7 -2 -13 -20 -13 -39 0 -25 5 -34 18 -36 30 -2 -160 -16
-245 -17 l-83 -1 0 -39 c0 -31 4 -40 23 -46 12 -4 577 -10 1255 -12 l1232 -5
0 101 0 101 -1087 -1 c-599 0 -1094 -3 -1100 -6z"/>
<path d="M90 201 l-85 -6 -3 -75 c-2 -41 0 -85 3 -98 l5 -22 178 2 177 3 3
103 3 102 -98 -2 c-54 -1 -136 -4 -183 -7z"/>
</g>
</svg>
