<?xml version="1.0" standalone="no"?>
<!DOCTYPE svg PUBLIC "-//W3C//DTD SVG 20010904//EN"
 "http://www.w3.org/TR/2001/REC-SVG-20010904/DTD/svg10.dtd">
<svg version="1.0" xmlns="http://www.w3.org/2000/svg"
 width="279.000000pt" height="180.000000pt" viewBox="0 0 279.000000 180.000000"
 preserveAspectRatio="xMidYMid meet">
<metadata>
Created by potrace 1.15, written by Peter Selinger 2001-2017
</metadata>
<g transform="translate(0.000000,180.000000) scale(0.100000,-0.100000)"
fill="#000000" stroke="none">
<path d="M170 1789 c-52 -4 -111 -11 -130 -16 -33 -8 -35 -12 -35 -48 l0 -40
653 -3 652 -2 0 60 0 60 -522 -2 c-288 -1 -566 -5 -618 -9z"/>
<path d="M1613 213 l-973 -3 0 -40 c0 -36 3 -40 25 -40 14 0 25 -4 25 -10 0
-6 -30 -10 -70 -10 l-70 0 0 -40 c0 -36 3 -40 25 -40 14 0 25 -4 25 -10 0 -7
372 -10 1095 -10 l1095 0 0 105 0 105 -102 -2 c-57 -2 -541 -4 -1075 -5z"/>
</g>
</svg>
