<?xml version="1.0" standalone="no"?>
<!DOCTYPE svg PUBLIC "-//W3C//DTD SVG 20010904//EN"
 "http://www.w3.org/TR/2001/REC-SVG-20010904/DTD/svg10.dtd">
<svg version="1.0" xmlns="http://www.w3.org/2000/svg"
 width="401.000000pt" height="30.000000pt" viewBox="0 0 401.000000 30.000000"
 preserveAspectRatio="xMidYMid meet">
<metadata>
Created by potrace 1.15, written by Peter Selinger 2001-2017
</metadata>
<g transform="translate(0.000000,30.000000) scale(0.100000,-0.100000)"
fill="#000000" stroke="none">
<path d="M723 293 l-203 -3 0 -39 c0 -41 -13 -51 -67 -51 -12 0 -26 -7 -30
-15 -7 -12 -45 -15 -213 -17 l-205 -3 0 -80 0 -80 1403 -3 1402 -2 0 55 0 55
600 0 600 0 0 95 0 95 -1542 -2 c-849 -2 -1634 -4 -1745 -5z"/>
</g>
</svg>
