<?xml version="1.0" standalone="no"?>
<!DOCTYPE svg PUBLIC "-//W3C//DTD SVG 20010904//EN"
 "http://www.w3.org/TR/2001/REC-SVG-20010904/DTD/svg10.dtd">
<svg version="1.0" xmlns="http://www.w3.org/2000/svg"
 width="114.000000pt" height="16.000000pt" viewBox="0 0 114.000000 16.000000"
 preserveAspectRatio="xMidYMid meet">
<metadata>
Created by potrace 1.15, written by Peter Selinger 2001-2017
</metadata>
<g transform="translate(0.000000,16.000000) scale(0.100000,-0.100000)"
fill="#000000" stroke="none">
<path d="M60 153 c-50 -5 -60 -14 -60 -59 0 -22 8 -37 25 -50 14 -10 25 -24
25 -31 0 -10 62 -13 285 -13 247 0 285 2 285 15 0 12 19 15 108 15 60 0 177 3
260 7 l152 6 0 27 c0 15 -3 42 -6 59 l-7 31 -511 -2 c-281 -1 -531 -3 -556 -5z"/>
</g>
</svg>
