<?xml version="1.0" standalone="no"?>
<!DOCTYPE svg PUBLIC "-//W3C//DTD SVG 20010904//EN"
 "http://www.w3.org/TR/2001/REC-SVG-20010904/DTD/svg10.dtd">
<svg version="1.0" xmlns="http://www.w3.org/2000/svg"
 width="170.000000pt" height="20.000000pt" viewBox="0 0 170.000000 20.000000"
 preserveAspectRatio="xMidYMid meet">
<metadata>
Created by potrace 1.15, written by Peter Selinger 2001-2017
</metadata>
<g transform="translate(0.000000,20.000000) scale(0.100000,-0.100000)"
fill="#000000" stroke="none">
<path d="M37 193 c-24 -4 -27 -8 -27 -44 0 -24 5 -39 12 -39 9 0 9 -3 0 -12
-7 -7 -12 -29 -12 -50 l0 -38 839 0 c756 0 839 2 845 16 8 20 8 138 0 158 -6
14 -86 16 -818 15 -446 -1 -823 -4 -839 -6z"/>
</g>
</svg>
