<?xml version="1.0" standalone="no"?>
<!DOCTYPE svg PUBLIC "-//W3C//DTD SVG 20010904//EN"
 "http://www.w3.org/TR/2001/REC-SVG-20010904/DTD/svg10.dtd">
<svg version="1.0" xmlns="http://www.w3.org/2000/svg"
 width="115.000000pt" height="15.000000pt" viewBox="0 0 115.000000 15.000000"
 preserveAspectRatio="xMidYMid meet">
<metadata>
Created by potrace 1.15, written by Peter Selinger 2001-2017
</metadata>
<g transform="translate(0.000000,15.000000) scale(0.100000,-0.100000)"
fill="#000000" stroke="none">
<path d="M120 135 c0 -12 -13 -15 -60 -15 l-60 0 0 -39 c0 -46 10 -51 117 -51
39 0 75 -4 78 -10 4 -6 175 -10 481 -10 l474 0 0 50 0 50 -80 0 c-47 0 -80 4
-80 10 0 6 -90 10 -250 10 -160 0 -250 4 -250 10 0 6 -68 10 -185 10 -158 0
-185 -2 -185 -15z"/>
</g>
</svg>
