<?xml version="1.0" standalone="no"?>
<!DOCTYPE svg PUBLIC "-//W3C//DTD SVG 20010904//EN"
 "http://www.w3.org/TR/2001/REC-SVG-20010904/DTD/svg10.dtd">
<svg version="1.0" xmlns="http://www.w3.org/2000/svg"
 width="154.000000pt" height="19.000000pt" viewBox="0 0 154.000000 19.000000"
 preserveAspectRatio="xMidYMid meet">
<metadata>
Created by potrace 1.15, written by Peter Selinger 2001-2017
</metadata>
<g transform="translate(0.000000,19.000000) scale(0.100000,-0.100000)"
fill="#000000" stroke="none">
<path d="M233 183 c-30 -4 -33 -8 -33 -37 0 -41 -13 -46 -122 -46 l-78 0 0
-40 0 -40 90 0 c54 0 90 -4 90 -10 0 -7 228 -9 677 -8 657 3 678 4 681 22 2
11 1 52 -3 93 l-7 73 -631 -2 c-348 0 -647 -3 -664 -5z"/>
</g>
</svg>
