<?xml version="1.0" standalone="no"?>
<!DOCTYPE svg PUBLIC "-//W3C//DTD SVG 20010904//EN"
 "http://www.w3.org/TR/2001/REC-SVG-20010904/DTD/svg10.dtd">
<svg version="1.0" xmlns="http://www.w3.org/2000/svg"
 width="401.000000pt" height="33.000000pt" viewBox="0 0 401.000000 33.000000"
 preserveAspectRatio="xMidYMid meet">
<metadata>
Created by potrace 1.15, written by Peter Selinger 2001-2017
</metadata>
<g transform="translate(0.000000,33.000000) scale(0.100000,-0.100000)"
fill="#000000" stroke="none">
<path d="M2000 291 l0 -39 -47 -6 c-27 -3 -113 -9 -193 -12 -108 -5 -147 -10
-153 -20 -7 -12 -119 -14 -695 -14 -378 0 -738 -3 -799 -7 l-113 -6 0 -94 0
-93 890 0 890 0 0 60 0 60 1115 0 1115 0 0 105 0 105 -1005 0 -1005 0 0 -39z"/>
</g>
</svg>
