<?xml version="1.0" standalone="no"?>
<!DOCTYPE svg PUBLIC "-//W3C//DTD SVG 20010904//EN"
 "http://www.w3.org/TR/2001/REC-SVG-20010904/DTD/svg10.dtd">
<svg version="1.0" xmlns="http://www.w3.org/2000/svg"
 width="400.000000pt" height="73.000000pt" viewBox="0 0 400.000000 73.000000"
 preserveAspectRatio="xMidYMid meet">
<metadata>
Created by potrace 1.15, written by Peter Selinger 2001-2017
</metadata>
<g transform="translate(0.000000,73.000000) scale(0.100000,-0.100000)"
fill="#000000" stroke="none">
<path d="M1805 709 c-330 -3 -801 -7 -1047 -8 l-448 -1 0 -35 0 -35 78 -2 c42
0 61 -3 42 -5 -19 -3 -39 -9 -44 -14 -6 -5 -25 -9 -43 -9 -21 0 -36 -6 -39
-15 -5 -12 -32 -15 -155 -15 l-149 0 0 -285 0 -285 1428 2 1427 3 3 67 3 68
569 0 570 0 0 290 0 290 -797 -2 c-439 -1 -1068 -5 -1398 -9z"/>
</g>
</svg>
