<?xml version="1.0" standalone="no"?>
<!DOCTYPE svg PUBLIC "-//W3C//DTD SVG 20010904//EN"
 "http://www.w3.org/TR/2001/REC-SVG-20010904/DTD/svg10.dtd">
<svg version="1.0" xmlns="http://www.w3.org/2000/svg"
 width="207.000000pt" height="22.000000pt" viewBox="0 0 207.000000 22.000000"
 preserveAspectRatio="xMidYMid meet">
<metadata>
Created by potrace 1.15, written by Peter Selinger 2001-2017
</metadata>
<g transform="translate(0.000000,22.000000) scale(0.100000,-0.100000)"
fill="#000000" stroke="none">
<path d="M878 213 l-878 -3 0 -40 c0 -36 3 -40 25 -40 14 0 25 -4 25 -10 0 -5
-11 -10 -25 -10 -23 0 -25 -3 -25 -50 l0 -50 1029 0 1029 0 6 23 c8 29 8 151
0 171 -5 14 -27 16 -158 14 -83 -2 -546 -4 -1028 -5z"/>
</g>
</svg>
