<?xml version="1.0" standalone="no"?>
<!DOCTYPE svg PUBLIC "-//W3C//DTD SVG 20010904//EN"
 "http://www.w3.org/TR/2001/REC-SVG-20010904/DTD/svg10.dtd">
<svg version="1.0" xmlns="http://www.w3.org/2000/svg"
 width="399.000000pt" height="31.000000pt" viewBox="0 0 399.000000 31.000000"
 preserveAspectRatio="xMidYMid meet">
<metadata>
Created by potrace 1.15, written by Peter Selinger 2001-2017
</metadata>
<g transform="translate(0.000000,31.000000) scale(0.100000,-0.100000)"
fill="#000000" stroke="none">
<path d="M723 293 l-263 -3 0 -40 0 -40 43 -1 42 0 -50 -14 c-35 -10 -115 -14
-272 -15 l-223 0 0 -90 0 -90 1854 0 c1681 0 1854 1 1860 16 3 9 6 33 6 55 l0
38 133 3 132 3 3 93 3 92 -1503 -2 c-827 -2 -1621 -4 -1765 -5z"/>
</g>
</svg>
