<?xml version="1.0" standalone="no"?>
<!DOCTYPE svg PUBLIC "-//W3C//DTD SVG 20010904//EN"
 "http://www.w3.org/TR/2001/REC-SVG-20010904/DTD/svg10.dtd">
<svg version="1.0" xmlns="http://www.w3.org/2000/svg"
 width="401.000000pt" height="31.000000pt" viewBox="0 0 401.000000 31.000000"
 preserveAspectRatio="xMidYMid meet">
<metadata>
Created by potrace 1.15, written by Peter Selinger 2001-2017
</metadata>
<g transform="translate(0.000000,31.000000) scale(0.100000,-0.100000)"
fill="#000000" stroke="none">
<path d="M2120 270 l0 -40 -92 0 c-152 0 -258 -11 -258 -26 0 -12 -80 -14
-452 -15 -249 -1 -646 -5 -883 -8 l-430 -6 -3 -65 c-2 -35 0 -75 3 -87 l5 -23
588 2 587 3 3 53 3 52 1410 0 1409 0 0 100 0 100 -945 0 -945 0 0 -40z"/>
</g>
</svg>
