<?xml version="1.0" standalone="no"?>
<!DOCTYPE svg PUBLIC "-//W3C//DTD SVG 20010904//EN"
 "http://www.w3.org/TR/2001/REC-SVG-20010904/DTD/svg10.dtd">
<svg version="1.0" xmlns="http://www.w3.org/2000/svg"
 width="400.000000pt" height="47.000000pt" viewBox="0 0 400.000000 47.000000"
 preserveAspectRatio="xMidYMid meet">
<metadata>
Created by potrace 1.15, written by Peter Selinger 2001-2017
</metadata>
<g transform="translate(0.000000,47.000000) scale(0.100000,-0.100000)"
fill="#000000" stroke="none">
<path d="M2498 463 l-268 -3 0 -38 0 -38 -104 -13 c-60 -7 -107 -18 -109 -24
-3 -9 -258 -13 -1008 -17 l-1004 -5 -3 -158 -3 -157 531 0 530 0 0 65 0 65
1465 0 1465 0 5 23 c3 12 4 85 3 162 l-3 140 -615 0 c-338 0 -735 -1 -882 -2z"/>
</g>
</svg>
