<?xml version="1.0" standalone="no"?>
<!DOCTYPE svg PUBLIC "-//W3C//DTD SVG 20010904//EN"
 "http://www.w3.org/TR/2001/REC-SVG-20010904/DTD/svg10.dtd">
<svg version="1.0" xmlns="http://www.w3.org/2000/svg"
 width="401.000000pt" height="56.000000pt" viewBox="0 0 401.000000 56.000000"
 preserveAspectRatio="xMidYMid meet">
<metadata>
Created by potrace 1.15, written by Peter Selinger 2001-2017
</metadata>
<g transform="translate(0.000000,56.000000) scale(0.100000,-0.100000)"
fill="#000000" stroke="none">
<path d="M310 520 l0 -40 51 0 c31 0 48 -4 44 -10 -3 -5 -23 -10 -44 -10 -20
0 -41 -4 -47 -10 -5 -5 -77 -11 -159 -12 l-150 -3 -3 -135 c-4 -195 -15 -180
128 -180 73 0 120 -4 120 -10 0 -5 -18 -10 -40 -10 l-40 0 0 -50 0 -50 1920 0
1920 0 0 280 0 280 -1850 0 -1850 0 0 -40z"/>
</g>
</svg>
