<?xml version="1.0" standalone="no"?>
<!DOCTYPE svg PUBLIC "-//W3C//DTD SVG 20010904//EN"
 "http://www.w3.org/TR/2001/REC-SVG-20010904/DTD/svg10.dtd">
<svg version="1.0" xmlns="http://www.w3.org/2000/svg"
 width="400.000000pt" height="55.000000pt" viewBox="0 0 400.000000 55.000000"
 preserveAspectRatio="xMidYMid meet">
<metadata>
Created by potrace 1.15, written by Peter Selinger 2001-2017
</metadata>
<g transform="translate(0.000000,55.000000) scale(0.100000,-0.100000)"
fill="#000000" stroke="none">
<path d="M3134 525 c-4 -10 -20 -15 -50 -15 -24 0 -44 -4 -44 -10 0 -6 -28
-10 -65 -10 -49 0 -65 -3 -65 -14 0 -10 -20 -15 -77 -18 -48 -2 -78 -8 -81
-16 -3 -9 -179 -12 -780 -13 -427 -1 -1045 -5 -1372 -8 l-595 -6 -3 -37 -3
-38 68 -1 68 -1 -68 -15 -67 -16 0 -148 0 -149 1294 0 1294 0 6 31 c3 17 6 44
6 60 l0 29 700 0 700 0 0 205 0 205 -430 0 c-374 0 -431 -2 -436 -15z"/>
</g>
</svg>
