<?xml version="1.0" standalone="no"?>
<!DOCTYPE svg PUBLIC "-//W3C//DTD SVG 20010904//EN"
 "http://www.w3.org/TR/2001/REC-SVG-20010904/DTD/svg10.dtd">
<svg version="1.0" xmlns="http://www.w3.org/2000/svg"
 width="400.000000pt" height="116.000000pt" viewBox="0 0 400.000000 116.000000"
 preserveAspectRatio="xMidYMid meet">
<metadata>
Created by potrace 1.15, written by Peter Selinger 2001-2017
</metadata>
<g transform="translate(0.000000,116.000000) scale(0.100000,-0.100000)"
fill="#000000" stroke="none">
<path d="M300 1115 c0 -31 -3 -35 -25 -35 -16 0 -25 -6 -25 -15 0 -10 -11 -15
-35 -15 -35 0 -35 0 -35 -44 l0 -45 408 -5 c224 -4 586 -9 805 -12 239 -3 397
-9 397 -15 0 -5 -301 -9 -794 -9 -519 0 -797 -3 -801 -10 -3 -6 -48 -10 -101
-10 l-94 0 0 -95 0 -95 280 0 280 0 0 -40 0 -40 69 0 c52 0 70 -4 75 -15 5
-13 54 -15 348 -16 639 -3 1021 -13 1026 -26 3 -10 -40 -13 -190 -14 -106 -1
-288 -4 -404 -8 -182 -5 -215 -8 -231 -24 -11 -9 -32 -17 -46 -17 -15 0 -27
-4 -27 -9 0 -4 -34 -11 -75 -15 -41 -3 -109 -9 -150 -12 l-75 -7 0 -38 0 -39
114 0 c66 0 117 -4 121 -10 4 -6 97 -10 248 -10 292 0 659 -19 654 -34 -2 -6
-18 -12 -35 -14 -30 -3 -32 -6 -32 -43 l0 -39 1025 0 1025 0 0 100 0 100
-1010 0 c-891 0 -1010 2 -1010 15 0 13 69 15 560 15 l561 0 -3 103 -3 102
-612 3 c-529 2 -613 4 -613 17 0 11 20 15 93 17 l92 3 3 58 3 57 970 0 970 0
-3 103 -3 102 -1172 -2 -1173 -1 0 59 0 59 -675 0 -675 0 0 -35z"/>
<path d="M0 225 l0 -85 305 0 305 0 0 85 0 85 -305 0 -305 0 0 -85z"/>
<path d="M820 171 l0 -38 83 -6 c45 -4 164 -7 265 -7 l182 0 0 -39 c0 -34 4
-40 26 -45 15 -4 33 -14 41 -21 12 -13 118 -15 729 -15 l714 0 0 105 0 105
-1020 0 -1020 0 0 -39z"/>
</g>
</svg>
