<?xml version="1.0" standalone="no"?>
<!DOCTYPE svg PUBLIC "-//W3C//DTD SVG 20010904//EN"
 "http://www.w3.org/TR/2001/REC-SVG-20010904/DTD/svg10.dtd">
<svg version="1.0" xmlns="http://www.w3.org/2000/svg"
 width="276.000000pt" height="31.000000pt" viewBox="0 0 276.000000 31.000000"
 preserveAspectRatio="xMidYMid meet">
<metadata>
Created by potrace 1.15, written by Peter Selinger 2001-2017
</metadata>
<g transform="translate(0.000000,31.000000) scale(0.100000,-0.100000)"
fill="#000000" stroke="none">
<path d="M1863 303 c-57 -2 -103 -8 -103 -13 0 -6 -13 -10 -30 -10 -27 0 -30
-3 -30 -30 l0 -30 -60 0 c-47 0 -60 -3 -60 -15 0 -13 -59 -15 -467 -15 -258 0
-586 -3 -730 -7 l-263 -6 -6 -33 c-6 -32 -8 -33 -58 -36 l-51 -3 0 -40 c0 -37
2 -40 30 -43 17 -2 34 -8 39 -13 6 -5 281 -9 673 -9 l663 0 0 55 0 55 675 0
675 0 0 100 0 100 -397 -2 c-219 -1 -444 -4 -500 -5z"/>
</g>
</svg>
