<?xml version="1.0" standalone="no"?>
<!DOCTYPE svg PUBLIC "-//W3C//DTD SVG 20010904//EN"
 "http://www.w3.org/TR/2001/REC-SVG-20010904/DTD/svg10.dtd">
<svg version="1.0" xmlns="http://www.w3.org/2000/svg"
 width="154.000000pt" height="20.000000pt" viewBox="0 0 154.000000 20.000000"
 preserveAspectRatio="xMidYMid meet">
<metadata>
Created by potrace 1.15, written by Peter Selinger 2001-2017
</metadata>
<g transform="translate(0.000000,20.000000) scale(0.100000,-0.100000)"
fill="#000000" stroke="none">
<path d="M508 193 l-498 -3 0 -35 c0 -34 1 -35 43 -37 36 -1 38 -2 10 -5 -18
-2 -33 -8 -33 -14 0 -5 -7 -9 -15 -9 -11 0 -15 -11 -15 -40 l0 -40 770 0 771
0 -3 92 -3 93 -265 0 c-146 0 -489 -1 -762 -2z"/>
</g>
</svg>
