<?xml version="1.0" standalone="no"?>
<!DOCTYPE svg PUBLIC "-//W3C//DTD SVG 20010904//EN"
 "http://www.w3.org/TR/2001/REC-SVG-20010904/DTD/svg10.dtd">
<svg version="1.0" xmlns="http://www.w3.org/2000/svg"
 width="401.000000pt" height="31.000000pt" viewBox="0 0 401.000000 31.000000"
 preserveAspectRatio="xMidYMid meet">
<metadata>
Created by potrace 1.15, written by Peter Selinger 2001-2017
</metadata>
<g transform="translate(0.000000,31.000000) scale(0.100000,-0.100000)"
fill="#000000" stroke="none">
<path d="M3227 295 c-11 -11 -36 -15 -86 -15 -67 0 -71 -1 -77 -25 l-6 -25
-143 0 c-78 0 -157 -3 -174 -6 -28 -6 -31 -10 -31 -45 l0 -39 250 0 c160 0
250 -4 250 -10 0 -7 140 -10 400 -10 l401 0 -3 93 -3 92 -382 3 c-329 2 -383
0 -396 -13z"/>
<path d="M4 177 c-3 -8 -4 -49 -2 -93 l3 -79 104 -3 c77 -2 107 1 113 10 9 15
11 139 2 162 -5 13 -25 16 -110 16 -78 0 -106 -3 -110 -13z"/>
</g>
</svg>
