<?xml version="1.0" standalone="no"?>
<!DOCTYPE svg PUBLIC "-//W3C//DTD SVG 20010904//EN"
 "http://www.w3.org/TR/2001/REC-SVG-20010904/DTD/svg10.dtd">
<svg version="1.0" xmlns="http://www.w3.org/2000/svg"
 width="388.000000pt" height="33.000000pt" viewBox="0 0 388.000000 33.000000"
 preserveAspectRatio="xMidYMid meet">
<metadata>
Created by potrace 1.15, written by Peter Selinger 2001-2017
</metadata>
<g transform="translate(0.000000,33.000000) scale(0.100000,-0.100000)"
fill="#000000" stroke="none">
<path d="M2227 323 c-4 -3 -7 -21 -7 -39 0 -31 -1 -32 -63 -43 -35 -6 -136
-11 -225 -11 -137 0 -162 -2 -162 -15 0 -13 -64 -15 -513 -15 -324 0 -517 -4
-523 -10 -6 -6 -150 -11 -369 -12 l-360 -3 -3 -65 c-2 -35 0 -75 3 -87 l5 -23
1425 0 1425 0 0 65 0 65 510 0 511 0 -3 98 -3 97 -821 3 c-451 1 -824 -1 -827
-5z"/>
</g>
</svg>
