<?xml version="1.0" standalone="no"?>
<!DOCTYPE svg PUBLIC "-//W3C//DTD SVG 20010904//EN"
 "http://www.w3.org/TR/2001/REC-SVG-20010904/DTD/svg10.dtd">
<svg version="1.0" xmlns="http://www.w3.org/2000/svg"
 width="401.000000pt" height="59.000000pt" viewBox="0 0 401.000000 59.000000"
 preserveAspectRatio="xMidYMid meet">
<metadata>
Created by potrace 1.15, written by Peter Selinger 2001-2017
</metadata>
<g transform="translate(0.000000,59.000000) scale(0.100000,-0.100000)"
fill="#000000" stroke="none">
<path d="M1163 583 l-563 -3 0 -40 0 -40 43 -1 42 -1 -39 -8 c-21 -4 -41 -12
-45 -17 -3 -6 -123 -13 -296 -17 -160 -4 -294 -11 -298 -15 -4 -4 -7 -43 -5
-87 l3 -79 73 -3 c39 -2 72 -7 72 -12 0 -6 181 -10 478 -10 264 0 574 -3 690
-7 l211 -6 3 -31 3 -31 105 -3 c58 -1 109 -7 114 -12 6 -6 262 -10 673 -10
l663 0 0 55 0 55 330 0 330 0 0 60 0 59 128 3 127 3 3 103 3 102 -1143 -2
c-629 -2 -1396 -4 -1705 -5z"/>
<path d="M10 182 l0 -39 128 -6 c70 -4 198 -7 284 -7 136 0 157 -2 152 -15 -5
-13 -46 -15 -285 -15 l-279 0 0 -39 0 -40 113 -6 c61 -3 354 -8 650 -11 l537
-4 0 50 0 50 -75 0 -74 0 -3 58 -3 57 -572 3 -573 2 0 -38z"/>
</g>
</svg>
