<?xml version="1.0" standalone="no"?>
<!DOCTYPE svg PUBLIC "-//W3C//DTD SVG 20010904//EN"
 "http://www.w3.org/TR/2001/REC-SVG-20010904/DTD/svg10.dtd">
<svg version="1.0" xmlns="http://www.w3.org/2000/svg"
 width="401.000000pt" height="45.000000pt" viewBox="0 0 401.000000 45.000000"
 preserveAspectRatio="xMidYMid meet">
<metadata>
Created by potrace 1.15, written by Peter Selinger 2001-2017
</metadata>
<g transform="translate(0.000000,45.000000) scale(0.100000,-0.100000)"
fill="#000000" stroke="none">
<path d="M2060 411 c0 -38 0 -38 -46 -45 -26 -3 -134 -6 -241 -6 -163 0 -195
-2 -199 -15 -5 -13 -102 -15 -790 -15 l-784 0 0 -165 0 -165 1915 0 1915 0 0
65 0 65 90 0 90 0 0 160 0 160 -975 0 -975 0 0 -39z"/>
</g>
</svg>
