<?xml version="1.0" standalone="no"?>
<!DOCTYPE svg PUBLIC "-//W3C//DTD SVG 20010904//EN"
 "http://www.w3.org/TR/2001/REC-SVG-20010904/DTD/svg10.dtd">
<svg version="1.0" xmlns="http://www.w3.org/2000/svg"
 width="401.000000pt" height="94.000000pt" viewBox="0 0 401.000000 94.000000"
 preserveAspectRatio="xMidYMid meet">
<metadata>
Created by potrace 1.15, written by Peter Selinger 2001-2017
</metadata>
<g transform="translate(0.000000,94.000000) scale(0.100000,-0.100000)"
fill="#000000" stroke="none">
<path d="M2398 933 l-158 -4 0 -24 c0 -24 -2 -25 -69 -25 -78 0 -101 -6 -101
-26 0 -10 -15 -14 -58 -14 -33 0 -63 -5 -70 -12 -10 -10 -182 -14 -772 -16
l-760 -4 0 -39 c0 -39 0 -39 40 -39 22 0 40 -4 40 -10 0 -5 -24 -10 -54 -10
-49 0 -55 -2 -58 -22 -3 -23 -5 -23 -188 -28 l-185 -5 0 -70 0 -70 318 -3 317
-2 0 50 0 50 1685 0 1685 0 0 105 0 105 -365 0 -365 0 0 44 c0 82 31 76 -369
74 -196 -1 -427 -4 -513 -5z"/>
<path d="M1528 573 l-318 -3 0 -34 0 -34 123 -6 c233 -12 277 -17 277 -30 0
-11 -159 -14 -796 -18 -498 -3 -799 -9 -805 -15 -6 -6 -7 -85 -3 -216 l7 -207
589 0 588 0 0 65 0 65 1410 0 1410 0 0 220 0 220 -1082 -2 c-596 -2 -1226 -4
-1400 -5z"/>
</g>
</svg>
