<?xml version="1.0" standalone="no"?>
<!DOCTYPE svg PUBLIC "-//W3C//DTD SVG 20010904//EN"
 "http://www.w3.org/TR/2001/REC-SVG-20010904/DTD/svg10.dtd">
<svg version="1.0" xmlns="http://www.w3.org/2000/svg"
 width="401.000000pt" height="32.000000pt" viewBox="0 0 401.000000 32.000000"
 preserveAspectRatio="xMidYMid meet">
<metadata>
Created by potrace 1.15, written by Peter Selinger 2001-2017
</metadata>
<g transform="translate(0.000000,32.000000) scale(0.100000,-0.100000)"
fill="#000000" stroke="none">
<path d="M1388 313 l-998 -3 0 -40 c0 -40 0 -40 40 -40 22 0 40 -4 40 -9 0
-12 -106 -21 -265 -21 -78 0 -157 -3 -174 -6 l-31 -6 0 -89 0 -89 175 0 175 0
0 55 0 55 1830 0 1830 0 0 100 0 100 -812 -2 c-447 -2 -1262 -4 -1810 -5z"/>
</g>
</svg>
