<?xml version="1.0" standalone="no"?>
<!DOCTYPE svg PUBLIC "-//W3C//DTD SVG 20010904//EN"
 "http://www.w3.org/TR/2001/REC-SVG-20010904/DTD/svg10.dtd">
<svg version="1.0" xmlns="http://www.w3.org/2000/svg"
 width="160.000000pt" height="20.000000pt" viewBox="0 0 160.000000 20.000000"
 preserveAspectRatio="xMidYMid meet">
<metadata>
Created by potrace 1.15, written by Peter Selinger 2001-2017
</metadata>
<g transform="translate(0.000000,20.000000) scale(0.100000,-0.100000)"
fill="#000000" stroke="none">
<path d="M407 193 c-4 -3 -7 -21 -7 -40 l0 -33 -149 0 c-81 0 -169 -3 -195 -6
-46 -7 -46 -7 -46 -45 l0 -39 185 0 c117 0 185 -4 185 -10 0 -7 210 -10 610
-10 l611 0 -3 93 -3 92 -591 3 c-325 1 -594 -1 -597 -5z"/>
</g>
</svg>
