<?xml version="1.0" standalone="no"?>
<!DOCTYPE svg PUBLIC "-//W3C//DTD SVG 20010904//EN"
 "http://www.w3.org/TR/2001/REC-SVG-20010904/DTD/svg10.dtd">
<svg version="1.0" xmlns="http://www.w3.org/2000/svg"
 width="401.000000pt" height="97.000000pt" viewBox="0 0 401.000000 97.000000"
 preserveAspectRatio="xMidYMid meet">
<metadata>
Created by potrace 1.15, written by Peter Selinger 2001-2017
</metadata>
<g transform="translate(0.000000,97.000000) scale(0.100000,-0.100000)"
fill="#000000" stroke="none">
<path d="M440 920 l0 -40 83 -2 c50 -1 65 -3 37 -5 -25 -3 -49 -8 -54 -14 -6
-5 -111 -9 -242 -9 -128 0 -239 -3 -248 -6 -14 -5 -16 -52 -16 -425 l0 -419
1614 0 1614 0 6 23 c3 12 6 37 6 54 l0 33 383 2 382 3 3 423 2 422 -1785 0
-1785 0 0 -40z"/>
</g>
</svg>
