<?xml version="1.0" standalone="no"?>
<!DOCTYPE svg PUBLIC "-//W3C//DTD SVG 20010904//EN"
 "http://www.w3.org/TR/2001/REC-SVG-20010904/DTD/svg10.dtd">
<svg version="1.0" xmlns="http://www.w3.org/2000/svg"
 width="401.000000pt" height="117.000000pt" viewBox="0 0 401.000000 117.000000"
 preserveAspectRatio="xMidYMid meet">
<metadata>
Created by potrace 1.15, written by Peter Selinger 2001-2017
</metadata>
<g transform="translate(0.000000,117.000000) scale(0.100000,-0.100000)"
fill="#000000" stroke="none">
<path d="M563 1163 l-253 -3 0 -55 0 -55 -150 0 c-174 0 -163 8 -158 -120 l3
-75 30 -3 c52 -5 60 -11 39 -27 -10 -8 -29 -15 -41 -15 -20 0 -23 -5 -23 -45
0 -45 0 -45 35 -45 19 0 35 -4 35 -10 0 -5 -16 -10 -35 -10 -35 0 -35 0 -35
-44 0 -47 9 -56 58 -56 35 0 15 -20 -30 -29 l-33 -7 0 -274 0 -275 423 -3 422
-2 0 60 0 60 1580 0 1580 0 0 520 0 520 -1597 -2 c-879 -2 -1712 -4 -1850 -5z"/>
</g>
</svg>
