<?xml version="1.0" standalone="no"?>
<!DOCTYPE svg PUBLIC "-//W3C//DTD SVG 20010904//EN"
 "http://www.w3.org/TR/2001/REC-SVG-20010904/DTD/svg10.dtd">
<svg version="1.0" xmlns="http://www.w3.org/2000/svg"
 width="401.000000pt" height="45.000000pt" viewBox="0 0 401.000000 45.000000"
 preserveAspectRatio="xMidYMid meet">
<metadata>
Created by potrace 1.15, written by Peter Selinger 2001-2017
</metadata>
<g transform="translate(0.000000,45.000000) scale(0.100000,-0.100000)"
fill="#000000" stroke="none">
<path d="M310 405 l0 -35 73 -2 c40 -1 55 -3 35 -5 -21 -2 -38 -8 -38 -14 0
-5 -15 -9 -34 -9 -19 0 -38 -4 -41 -10 -4 -6 -67 -10 -156 -10 l-149 0 0 -160
0 -160 1965 0 1965 0 0 60 0 60 40 0 40 0 0 160 0 160 -1850 0 -1850 0 0 -35z"/>
</g>
</svg>
