<?xml version="1.0" standalone="no"?>
<!DOCTYPE svg PUBLIC "-//W3C//DTD SVG 20010904//EN"
 "http://www.w3.org/TR/2001/REC-SVG-20010904/DTD/svg10.dtd">
<svg version="1.0" xmlns="http://www.w3.org/2000/svg"
 width="402.000000pt" height="45.000000pt" viewBox="0 0 402.000000 45.000000"
 preserveAspectRatio="xMidYMid meet">
<metadata>
Created by potrace 1.15, written by Peter Selinger 2001-2017
</metadata>
<g transform="translate(0.000000,45.000000) scale(0.100000,-0.100000)"
fill="#000000" stroke="none">
<path d="M2330 412 l0 -39 -97 -6 c-54 -4 -173 -7 -265 -7 -143 0 -168 -2
-168 -15 0 -13 -107 -15 -900 -15 l-901 0 3 -102 3 -103 57 -3 c43 -2 58 -7
58 -17 0 -8 4 -15 9 -15 6 0 11 -17 13 -37 l3 -38 345 -8 c190 -4 351 -5 358
-2 7 3 12 25 12 60 l0 55 1578 2 1577 3 0 160 0 160 -842 3 -843 2 0 -38z"/>
</g>
</svg>
