<?xml version="1.0" standalone="no"?>
<!DOCTYPE svg PUBLIC "-//W3C//DTD SVG 20010904//EN"
 "http://www.w3.org/TR/2001/REC-SVG-20010904/DTD/svg10.dtd">
<svg version="1.0" xmlns="http://www.w3.org/2000/svg"
 width="79.000000pt" height="21.000000pt" viewBox="0 0 79.000000 21.000000"
 preserveAspectRatio="xMidYMid meet">
<metadata>
Created by potrace 1.15, written by Peter Selinger 2001-2017
</metadata>
<g transform="translate(0.000000,21.000000) scale(0.100000,-0.100000)"
fill="#000000" stroke="none">
<path d="M283 203 l-143 -4 0 -24 c0 -22 -4 -25 -40 -25 -28 0 -40 -4 -40 -14
0 -8 -14 -17 -30 -21 -27 -6 -30 -10 -30 -46 l0 -39 64 0 c48 0 65 -4 70 -15
5 -13 51 -15 331 -15 l325 0 0 89 c0 49 -3 96 -6 105 -6 17 -72 18 -501 9z"/>
</g>
</svg>
