<?xml version="1.0" standalone="no"?>
<!DOCTYPE svg PUBLIC "-//W3C//DTD SVG 20010904//EN"
 "http://www.w3.org/TR/2001/REC-SVG-20010904/DTD/svg10.dtd">
<svg version="1.0" xmlns="http://www.w3.org/2000/svg"
 width="400.000000pt" height="32.000000pt" viewBox="0 0 400.000000 32.000000"
 preserveAspectRatio="xMidYMid meet">
<metadata>
Created by potrace 1.15, written by Peter Selinger 2001-2017
</metadata>
<g transform="translate(0.000000,32.000000) scale(0.100000,-0.100000)"
fill="#000000" stroke="none">
<path d="M3418 313 c-13 -3 -18 -15 -18 -39 0 -24 6 -37 18 -42 41 -17 -119
-25 -565 -29 l-473 -3 0 -40 0 -40 810 0 810 0 0 100 0 100 -282 -1 c-156 -1
-291 -3 -300 -6z"/>
<path d="M0 95 l0 -95 485 0 485 0 0 95 0 95 -485 0 -485 0 0 -95z"/>
</g>
</svg>
