<?xml version="1.0" standalone="no"?>
<!DOCTYPE svg PUBLIC "-//W3C//DTD SVG 20010904//EN"
 "http://www.w3.org/TR/2001/REC-SVG-20010904/DTD/svg10.dtd">
<svg version="1.0" xmlns="http://www.w3.org/2000/svg"
 width="91.000000pt" height="20.000000pt" viewBox="0 0 91.000000 20.000000"
 preserveAspectRatio="xMidYMid meet">
<metadata>
Created by potrace 1.15, written by Peter Selinger 2001-2017
</metadata>
<g transform="translate(0.000000,20.000000) scale(0.100000,-0.100000)"
fill="#000000" stroke="none">
<path d="M265 190 c-80 -18 -95 -23 -95 -31 0 -5 -36 -9 -80 -9 l-80 0 0 -40
c0 -22 5 -40 10 -40 6 0 10 -9 10 -20 0 -19 7 -20 90 -20 53 0 90 -4 90 -10 0
-6 123 -10 350 -10 l350 0 0 90 0 90 -78 0 c-43 0 -180 2 -303 5 -123 2 -242
0 -264 -5z"/>
</g>
</svg>
