<?xml version="1.0" standalone="no"?>
<!DOCTYPE svg PUBLIC "-//W3C//DTD SVG 20010904//EN"
 "http://www.w3.org/TR/2001/REC-SVG-20010904/DTD/svg10.dtd">
<svg version="1.0" xmlns="http://www.w3.org/2000/svg"
 width="372.000000pt" height="71.000000pt" viewBox="0 0 372.000000 71.000000"
 preserveAspectRatio="xMidYMid meet">
<metadata>
Created by potrace 1.15, written by Peter Selinger 2001-2017
</metadata>
<g transform="translate(0.000000,71.000000) scale(0.100000,-0.100000)"
fill="#000000" stroke="none">
<path d="M0 665 l0 -35 73 -2 c39 0 57 -3 40 -5 -18 -2 -33 -8 -33 -14 0 -5
-18 -9 -40 -9 l-40 0 0 -288 0 -289 707 -6 c388 -4 1171 -7 1739 -7 932 0
1032 2 1038 16 3 9 6 36 6 60 l0 44 115 0 115 0 0 285 0 285 -1860 0 -1860 0
0 -35z"/>
</g>
</svg>
