<?xml version="1.0" standalone="no"?>
<!DOCTYPE svg PUBLIC "-//W3C//DTD SVG 20010904//EN"
 "http://www.w3.org/TR/2001/REC-SVG-20010904/DTD/svg10.dtd">
<svg version="1.0" xmlns="http://www.w3.org/2000/svg"
 width="401.000000pt" height="46.000000pt" viewBox="0 0 401.000000 46.000000"
 preserveAspectRatio="xMidYMid meet">
<metadata>
Created by potrace 1.15, written by Peter Selinger 2001-2017
</metadata>
<g transform="translate(0.000000,46.000000) scale(0.100000,-0.100000)"
fill="#000000" stroke="none">
<path d="M3310 416 c0 -33 -1 -34 -47 -40 -27 -3 -145 -8 -263 -12 -137 -4
-220 -10 -229 -18 -10 -8 -343 -13 -1230 -17 -669 -4 -1289 -7 -1378 -8 l-163
-1 0 -144 c0 -79 3 -151 6 -160 6 -14 81 -16 749 -16 668 0 743 2 749 16 3 9
6 38 6 65 l0 49 1248 2 1247 3 3 158 3 157 -351 0 -350 0 0 -34z"/>
</g>
</svg>
