<?xml version="1.0" standalone="no"?>
<!DOCTYPE svg PUBLIC "-//W3C//DTD SVG 20010904//EN"
 "http://www.w3.org/TR/2001/REC-SVG-20010904/DTD/svg10.dtd">
<svg version="1.0" xmlns="http://www.w3.org/2000/svg"
 width="400.000000pt" height="32.000000pt" viewBox="0 0 400.000000 32.000000"
 preserveAspectRatio="xMidYMid meet">
<metadata>
Created by potrace 1.15, written by Peter Selinger 2001-2017
</metadata>
<g transform="translate(0.000000,32.000000) scale(0.100000,-0.100000)"
fill="#000000" stroke="none">
<path d="M2830 310 l-885 -5 -3 -42 c-2 -26 1 -43 7 -43 6 0 11 -4 11 -10 0
-6 -82 -10 -225 -10 l-225 0 0 -40 0 -40 1245 0 1246 0 -3 98 -3 97 -140 0
c-77 0 -538 -2 -1025 -5z"/>
<path d="M20 142 c0 -29 -4 -52 -10 -52 -5 0 -10 -20 -10 -45 l0 -45 600 0
600 0 0 90 0 90 -387 0 c-214 0 -479 3 -590 7 l-203 6 0 -51z"/>
</g>
</svg>
