<?xml version="1.0" standalone="no"?>
<!DOCTYPE svg PUBLIC "-//W3C//DTD SVG 20010904//EN"
 "http://www.w3.org/TR/2001/REC-SVG-20010904/DTD/svg10.dtd">
<svg version="1.0" xmlns="http://www.w3.org/2000/svg"
 width="401.000000pt" height="46.000000pt" viewBox="0 0 401.000000 46.000000"
 preserveAspectRatio="xMidYMid meet">
<metadata>
Created by potrace 1.15, written by Peter Selinger 2001-2017
</metadata>
<g transform="translate(0.000000,46.000000) scale(0.100000,-0.100000)"
fill="#000000" stroke="none">
<path d="M1555 449 c-418 -3 -869 -7 -1002 -8 l-243 -1 0 -35 c0 -34 2 -35 38
-36 26 -1 30 -3 13 -6 -13 -3 -31 -11 -38 -19 -11 -11 -49 -14 -169 -14 l-154
0 0 -165 0 -165 275 0 275 0 0 65 0 65 1728 2 1727 3 3 163 2 162 -847 -2
c-467 -1 -1190 -5 -1608 -9z"/>
</g>
</svg>
