<?xml version="1.0" standalone="no"?>
<!DOCTYPE svg PUBLIC "-//W3C//DTD SVG 20010904//EN"
 "http://www.w3.org/TR/2001/REC-SVG-20010904/DTD/svg10.dtd">
<svg version="1.0" xmlns="http://www.w3.org/2000/svg"
 width="402.000000pt" height="106.000000pt" viewBox="0 0 402.000000 106.000000"
 preserveAspectRatio="xMidYMid meet">
<metadata>
Created by potrace 1.15, written by Peter Selinger 2001-2017
</metadata>
<g transform="translate(0.000000,106.000000) scale(0.100000,-0.100000)"
fill="#000000" stroke="none">
<path d="M1470 1049 c-476 -3 -907 -7 -957 -8 l-93 -1 0 -39 c0 -41 -13 -51
-71 -51 -14 0 -29 -4 -35 -10 -5 -5 -77 -11 -159 -12 l-150 -3 -3 -105 c-2
-58 0 -129 3 -157 l6 -53 110 0 c66 0 109 -4 109 -10 0 -5 -16 -10 -35 -10
-19 0 -35 -4 -35 -10 0 -6 -32 -10 -75 -10 l-75 0 0 -280 0 -280 574 0 c642 0
586 -7 586 76 l0 44 1423 2 1422 3 0 460 0 460 -840 1 c-462 0 -1229 -3 -1705
-7z"/>
</g>
</svg>
