<?xml version="1.0" standalone="no"?>
<!DOCTYPE svg PUBLIC "-//W3C//DTD SVG 20010904//EN"
 "http://www.w3.org/TR/2001/REC-SVG-20010904/DTD/svg10.dtd">
<svg version="1.0" xmlns="http://www.w3.org/2000/svg"
 width="403.000000pt" height="213.000000pt" viewBox="0 0 403.000000 213.000000"
 preserveAspectRatio="xMidYMid meet">
<metadata>
Created by potrace 1.15, written by Peter Selinger 2001-2017
</metadata>
<g transform="translate(0.000000,213.000000) scale(0.100000,-0.100000)"
fill="#000000" stroke="none">
<path d="M320 2085 l0 -35 113 -2 112 -1 -75 -8 c-41 -4 -95 -12 -120 -17 -25
-6 -111 -11 -191 -12 -124 0 -148 -2 -153 -16 -3 -9 -6 -459 -6 -1000 l0 -984
90 0 90 0 0 53 0 52 1922 0 1923 0 3 1003 2 1002 -1855 0 -1855 0 0 -35z"/>
</g>
</svg>
