<?xml version="1.0" standalone="no"?>
<!DOCTYPE svg PUBLIC "-//W3C//DTD SVG 20010904//EN"
 "http://www.w3.org/TR/2001/REC-SVG-20010904/DTD/svg10.dtd">
<svg version="1.0" xmlns="http://www.w3.org/2000/svg"
 width="402.000000pt" height="34.000000pt" viewBox="0 0 402.000000 34.000000"
 preserveAspectRatio="xMidYMid meet">
<metadata>
Created by potrace 1.15, written by Peter Selinger 2001-2017
</metadata>
<g transform="translate(0.000000,34.000000) scale(0.100000,-0.100000)"
fill="#000000" stroke="none">
<path d="M803 323 l-463 -3 0 -35 0 -35 73 -1 c71 -1 72 -1 23 -9 -26 -5 -55
-12 -65 -16 -9 -4 -95 -10 -191 -13 l-175 -6 -3 -97 -3 -98 1016 0 1015 0 0
60 0 60 995 0 995 0 0 100 0 100 -1377 -2 c-758 -2 -1586 -4 -1840 -5z"/>
</g>
</svg>
