<?xml version="1.0" standalone="no"?>
<!DOCTYPE svg PUBLIC "-//W3C//DTD SVG 20010904//EN"
 "http://www.w3.org/TR/2001/REC-SVG-20010904/DTD/svg10.dtd">
<svg version="1.0" xmlns="http://www.w3.org/2000/svg"
 width="120.000000pt" height="22.000000pt" viewBox="0 0 120.000000 22.000000"
 preserveAspectRatio="xMidYMid meet">
<metadata>
Created by potrace 1.15, written by Peter Selinger 2001-2017
</metadata>
<g transform="translate(0.000000,22.000000) scale(0.100000,-0.100000)"
fill="#000000" stroke="none">
<path d="M67 213 c-4 -3 -7 -17 -7 -30 0 -12 -4 -23 -10 -23 -5 0 -10 -6 -10
-14 0 -8 -7 -16 -15 -20 -22 -8 -20 -75 3 -83 9 -4 23 -13 30 -20 11 -11 122
-13 575 -11 l562 3 3 70 c2 39 0 85 -3 103 l-6 32 -558 0 c-307 0 -561 -3
-564 -7z"/>
</g>
</svg>
