<?xml version="1.0" standalone="no"?>
<!DOCTYPE svg PUBLIC "-//W3C//DTD SVG 20010904//EN"
 "http://www.w3.org/TR/2001/REC-SVG-20010904/DTD/svg10.dtd">
<svg version="1.0" xmlns="http://www.w3.org/2000/svg"
 width="392.000000pt" height="42.000000pt" viewBox="0 0 392.000000 42.000000"
 preserveAspectRatio="xMidYMid meet">
<metadata>
Created by potrace 1.15, written by Peter Selinger 2001-2017
</metadata>
<g transform="translate(0.000000,42.000000) scale(0.100000,-0.100000)"
fill="#000000" stroke="none">
<path d="M1730 405 c0 -11 -11 -15 -40 -15 -36 0 -40 -2 -40 -25 0 -24 -3 -25
-54 -25 -64 0 -86 -7 -86 -26 0 -12 -60 -14 -370 -14 l-370 0 0 -39 c0 -37 2
-39 38 -45 20 -3 176 -7 347 -8 l310 -2 -270 -7 c-148 -3 -476 -10 -727 -14
l-458 -8 0 -39 0 -38 350 0 350 0 0 -35 0 -35 130 0 c109 0 130 -2 130 -15 0
-13 77 -15 635 -15 l635 0 0 55 0 55 840 0 840 0 0 100 0 100 -549 0 -550 0
-3 53 -3 52 -542 3 c-479 2 -543 0 -543 -13z"/>
</g>
</svg>
