<?xml version="1.0" standalone="no"?>
<!DOCTYPE svg PUBLIC "-//W3C//DTD SVG 20010904//EN"
 "http://www.w3.org/TR/2001/REC-SVG-20010904/DTD/svg10.dtd">
<svg version="1.0" xmlns="http://www.w3.org/2000/svg"
 width="401.000000pt" height="190.000000pt" viewBox="0 0 401.000000 190.000000"
 preserveAspectRatio="xMidYMid meet">
<metadata>
Created by potrace 1.15, written by Peter Selinger 2001-2017
</metadata>
<g transform="translate(0.000000,190.000000) scale(0.100000,-0.100000)"
fill="#000000" stroke="none">
<path d="M1698 1883 l-1388 -3 0 -35 0 -35 83 -2 c45 -1 63 -3 40 -5 -24 -2
-43 -8 -43 -14 0 -5 -18 -9 -40 -9 -22 0 -40 -4 -40 -10 0 -6 -58 -10 -155
-10 l-155 0 0 -875 0 -875 1445 0 1445 0 0 60 0 60 560 0 560 0 0 880 0 880
-462 -2 c-255 -2 -1087 -4 -1850 -5z"/>
</g>
</svg>
