<?xml version="1.0" standalone="no"?>
<!DOCTYPE svg PUBLIC "-//W3C//DTD SVG 20010904//EN"
 "http://www.w3.org/TR/2001/REC-SVG-20010904/DTD/svg10.dtd">
<svg version="1.0" xmlns="http://www.w3.org/2000/svg"
 width="299.000000pt" height="46.000000pt" viewBox="0 0 299.000000 46.000000"
 preserveAspectRatio="xMidYMid meet">
<metadata>
Created by potrace 1.15, written by Peter Selinger 2001-2017
</metadata>
<g transform="translate(0.000000,46.000000) scale(0.100000,-0.100000)"
fill="#000000" stroke="none">
<path d="M2055 450 c-165 -4 -310 -8 -322 -9 -19 -1 -23 -7 -23 -34 l0 -34
-167 -7 c-139 -5 -170 -9 -180 -23 -12 -15 -75 -17 -675 -22 -365 -4 -669 -10
-675 -14 -19 -12 -17 -77 2 -77 12 0 15 -19 15 -110 l0 -110 603 2 602 3 0 63
0 62 872 0 872 0 7 56 c6 54 -2 240 -12 256 -6 9 -464 8 -919 -2z"/>
</g>
</svg>
