<?xml version="1.0" standalone="no"?>
<!DOCTYPE svg PUBLIC "-//W3C//DTD SVG 20010904//EN"
 "http://www.w3.org/TR/2001/REC-SVG-20010904/DTD/svg10.dtd">
<svg version="1.0" xmlns="http://www.w3.org/2000/svg"
 width="401.000000pt" height="34.000000pt" viewBox="0 0 401.000000 34.000000"
 preserveAspectRatio="xMidYMid meet">
<metadata>
Created by potrace 1.15, written by Peter Selinger 2001-2017
</metadata>
<g transform="translate(0.000000,34.000000) scale(0.100000,-0.100000)"
fill="#000000" stroke="none">
<path d="M2205 330 l-1430 -5 0 -40 c0 -33 4 -40 25 -46 15 -4 -5 -7 -53 -8
-70 -1 -79 -3 -84 -21 -5 -19 -14 -20 -335 -20 l-329 0 3 -92 3 -93 1491 -3
1491 -2 7 37 c3 21 6 50 6 66 l0 27 505 0 505 0 0 105 0 105 -187 -2 c-104 -2
-831 -5 -1618 -8z"/>
</g>
</svg>
