<?xml version="1.0" standalone="no"?>
<!DOCTYPE svg PUBLIC "-//W3C//DTD SVG 20010904//EN"
 "http://www.w3.org/TR/2001/REC-SVG-20010904/DTD/svg10.dtd">
<svg version="1.0" xmlns="http://www.w3.org/2000/svg"
 width="403.000000pt" height="33.000000pt" viewBox="0 0 403.000000 33.000000"
 preserveAspectRatio="xMidYMid meet">
<metadata>
Created by potrace 1.15, written by Peter Selinger 2001-2017
</metadata>
<g transform="translate(0.000000,33.000000) scale(0.100000,-0.100000)"
fill="#000000" stroke="none">
<path d="M3788 320 c-6 -19 -79 -30 -211 -30 -120 0 -129 -1 -134 -20 -5 -17
-14 -20 -68 -20 -42 0 -68 -5 -78 -14 -12 -13 -134 -15 -802 -18 -620 -2 -789
-6 -793 -16 -3 -9 -181 -12 -847 -12 l-842 0 -7 -38 c-3 -20 -6 -61 -6 -89 l0
-53 1050 0 1050 0 0 55 0 55 965 0 966 0 -3 103 -3 102 -117 3 c-77 2 -117 -1
-120 -8z"/>
</g>
</svg>
