<?xml version="1.0" standalone="no"?>
<!DOCTYPE svg PUBLIC "-//W3C//DTD SVG 20010904//EN"
 "http://www.w3.org/TR/2001/REC-SVG-20010904/DTD/svg10.dtd">
<svg version="1.0" xmlns="http://www.w3.org/2000/svg"
 width="401.000000pt" height="32.000000pt" viewBox="0 0 401.000000 32.000000"
 preserveAspectRatio="xMidYMid meet">
<metadata>
Created by potrace 1.15, written by Peter Selinger 2001-2017
</metadata>
<g transform="translate(0.000000,32.000000) scale(0.100000,-0.100000)"
fill="#000000" stroke="none">
<path d="M1790 275 l0 -34 78 -4 77 -3 -95 -2 c-61 -1 -101 -7 -108 -14 -10
-10 -202 -14 -873 -16 l-859 -4 -6 -22 c-3 -12 -4 -53 -2 -91 l3 -70 838 -3
837 -2 0 55 0 55 1165 0 1165 0 0 95 0 95 -1110 0 -1110 0 0 -35z"/>
</g>
</svg>
