<?xml version="1.0" standalone="no"?>
<!DOCTYPE svg PUBLIC "-//W3C//DTD SVG 20010904//EN"
 "http://www.w3.org/TR/2001/REC-SVG-20010904/DTD/svg10.dtd">
<svg version="1.0" xmlns="http://www.w3.org/2000/svg"
 width="400.000000pt" height="45.000000pt" viewBox="0 0 400.000000 45.000000"
 preserveAspectRatio="xMidYMid meet">
<metadata>
Created by potrace 1.15, written by Peter Selinger 2001-2017
</metadata>
<g transform="translate(0.000000,45.000000) scale(0.100000,-0.100000)"
fill="#000000" stroke="none">
<path d="M2137 443 c-4 -3 -7 -21 -7 -38 l0 -32 -100 -12 c-56 -6 -139 -11
-185 -11 -69 0 -85 -3 -85 -15 0 -13 -104 -15 -874 -15 -788 0 -874 -2 -880
-16 -9 -23 -7 -277 2 -292 7 -10 251 -12 1188 -10 l1179 3 3 62 3 63 807 2
807 3 3 158 3 157 -929 0 c-511 0 -932 -3 -935 -7z"/>
</g>
</svg>
