<?xml version="1.0" standalone="no"?>
<!DOCTYPE svg PUBLIC "-//W3C//DTD SVG 20010904//EN"
 "http://www.w3.org/TR/2001/REC-SVG-20010904/DTD/svg10.dtd">
<svg version="1.0" xmlns="http://www.w3.org/2000/svg"
 width="401.000000pt" height="46.000000pt" viewBox="0 0 401.000000 46.000000"
 preserveAspectRatio="xMidYMid meet">
<metadata>
Created by potrace 1.15, written by Peter Selinger 2001-2017
</metadata>
<g transform="translate(0.000000,46.000000) scale(0.100000,-0.100000)"
fill="#000000" stroke="none">
<path d="M1283 453 l-543 -3 0 -38 c0 -32 -5 -41 -25 -50 -14 -6 -25 -16 -25
-22 0 -6 -49 -10 -133 -10 -74 0 -229 -3 -345 -7 l-212 -6 0 -154 0 -153 223
2 222 3 3 63 3 62 1780 0 1780 0 -3 158 -3 157 -1090 0 c-599 0 -1334 -1
-1632 -2z"/>
</g>
</svg>
