<?xml version="1.0" standalone="no"?>
<!DOCTYPE svg PUBLIC "-//W3C//DTD SVG 20010904//EN"
 "http://www.w3.org/TR/2001/REC-SVG-20010904/DTD/svg10.dtd">
<svg version="1.0" xmlns="http://www.w3.org/2000/svg"
 width="401.000000pt" height="31.000000pt" viewBox="0 0 401.000000 31.000000"
 preserveAspectRatio="xMidYMid meet">
<metadata>
Created by potrace 1.15, written by Peter Selinger 2001-2017
</metadata>
<g transform="translate(0.000000,31.000000) scale(0.100000,-0.100000)"
fill="#000000" stroke="none">
<path d="M557 303 c-4 -3 -7 -21 -7 -40 0 -30 -3 -33 -29 -33 -16 0 -31 -6
-33 -12 -4 -10 -64 -14 -247 -16 l-242 -4 3 -96 3 -97 387 -3 387 -2 7 60 7
60 1608 0 1609 0 0 95 0 95 -1723 0 c-948 0 -1727 -3 -1730 -7z"/>
</g>
</svg>
