<?xml version="1.0" standalone="no"?>
<!DOCTYPE svg PUBLIC "-//W3C//DTD SVG 20010904//EN"
 "http://www.w3.org/TR/2001/REC-SVG-20010904/DTD/svg10.dtd">
<svg version="1.0" xmlns="http://www.w3.org/2000/svg"
 width="402.000000pt" height="46.000000pt" viewBox="0 0 402.000000 46.000000"
 preserveAspectRatio="xMidYMid meet">
<metadata>
Created by potrace 1.15, written by Peter Selinger 2001-2017
</metadata>
<g transform="translate(0.000000,46.000000) scale(0.100000,-0.100000)"
fill="#000000" stroke="none">
<path d="M1055 450 l-660 -5 -3 -37 c-2 -21 -8 -38 -14 -38 -6 0 -17 -8 -24
-17 -11 -16 -34 -18 -184 -21 l-171 -3 3 -97 3 -97 115 -3 c63 -1 119 -7 124
-12 7 -7 -5 -10 -33 -10 l-42 0 3 -52 3 -53 1923 -3 1922 -2 0 223 0 224 -547
6 c-559 7 -1243 6 -2418 -3z"/>
</g>
</svg>
