<?xml version="1.0" standalone="no"?>
<!DOCTYPE svg PUBLIC "-//W3C//DTD SVG 20010904//EN"
 "http://www.w3.org/TR/2001/REC-SVG-20010904/DTD/svg10.dtd">
<svg version="1.0" xmlns="http://www.w3.org/2000/svg"
 width="400.000000pt" height="45.000000pt" viewBox="0 0 400.000000 45.000000"
 preserveAspectRatio="xMidYMid meet">
<metadata>
Created by potrace 1.15, written by Peter Selinger 2001-2017
</metadata>
<g transform="translate(0.000000,45.000000) scale(0.100000,-0.100000)"
fill="#000000" stroke="none">
<path d="M988 443 l-468 -3 0 -35 c0 -33 1 -34 48 -38 36 -2 29 -4 -26 -5 -54
-2 -74 -6 -78 -17 -5 -13 -41 -15 -235 -15 l-229 0 0 -165 0 -165 175 0 175 0
0 65 0 65 1825 0 1825 0 0 160 0 160 -1272 -2 c-700 -2 -1483 -4 -1740 -5z"/>
</g>
</svg>
