<?xml version="1.0" standalone="no"?>
<!DOCTYPE svg PUBLIC "-//W3C//DTD SVG 20010904//EN"
 "http://www.w3.org/TR/2001/REC-SVG-20010904/DTD/svg10.dtd">
<svg version="1.0" xmlns="http://www.w3.org/2000/svg"
 width="219.000000pt" height="24.000000pt" viewBox="0 0 219.000000 24.000000"
 preserveAspectRatio="xMidYMid meet">
<metadata>
Created by potrace 1.15, written by Peter Selinger 2001-2017
</metadata>
<g transform="translate(0.000000,24.000000) scale(0.100000,-0.100000)"
fill="#000000" stroke="none">
<path d="M1580 215 c-7 -8 -34 -18 -61 -21 -39 -5 -49 -10 -49 -25 0 -18 -10
-19 -130 -19 -102 0 -130 -3 -130 -13 0 -11 -81 -15 -427 -20 -236 -4 -502 -7
-592 -7 -185 0 -190 -2 -191 -74 l0 -39 217 6 c120 4 334 7 476 7 222 0 257 2
257 15 0 13 76 15 620 15 l620 0 0 95 0 95 -299 0 c-251 0 -300 -2 -311 -15z"/>
</g>
</svg>
