<?xml version="1.0" standalone="no"?>
<!DOCTYPE svg PUBLIC "-//W3C//DTD SVG 20010904//EN"
 "http://www.w3.org/TR/2001/REC-SVG-20010904/DTD/svg10.dtd">
<svg version="1.0" xmlns="http://www.w3.org/2000/svg"
 width="402.000000pt" height="81.000000pt" viewBox="0 0 402.000000 81.000000"
 preserveAspectRatio="xMidYMid meet">
<metadata>
Created by potrace 1.15, written by Peter Selinger 2001-2017
</metadata>
<g transform="translate(0.000000,81.000000) scale(0.100000,-0.100000)"
fill="#000000" stroke="none">
<path d="M1258 803 l-938 -3 0 -35 0 -35 88 -2 c52 -1 68 -3 39 -5 -26 -2 -47
-8 -47 -14 0 -5 -18 -9 -39 -9 -22 0 -43 -4 -46 -10 -4 -6 -69 -10 -161 -10
l-155 0 3 -97 3 -98 50 -5 c41 -4 46 -6 25 -12 -14 -4 -37 -8 -53 -8 l-27 0 2
-227 3 -228 898 -3 897 -2 0 65 0 65 1110 0 1110 0 0 220 0 220 -95 0 c-78 0
-95 3 -95 15 0 12 17 15 95 15 l95 0 0 105 0 105 -912 -2 c-502 -2 -1335 -4
-1850 -5z"/>
</g>
</svg>
