<?xml version="1.0" standalone="no"?>
<!DOCTYPE svg PUBLIC "-//W3C//DTD SVG 20010904//EN"
 "http://www.w3.org/TR/2001/REC-SVG-20010904/DTD/svg10.dtd">
<svg version="1.0" xmlns="http://www.w3.org/2000/svg"
 width="401.000000pt" height="35.000000pt" viewBox="0 0 401.000000 35.000000"
 preserveAspectRatio="xMidYMid meet">
<metadata>
Created by potrace 1.15, written by Peter Selinger 2001-2017
</metadata>
<g transform="translate(0.000000,35.000000) scale(0.100000,-0.100000)"
fill="#000000" stroke="none">
<path d="M3233 343 l-333 -3 0 -26 c0 -45 -18 -52 -173 -63 -80 -6 -160 -11
-176 -11 -29 0 -31 -2 -31 -39 l0 -39 165 -7 c91 -4 165 -11 165 -16 0 -5 254
-9 580 -9 l581 0 -3 108 -3 107 -220 0 c-121 0 -370 -1 -552 -2z"/>
<path d="M0 121 c0 -49 3 -96 6 -105 5 -14 53 -16 434 -16 381 0 429 2 434 16
8 20 8 158 0 178 -5 14 -54 16 -440 16 l-434 0 0 -89z"/>
</g>
</svg>
