<?xml version="1.0" standalone="no"?>
<!DOCTYPE svg PUBLIC "-//W3C//DTD SVG 20010904//EN"
 "http://www.w3.org/TR/2001/REC-SVG-20010904/DTD/svg10.dtd">
<svg version="1.0" xmlns="http://www.w3.org/2000/svg"
 width="401.000000pt" height="60.000000pt" viewBox="0 0 401.000000 60.000000"
 preserveAspectRatio="xMidYMid meet">
<metadata>
Created by potrace 1.15, written by Peter Selinger 2001-2017
</metadata>
<g transform="translate(0.000000,60.000000) scale(0.100000,-0.100000)"
fill="#000000" stroke="none">
<path d="M1715 589 c-600 -3 -1141 -7 -1202 -8 l-113 -1 0 -40 0 -40 68 -1
c61 -2 57 -3 -38 -11 -72 -6 -108 -13 -116 -23 -9 -12 -41 -15 -163 -15 l-151
0 0 -225 0 -225 1005 0 1005 0 0 70 0 70 994 0 c897 0 994 2 1000 16 8 20 8
408 0 428 -7 18 -156 18 -2289 5z"/>
</g>
</svg>
