<?xml version="1.0" standalone="no"?>
<!DOCTYPE svg PUBLIC "-//W3C//DTD SVG 20010904//EN"
 "http://www.w3.org/TR/2001/REC-SVG-20010904/DTD/svg10.dtd">
<svg version="1.0" xmlns="http://www.w3.org/2000/svg"
 width="399.000000pt" height="33.000000pt" viewBox="0 0 399.000000 33.000000"
 preserveAspectRatio="xMidYMid meet">
<metadata>
Created by potrace 1.15, written by Peter Selinger 2001-2017
</metadata>
<g transform="translate(0.000000,33.000000) scale(0.100000,-0.100000)"
fill="#000000" stroke="none">
<path d="M808 313 l-368 -3 0 -40 c0 -39 1 -40 38 -41 38 -1 37 -3 -10 -13
-16 -4 -28 -13 -28 -21 0 -13 -32 -15 -220 -15 l-220 0 0 -85 0 -85 670 0 670
0 0 60 0 60 1323 2 1322 3 3 93 3 92 -1408 -2 c-774 -2 -1573 -4 -1775 -5z"/>
</g>
</svg>
