<?xml version="1.0" standalone="no"?>
<!DOCTYPE svg PUBLIC "-//W3C//DTD SVG 20010904//EN"
 "http://www.w3.org/TR/2001/REC-SVG-20010904/DTD/svg10.dtd">
<svg version="1.0" xmlns="http://www.w3.org/2000/svg"
 width="401.000000pt" height="81.000000pt" viewBox="0 0 401.000000 81.000000"
 preserveAspectRatio="xMidYMid meet">
<metadata>
Created by potrace 1.15, written by Peter Selinger 2001-2017
</metadata>
<g transform="translate(0.000000,81.000000) scale(0.100000,-0.100000)"
fill="#000000" stroke="none">
<path d="M310 770 l0 -40 88 -1 c74 -1 80 -3 42 -9 -25 -4 -69 -13 -99 -19
-29 -6 -118 -11 -197 -11 l-144 0 0 -94 0 -93 31 -7 c17 -3 67 -6 110 -6 43 0
81 -4 84 -10 3 -5 -3 -10 -14 -10 -11 0 -23 -4 -26 -10 -3 -5 -46 -10 -96 -10
l-89 0 0 -94 0 -93 38 -7 c20 -3 71 -6 112 -7 41 0 86 -4 100 -8 l25 -7 -25
-8 c-14 -4 -76 -10 -137 -13 l-113 -6 0 -88 c0 -48 3 -94 6 -103 5 -14 55 -16
454 -16 l448 0 6 31 c3 17 6 47 6 65 l0 34 1545 0 1545 0 0 340 0 340 -1850 0
-1850 0 0 -40z"/>
</g>
</svg>
