<?xml version="1.0" standalone="no"?>
<!DOCTYPE svg PUBLIC "-//W3C//DTD SVG 20010904//EN"
 "http://www.w3.org/TR/2001/REC-SVG-20010904/DTD/svg10.dtd">
<svg version="1.0" xmlns="http://www.w3.org/2000/svg"
 width="229.000000pt" height="33.000000pt" viewBox="0 0 229.000000 33.000000"
 preserveAspectRatio="xMidYMid meet">
<metadata>
Created by potrace 1.15, written by Peter Selinger 2001-2017
</metadata>
<g transform="translate(0.000000,33.000000) scale(0.100000,-0.100000)"
fill="#000000" stroke="none">
<path d="M563 323 l-403 -3 0 -30 c0 -28 -2 -30 -40 -30 -29 0 -40 -4 -40 -15
0 -11 -11 -15 -40 -15 l-40 0 0 -45 0 -45 79 0 c48 0 81 -4 83 -11 2 -7 169
-12 533 -16 l530 -6 -4 -44 -3 -43 139 0 c80 0 143 -4 149 -10 7 -7 145 -9
395 -8 l384 3 3 88 c2 57 -1 94 -9 103 -8 10 -39 14 -120 14 l-108 0 -3 58 -3
57 -540 0 c-297 0 -721 -1 -942 -2z"/>
</g>
</svg>
