<?xml version="1.0" standalone="no"?>
<!DOCTYPE svg PUBLIC "-//W3C//DTD SVG 20010904//EN"
 "http://www.w3.org/TR/2001/REC-SVG-20010904/DTD/svg10.dtd">
<svg version="1.0" xmlns="http://www.w3.org/2000/svg"
 width="337.000000pt" height="21.000000pt" viewBox="0 0 337.000000 21.000000"
 preserveAspectRatio="xMidYMid meet">
<metadata>
Created by potrace 1.15, written by Peter Selinger 2001-2017
</metadata>
<g transform="translate(0.000000,21.000000) scale(0.100000,-0.100000)"
fill="#000000" stroke="none">
<path d="M0 165 l0 -35 78 -2 c42 0 62 -3 45 -5 -18 -2 -33 -8 -33 -13 0 -5
-19 -10 -42 -12 -43 -3 -43 -3 -43 -43 l0 -40 1674 -3 c1333 -2 1676 0 1683
10 4 7 8 50 8 96 l0 82 -1685 0 -1685 0 0 -35z"/>
</g>
</svg>
