<?xml version="1.0" standalone="no"?>
<!DOCTYPE svg PUBLIC "-//W3C//DTD SVG 20010904//EN"
 "http://www.w3.org/TR/2001/REC-SVG-20010904/DTD/svg10.dtd">
<svg version="1.0" xmlns="http://www.w3.org/2000/svg"
 width="400.000000pt" height="35.000000pt" viewBox="0 0 400.000000 35.000000"
 preserveAspectRatio="xMidYMid meet">
<metadata>
Created by potrace 1.15, written by Peter Selinger 2001-2017
</metadata>
<g transform="translate(0.000000,35.000000) scale(0.100000,-0.100000)"
fill="#000000" stroke="none">
<path d="M2285 340 l-770 -5 -3 -22 c-3 -21 -9 -23 -57 -23 -63 0 -85 -7 -85
-26 0 -8 -9 -14 -21 -14 -12 0 -23 -8 -26 -20 -5 -19 -14 -20 -172 -20 -91 0
-291 -3 -443 -7 l-278 -6 0 -34 0 -33 -75 0 c-43 0 -75 -4 -75 -10 0 -5 -22
-10 -50 -10 -27 0 -50 -4 -50 -10 0 -6 -37 -10 -91 -10 l-90 0 3 -42 3 -43
649 -3 c427 -1 653 1 660 8 7 7 392 10 1133 10 l1123 0 0 60 0 60 215 0 215 0
0 105 0 105 -472 -2 c-260 -2 -819 -5 -1243 -8z"/>
</g>
</svg>
