<?xml version="1.0" standalone="no"?>
<!DOCTYPE svg PUBLIC "-//W3C//DTD SVG 20010904//EN"
 "http://www.w3.org/TR/2001/REC-SVG-20010904/DTD/svg10.dtd">
<svg version="1.0" xmlns="http://www.w3.org/2000/svg"
 width="401.000000pt" height="32.000000pt" viewBox="0 0 401.000000 32.000000"
 preserveAspectRatio="xMidYMid meet">
<metadata>
Created by potrace 1.15, written by Peter Selinger 2001-2017
</metadata>
<g transform="translate(0.000000,32.000000) scale(0.100000,-0.100000)"
fill="#000000" stroke="none">
<path d="M3810 300 c0 -6 -30 -10 -69 -10 -84 0 -121 -12 -121 -40 0 -19 -6
-20 -155 -20 l-155 0 0 -45 0 -45 150 0 c93 0 150 -4 150 -10 0 -6 73 -10 200
-10 l200 0 0 95 0 95 -100 0 c-60 0 -100 -4 -100 -10z"/>
<path d="M10 150 c0 -31 4 -40 18 -40 16 -1 16 -1 0 -14 -12 -9 -18 -27 -18
-55 l0 -41 575 0 575 0 0 95 0 95 -575 0 -575 0 0 -40z"/>
</g>
</svg>
