<?xml version="1.0" standalone="no"?>
<!DOCTYPE svg PUBLIC "-//W3C//DTD SVG 20010904//EN"
 "http://www.w3.org/TR/2001/REC-SVG-20010904/DTD/svg10.dtd">
<svg version="1.0" xmlns="http://www.w3.org/2000/svg"
 width="400.000000pt" height="53.000000pt" viewBox="0 0 400.000000 53.000000"
 preserveAspectRatio="xMidYMid meet">
<metadata>
Created by potrace 1.15, written by Peter Selinger 2001-2017
</metadata>
<g transform="translate(0.000000,53.000000) scale(0.100000,-0.100000)"
fill="#000000" stroke="none">
<path d="M3033 523 l-443 -3 0 -40 0 -40 -105 0 c-81 0 -105 -3 -105 -13 0
-11 -135 -15 -752 -20 -413 -4 -949 -7 -1190 -7 l-438 0 0 -97 c0 -54 3 -142
7 -195 l6 -98 1829 0 1828 0 0 55 0 55 165 0 165 0 0 205 0 205 -262 -2 c-145
-2 -462 -4 -705 -5z"/>
</g>
</svg>
