<?xml version="1.0" standalone="no"?>
<!DOCTYPE svg PUBLIC "-//W3C//DTD SVG 20010904//EN"
 "http://www.w3.org/TR/2001/REC-SVG-20010904/DTD/svg10.dtd">
<svg version="1.0" xmlns="http://www.w3.org/2000/svg"
 width="401.000000pt" height="213.000000pt" viewBox="0 0 401.000000 213.000000"
 preserveAspectRatio="xMidYMid meet">
<metadata>
Created by potrace 1.15, written by Peter Selinger 2001-2017
</metadata>
<g transform="translate(0.000000,213.000000) scale(0.100000,-0.100000)"
fill="#000000" stroke="none">
<path d="M310 2090 l0 -40 83 -2 c45 -1 64 -3 42 -5 -22 -3 -43 -9 -46 -15 -5
-7 -74 -13 -193 -16 -179 -4 -186 -5 -192 -26 -2 -11 -3 -84 -2 -161 l3 -140
63 -3 c45 -2 62 -7 62 -17 0 -10 -17 -15 -62 -17 l-63 -3 -3 -800 c-1 -440 0
-810 3 -822 5 -23 6 -23 205 -23 l199 0 3 62 3 63 1798 3 1797 2 0 1000 0
1000 -1850 0 -1850 0 0 -40z"/>
</g>
</svg>
