<?xml version="1.0" standalone="no"?>
<!DOCTYPE svg PUBLIC "-//W3C//DTD SVG 20010904//EN"
 "http://www.w3.org/TR/2001/REC-SVG-20010904/DTD/svg10.dtd">
<svg version="1.0" xmlns="http://www.w3.org/2000/svg"
 width="401.000000pt" height="57.000000pt" viewBox="0 0 401.000000 57.000000"
 preserveAspectRatio="xMidYMid meet">
<metadata>
Created by potrace 1.15, written by Peter Selinger 2001-2017
</metadata>
<g transform="translate(0.000000,57.000000) scale(0.100000,-0.100000)"
fill="#000000" stroke="none">
<path d="M1487 563 l-519 -3 4 -45 c3 -43 2 -45 -24 -45 -26 0 -28 -3 -28 -39
0 -26 5 -41 16 -45 9 -3 290 -6 625 -6 535 0 609 -2 609 -15 0 -13 53 -15 420
-15 351 0 420 -2 420 -14 0 -12 -216 -15 -1397 -20 -769 -3 -1419 -9 -1445
-12 -45 -6 -48 -8 -48 -35 0 -20 -6 -31 -17 -35 -10 -3 -26 -10 -35 -15 -10
-5 -27 -9 -38 -9 -17 0 -20 -7 -20 -43 l0 -44 152 -6 c83 -4 243 -7 355 -7
l203 0 0 -40 c0 -38 2 -40 30 -40 20 0 30 -5 30 -15 0 -13 186 -15 1615 -15
l1615 0 0 105 0 105 -885 0 c-780 0 -885 2 -885 15 0 13 105 15 885 15 l885 0
0 105 0 105 -795 0 -794 0 -3 58 -3 57 -205 0 c-113 0 -438 -1 -723 -2z"/>
</g>
</svg>
