<?xml version="1.0" standalone="no"?>
<!DOCTYPE svg PUBLIC "-//W3C//DTD SVG 20010904//EN"
 "http://www.w3.org/TR/2001/REC-SVG-20010904/DTD/svg10.dtd">
<svg version="1.0" xmlns="http://www.w3.org/2000/svg"
 width="401.000000pt" height="81.000000pt" viewBox="0 0 401.000000 81.000000"
 preserveAspectRatio="xMidYMid meet">
<metadata>
Created by potrace 1.15, written by Peter Selinger 2001-2017
</metadata>
<g transform="translate(0.000000,81.000000) scale(0.100000,-0.100000)"
fill="#000000" stroke="none">
<path d="M625 800 l-220 -5 -3 -37 c-2 -25 -8 -38 -18 -38 -8 0 -14 -4 -14
-10 0 -5 -13 -10 -30 -10 -16 0 -30 -4 -30 -10 0 -6 -62 -11 -152 -12 l-153
-3 -3 -315 c-1 -173 0 -325 3 -338 l5 -22 1998 2 1997 3 0 400 0 400 -1580 0
c-869 0 -1679 -2 -1800 -5z"/>
</g>
</svg>
