<?xml version="1.0" standalone="no"?>
<!DOCTYPE svg PUBLIC "-//W3C//DTD SVG 20010904//EN"
 "http://www.w3.org/TR/2001/REC-SVG-20010904/DTD/svg10.dtd">
<svg version="1.0" xmlns="http://www.w3.org/2000/svg"
 width="400.000000pt" height="31.000000pt" viewBox="0 0 400.000000 31.000000"
 preserveAspectRatio="xMidYMid meet">
<metadata>
Created by potrace 1.15, written by Peter Selinger 2001-2017
</metadata>
<g transform="translate(0.000000,31.000000) scale(0.100000,-0.100000)"
fill="#000000" stroke="none">
<path d="M1855 299 c-473 -3 -971 -7 -1107 -8 l-248 -1 0 -35 0 -35 73 -1 72
-2 -95 -9 c-52 -5 -97 -14 -98 -19 -2 -5 -98 -9 -223 -9 l-219 0 -5 -23 c-4
-13 -5 -50 -3 -82 l3 -60 1680 0 1680 0 3 53 3 52 315 0 314 0 0 95 0 95 -642
-2 c-354 -1 -1030 -5 -1503 -9z"/>
</g>
</svg>
