<?xml version="1.0" standalone="no"?>
<!DOCTYPE svg PUBLIC "-//W3C//DTD SVG 20010904//EN"
 "http://www.w3.org/TR/2001/REC-SVG-20010904/DTD/svg10.dtd">
<svg version="1.0" xmlns="http://www.w3.org/2000/svg"
 width="400.000000pt" height="61.000000pt" viewBox="0 0 400.000000 61.000000"
 preserveAspectRatio="xMidYMid meet">
<metadata>
Created by potrace 1.15, written by Peter Selinger 2001-2017
</metadata>
<g transform="translate(0.000000,61.000000) scale(0.100000,-0.100000)"
fill="#000000" stroke="none">
<path d="M3135 599 c-330 -3 -965 -7 -1411 -8 -446 0 -919 -4 -1052 -8 l-242
-6 0 -38 c0 -45 -4 -48 -70 -56 -33 -4 -50 -11 -50 -19 0 -11 -31 -14 -155
-14 l-155 0 0 -225 0 -225 558 2 557 3 3 68 3 67 1439 0 1440 0 0 219 c0 121
-3 226 -6 235 -5 14 -25 16 -133 14 -69 -1 -396 -5 -726 -9z"/>
</g>
</svg>
