<?xml version="1.0" standalone="no"?>
<!DOCTYPE svg PUBLIC "-//W3C//DTD SVG 20010904//EN"
 "http://www.w3.org/TR/2001/REC-SVG-20010904/DTD/svg10.dtd">
<svg version="1.0" xmlns="http://www.w3.org/2000/svg"
 width="401.000000pt" height="31.000000pt" viewBox="0 0 401.000000 31.000000"
 preserveAspectRatio="xMidYMid meet">
<metadata>
Created by potrace 1.15, written by Peter Selinger 2001-2017
</metadata>
<g transform="translate(0.000000,31.000000) scale(0.100000,-0.100000)"
fill="#000000" stroke="none">
<path d="M680 300 c-53 -3 -101 -10 -108 -14 -7 -4 -12 -20 -12 -37 0 -24 -4
-29 -23 -29 -13 0 -29 -6 -35 -12 -10 -10 -78 -14 -250 -16 -165 -3 -239 -7
-244 -15 -9 -14 -10 -139 -2 -161 6 -14 106 -16 1039 -16 l1034 0 6 55 7 55
957 2 956 3 0 95 0 95 -1615 1 c-888 1 -1658 -2 -1710 -6z"/>
</g>
</svg>
