<?xml version="1.0" standalone="no"?>
<!DOCTYPE svg PUBLIC "-//W3C//DTD SVG 20010904//EN"
 "http://www.w3.org/TR/2001/REC-SVG-20010904/DTD/svg10.dtd">
<svg version="1.0" xmlns="http://www.w3.org/2000/svg"
 width="400.000000pt" height="54.000000pt" viewBox="0 0 400.000000 54.000000"
 preserveAspectRatio="xMidYMid meet">
<metadata>
Created by potrace 1.15, written by Peter Selinger 2001-2017
</metadata>
<g transform="translate(0.000000,54.000000) scale(0.100000,-0.100000)"
fill="#000000" stroke="none">
<path d="M2755 530 c-385 -4 -1050 -8 -1477 -9 l-778 -1 0 -40 0 -40 78 -1 77
-2 -75 -9 c-41 -5 -187 -12 -325 -16 l-250 -7 -3 -197 -2 -198 1275 0 1275 0
0 60 0 60 725 0 725 0 -2 203 -3 202 -270 1 c-148 0 -585 -3 -970 -6z"/>
</g>
</svg>
