<?xml version="1.0" standalone="no"?>
<!DOCTYPE svg PUBLIC "-//W3C//DTD SVG 20010904//EN"
 "http://www.w3.org/TR/2001/REC-SVG-20010904/DTD/svg10.dtd">
<svg version="1.0" xmlns="http://www.w3.org/2000/svg"
 width="183.000000pt" height="46.000000pt" viewBox="0 0 183.000000 46.000000"
 preserveAspectRatio="xMidYMid meet">
<metadata>
Created by potrace 1.15, written by Peter Selinger 2001-2017
</metadata>
<g transform="translate(0.000000,46.000000) scale(0.100000,-0.100000)"
fill="#000000" stroke="none">
<path d="M5 418 c-3 -18 -5 -62 -3 -98 l3 -65 65 -6 c36 -4 255 -7 488 -8 368
-1 422 -3 422 -16 0 -9 -9 -15 -25 -15 -20 0 -25 -5 -25 -25 0 -25 -1 -25 -90
-25 -83 0 -90 -1 -90 -20 0 -11 -7 -20 -15 -20 -11 0 -15 -11 -15 -40 l0 -40
104 0 c83 0 105 -3 110 -15 4 -13 36 -15 195 -15 213 0 201 -5 201 83 l0 37
200 0 200 0 0 60 0 60 50 0 50 0 0 100 0 100 -910 0 -909 0 -6 -32z"/>
</g>
</svg>
