<?xml version="1.0" standalone="no"?>
<!DOCTYPE svg PUBLIC "-//W3C//DTD SVG 20010904//EN"
 "http://www.w3.org/TR/2001/REC-SVG-20010904/DTD/svg10.dtd">
<svg version="1.0" xmlns="http://www.w3.org/2000/svg"
 width="401.000000pt" height="31.000000pt" viewBox="0 0 401.000000 31.000000"
 preserveAspectRatio="xMidYMid meet">
<metadata>
Created by potrace 1.15, written by Peter Selinger 2001-2017
</metadata>
<g transform="translate(0.000000,31.000000) scale(0.100000,-0.100000)"
fill="#000000" stroke="none">
<path d="M2020 300 c-828 -4 -1506 -7 -1507 -8 -2 -1 -3 -18 -3 -37 0 -22 6
-38 17 -44 17 -10 17 -10 1 -11 -10 0 -18 -7 -18 -15 0 -12 -37 -15 -252 -17
l-253 -3 -3 -60 c-2 -32 -1 -70 3 -82 l5 -23 963 2 962 3 3 58 3 57 1034 0
1035 0 0 58 c0 31 -3 74 -6 95 l-7 37 -236 -2 c-130 -1 -913 -5 -1741 -8z"/>
</g>
</svg>
