<?xml version="1.0" standalone="no"?>
<!DOCTYPE svg PUBLIC "-//W3C//DTD SVG 20010904//EN"
 "http://www.w3.org/TR/2001/REC-SVG-20010904/DTD/svg10.dtd">
<svg version="1.0" xmlns="http://www.w3.org/2000/svg"
 width="401.000000pt" height="32.000000pt" viewBox="0 0 401.000000 32.000000"
 preserveAspectRatio="xMidYMid meet">
<metadata>
Created by potrace 1.15, written by Peter Selinger 2001-2017
</metadata>
<g transform="translate(0.000000,32.000000) scale(0.100000,-0.100000)"
fill="#000000" stroke="none">
<path d="M1277 303 l-837 -3 0 -35 0 -35 58 -1 c33 -1 45 -4 27 -6 -16 -3 -33
-10 -37 -16 -5 -8 -80 -14 -245 -17 l-238 -5 0 -85 0 -85 634 -3 c501 -2 636
0 643 10 4 7 8 32 8 56 l0 42 1360 0 1360 0 0 95 0 95 -947 -2 c-522 -2 -1325
-4 -1786 -5z"/>
</g>
</svg>
