<?xml version="1.0" standalone="no"?>
<!DOCTYPE svg PUBLIC "-//W3C//DTD SVG 20010904//EN"
 "http://www.w3.org/TR/2001/REC-SVG-20010904/DTD/svg10.dtd">
<svg version="1.0" xmlns="http://www.w3.org/2000/svg"
 width="401.000000pt" height="106.000000pt" viewBox="0 0 401.000000 106.000000"
 preserveAspectRatio="xMidYMid meet">
<metadata>
Created by potrace 1.15, written by Peter Selinger 2001-2017
</metadata>
<g transform="translate(0.000000,106.000000) scale(0.100000,-0.100000)"
fill="#000000" stroke="none">
<path d="M2600 1050 c-597 -4 -1356 -8 -1687 -9 l-603 -1 0 -35 0 -35 83 -2
c45 -1 63 -3 40 -5 -24 -2 -43 -8 -43 -14 0 -5 -18 -9 -39 -9 -22 0 -43 -5
-46 -10 -4 -6 -67 -10 -156 -10 l-149 0 0 -460 0 -460 769 0 769 0 6 23 c3 12
6 41 6 65 l0 42 1230 0 1230 0 -2 463 -3 462 -160 1 c-88 0 -648 -3 -1245 -6z"/>
</g>
</svg>
