<?xml version="1.0" standalone="no"?>
<!DOCTYPE svg PUBLIC "-//W3C//DTD SVG 20010904//EN"
 "http://www.w3.org/TR/2001/REC-SVG-20010904/DTD/svg10.dtd">
<svg version="1.0" xmlns="http://www.w3.org/2000/svg"
 width="402.000000pt" height="42.000000pt" viewBox="0 0 402.000000 42.000000"
 preserveAspectRatio="xMidYMid meet">
<metadata>
Created by potrace 1.15, written by Peter Selinger 2001-2017
</metadata>
<g transform="translate(0.000000,42.000000) scale(0.100000,-0.100000)"
fill="#000000" stroke="none">
<path d="M420 382 l0 -42 606 0 c538 0 604 -2 590 -15 -12 -13 -69 -15 -388
-15 -233 0 -378 -4 -384 -10 -6 -6 -168 -11 -424 -12 l-415 -3 0 -80 0 -80 60
-9 c33 -4 475 -10 983 -12 l922 -5 0 -34 0 -35 215 0 c184 0 215 -2 215 -15 0
-13 97 -15 810 -15 l810 0 0 95 0 95 -267 0 c-148 0 -502 3 -788 8 l-520 7
785 5 785 5 3 98 3 97 -533 0 c-293 0 -1103 3 -1800 7 l-1268 6 0 -41z"/>
</g>
</svg>
