<?xml version="1.0" standalone="no"?>
<!DOCTYPE svg PUBLIC "-//W3C//DTD SVG 20010904//EN"
 "http://www.w3.org/TR/2001/REC-SVG-20010904/DTD/svg10.dtd">
<svg version="1.0" xmlns="http://www.w3.org/2000/svg"
 width="184.000000pt" height="20.000000pt" viewBox="0 0 184.000000 20.000000"
 preserveAspectRatio="xMidYMid meet">
<metadata>
Created by potrace 1.15, written by Peter Selinger 2001-2017
</metadata>
<g transform="translate(0.000000,20.000000) scale(0.100000,-0.100000)"
fill="#000000" stroke="none">
<path d="M563 193 l-403 -3 0 -34 c0 -24 5 -36 18 -39 9 -3 -25 -5 -75 -6
l-93 -1 0 -39 c0 -46 9 -51 89 -51 31 0 62 -5 67 -10 7 -7 293 -9 840 -8 l829
3 3 98 3 97 -438 -2 c-241 -2 -619 -4 -840 -5z"/>
</g>
</svg>
