<?xml version="1.0" standalone="no"?>
<!DOCTYPE svg PUBLIC "-//W3C//DTD SVG 20010904//EN"
 "http://www.w3.org/TR/2001/REC-SVG-20010904/DTD/svg10.dtd">
<svg version="1.0" xmlns="http://www.w3.org/2000/svg"
 width="401.000000pt" height="57.000000pt" viewBox="0 0 401.000000 57.000000"
 preserveAspectRatio="xMidYMid meet">
<metadata>
Created by potrace 1.15, written by Peter Selinger 2001-2017
</metadata>
<g transform="translate(0.000000,57.000000) scale(0.100000,-0.100000)"
fill="#000000" stroke="none">
<path d="M1447 563 c-4 -3 -7 -21 -7 -39 0 -23 5 -34 18 -37 9 -3 -1 -5 -22
-6 -24 -1 -44 -7 -52 -18 -11 -17 -53 -18 -553 -22 l-541 -3 0 -34 c0 -30 -3
-34 -25 -34 -14 0 -25 -4 -25 -8 0 -20 -57 -32 -145 -32 l-95 0 0 -105 c0 -98
1 -105 20 -105 11 0 20 -4 20 -10 0 -5 -9 -10 -20 -10 -17 0 -20 -7 -20 -45
l0 -45 1550 0 1550 0 0 100 0 100 -785 0 c-690 0 -785 2 -785 15 0 13 147 15
1238 17 l1237 3 3 163 2 162 -1278 0 c-703 0 -1282 -3 -1285 -7z"/>
</g>
</svg>
