<?xml version="1.0" standalone="no"?>
<!DOCTYPE svg PUBLIC "-//W3C//DTD SVG 20010904//EN"
 "http://www.w3.org/TR/2001/REC-SVG-20010904/DTD/svg10.dtd">
<svg version="1.0" xmlns="http://www.w3.org/2000/svg"
 width="400.000000pt" height="92.000000pt" viewBox="0 0 400.000000 92.000000"
 preserveAspectRatio="xMidYMid meet">
<metadata>
Created by potrace 1.15, written by Peter Selinger 2001-2017
</metadata>
<g transform="translate(0.000000,92.000000) scale(0.100000,-0.100000)"
fill="#000000" stroke="none">
<path d="M1588 903 l-1278 -3 0 -40 0 -40 93 -1 c50 -1 81 -3 67 -5 -89 -13
-162 -29 -166 -36 -3 -4 -72 -8 -155 -8 l-149 0 0 -89 0 -88 37 -7 c21 -3 62
-6 91 -6 39 0 52 -4 52 -15 0 -12 -17 -15 -90 -15 l-90 0 0 -45 0 -45 51 0
c31 0 48 -4 44 -10 -3 -5 -26 -10 -51 -10 l-44 0 0 -39 c0 -26 5 -41 16 -45 9
-3 95 -7 192 -7 314 -2 282 -18 -70 -35 l-138 -7 0 -38 0 -39 46 0 c59 0 55
-24 -4 -28 l-42 -3 0 -100 0 -99 1998 2 1997 3 3 453 2 452 -567 -2 c-313 -2
-1143 -4 -1845 -5z"/>
</g>
</svg>
