<?xml version="1.0" standalone="no"?>
<!DOCTYPE svg PUBLIC "-//W3C//DTD SVG 20010904//EN"
 "http://www.w3.org/TR/2001/REC-SVG-20010904/DTD/svg10.dtd">
<svg version="1.0" xmlns="http://www.w3.org/2000/svg"
 width="401.000000pt" height="32.000000pt" viewBox="0 0 401.000000 32.000000"
 preserveAspectRatio="xMidYMid meet">
<metadata>
Created by potrace 1.15, written by Peter Selinger 2001-2017
</metadata>
<g transform="translate(0.000000,32.000000) scale(0.100000,-0.100000)"
fill="#000000" stroke="none">
<path d="M703 303 l-673 -3 0 -40 0 -40 41 0 c24 0 38 -4 34 -10 -3 -6 -26
-10 -50 -10 -42 0 -44 -2 -50 -32 -3 -18 -5 -62 -3 -98 l3 -65 588 -3 587 -2
0 60 0 60 1415 0 1415 0 0 95 0 95 -1317 -2 c-725 -2 -1621 -4 -1990 -5z"/>
</g>
</svg>
