<?xml version="1.0" standalone="no"?>
<!DOCTYPE svg PUBLIC "-//W3C//DTD SVG 20010904//EN"
 "http://www.w3.org/TR/2001/REC-SVG-20010904/DTD/svg10.dtd">
<svg version="1.0" xmlns="http://www.w3.org/2000/svg"
 width="402.000000pt" height="59.000000pt" viewBox="0 0 402.000000 59.000000"
 preserveAspectRatio="xMidYMid meet">
<metadata>
Created by potrace 1.15, written by Peter Selinger 2001-2017
</metadata>
<g transform="translate(0.000000,59.000000) scale(0.100000,-0.100000)"
fill="#000000" stroke="none">
<path d="M2035 579 c-616 -3 -1243 -7 -1392 -8 l-273 -1 0 -40 0 -40 78 -1 77
-2 -103 -10 c-76 -7 -102 -13 -102 -23 0 -11 -29 -14 -155 -14 l-155 0 -6 -25
c-3 -14 -2 -112 2 -218 l9 -192 1483 -3 1482 -2 0 65 0 65 514 0 c459 0 515 2
520 16 8 21 8 338 0 398 l-7 46 -426 -2 c-234 -1 -930 -5 -1546 -9z"/>
</g>
</svg>
