<?xml version="1.0" standalone="no"?>
<!DOCTYPE svg PUBLIC "-//W3C//DTD SVG 20010904//EN"
 "http://www.w3.org/TR/2001/REC-SVG-20010904/DTD/svg10.dtd">
<svg version="1.0" xmlns="http://www.w3.org/2000/svg"
 width="400.000000pt" height="54.000000pt" viewBox="0 0 400.000000 54.000000"
 preserveAspectRatio="xMidYMid meet">
<metadata>
Created by potrace 1.15, written by Peter Selinger 2001-2017
</metadata>
<g transform="translate(0.000000,54.000000) scale(0.100000,-0.100000)"
fill="#000000" stroke="none">
<path d="M1553 533 l-1033 -3 0 -40 c0 -28 -4 -40 -14 -40 -8 0 -16 -6 -18
-12 -4 -10 -65 -14 -244 -18 l-239 -5 -3 -202 -2 -203 460 0 460 0 0 60 0 60
1539 0 1540 0 1 205 0 205 -707 -2 c-390 -2 -1173 -4 -1740 -5z"/>
</g>
</svg>
