<?xml version="1.0" standalone="no"?>
<!DOCTYPE svg PUBLIC "-//W3C//DTD SVG 20010904//EN"
 "http://www.w3.org/TR/2001/REC-SVG-20010904/DTD/svg10.dtd">
<svg version="1.0" xmlns="http://www.w3.org/2000/svg"
 width="401.000000pt" height="31.000000pt" viewBox="0 0 401.000000 31.000000"
 preserveAspectRatio="xMidYMid meet">
<metadata>
Created by potrace 1.15, written by Peter Selinger 2001-2017
</metadata>
<g transform="translate(0.000000,31.000000) scale(0.100000,-0.100000)"
fill="#000000" stroke="none">
<path d="M1998 303 l-1578 -3 0 -39 c0 -22 5 -41 12 -43 8 -3 4 -12 -10 -26
-20 -20 -32 -22 -219 -24 l-198 -3 -3 -60 c-2 -32 -1 -69 3 -82 l5 -23 1034 0
1034 0 6 22 c3 13 6 40 6 61 l0 37 960 0 960 0 0 95 0 95 -217 -2 c-120 -2
-928 -4 -1795 -5z"/>
</g>
</svg>
