<?xml version="1.0" standalone="no"?>
<!DOCTYPE svg PUBLIC "-//W3C//DTD SVG 20010904//EN"
 "http://www.w3.org/TR/2001/REC-SVG-20010904/DTD/svg10.dtd">
<svg version="1.0" xmlns="http://www.w3.org/2000/svg"
 width="400.000000pt" height="42.000000pt" viewBox="0 0 400.000000 42.000000"
 preserveAspectRatio="xMidYMid meet">
<metadata>
Created by potrace 1.15, written by Peter Selinger 2001-2017
</metadata>
<g transform="translate(0.000000,42.000000) scale(0.100000,-0.100000)"
fill="#000000" stroke="none">
<path d="M1438 413 c-554 -2 -848 -7 -848 -13 0 -6 -7 -10 -15 -10 -10 0 -15
-10 -15 -30 0 -27 -3 -30 -33 -30 -18 0 -39 -6 -45 -12 -10 -10 -77 -14 -247
-16 l-235 -4 0 -149 0 -149 913 2 912 3 3 58 3 57 1085 0 1085 0 -3 148 -3
147 -855 0 c-470 0 -1236 -1 -1702 -2z"/>
</g>
</svg>
