<?xml version="1.0" standalone="no"?>
<!DOCTYPE svg PUBLIC "-//W3C//DTD SVG 20010904//EN"
 "http://www.w3.org/TR/2001/REC-SVG-20010904/DTD/svg10.dtd">
<svg version="1.0" xmlns="http://www.w3.org/2000/svg"
 width="401.000000pt" height="69.000000pt" viewBox="0 0 401.000000 69.000000"
 preserveAspectRatio="xMidYMid meet">
<metadata>
Created by potrace 1.15, written by Peter Selinger 2001-2017
</metadata>
<g transform="translate(0.000000,69.000000) scale(0.100000,-0.100000)"
fill="#000000" stroke="none">
<path d="M308 683 l-188 -3 0 -40 c0 -39 -1 -40 -35 -40 -19 0 -35 -4 -35 -10
0 -5 -11 -10 -25 -10 l-25 0 0 -225 0 -225 104 0 c58 0 107 -4 110 -9 6 -10
-26 -21 -61 -21 -20 0 -23 -5 -23 -43 l0 -44 1930 -7 c1062 -4 1935 -4 1940
-1 6 4 10 137 10 346 l0 339 -1757 -2 c-967 -2 -1842 -4 -1945 -5z"/>
</g>
</svg>
