<?xml version="1.0" standalone="no"?>
<!DOCTYPE svg PUBLIC "-//W3C//DTD SVG 20010904//EN"
 "http://www.w3.org/TR/2001/REC-SVG-20010904/DTD/svg10.dtd">
<svg version="1.0" xmlns="http://www.w3.org/2000/svg"
 width="399.000000pt" height="32.000000pt" viewBox="0 0 399.000000 32.000000"
 preserveAspectRatio="xMidYMid meet">
<metadata>
Created by potrace 1.15, written by Peter Selinger 2001-2017
</metadata>
<g transform="translate(0.000000,32.000000) scale(0.100000,-0.100000)"
fill="#000000" stroke="none">
<path d="M3200 286 c0 -30 -4 -34 -31 -40 -17 -3 -78 -6 -135 -6 l-104 0 0
-45 0 -45 124 0 c73 0 127 -4 131 -10 4 -6 150 -10 406 -10 l399 0 0 95 0 95
-395 0 -395 0 0 -34z"/>
<path d="M0 105 l0 -95 325 0 325 0 0 95 0 95 -325 0 -325 0 0 -95z"/>
</g>
</svg>
