<?xml version="1.0" standalone="no"?>
<!DOCTYPE svg PUBLIC "-//W3C//DTD SVG 20010904//EN"
 "http://www.w3.org/TR/2001/REC-SVG-20010904/DTD/svg10.dtd">
<svg version="1.0" xmlns="http://www.w3.org/2000/svg"
 width="401.000000pt" height="32.000000pt" viewBox="0 0 401.000000 32.000000"
 preserveAspectRatio="xMidYMid meet">
<metadata>
Created by potrace 1.15, written by Peter Selinger 2001-2017
</metadata>
<g transform="translate(0.000000,32.000000) scale(0.100000,-0.100000)"
fill="#000000" stroke="none">
<path d="M2438 313 l-968 -3 0 -40 0 -40 -50 0 c-36 0 -52 -4 -56 -15 -5 -13
-85 -15 -635 -15 -388 0 -629 -4 -629 -9 0 -6 -21 -11 -47 -13 l-48 -3 0 -80
0 -80 1598 -3 1597 -2 0 55 0 55 405 0 406 0 -3 98 -3 97 -300 0 c-165 0 -735
-1 -1267 -2z"/>
</g>
</svg>
