<?xml version="1.0" standalone="no"?>
<!DOCTYPE svg PUBLIC "-//W3C//DTD SVG 20010904//EN"
 "http://www.w3.org/TR/2001/REC-SVG-20010904/DTD/svg10.dtd">
<svg version="1.0" xmlns="http://www.w3.org/2000/svg"
 width="401.000000pt" height="117.000000pt" viewBox="0 0 401.000000 117.000000"
 preserveAspectRatio="xMidYMid meet">
<metadata>
Created by potrace 1.15, written by Peter Selinger 2001-2017
</metadata>
<g transform="translate(0.000000,117.000000) scale(0.100000,-0.100000)"
fill="#000000" stroke="none">
<path d="M1714 1155 c-4 -10 -21 -15 -54 -15 -27 0 -52 -4 -55 -10 -3 -5 -20
-10 -37 -10 -21 0 -31 -6 -35 -20 -5 -18 -14 -20 -99 -20 -77 0 -94 -3 -94
-15 0 -13 -81 -15 -670 -15 l-670 0 0 -525 0 -525 2003 2 2002 3 3 576 2 576
-61 7 c-34 3 -550 6 -1146 6 -954 0 -1084 -2 -1089 -15z"/>
</g>
</svg>
