<?xml version="1.0" standalone="no"?>
<!DOCTYPE svg PUBLIC "-//W3C//DTD SVG 20010904//EN"
 "http://www.w3.org/TR/2001/REC-SVG-20010904/DTD/svg10.dtd">
<svg version="1.0" xmlns="http://www.w3.org/2000/svg"
 width="401.000000pt" height="32.000000pt" viewBox="0 0 401.000000 32.000000"
 preserveAspectRatio="xMidYMid meet">
<metadata>
Created by potrace 1.15, written by Peter Selinger 2001-2017
</metadata>
<g transform="translate(0.000000,32.000000) scale(0.100000,-0.100000)"
fill="#000000" stroke="none">
<path d="M3560 305 c0 -10 -10 -15 -29 -15 -17 0 -33 -4 -36 -10 -3 -5 -39
-10 -79 -10 -92 0 -136 -9 -136 -26 0 -11 -21 -14 -95 -14 -78 0 -95 -3 -95
-15 0 -13 -39 -15 -290 -15 l-290 0 0 -40 0 -40 750 0 750 0 0 100 0 100 -225
0 c-193 0 -225 -2 -225 -15z"/>
<path d="M10 150 c0 -24 5 -40 12 -40 9 0 9 -3 0 -12 -7 -7 -12 -31 -12 -55
l0 -43 570 0 570 0 5 23 c3 12 5 54 3 92 l-3 70 -572 3 -573 2 0 -40z"/>
</g>
</svg>
