<?xml version="1.0" standalone="no"?>
<!DOCTYPE svg PUBLIC "-//W3C//DTD SVG 20010904//EN"
 "http://www.w3.org/TR/2001/REC-SVG-20010904/DTD/svg10.dtd">
<svg version="1.0" xmlns="http://www.w3.org/2000/svg"
 width="401.000000pt" height="32.000000pt" viewBox="0 0 401.000000 32.000000"
 preserveAspectRatio="xMidYMid meet">
<metadata>
Created by potrace 1.15, written by Peter Selinger 2001-2017
</metadata>
<g transform="translate(0.000000,32.000000) scale(0.100000,-0.100000)"
fill="#000000" stroke="none">
<path d="M2930 276 c0 -43 -9 -46 -172 -46 -105 0 -128 -3 -128 -14 0 -9 -12
-16 -32 -18 -30 -3 -33 -6 -36 -39 l-3 -37 363 -6 c200 -4 525 -6 723 -4 l360
3 3 52 3 52 -58 4 -58 3 58 2 57 2 0 40 0 40 -540 0 -540 0 0 -34z"/>
<path d="M4 177 c-3 -8 -4 -47 -2 -88 l3 -74 178 -3 177 -2 0 90 0 90 -175 0
c-138 0 -177 -3 -181 -13z"/>
</g>
</svg>
