<?xml version="1.0" standalone="no"?>
<!DOCTYPE svg PUBLIC "-//W3C//DTD SVG 20010904//EN"
 "http://www.w3.org/TR/2001/REC-SVG-20010904/DTD/svg10.dtd">
<svg version="1.0" xmlns="http://www.w3.org/2000/svg"
 width="401.000000pt" height="33.000000pt" viewBox="0 0 401.000000 33.000000"
 preserveAspectRatio="xMidYMid meet">
<metadata>
Created by potrace 1.15, written by Peter Selinger 2001-2017
</metadata>
<g transform="translate(0.000000,33.000000) scale(0.100000,-0.100000)"
fill="#000000" stroke="none">
<path d="M2310 319 c-410 -3 -1027 -7 -1372 -8 l-628 -1 0 -39 c0 -22 5 -41
13 -44 8 -3 6 -10 -8 -21 -16 -12 -48 -15 -167 -16 l-148 0 0 -95 0 -95 1948
2 1947 3 3 58 3 57 54 0 55 0 0 105 0 105 -477 -2 c-263 -1 -813 -5 -1223 -9z"/>
</g>
</svg>
