<?xml version="1.0" standalone="no"?>
<!DOCTYPE svg PUBLIC "-//W3C//DTD SVG 20010904//EN"
 "http://www.w3.org/TR/2001/REC-SVG-20010904/DTD/svg10.dtd">
<svg version="1.0" xmlns="http://www.w3.org/2000/svg"
 width="370.000000pt" height="33.000000pt" viewBox="0 0 370.000000 33.000000"
 preserveAspectRatio="xMidYMid meet">
<metadata>
Created by potrace 1.15, written by Peter Selinger 2001-2017
</metadata>
<g transform="translate(0.000000,33.000000) scale(0.100000,-0.100000)"
fill="#000000" stroke="none">
<path d="M1905 320 c-710 -4 -1417 -8 -1572 -9 l-283 -1 0 -35 c0 -35 0 -35
48 -36 47 -1 47 -1 -25 -17 l-73 -16 0 -103 0 -103 1705 0 1705 0 0 60 0 60
145 0 146 0 -3 103 -3 102 -250 1 c-137 0 -830 -3 -1540 -6z"/>
</g>
</svg>
