<?xml version="1.0" standalone="no"?>
<!DOCTYPE svg PUBLIC "-//W3C//DTD SVG 20010904//EN"
 "http://www.w3.org/TR/2001/REC-SVG-20010904/DTD/svg10.dtd">
<svg version="1.0" xmlns="http://www.w3.org/2000/svg"
 width="221.000000pt" height="19.000000pt" viewBox="0 0 221.000000 19.000000"
 preserveAspectRatio="xMidYMid meet">
<metadata>
Created by potrace 1.15, written by Peter Selinger 2001-2017
</metadata>
<g transform="translate(0.000000,19.000000) scale(0.100000,-0.100000)"
fill="#000000" stroke="none">
<path d="M408 183 l-228 -3 0 -34 c0 -33 -1 -33 -52 -40 -29 -3 -70 -6 -90 -6
-38 0 -38 0 -38 -40 l0 -40 90 0 c53 0 90 -4 90 -10 0 -7 345 -10 1015 -10
l1015 0 0 95 0 95 -787 -2 c-434 -2 -890 -4 -1015 -5z"/>
</g>
</svg>
