<?xml version="1.0" standalone="no"?>
<!DOCTYPE svg PUBLIC "-//W3C//DTD SVG 20010904//EN"
 "http://www.w3.org/TR/2001/REC-SVG-20010904/DTD/svg10.dtd">
<svg version="1.0" xmlns="http://www.w3.org/2000/svg"
 width="401.000000pt" height="70.000000pt" viewBox="0 0 401.000000 70.000000"
 preserveAspectRatio="xMidYMid meet">
<metadata>
Created by potrace 1.15, written by Peter Selinger 2001-2017
</metadata>
<g transform="translate(0.000000,70.000000) scale(0.100000,-0.100000)"
fill="#000000" stroke="none">
<path d="M1770 690 c-492 -4 -896 -8 -897 -8 -2 -1 -3 -18 -3 -37 0 -32 -2
-35 -29 -35 -17 0 -33 -5 -36 -10 -3 -6 -35 -10 -71 -10 -50 0 -64 -3 -64 -15
0 -13 -46 -15 -333 -17 l-332 -3 -3 -79 c-2 -44 1 -83 5 -87 4 -4 54 -11 110
-15 56 -4 100 -11 97 -15 -3 -5 -20 -9 -38 -9 -17 0 -36 -4 -42 -9 -5 -6 -36
-11 -69 -13 l-60 -3 -3 -140 c-1 -77 0 -150 3 -163 l5 -22 1568 2 1567 3 3 63
3 62 429 0 430 0 0 285 0 285 -672 -2 c-370 -1 -1076 -5 -1568 -8z"/>
</g>
</svg>
