<?xml version="1.0" standalone="no"?>
<!DOCTYPE svg PUBLIC "-//W3C//DTD SVG 20010904//EN"
 "http://www.w3.org/TR/2001/REC-SVG-20010904/DTD/svg10.dtd">
<svg version="1.0" xmlns="http://www.w3.org/2000/svg"
 width="401.000000pt" height="31.000000pt" viewBox="0 0 401.000000 31.000000"
 preserveAspectRatio="xMidYMid meet">
<metadata>
Created by potrace 1.15, written by Peter Selinger 2001-2017
</metadata>
<g transform="translate(0.000000,31.000000) scale(0.100000,-0.100000)"
fill="#000000" stroke="none">
<path d="M430 270 l0 -40 68 -2 c38 -1 52 -3 32 -5 -19 -3 -39 -9 -44 -14 -6
-5 -113 -9 -243 -9 l-232 0 -6 -32 c-3 -18 -5 -60 -3 -93 l3 -60 1433 -3 1432
-2 0 55 0 55 570 0 570 0 0 95 0 95 -1790 0 -1790 0 0 -40z"/>
</g>
</svg>
