<?xml version="1.0" standalone="no"?>
<!DOCTYPE svg PUBLIC "-//W3C//DTD SVG 20010904//EN"
 "http://www.w3.org/TR/2001/REC-SVG-20010904/DTD/svg10.dtd">
<svg version="1.0" xmlns="http://www.w3.org/2000/svg"
 width="401.000000pt" height="34.000000pt" viewBox="0 0 401.000000 34.000000"
 preserveAspectRatio="xMidYMid meet">
<metadata>
Created by potrace 1.15, written by Peter Selinger 2001-2017
</metadata>
<g transform="translate(0.000000,34.000000) scale(0.100000,-0.100000)"
fill="#000000" stroke="none">
<path d="M2643 333 l-863 -3 0 -40 c0 -31 4 -40 18 -41 50 -3 -77 -18 -160
-18 -58 -1 -98 -5 -98 -11 0 -6 -137 -10 -390 -10 -250 0 -390 -4 -390 -10 0
-6 -137 -11 -378 -12 l-377 -3 0 -85 0 -85 1918 -3 1917 -2 0 55 0 54 83 3 82
3 3 108 3 107 -253 -2 c-139 -2 -641 -4 -1115 -5z"/>
</g>
</svg>
