<?xml version="1.0" standalone="no"?>
<!DOCTYPE svg PUBLIC "-//W3C//DTD SVG 20010904//EN"
 "http://www.w3.org/TR/2001/REC-SVG-20010904/DTD/svg10.dtd">
<svg version="1.0" xmlns="http://www.w3.org/2000/svg"
 width="401.000000pt" height="82.000000pt" viewBox="0 0 401.000000 82.000000"
 preserveAspectRatio="xMidYMid meet">
<metadata>
Created by potrace 1.15, written by Peter Selinger 2001-2017
</metadata>
<g transform="translate(0.000000,82.000000) scale(0.100000,-0.100000)"
fill="#000000" stroke="none">
<path d="M1073 803 l-763 -3 0 -35 0 -35 103 -1 c98 -2 99 -2 42 -10 -33 -4
-80 -13 -105 -18 -25 -6 -111 -10 -192 -11 -145 0 -148 0 -153 -22 -3 -13 -4
-165 -3 -338 l3 -315 1303 -3 1302 -2 0 60 0 60 700 0 700 0 0 340 0 340
-1087 -2 c-599 -2 -1431 -4 -1850 -5z"/>
</g>
</svg>
