<?xml version="1.0" standalone="no"?>
<!DOCTYPE svg PUBLIC "-//W3C//DTD SVG 20010904//EN"
 "http://www.w3.org/TR/2001/REC-SVG-20010904/DTD/svg10.dtd">
<svg version="1.0" xmlns="http://www.w3.org/2000/svg"
 width="401.000000pt" height="54.000000pt" viewBox="0 0 401.000000 54.000000"
 preserveAspectRatio="xMidYMid meet">
<metadata>
Created by potrace 1.15, written by Peter Selinger 2001-2017
</metadata>
<g transform="translate(0.000000,54.000000) scale(0.100000,-0.100000)"
fill="#000000" stroke="none">
<path d="M1127 533 l-667 -3 0 -40 c0 -39 1 -40 37 -40 30 0 35 -3 25 -12 -10
-10 -82 -14 -265 -18 l-252 -5 0 -200 0 -200 718 -3 717 -2 0 60 0 60 1285 0
1285 0 -2 203 -3 202 -1105 0 c-608 0 -1405 -1 -1773 -2z"/>
</g>
</svg>
