<?xml version="1.0" standalone="no"?>
<!DOCTYPE svg PUBLIC "-//W3C//DTD SVG 20010904//EN"
 "http://www.w3.org/TR/2001/REC-SVG-20010904/DTD/svg10.dtd">
<svg version="1.0" xmlns="http://www.w3.org/2000/svg"
 width="401.000000pt" height="61.000000pt" viewBox="0 0 401.000000 61.000000"
 preserveAspectRatio="xMidYMid meet">
<metadata>
Created by potrace 1.15, written by Peter Selinger 2001-2017
</metadata>
<g transform="translate(0.000000,61.000000) scale(0.100000,-0.100000)"
fill="#000000" stroke="none">
<path d="M2215 599 c-731 -4 -1426 -10 -1542 -14 l-213 -7 0 -34 c0 -27 -4
-34 -20 -34 -11 0 -20 -4 -20 -10 0 -5 -22 -10 -49 -10 -40 0 -50 -3 -54 -20
-5 -18 -15 -20 -158 -22 l-154 -3 -3 -200 c-1 -110 0 -210 3 -223 l5 -22 723
2 722 3 3 72 3 73 1274 0 1275 0 0 230 0 230 -232 -2 c-128 -1 -831 -5 -1563
-9z"/>
</g>
</svg>
