<?xml version="1.0" standalone="no"?>
<!DOCTYPE svg PUBLIC "-//W3C//DTD SVG 20010904//EN"
 "http://www.w3.org/TR/2001/REC-SVG-20010904/DTD/svg10.dtd">
<svg version="1.0" xmlns="http://www.w3.org/2000/svg"
 width="401.000000pt" height="225.000000pt" viewBox="0 0 401.000000 225.000000"
 preserveAspectRatio="xMidYMid meet">
<metadata>
Created by potrace 1.15, written by Peter Selinger 2001-2017
</metadata>
<g transform="translate(0.000000,225.000000) scale(0.100000,-0.100000)"
fill="#000000" stroke="none">
<path d="M593 2243 l-193 -3 0 -40 c0 -28 -4 -40 -14 -40 -8 0 -16 -5 -18 -12
-3 -9 -56 -14 -184 -18 l-179 -5 0 -1055 0 -1055 798 -3 797 -2 0 60 0 60
1205 0 1205 0 0 1060 0 1060 -1612 -2 c-887 -2 -1700 -4 -1805 -5z"/>
</g>
</svg>
