<?xml version="1.0" standalone="no"?>
<!DOCTYPE svg PUBLIC "-//W3C//DTD SVG 20010904//EN"
 "http://www.w3.org/TR/2001/REC-SVG-20010904/DTD/svg10.dtd">
<svg version="1.0" xmlns="http://www.w3.org/2000/svg"
 width="402.000000pt" height="93.000000pt" viewBox="0 0 402.000000 93.000000"
 preserveAspectRatio="xMidYMid meet">
<metadata>
Created by potrace 1.15, written by Peter Selinger 2001-2017
</metadata>
<g transform="translate(0.000000,93.000000) scale(0.100000,-0.100000)"
fill="#000000" stroke="none">
<path d="M1253 923 l-933 -3 0 -35 0 -35 68 -2 c37 0 52 -3 35 -5 -18 -2 -33
-8 -33 -14 0 -5 -16 -9 -36 -9 -27 0 -37 -5 -41 -20 -5 -19 -14 -20 -160 -20
l-154 0 3 -87 c3 -86 4 -88 28 -90 14 -1 69 -5 123 -8 l97 -7 0 -38 c0 -35 2
-38 38 -44 20 -3 279 -6 575 -6 l537 0 0 90 0 90 -50 0 c-47 0 -50 2 -50 25
l0 25 1360 0 1360 0 0 100 0 100 -917 -2 c-505 -2 -1338 -4 -1850 -5z"/>
<path d="M1940 536 c0 -70 -16 -66 281 -66 148 0 269 -4 269 -8 0 -9 -1216
-22 -2027 -22 l-464 0 3 -37 c3 -38 4 -38 53 -44 53 -5 45 -16 -15 -21 -34 -3
-35 -5 -35 -43 l0 -40 117 -5 c64 -3 120 -8 124 -12 4 -5 -2 -8 -12 -8 -11 0
-24 -4 -30 -10 -5 -5 -52 -10 -104 -12 l-95 -3 -3 -42 -3 -43 363 0 c200 0
373 -3 386 -6 12 -4 22 -13 22 -20 0 -11 -66 -14 -382 -16 l-383 -3 -3 -38 -3
-37 395 0 c345 0 396 2 396 15 0 11 11 15 39 15 22 0 41 -4 43 -9 2 -5 349
-12 791 -16 l787 -7 0 66 0 66 785 0 785 0 0 220 0 220 -1040 0 -1040 0 0 -34z"/>
</g>
</svg>
