<?xml version="1.0" standalone="no"?>
<!DOCTYPE svg PUBLIC "-//W3C//DTD SVG 20010904//EN"
 "http://www.w3.org/TR/2001/REC-SVG-20010904/DTD/svg10.dtd">
<svg version="1.0" xmlns="http://www.w3.org/2000/svg"
 width="401.000000pt" height="32.000000pt" viewBox="0 0 401.000000 32.000000"
 preserveAspectRatio="xMidYMid meet">
<metadata>
Created by potrace 1.15, written by Peter Selinger 2001-2017
</metadata>
<g transform="translate(0.000000,32.000000) scale(0.100000,-0.100000)"
fill="#000000" stroke="none">
<path d="M10 270 l0 -40 83 -2 c53 -1 65 -3 35 -5 -27 -2 -48 -8 -48 -14 0 -5
-16 -9 -35 -9 -42 0 -47 -14 -43 -120 l3 -75 422 -3 423 -2 0 60 0 60 1580 0
1580 0 0 95 0 95 -2000 0 -2000 0 0 -40z"/>
</g>
</svg>
