<?xml version="1.0" standalone="no"?>
<!DOCTYPE svg PUBLIC "-//W3C//DTD SVG 20010904//EN"
 "http://www.w3.org/TR/2001/REC-SVG-20010904/DTD/svg10.dtd">
<svg version="1.0" xmlns="http://www.w3.org/2000/svg"
 width="400.000000pt" height="57.000000pt" viewBox="0 0 400.000000 57.000000"
 preserveAspectRatio="xMidYMid meet">
<metadata>
Created by potrace 1.15, written by Peter Selinger 2001-2017
</metadata>
<g transform="translate(0.000000,57.000000) scale(0.100000,-0.100000)"
fill="#000000" stroke="none">
<path d="M1715 560 c-710 -3 -1296 -9 -1304 -14 -9 -6 -12 -21 -8 -47 6 -42
-2 -49 -58 -49 -19 0 -37 -4 -40 -10 -4 -6 -67 -10 -156 -10 l-149 0 0 -215 0
-215 1385 0 1385 0 0 65 0 65 610 0 610 0 5 23 c3 12 4 110 3 217 l-3 195
-495 1 c-272 0 -1075 -2 -1785 -6z"/>
</g>
</svg>
