<?xml version="1.0" standalone="no"?>
<!DOCTYPE svg PUBLIC "-//W3C//DTD SVG 20010904//EN"
 "http://www.w3.org/TR/2001/REC-SVG-20010904/DTD/svg10.dtd">
<svg version="1.0" xmlns="http://www.w3.org/2000/svg"
 width="401.000000pt" height="81.000000pt" viewBox="0 0 401.000000 81.000000"
 preserveAspectRatio="xMidYMid meet">
<metadata>
Created by potrace 1.15, written by Peter Selinger 2001-2017
</metadata>
<g transform="translate(0.000000,81.000000) scale(0.100000,-0.100000)"
fill="#000000" stroke="none">
<path d="M480 800 l-405 -5 -3 -25 c-6 -58 -12 -68 -42 -75 -28 -6 -30 -10
-30 -51 l0 -44 79 0 c61 0 80 -3 85 -15 4 -13 -8 -15 -80 -15 l-85 0 3 -42 c2
-36 7 -44 25 -46 31 -5 29 -22 -2 -22 l-25 0 0 -230 0 -230 1490 0 1490 0 0
65 0 65 515 0 515 0 0 340 0 340 -1562 -2 c-860 -2 -1745 -5 -1968 -8z"/>
</g>
</svg>
