<?xml version="1.0" standalone="no"?>
<!DOCTYPE svg PUBLIC "-//W3C//DTD SVG 20010904//EN"
 "http://www.w3.org/TR/2001/REC-SVG-20010904/DTD/svg10.dtd">
<svg version="1.0" xmlns="http://www.w3.org/2000/svg"
 width="401.000000pt" height="93.000000pt" viewBox="0 0 401.000000 93.000000"
 preserveAspectRatio="xMidYMid meet">
<metadata>
Created by potrace 1.15, written by Peter Selinger 2001-2017
</metadata>
<g transform="translate(0.000000,93.000000) scale(0.100000,-0.100000)"
fill="#000000" stroke="none">
<path d="M1143 923 l-1113 -3 0 -40 c0 -35 3 -40 23 -41 17 -1 14 -4 -15 -16
l-38 -16 0 -103 0 -104 47 0 c54 0 48 -17 -7 -22 -33 -3 -35 -5 -38 -44 l-3
-42 116 -7 c144 -9 141 -25 -7 -34 l-103 -6 -3 -223 -2 -222 1587 2 1588 3 3
62 3 63 414 0 415 0 0 281 0 282 -1710 -5 c-1650 -4 -1710 -4 -1710 14 0 17
63 18 1708 20 l1707 3 3 103 3 102 -878 -2 c-483 -2 -1379 -4 -1990 -5z"/>
</g>
</svg>
