<?xml version="1.0" standalone="no"?>
<!DOCTYPE svg PUBLIC "-//W3C//DTD SVG 20010904//EN"
 "http://www.w3.org/TR/2001/REC-SVG-20010904/DTD/svg10.dtd">
<svg version="1.0" xmlns="http://www.w3.org/2000/svg"
 width="274.000000pt" height="32.000000pt" viewBox="0 0 274.000000 32.000000"
 preserveAspectRatio="xMidYMid meet">
<metadata>
Created by potrace 1.15, written by Peter Selinger 2001-2017
</metadata>
<g transform="translate(0.000000,32.000000) scale(0.100000,-0.100000)"
fill="#000000" stroke="none">
<path d="M1540 276 c0 -19 6 -37 13 -39 6 -3 -63 -6 -155 -6 -105 -1 -168 -5
-168 -11 0 -6 -119 -10 -338 -10 -186 0 -441 -3 -565 -7 l-227 -6 0 -37 c0
-37 -1 -38 -45 -44 -45 -7 -45 -8 -45 -47 0 -37 2 -39 30 -39 17 0 30 -5 30
-10 0 -7 204 -9 608 -8 l607 3 3 52 3 53 722 2 722 3 3 93 3 92 -601 0 -600 0
0 -34z"/>
</g>
</svg>
