<?xml version="1.0" standalone="no"?>
<!DOCTYPE svg PUBLIC "-//W3C//DTD SVG 20010904//EN"
 "http://www.w3.org/TR/2001/REC-SVG-20010904/DTD/svg10.dtd">
<svg version="1.0" xmlns="http://www.w3.org/2000/svg"
 width="400.000000pt" height="42.000000pt" viewBox="0 0 400.000000 42.000000"
 preserveAspectRatio="xMidYMid meet">
<metadata>
Created by potrace 1.15, written by Peter Selinger 2001-2017
</metadata>
<g transform="translate(0.000000,42.000000) scale(0.100000,-0.100000)"
fill="#000000" stroke="none">
<path d="M1128 413 l-658 -3 0 -40 0 -40 52 0 c41 0 49 -3 40 -12 -9 -9 -87
-14 -287 -16 l-275 -4 0 -149 0 -149 634 0 c709 0 646 -7 646 76 l0 44 1360 0
1361 0 -3 148 -3 147 -1105 0 c-608 0 -1401 -1 -1762 -2z"/>
</g>
</svg>
