<?xml version="1.0" standalone="no"?>
<!DOCTYPE svg PUBLIC "-//W3C//DTD SVG 20010904//EN"
 "http://www.w3.org/TR/2001/REC-SVG-20010904/DTD/svg10.dtd">
<svg version="1.0" xmlns="http://www.w3.org/2000/svg"
 width="402.000000pt" height="105.000000pt" viewBox="0 0 402.000000 105.000000"
 preserveAspectRatio="xMidYMid meet">
<metadata>
Created by potrace 1.15, written by Peter Selinger 2001-2017
</metadata>
<g transform="translate(0.000000,105.000000) scale(0.100000,-0.100000)"
fill="#000000" stroke="none">
<path d="M320 1010 l0 -40 68 -2 c37 0 52 -3 35 -5 -18 -2 -33 -8 -33 -14 0
-5 -18 -9 -40 -9 -22 0 -40 -4 -40 -10 0 -6 -58 -10 -155 -10 l-155 0 0 -215
0 -215 103 0 c56 0 108 -4 116 -9 19 -12 -73 -31 -154 -31 l-65 0 0 -99 c0
-86 2 -100 18 -104 16 -4 16 -5 0 -6 -16 -1 -18 -14 -18 -121 l0 -120 839 0
839 0 6 23 c3 12 6 39 6 59 l0 38 1163 2 1162 3 0 460 0 460 -1847 3 -1848 2
0 -40z"/>
</g>
</svg>
