<?xml version="1.0" standalone="no"?>
<!DOCTYPE svg PUBLIC "-//W3C//DTD SVG 20010904//EN"
 "http://www.w3.org/TR/2001/REC-SVG-20010904/DTD/svg10.dtd">
<svg version="1.0" xmlns="http://www.w3.org/2000/svg"
 width="401.000000pt" height="57.000000pt" viewBox="0 0 401.000000 57.000000"
 preserveAspectRatio="xMidYMid meet">
<metadata>
Created by potrace 1.15, written by Peter Selinger 2001-2017
</metadata>
<g transform="translate(0.000000,57.000000) scale(0.100000,-0.100000)"
fill="#000000" stroke="none">
<path d="M2160 560 c-855 -4 -1619 -8 -1697 -9 l-143 -1 0 -35 c0 -26 4 -35
17 -35 14 0 14 -3 -5 -20 -19 -18 -35 -20 -171 -20 -126 0 -150 -2 -155 -16
-9 -22 -7 -157 2 -171 5 -7 49 -15 114 -19 90 -6 104 -9 93 -20 -10 -10 -42
-14 -109 -14 -112 0 -109 3 -104 -120 l3 -75 2000 0 2000 0 0 280 0 280 -145
1 c-80 0 -845 -3 -1700 -6z"/>
</g>
</svg>
