<?xml version="1.0" standalone="no"?>
<!DOCTYPE svg PUBLIC "-//W3C//DTD SVG 20010904//EN"
 "http://www.w3.org/TR/2001/REC-SVG-20010904/DTD/svg10.dtd">
<svg version="1.0" xmlns="http://www.w3.org/2000/svg"
 width="401.000000pt" height="32.000000pt" viewBox="0 0 401.000000 32.000000"
 preserveAspectRatio="xMidYMid meet">
<metadata>
Created by potrace 1.15, written by Peter Selinger 2001-2017
</metadata>
<g transform="translate(0.000000,32.000000) scale(0.100000,-0.100000)"
fill="#000000" stroke="none">
<path d="M1303 313 l-863 -3 0 -35 0 -35 53 -1 c28 -1 43 -4 32 -6 -11 -3 -23
-10 -27 -17 -5 -7 -83 -12 -248 -15 -277 -4 -253 7 -248 -116 l3 -70 191 -3
191 -2 7 31 c3 17 6 42 6 55 l0 24 1803 2 1802 3 3 98 3 97 -923 -2 c-508 -2
-1311 -4 -1785 -5z"/>
</g>
</svg>
