<?xml version="1.0" standalone="no"?>
<!DOCTYPE svg PUBLIC "-//W3C//DTD SVG 20010904//EN"
 "http://www.w3.org/TR/2001/REC-SVG-20010904/DTD/svg10.dtd">
<svg version="1.0" xmlns="http://www.w3.org/2000/svg"
 width="154.000000pt" height="21.000000pt" viewBox="0 0 154.000000 21.000000"
 preserveAspectRatio="xMidYMid meet">
<metadata>
Created by potrace 1.15, written by Peter Selinger 2001-2017
</metadata>
<g transform="translate(0.000000,21.000000) scale(0.100000,-0.100000)"
fill="#000000" stroke="none">
<path d="M280 190 c0 -5 -7 -10 -15 -10 -10 0 -15 -10 -15 -30 l0 -30 -125 0
-125 0 0 -40 0 -40 140 0 c133 0 140 -1 140 -20 0 -20 7 -20 625 -20 l624 0 6
33 c3 17 5 61 3 97 l-3 65 -627 3 c-417 1 -628 -1 -628 -8z"/>
</g>
</svg>
