<?xml version="1.0" standalone="no"?>
<!DOCTYPE svg PUBLIC "-//W3C//DTD SVG 20010904//EN"
 "http://www.w3.org/TR/2001/REC-SVG-20010904/DTD/svg10.dtd">
<svg version="1.0" xmlns="http://www.w3.org/2000/svg"
 width="401.000000pt" height="70.000000pt" viewBox="0 0 401.000000 70.000000"
 preserveAspectRatio="xMidYMid meet">
<metadata>
Created by potrace 1.15, written by Peter Selinger 2001-2017
</metadata>
<g transform="translate(0.000000,70.000000) scale(0.100000,-0.100000)"
fill="#000000" stroke="none">
<path d="M2373 683 l-523 -3 0 -35 0 -34 108 -3 c69 -2 10 -6 -166 -12 -216
-7 -275 -11 -279 -22 -4 -12 -92 -14 -512 -14 -278 0 -617 -3 -754 -7 l-248
-6 3 -151 3 -151 113 -3 c63 -1 112 -7 112 -12 0 -6 -16 -10 -36 -10 -27 0
-37 -5 -41 -20 -5 -18 -14 -20 -79 -20 l-74 0 0 -90 0 -90 1195 0 1195 0 0 60
0 60 808 2 807 3 3 283 2 282 -557 -2 c-307 -2 -793 -4 -1080 -5z"/>
</g>
</svg>
