<?xml version="1.0" standalone="no"?>
<!DOCTYPE svg PUBLIC "-//W3C//DTD SVG 20010904//EN"
 "http://www.w3.org/TR/2001/REC-SVG-20010904/DTD/svg10.dtd">
<svg version="1.0" xmlns="http://www.w3.org/2000/svg"
 width="399.000000pt" height="42.000000pt" viewBox="0 0 399.000000 42.000000"
 preserveAspectRatio="xMidYMid meet">
<metadata>
Created by potrace 1.15, written by Peter Selinger 2001-2017
</metadata>
<g transform="translate(0.000000,42.000000) scale(0.100000,-0.100000)"
fill="#000000" stroke="none">
<path d="M3514 406 c-8 -21 -28 -26 -144 -36 -58 -6 -106 -14 -108 -20 -2 -5
-19 -10 -38 -10 -24 0 -34 -5 -34 -15 0 -13 -121 -15 -1028 -15 -566 0 -1266
-3 -1555 -7 l-527 -6 0 -39 0 -38 48 -1 c42 -2 39 -3 -28 -12 -41 -6 -80 -16
-87 -23 -9 -8 -13 -43 -13 -98 l0 -86 999 0 c902 0 999 2 1005 16 3 9 6 36 6
60 l0 44 990 0 990 0 0 150 0 150 -235 0 c-195 0 -237 -2 -241 -14z"/>
</g>
</svg>
