<?xml version="1.0" standalone="no"?>
<!DOCTYPE svg PUBLIC "-//W3C//DTD SVG 20010904//EN"
 "http://www.w3.org/TR/2001/REC-SVG-20010904/DTD/svg10.dtd">
<svg version="1.0" xmlns="http://www.w3.org/2000/svg"
 width="318.000000pt" height="31.000000pt" viewBox="0 0 318.000000 31.000000"
 preserveAspectRatio="xMidYMid meet">
<metadata>
Created by potrace 1.15, written by Peter Selinger 2001-2017
</metadata>
<g transform="translate(0.000000,31.000000) scale(0.100000,-0.100000)"
fill="#000000" stroke="none">
<path d="M623 303 l-623 -3 0 -40 0 -40 43 -1 c23 -1 33 -3 22 -6 -47 -10 -65
-26 -65 -59 0 -20 6 -34 16 -38 9 -3 192 -6 408 -6 216 0 454 -3 529 -7 l136
-6 3 -36 3 -36 150 -8 c83 -5 549 -10 1036 -13 l887 -4 7 122 c4 68 5 137 3
153 l-3 30 -965 0 c-531 0 -1245 -1 -1587 -2z"/>
</g>
</svg>
