<?xml version="1.0" standalone="no"?>
<!DOCTYPE svg PUBLIC "-//W3C//DTD SVG 20010904//EN"
 "http://www.w3.org/TR/2001/REC-SVG-20010904/DTD/svg10.dtd">
<svg version="1.0" xmlns="http://www.w3.org/2000/svg"
 width="401.000000pt" height="30.000000pt" viewBox="0 0 401.000000 30.000000"
 preserveAspectRatio="xMidYMid meet">
<metadata>
Created by potrace 1.15, written by Peter Selinger 2001-2017
</metadata>
<g transform="translate(0.000000,30.000000) scale(0.100000,-0.100000)"
fill="#000000" stroke="none">
<path d="M1313 293 l-913 -3 0 -35 0 -35 93 -1 c77 -1 85 -3 47 -9 -25 -4 -72
-13 -105 -19 -33 -6 -142 -11 -242 -11 -211 0 -197 8 -191 -110 l3 -65 1813
-3 1812 -2 0 55 0 55 190 0 190 0 0 95 0 95 -892 -2 c-491 -2 -1304 -4 -1805
-5z"/>
</g>
</svg>
