<?xml version="1.0" standalone="no"?>
<!DOCTYPE svg PUBLIC "-//W3C//DTD SVG 20010904//EN"
 "http://www.w3.org/TR/2001/REC-SVG-20010904/DTD/svg10.dtd">
<svg version="1.0" xmlns="http://www.w3.org/2000/svg"
 width="402.000000pt" height="58.000000pt" viewBox="0 0 402.000000 58.000000"
 preserveAspectRatio="xMidYMid meet">
<metadata>
Created by potrace 1.15, written by Peter Selinger 2001-2017
</metadata>
<g transform="translate(0.000000,58.000000) scale(0.100000,-0.100000)"
fill="#000000" stroke="none">
<path d="M1798 573 l-708 -3 0 -40 c0 -34 3 -40 21 -40 11 0 17 -5 14 -10 -3
-6 -50 -10 -106 -10 -81 0 -99 -3 -99 -15 0 -13 -58 -15 -460 -15 l-460 0 0
-215 0 -215 1060 0 1060 0 0 60 0 60 950 0 950 0 -2 223 -3 222 -755 0 c-415
0 -1073 -1 -1462 -2z"/>
</g>
</svg>
