<?xml version="1.0" standalone="no"?>
<!DOCTYPE svg PUBLIC "-//W3C//DTD SVG 20010904//EN"
 "http://www.w3.org/TR/2001/REC-SVG-20010904/DTD/svg10.dtd">
<svg version="1.0" xmlns="http://www.w3.org/2000/svg"
 width="400.000000pt" height="32.000000pt" viewBox="0 0 400.000000 32.000000"
 preserveAspectRatio="xMidYMid meet">
<metadata>
Created by potrace 1.15, written by Peter Selinger 2001-2017
</metadata>
<g transform="translate(0.000000,32.000000) scale(0.100000,-0.100000)"
fill="#000000" stroke="none">
<path d="M2290 281 c0 -29 5 -41 18 -44 9 -3 -16 -5 -55 -6 l-73 -1 0 -40 0
-40 55 0 c30 0 55 -4 55 -10 0 -7 292 -10 855 -10 l855 0 0 95 0 95 -855 0
-855 0 0 -39z"/>
<path d="M0 105 l0 -95 170 0 170 0 0 95 0 95 -170 0 -170 0 0 -95z"/>
</g>
</svg>
