<?xml version="1.0" standalone="no"?>
<!DOCTYPE svg PUBLIC "-//W3C//DTD SVG 20010904//EN"
 "http://www.w3.org/TR/2001/REC-SVG-20010904/DTD/svg10.dtd">
<svg version="1.0" xmlns="http://www.w3.org/2000/svg"
 width="171.000000pt" height="20.000000pt" viewBox="0 0 171.000000 20.000000"
 preserveAspectRatio="xMidYMid meet">
<metadata>
Created by potrace 1.15, written by Peter Selinger 2001-2017
</metadata>
<g transform="translate(0.000000,20.000000) scale(0.100000,-0.100000)"
fill="#000000" stroke="none">
<path d="M333 193 c-18 -4 -23 -11 -23 -37 0 -31 -3 -34 -37 -40 -21 -3 -89
-6 -150 -6 l-113 0 0 -40 0 -40 135 0 c83 0 135 -4 135 -10 0 -7 245 -10 715
-10 l715 0 0 95 0 95 -677 -1 c-373 -1 -688 -4 -700 -6z"/>
</g>
</svg>
