<?xml version="1.0" standalone="no"?>
<!DOCTYPE svg PUBLIC "-//W3C//DTD SVG 20010904//EN"
 "http://www.w3.org/TR/2001/REC-SVG-20010904/DTD/svg10.dtd">
<svg version="1.0" xmlns="http://www.w3.org/2000/svg"
 width="401.000000pt" height="129.000000pt" viewBox="0 0 401.000000 129.000000"
 preserveAspectRatio="xMidYMid meet">
<metadata>
Created by potrace 1.15, written by Peter Selinger 2001-2017
</metadata>
<g transform="translate(0.000000,129.000000) scale(0.100000,-0.100000)"
fill="#000000" stroke="none">
<path d="M787 1283 l-478 -3 3 -38 c3 -37 3 -37 50 -40 64 -4 62 -22 -2 -22
-27 0 -50 -4 -50 -10 0 -6 -58 -10 -155 -10 l-155 0 0 -395 0 -395 115 0 c70
0 115 -4 115 -10 0 -5 -17 -10 -38 -10 -21 0 -42 -4 -47 -9 -6 -6 -39 -11 -75
-13 l-65 -3 0 -160 0 -160 543 -3 542 -2 0 65 0 65 1460 0 1460 0 -2 578 -3
577 -1370 0 c-753 0 -1585 -1 -1848 -2z"/>
</g>
</svg>
