<?xml version="1.0" standalone="no"?>
<!DOCTYPE svg PUBLIC "-//W3C//DTD SVG 20010904//EN"
 "http://www.w3.org/TR/2001/REC-SVG-20010904/DTD/svg10.dtd">
<svg version="1.0" xmlns="http://www.w3.org/2000/svg"
 width="399.000000pt" height="33.000000pt" viewBox="0 0 399.000000 33.000000"
 preserveAspectRatio="xMidYMid meet">
<metadata>
Created by potrace 1.15, written by Peter Selinger 2001-2017
</metadata>
<g transform="translate(0.000000,33.000000) scale(0.100000,-0.100000)"
fill="#000000" stroke="none">
<path d="M2048 313 l-518 -3 0 -35 c0 -33 2 -35 38 -37 20 -1 -8 -4 -63 -7
l-100 -6 0 -40 0 -40 70 -6 c39 -4 620 -7 1293 -8 l1222 -1 0 95 0 95 -712 -2
c-392 -2 -946 -4 -1230 -5z"/>
<path d="M0 100 l0 -100 190 0 190 0 0 100 0 100 -190 0 -190 0 0 -100z"/>
</g>
</svg>
