<?xml version="1.0" standalone="no"?>
<!DOCTYPE svg PUBLIC "-//W3C//DTD SVG 20010904//EN"
 "http://www.w3.org/TR/2001/REC-SVG-20010904/DTD/svg10.dtd">
<svg version="1.0" xmlns="http://www.w3.org/2000/svg"
 width="402.000000pt" height="26.000000pt" viewBox="0 0 402.000000 26.000000"
 preserveAspectRatio="xMidYMid meet">
<metadata>
Created by potrace 1.15, written by Peter Selinger 2001-2017
</metadata>
<g transform="translate(0.000000,26.000000) scale(0.100000,-0.100000)"
fill="#000000" stroke="none">
<path d="M3415 253 c-164 -4 -165 -4 -165 -53 l0 -40 74 0 c56 0 75 -4 80 -15
5 -13 49 -15 311 -15 l305 0 0 65 0 65 -242 -2 c-134 -1 -297 -4 -363 -5z"/>
<path d="M7 203 c-4 -3 -7 -48 -7 -100 l0 -93 368 2 367 3 3 75 c2 41 0 85 -3
97 l-5 23 -359 0 c-197 0 -361 -3 -364 -7z"/>
</g>
</svg>
