<?xml version="1.0" standalone="no"?>
<!DOCTYPE svg PUBLIC "-//W3C//DTD SVG 20010904//EN"
 "http://www.w3.org/TR/2001/REC-SVG-20010904/DTD/svg10.dtd">
<svg version="1.0" xmlns="http://www.w3.org/2000/svg"
 width="401.000000pt" height="35.000000pt" viewBox="0 0 401.000000 35.000000"
 preserveAspectRatio="xMidYMid meet">
<metadata>
Created by potrace 1.15, written by Peter Selinger 2001-2017
</metadata>
<g transform="translate(0.000000,35.000000) scale(0.100000,-0.100000)"
fill="#000000" stroke="none">
<path d="M3305 339 c-176 -3 -450 -7 -609 -8 l-288 -1 4 -40 4 -40 -123 0
c-96 0 -123 -3 -123 -13 0 -19 -308 -27 -1085 -27 -348 0 -707 -3 -799 -7
l-167 -6 3 -36 3 -36 233 -3 c224 -2 232 -3 232 -22 0 -19 -8 -20 -295 -20
l-295 0 0 -35 0 -35 1665 0 1665 0 0 60 0 60 338 2 337 3 3 108 3 107 -193 -2
c-106 -1 -337 -5 -513 -9z"/>
</g>
</svg>
