<?xml version="1.0" standalone="no"?>
<!DOCTYPE svg PUBLIC "-//W3C//DTD SVG 20010904//EN"
 "http://www.w3.org/TR/2001/REC-SVG-20010904/DTD/svg10.dtd">
<svg version="1.0" xmlns="http://www.w3.org/2000/svg"
 width="401.000000pt" height="34.000000pt" viewBox="0 0 401.000000 34.000000"
 preserveAspectRatio="xMidYMid meet">
<metadata>
Created by potrace 1.15, written by Peter Selinger 2001-2017
</metadata>
<g transform="translate(0.000000,34.000000) scale(0.100000,-0.100000)"
fill="#000000" stroke="none">
<path d="M317 323 c-4 -3 -7 -21 -7 -40 0 -29 3 -33 26 -33 23 0 24 -2 10 -15
-8 -8 -19 -15 -25 -15 -6 0 -11 -7 -11 -15 0 -12 -26 -15 -152 -17 l-153 -3 0
-85 0 -85 1357 -3 1358 -2 0 60 0 60 645 0 645 0 0 100 0 100 -1843 0 c-1014
0 -1847 -3 -1850 -7z"/>
</g>
</svg>
