<?xml version="1.0" standalone="no"?>
<!DOCTYPE svg PUBLIC "-//W3C//DTD SVG 20010904//EN"
 "http://www.w3.org/TR/2001/REC-SVG-20010904/DTD/svg10.dtd">
<svg version="1.0" xmlns="http://www.w3.org/2000/svg"
 width="400.000000pt" height="47.000000pt" viewBox="0 0 400.000000 47.000000"
 preserveAspectRatio="xMidYMid meet">
<metadata>
Created by potrace 1.15, written by Peter Selinger 2001-2017
</metadata>
<g transform="translate(0.000000,47.000000) scale(0.100000,-0.100000)"
fill="#000000" stroke="none">
<path d="M1415 449 c-401 -3 -794 -7 -872 -8 l-143 -1 0 -35 c0 -34 1 -35 43
-36 36 -2 34 -3 -23 -11 -36 -5 -79 -13 -96 -18 -17 -6 -96 -10 -177 -10
l-147 0 0 -100 0 -99 102 -3 c89 -3 103 -5 106 -20 3 -16 -7 -18 -102 -18
l-106 0 0 -45 0 -45 160 0 c100 0 160 4 160 10 0 7 620 10 1840 10 l1840 0 -2
218 -3 217 -925 1 c-509 0 -1253 -3 -1655 -7z"/>
</g>
</svg>
