<?xml version="1.0" standalone="no"?>
<!DOCTYPE svg PUBLIC "-//W3C//DTD SVG 20010904//EN"
 "http://www.w3.org/TR/2001/REC-SVG-20010904/DTD/svg10.dtd">
<svg version="1.0" xmlns="http://www.w3.org/2000/svg"
 width="401.000000pt" height="32.000000pt" viewBox="0 0 401.000000 32.000000"
 preserveAspectRatio="xMidYMid meet">
<metadata>
Created by potrace 1.15, written by Peter Selinger 2001-2017
</metadata>
<g transform="translate(0.000000,32.000000) scale(0.100000,-0.100000)"
fill="#000000" stroke="none">
<path d="M2172 310 c-1109 -5 -1667 -11 -1673 -17 -6 -6 -9 -23 -7 -39 3 -29
4 -29 83 -35 44 -3 62 -6 40 -7 -91 -5 -145 -15 -145 -28 0 -11 -46 -14 -233
-16 l-232 -3 0 -80 0 -80 405 0 405 0 3 58 3 57 1594 0 1595 0 0 100 0 100
-87 -2 c-49 -1 -836 -5 -1751 -8z"/>
</g>
</svg>
