<?xml version="1.0" standalone="no"?>
<!DOCTYPE svg PUBLIC "-//W3C//DTD SVG 20010904//EN"
 "http://www.w3.org/TR/2001/REC-SVG-20010904/DTD/svg10.dtd">
<svg version="1.0" xmlns="http://www.w3.org/2000/svg"
 width="192.000000pt" height="20.000000pt" viewBox="0 0 192.000000 20.000000"
 preserveAspectRatio="xMidYMid meet">
<metadata>
Created by potrace 1.15, written by Peter Selinger 2001-2017
</metadata>
<g transform="translate(0.000000,20.000000) scale(0.100000,-0.100000)"
fill="#000000" stroke="none">
<path d="M330 187 c0 -7 -20 -18 -45 -25 -28 -7 -45 -18 -45 -27 0 -13 -20
-15 -120 -15 l-120 0 0 -45 0 -45 165 0 c103 0 165 -4 165 -10 0 -7 272 -10
795 -10 l796 0 -3 93 -3 92 -792 3 c-645 2 -793 0 -793 -11z"/>
</g>
</svg>
