<?xml version="1.0" standalone="no"?>
<!DOCTYPE svg PUBLIC "-//W3C//DTD SVG 20010904//EN"
 "http://www.w3.org/TR/2001/REC-SVG-20010904/DTD/svg10.dtd">
<svg version="1.0" xmlns="http://www.w3.org/2000/svg"
 width="401.000000pt" height="32.000000pt" viewBox="0 0 401.000000 32.000000"
 preserveAspectRatio="xMidYMid meet">
<metadata>
Created by potrace 1.15, written by Peter Selinger 2001-2017
</metadata>
<g transform="translate(0.000000,32.000000) scale(0.100000,-0.100000)"
fill="#000000" stroke="none">
<path d="M768 313 l-178 -3 0 -40 0 -40 -54 0 c-34 0 -56 -5 -58 -12 -3 -9
-47 -14 -156 -16 -84 -3 -152 -8 -152 -13 0 -4 -37 -9 -82 -11 l-83 -3 0 -80
0 -80 1038 -3 1037 -2 0 60 0 60 965 0 966 0 -3 93 -3 92 -1530 0 c-841 0
-1610 -1 -1707 -2z"/>
</g>
</svg>
