<?xml version="1.0" standalone="no"?>
<!DOCTYPE svg PUBLIC "-//W3C//DTD SVG 20010904//EN"
 "http://www.w3.org/TR/2001/REC-SVG-20010904/DTD/svg10.dtd">
<svg version="1.0" xmlns="http://www.w3.org/2000/svg"
 width="400.000000pt" height="65.000000pt" viewBox="0 0 400.000000 65.000000"
 preserveAspectRatio="xMidYMid meet">
<metadata>
Created by potrace 1.15, written by Peter Selinger 2001-2017
</metadata>
<g transform="translate(0.000000,65.000000) scale(0.100000,-0.100000)"
fill="#000000" stroke="none">
<path d="M1760 640 c-575 -3 -1046 -7 -1047 -8 -1 -1 -3 -19 -5 -39 l-3 -38
-115 -13 c-63 -7 -222 -15 -354 -18 l-239 -6 8 -136 c4 -76 8 -139 10 -141 2
-2 48 -7 102 -11 54 -4 77 -8 52 -9 -25 0 -71 -6 -102 -12 l-57 -12 0 -99 0
-98 203 2 202 3 3 63 3 62 1790 0 1789 0 -2 258 -3 257 -595 0 c-327 0 -1065
-2 -1640 -5z"/>
</g>
</svg>
