<?xml version="1.0" standalone="no"?>
<!DOCTYPE svg PUBLIC "-//W3C//DTD SVG 20010904//EN"
 "http://www.w3.org/TR/2001/REC-SVG-20010904/DTD/svg10.dtd">
<svg version="1.0" xmlns="http://www.w3.org/2000/svg"
 width="299.000000pt" height="32.000000pt" viewBox="0 0 299.000000 32.000000"
 preserveAspectRatio="xMidYMid meet">
<metadata>
Created by potrace 1.15, written by Peter Selinger 2001-2017
</metadata>
<g transform="translate(0.000000,32.000000) scale(0.100000,-0.100000)"
fill="#000000" stroke="none">
<path d="M1638 313 l-208 -3 0 -40 0 -40 -115 0 c-94 0 -117 -3 -121 -15 -5
-13 -80 -15 -590 -15 l-584 0 0 -39 c0 -22 5 -42 13 -44 7 -3 5 -6 -5 -6 -14
-1 -18 -10 -18 -35 0 -72 -67 -66 746 -66 l734 0 0 55 0 55 750 0 750 0 0 100
0 100 -572 -2 c-315 -2 -666 -4 -780 -5z"/>
</g>
</svg>
