<?xml version="1.0" standalone="no"?>
<!DOCTYPE svg PUBLIC "-//W3C//DTD SVG 20010904//EN"
 "http://www.w3.org/TR/2001/REC-SVG-20010904/DTD/svg10.dtd">
<svg version="1.0" xmlns="http://www.w3.org/2000/svg"
 width="402.000000pt" height="200.000000pt" viewBox="0 0 402.000000 200.000000"
 preserveAspectRatio="xMidYMid meet">
<metadata>
Created by potrace 1.15, written by Peter Selinger 2001-2017
</metadata>
<g transform="translate(0.000000,200.000000) scale(0.100000,-0.100000)"
fill="#000000" stroke="none">
<path d="M1203 1993 l-1193 -3 0 -40 c0 -38 2 -40 30 -40 17 0 30 -4 30 -10 0
-5 -13 -10 -29 -10 -29 0 -29 -1 -33 -62 -1 -35 -1 -458 0 -940 l4 -878 2004
0 2004 0 -2 993 -3 992 -810 0 c-445 0 -1347 -1 -2002 -2z"/>
</g>
</svg>
