<?xml version="1.0" standalone="no"?>
<!DOCTYPE svg PUBLIC "-//W3C//DTD SVG 20010904//EN"
 "http://www.w3.org/TR/2001/REC-SVG-20010904/DTD/svg10.dtd">
<svg version="1.0" xmlns="http://www.w3.org/2000/svg"
 width="401.000000pt" height="75.000000pt" viewBox="0 0 401.000000 75.000000"
 preserveAspectRatio="xMidYMid meet">
<metadata>
Created by potrace 1.15, written by Peter Selinger 2001-2017
</metadata>
<g transform="translate(0.000000,75.000000) scale(0.100000,-0.100000)"
fill="#000000" stroke="none">
<path d="M460 700 l0 -40 40 0 c22 0 40 -4 40 -9 0 -14 -111 -21 -327 -21
l-204 0 3 -42 3 -43 82 -3 c46 -2 83 -7 83 -12 0 -5 -39 -11 -87 -12 l-88 -3
0 -255 0 -255 1263 -3 1262 -2 0 55 0 55 738 2 737 3 3 313 2 312 -1775 0
-1775 0 0 -40z"/>
</g>
</svg>
