<?xml version="1.0" standalone="no"?>
<!DOCTYPE svg PUBLIC "-//W3C//DTD SVG 20010904//EN"
 "http://www.w3.org/TR/2001/REC-SVG-20010904/DTD/svg10.dtd">
<svg version="1.0" xmlns="http://www.w3.org/2000/svg"
 width="401.000000pt" height="129.000000pt" viewBox="0 0 401.000000 129.000000"
 preserveAspectRatio="xMidYMid meet">
<metadata>
Created by potrace 1.15, written by Peter Selinger 2001-2017
</metadata>
<g transform="translate(0.000000,129.000000) scale(0.100000,-0.100000)"
fill="#000000" stroke="none">
<path d="M310 1245 l0 -35 78 -2 c42 -1 60 -3 40 -5 -21 -2 -38 -8 -38 -14 0
-5 -18 -9 -40 -9 -22 0 -40 -4 -40 -10 0 -6 -62 -11 -152 -12 l-153 -3 -3
-555 c-1 -305 0 -565 3 -578 l5 -22 993 2 992 3 3 63 3 62 1004 0 1005 0 0
575 0 575 -1850 0 -1850 0 0 -35z"/>
</g>
</svg>
