<?xml version="1.0" standalone="no"?>
<!DOCTYPE svg PUBLIC "-//W3C//DTD SVG 20010904//EN"
 "http://www.w3.org/TR/2001/REC-SVG-20010904/DTD/svg10.dtd">
<svg version="1.0" xmlns="http://www.w3.org/2000/svg"
 width="401.000000pt" height="106.000000pt" viewBox="0 0 401.000000 106.000000"
 preserveAspectRatio="xMidYMid meet">
<metadata>
Created by potrace 1.15, written by Peter Selinger 2001-2017
</metadata>
<g transform="translate(0.000000,106.000000) scale(0.100000,-0.100000)"
fill="#000000" stroke="none">
<path d="M792 1043 l-433 -3 3 -38 c2 -30 7 -38 26 -40 38 -6 13 -22 -34 -22
-24 0 -44 -4 -44 -10 0 -6 -62 -11 -152 -12 l-153 -3 0 -455 0 -455 153 -3
152 -3 0 66 0 65 1848 2 1847 3 3 458 2 457 -1392 -2 c-766 -2 -1588 -4 -1826
-5z"/>
</g>
</svg>
