<?xml version="1.0" standalone="no"?>
<!DOCTYPE svg PUBLIC "-//W3C//DTD SVG 20010904//EN"
 "http://www.w3.org/TR/2001/REC-SVG-20010904/DTD/svg10.dtd">
<svg version="1.0" xmlns="http://www.w3.org/2000/svg"
 width="401.000000pt" height="34.000000pt" viewBox="0 0 401.000000 34.000000"
 preserveAspectRatio="xMidYMid meet">
<metadata>
Created by potrace 1.15, written by Peter Selinger 2001-2017
</metadata>
<g transform="translate(0.000000,34.000000) scale(0.100000,-0.100000)"
fill="#000000" stroke="none">
<path d="M2140 300 c0 -22 -1 -41 -2 -41 -2 -1 -106 -4 -233 -8 l-230 -6 -3
-42 -3 -43 35 0 c20 0 36 -4 36 -10 0 -7 385 -10 1135 -10 l1135 0 0 100 0
100 -935 0 -935 0 0 -40z"/>
<path d="M0 110 l0 -100 389 0 389 0 6 31 c8 40 8 98 0 138 l-7 31 -388 0
-389 0 0 -100z"/>
</g>
</svg>
