<?xml version="1.0" standalone="no"?>
<!DOCTYPE svg PUBLIC "-//W3C//DTD SVG 20010904//EN"
 "http://www.w3.org/TR/2001/REC-SVG-20010904/DTD/svg10.dtd">
<svg version="1.0" xmlns="http://www.w3.org/2000/svg"
 width="128.000000pt" height="25.000000pt" viewBox="0 0 128.000000 25.000000"
 preserveAspectRatio="xMidYMid meet">
<metadata>
Created by potrace 1.15, written by Peter Selinger 2001-2017
</metadata>
<g transform="translate(0.000000,25.000000) scale(0.100000,-0.100000)"
fill="#000000" stroke="none">
<path d="M207 243 l-197 -3 0 -44 0 -43 137 -6 c75 -4 189 -7 254 -7 68 0 120
-4 124 -10 3 -5 1 -10 -4 -10 -6 0 -11 -20 -11 -45 l0 -45 265 0 c170 0 265
-4 265 -10 0 -6 47 -10 120 -10 l120 0 0 62 0 61 -245 -6 -245 -5 0 64 0 64
-192 -2 c-106 -2 -282 -4 -391 -5z"/>
</g>
</svg>
