<?xml version="1.0" standalone="no"?>
<!DOCTYPE svg PUBLIC "-//W3C//DTD SVG 20010904//EN"
 "http://www.w3.org/TR/2001/REC-SVG-20010904/DTD/svg10.dtd">
<svg version="1.0" xmlns="http://www.w3.org/2000/svg"
 width="401.000000pt" height="58.000000pt" viewBox="0 0 401.000000 58.000000"
 preserveAspectRatio="xMidYMid meet">
<metadata>
Created by potrace 1.15, written by Peter Selinger 2001-2017
</metadata>
<g transform="translate(0.000000,58.000000) scale(0.100000,-0.100000)"
fill="#000000" stroke="none">
<path d="M1577 563 l-1117 -3 0 -40 c0 -40 0 -40 -40 -40 -22 0 -40 -4 -40
-10 0 -5 -16 -10 -35 -10 -19 0 -35 -4 -35 -10 0 -6 -58 -10 -155 -10 l-155 0
2 -212 3 -213 1378 -3 1377 -2 0 60 0 60 625 0 625 0 0 220 0 220 -657 -2
c-362 -2 -1161 -4 -1776 -5z"/>
</g>
</svg>
