<?xml version="1.0" standalone="no"?>
<!DOCTYPE svg PUBLIC "-//W3C//DTD SVG 20010904//EN"
 "http://www.w3.org/TR/2001/REC-SVG-20010904/DTD/svg10.dtd">
<svg version="1.0" xmlns="http://www.w3.org/2000/svg"
 width="378.000000pt" height="21.000000pt" viewBox="0 0 378.000000 21.000000"
 preserveAspectRatio="xMidYMid meet">
<metadata>
Created by potrace 1.15, written by Peter Selinger 2001-2017
</metadata>
<g transform="translate(0.000000,21.000000) scale(0.100000,-0.100000)"
fill="#000000" stroke="none">
<path d="M1633 193 l-173 -3 0 -40 0 -40 -75 0 -75 0 0 -40 c0 -36 3 -40 24
-40 13 0 26 -4 28 -9 2 -5 516 -10 1208 -12 l1205 -4 3 98 3 97 -988 -2 c-543
-1 -1066 -4 -1160 -5z"/>
<path d="M0 40 l0 -40 605 0 605 0 0 40 0 40 -605 0 -605 0 0 -40z"/>
</g>
</svg>
