<?xml version="1.0" standalone="no"?>
<!DOCTYPE svg PUBLIC "-//W3C//DTD SVG 20010904//EN"
 "http://www.w3.org/TR/2001/REC-SVG-20010904/DTD/svg10.dtd">
<svg version="1.0" xmlns="http://www.w3.org/2000/svg"
 width="401.000000pt" height="106.000000pt" viewBox="0 0 401.000000 106.000000"
 preserveAspectRatio="xMidYMid meet">
<metadata>
Created by potrace 1.15, written by Peter Selinger 2001-2017
</metadata>
<g transform="translate(0.000000,106.000000) scale(0.100000,-0.100000)"
fill="#000000" stroke="none">
<path d="M805 1050 l-440 -5 -3 -37 -3 -38 58 -1 58 -1 -70 -15 c-38 -8 -144
-18 -235 -21 l-165 -7 -3 -260 c-1 -143 0 -270 3 -283 5 -20 11 -22 70 -22 37
0 65 -4 65 -10 0 -6 -28 -10 -65 -10 l-65 0 0 -45 c0 -45 0 -45 36 -45 21 0
33 -4 29 -10 -3 -5 -19 -10 -35 -10 -37 0 -42 -16 -38 -130 l3 -85 973 -3 972
-2 0 60 0 60 1030 0 1030 0 0 465 0 465 -1382 -2 c-761 -2 -1581 -5 -1823 -8z"/>
</g>
</svg>
