<?xml version="1.0" standalone="no"?>
<!DOCTYPE svg PUBLIC "-//W3C//DTD SVG 20010904//EN"
 "http://www.w3.org/TR/2001/REC-SVG-20010904/DTD/svg10.dtd">
<svg version="1.0" xmlns="http://www.w3.org/2000/svg"
 width="401.000000pt" height="189.000000pt" viewBox="0 0 401.000000 189.000000"
 preserveAspectRatio="xMidYMid meet">
<metadata>
Created by potrace 1.15, written by Peter Selinger 2001-2017
</metadata>
<g transform="translate(0.000000,189.000000) scale(0.100000,-0.100000)"
fill="#000000" stroke="none">
<path d="M1528 1883 l-1158 -3 0 -40 0 -40 88 -1 87 -2 -88 -8 c-49 -4 -96
-11 -105 -15 -9 -4 -91 -10 -182 -13 l-165 -6 -3 -855 c-1 -470 0 -865 3 -878
l5 -22 1178 2 1177 3 3 63 3 62 819 0 820 0 0 880 0 880 -662 -2 c-365 -2
-1184 -4 -1820 -5z"/>
</g>
</svg>
