<?xml version="1.0" standalone="no"?>
<!DOCTYPE svg PUBLIC "-//W3C//DTD SVG 20010904//EN"
 "http://www.w3.org/TR/2001/REC-SVG-20010904/DTD/svg10.dtd">
<svg version="1.0" xmlns="http://www.w3.org/2000/svg"
 width="402.000000pt" height="69.000000pt" viewBox="0 0 402.000000 69.000000"
 preserveAspectRatio="xMidYMid meet">
<metadata>
Created by potrace 1.15, written by Peter Selinger 2001-2017
</metadata>
<g transform="translate(0.000000,69.000000) scale(0.100000,-0.100000)"
fill="#000000" stroke="none">
<path d="M2675 679 c-445 -3 -1147 -7 -1560 -8 -412 0 -814 -4 -892 -8 l-143
-6 0 -38 c0 -42 4 -44 105 -52 22 -2 -11 -4 -72 -5 l-113 -2 0 -160 c0 -154 1
-161 21 -168 19 -7 19 -9 5 -21 -13 -11 -16 -34 -16 -112 l0 -99 1830 0 1830
0 0 60 0 60 175 0 175 0 0 105 0 105 -60 0 c-46 0 -60 3 -60 15 0 10 15 15 58
17 l57 3 3 163 2 162 -267 -2 c-148 -1 -632 -5 -1078 -9z"/>
</g>
</svg>
