<?xml version="1.0" standalone="no"?>
<!DOCTYPE svg PUBLIC "-//W3C//DTD SVG 20010904//EN"
 "http://www.w3.org/TR/2001/REC-SVG-20010904/DTD/svg10.dtd">
<svg version="1.0" xmlns="http://www.w3.org/2000/svg"
 width="401.000000pt" height="58.000000pt" viewBox="0 0 401.000000 58.000000"
 preserveAspectRatio="xMidYMid meet">
<metadata>
Created by potrace 1.15, written by Peter Selinger 2001-2017
</metadata>
<g transform="translate(0.000000,58.000000) scale(0.100000,-0.100000)"
fill="#000000" stroke="none">
<path d="M2443 563 c-7 -2 -13 -20 -13 -39 0 -25 5 -34 18 -36 32 -3 -173 -16
-270 -17 -80 -1 -98 -4 -98 -16 0 -13 -51 -15 -398 -15 -219 0 -622 -3 -895
-7 l-497 -6 0 -33 c0 -27 -5 -34 -31 -43 -18 -6 -43 -11 -55 -11 -13 0 -24 -4
-24 -10 0 -6 -37 -10 -90 -10 l-90 0 0 -155 0 -155 1330 0 1330 0 0 60 0 60
675 0 675 0 0 220 0 220 -777 -1 c-428 0 -784 -3 -790 -6z"/>
</g>
</svg>
