<?xml version="1.0" standalone="no"?>
<!DOCTYPE svg PUBLIC "-//W3C//DTD SVG 20010904//EN"
 "http://www.w3.org/TR/2001/REC-SVG-20010904/DTD/svg10.dtd">
<svg version="1.0" xmlns="http://www.w3.org/2000/svg"
 width="400.000000pt" height="33.000000pt" viewBox="0 0 400.000000 33.000000"
 preserveAspectRatio="xMidYMid meet">
<metadata>
Created by potrace 1.15, written by Peter Selinger 2001-2017
</metadata>
<g transform="translate(0.000000,33.000000) scale(0.100000,-0.100000)"
fill="#000000" stroke="none">
<path d="M1610 281 c0 -45 -11 -51 -97 -51 l-53 0 0 -39 0 -39 68 -9 c37 -4
607 -8 1267 -8 l1200 0 3 93 3 92 -1196 0 -1195 0 0 -39z"/>
<path d="M7 193 c-9 -8 -9 -76 -1 -137 l7 -46 328 0 329 0 0 95 0 95 -328 0
c-181 0 -332 -3 -335 -7z"/>
</g>
</svg>
