<?xml version="1.0" standalone="no"?>
<!DOCTYPE svg PUBLIC "-//W3C//DTD SVG 20010904//EN"
 "http://www.w3.org/TR/2001/REC-SVG-20010904/DTD/svg10.dtd">
<svg version="1.0" xmlns="http://www.w3.org/2000/svg"
 width="400.000000pt" height="32.000000pt" viewBox="0 0 400.000000 32.000000"
 preserveAspectRatio="xMidYMid meet">
<metadata>
Created by potrace 1.15, written by Peter Selinger 2001-2017
</metadata>
<g transform="translate(0.000000,32.000000) scale(0.100000,-0.100000)"
fill="#000000" stroke="none">
<path d="M1560 300 l-1025 -5 -3 -37 c-3 -31 0 -38 15 -39 31 -2 -28 -17 -69
-18 -21 -1 -38 -5 -38 -11 0 -6 -80 -10 -220 -10 l-220 0 0 -85 0 -85 844 0
844 0 6 31 c3 17 6 42 6 55 l0 24 1150 0 1150 0 0 95 0 95 -707 -2 c-390 -2
-1169 -5 -1733 -8z"/>
</g>
</svg>
