<?xml version="1.0" standalone="no"?>
<!DOCTYPE svg PUBLIC "-//W3C//DTD SVG 20010904//EN"
 "http://www.w3.org/TR/2001/REC-SVG-20010904/DTD/svg10.dtd">
<svg version="1.0" xmlns="http://www.w3.org/2000/svg"
 width="138.000000pt" height="31.000000pt" viewBox="0 0 138.000000 31.000000"
 preserveAspectRatio="xMidYMid meet">
<metadata>
Created by potrace 1.15, written by Peter Selinger 2001-2017
</metadata>
<g transform="translate(0.000000,31.000000) scale(0.100000,-0.100000)"
fill="#000000" stroke="none">
<path d="M6 248 c-3 -29 -6 -70 -6 -90 l0 -38 320 0 320 0 0 -25 c0 -18 5 -25
20 -25 15 0 20 -7 20 -29 l0 -29 113 -7 c61 -3 213 -5 337 -3 l225 3 3 58 c2
31 7 57 12 57 6 0 10 40 10 90 l0 90 -684 0 -683 0 -7 -52z"/>
</g>
</svg>
