<?xml version="1.0" standalone="no"?>
<!DOCTYPE svg PUBLIC "-//W3C//DTD SVG 20010904//EN"
 "http://www.w3.org/TR/2001/REC-SVG-20010904/DTD/svg10.dtd">
<svg version="1.0" xmlns="http://www.w3.org/2000/svg"
 width="401.000000pt" height="32.000000pt" viewBox="0 0 401.000000 32.000000"
 preserveAspectRatio="xMidYMid meet">
<metadata>
Created by potrace 1.15, written by Peter Selinger 2001-2017
</metadata>
<g transform="translate(0.000000,32.000000) scale(0.100000,-0.100000)"
fill="#000000" stroke="none">
<path d="M568 303 c-47 -4 -48 -5 -48 -38 0 -55 -8 -65 -51 -65 -21 0 -39 -4
-39 -10 0 -6 -77 -10 -210 -10 l-210 0 -5 -23 c-3 -12 -5 -52 -3 -87 l3 -65
230 0 230 0 3 58 3 57 1769 0 1770 0 0 95 0 95 -1697 -2 c-934 -1 -1719 -3
-1745 -5z"/>
</g>
</svg>
