<?xml version="1.0" standalone="no"?>
<!DOCTYPE svg PUBLIC "-//W3C//DTD SVG 20010904//EN"
 "http://www.w3.org/TR/2001/REC-SVG-20010904/DTD/svg10.dtd">
<svg version="1.0" xmlns="http://www.w3.org/2000/svg"
 width="401.000000pt" height="107.000000pt" viewBox="0 0 401.000000 107.000000"
 preserveAspectRatio="xMidYMid meet">
<metadata>
Created by potrace 1.15, written by Peter Selinger 2001-2017
</metadata>
<g transform="translate(0.000000,107.000000) scale(0.100000,-0.100000)"
fill="#000000" stroke="none">
<path d="M1765 1050 l-1300 -5 -3 -41 c-3 -46 -7 -48 -109 -61 -24 -3 -43 -9
-43 -14 0 -5 -69 -10 -152 -11 l-153 -3 -3 -92 -3 -93 103 -2 c96 -1 99 -2 43
-8 -33 -5 -79 -11 -103 -15 l-43 -8 3 -41 3 -41 83 -3 c45 -2 82 -7 82 -12 0
-5 -37 -10 -82 -12 l-83 -3 -3 -42 -3 -43 135 0 c124 0 170 -9 130 -24 -9 -3
-72 -6 -140 -6 l-124 0 0 -44 0 -45 56 -7 c63 -7 60 -21 -6 -26 l-45 -3 -3
-135 c-2 -74 0 -150 3 -167 l6 -33 219 0 220 0 0 65 0 65 1774 0 c1608 0 1774
1 1780 16 8 20 8 638 0 658 -5 14 -28 16 -150 16 -89 0 -144 4 -144 10 0 6 55
10 145 10 169 0 158 -9 153 125 l-3 80 -470 0 c-258 0 -1055 -2 -1770 -5z"/>
</g>
</svg>
