<?xml version="1.0" standalone="no"?>
<!DOCTYPE svg PUBLIC "-//W3C//DTD SVG 20010904//EN"
 "http://www.w3.org/TR/2001/REC-SVG-20010904/DTD/svg10.dtd">
<svg version="1.0" xmlns="http://www.w3.org/2000/svg"
 width="401.000000pt" height="47.000000pt" viewBox="0 0 401.000000 47.000000"
 preserveAspectRatio="xMidYMid meet">
<metadata>
Created by potrace 1.15, written by Peter Selinger 2001-2017
</metadata>
<g transform="translate(0.000000,47.000000) scale(0.100000,-0.100000)"
fill="#000000" stroke="none">
<path d="M3270 435 c0 -22 -4 -25 -35 -25 -23 0 -35 -5 -35 -14 0 -19 -87 -26
-341 -26 -176 0 -219 -3 -219 -13 0 -11 -157 -15 -887 -20 -487 -4 -1081 -7
-1320 -7 l-433 0 0 -160 0 -160 430 0 430 0 0 65 0 65 1575 0 1575 0 0 160 0
160 -370 0 -370 0 0 -25z"/>
</g>
</svg>
