<?xml version="1.0" standalone="no"?>
<!DOCTYPE svg PUBLIC "-//W3C//DTD SVG 20010904//EN"
 "http://www.w3.org/TR/2001/REC-SVG-20010904/DTD/svg10.dtd">
<svg version="1.0" xmlns="http://www.w3.org/2000/svg"
 width="401.000000pt" height="119.000000pt" viewBox="0 0 401.000000 119.000000"
 preserveAspectRatio="xMidYMid meet">
<metadata>
Created by potrace 1.15, written by Peter Selinger 2001-2017
</metadata>
<g transform="translate(0.000000,119.000000) scale(0.100000,-0.100000)"
fill="#000000" stroke="none">
<path d="M478 1183 l-468 -3 -6 -24 c-13 -54 -3 -70 51 -80 28 -5 290 -10 583
-13 l532 -4 0 66 0 65 -112 -2 c-62 -2 -323 -4 -580 -5z"/>
<path d="M0 822 l0 -212 583 2 582 3 3 203 2 202 -358 0 c-197 0 -461 3 -585
7 l-227 6 0 -211z m399 -118 c2 -2 -48 -4 -112 -4 -75 0 -117 4 -117 11 0 7
36 8 113 3 61 -4 114 -8 116 -10z"/>
<path d="M2148 661 c-10 -10 -18 -30 -18 -44 0 -27 0 -27 -80 -27 -47 0 -80
-4 -80 -10 0 -7 -303 -10 -890 -10 l-890 0 0 -39 0 -38 77 -7 c42 -3 114 -6
160 -6 49 0 83 -4 83 -10 0 -5 -15 -10 -32 -10 -18 0 -55 -7 -82 -15 -33 -10
-93 -15 -182 -15 l-132 0 -5 -37 c-5 -34 -8 -241 -4 -244 1 -1 263 -5 582 -8
319 -3 573 -9 565 -13 -8 -3 -27 -9 -42 -12 -24 -5 -28 -12 -28 -39 0 -17 3
-42 6 -54 l6 -23 744 0 744 0 0 60 0 60 680 0 680 0 0 280 0 280 -922 -1
c-870 0 -924 -1 -940 -18z"/>
</g>
</svg>
