<?xml version="1.0" standalone="no"?>
<!DOCTYPE svg PUBLIC "-//W3C//DTD SVG 20010904//EN"
 "http://www.w3.org/TR/2001/REC-SVG-20010904/DTD/svg10.dtd">
<svg version="1.0" xmlns="http://www.w3.org/2000/svg"
 width="95.000000pt" height="20.000000pt" viewBox="0 0 95.000000 20.000000"
 preserveAspectRatio="xMidYMid meet">
<metadata>
Created by potrace 1.15, written by Peter Selinger 2001-2017
</metadata>
<g transform="translate(0.000000,20.000000) scale(0.100000,-0.100000)"
fill="#000000" stroke="none">
<path d="M270 180 c0 -6 -28 -10 -65 -10 l-65 0 0 -30 0 -30 -70 0 -70 0 0
-39 0 -38 61 -7 c34 -3 95 -6 135 -6 40 0 76 -4 79 -10 4 -6 128 -10 341 -10
l334 0 0 95 0 95 -340 0 c-220 0 -340 -4 -340 -10z"/>
</g>
</svg>
