<?xml version="1.0" standalone="no"?>
<!DOCTYPE svg PUBLIC "-//W3C//DTD SVG 20010904//EN"
 "http://www.w3.org/TR/2001/REC-SVG-20010904/DTD/svg10.dtd">
<svg version="1.0" xmlns="http://www.w3.org/2000/svg"
 width="400.000000pt" height="61.000000pt" viewBox="0 0 400.000000 61.000000"
 preserveAspectRatio="xMidYMid meet">
<metadata>
Created by potrace 1.15, written by Peter Selinger 2001-2017
</metadata>
<g transform="translate(0.000000,61.000000) scale(0.100000,-0.100000)"
fill="#000000" stroke="none">
<path d="M1010 561 l0 -40 -47 -6 c-81 -11 -83 -13 -83 -55 l0 -38 133 -6 c72
-3 285 -8 472 -11 187 -3 390 -8 451 -11 102 -6 111 -8 107 -25 -5 -18 -24
-19 -447 -19 -242 0 -701 -3 -1018 -7 l-578 -6 0 -164 0 -163 230 0 230 0 0
70 0 70 1764 0 c1599 0 1764 1 1770 16 3 9 6 86 6 171 l0 156 -1080 -6 -1080
-7 0 60 0 60 -415 0 -415 0 0 -39z"/>
</g>
</svg>
