<?xml version="1.0" standalone="no"?>
<!DOCTYPE svg PUBLIC "-//W3C//DTD SVG 20010904//EN"
 "http://www.w3.org/TR/2001/REC-SVG-20010904/DTD/svg10.dtd">
<svg version="1.0" xmlns="http://www.w3.org/2000/svg"
 width="401.000000pt" height="33.000000pt" viewBox="0 0 401.000000 33.000000"
 preserveAspectRatio="xMidYMid meet">
<metadata>
Created by potrace 1.15, written by Peter Selinger 2001-2017
</metadata>
<g transform="translate(0.000000,33.000000) scale(0.100000,-0.100000)"
fill="#000000" stroke="none">
<path d="M1198 313 l-1158 -3 0 -35 0 -35 58 -2 c42 -1 47 -2 20 -5 -21 -2
-38 -8 -38 -14 0 -5 -16 -9 -35 -9 l-35 0 0 -100 0 -100 685 0 685 0 0 60 0
60 1313 2 1312 3 3 93 3 92 -828 -2 c-455 -2 -1349 -4 -1985 -5z"/>
</g>
</svg>
