<?xml version="1.0" standalone="no"?>
<!DOCTYPE svg PUBLIC "-//W3C//DTD SVG 20010904//EN"
 "http://www.w3.org/TR/2001/REC-SVG-20010904/DTD/svg10.dtd">
<svg version="1.0" xmlns="http://www.w3.org/2000/svg"
 width="401.000000pt" height="57.000000pt" viewBox="0 0 401.000000 57.000000"
 preserveAspectRatio="xMidYMid meet">
<metadata>
Created by potrace 1.15, written by Peter Selinger 2001-2017
</metadata>
<g transform="translate(0.000000,57.000000) scale(0.100000,-0.100000)"
fill="#000000" stroke="none">
<path d="M2902 520 c2 -22 3 -40 3 -41 0 -1 -69 -4 -153 -8 -108 -5 -156 -11
-161 -20 -7 -10 -255 -14 -1247 -19 l-1239 -7 -3 -37 -3 -38 -50 0 -49 0 2
-172 3 -173 1633 -3 1632 -2 0 65 0 65 368 2 367 3 3 110 c2 61 0 156 -3 213
l-7 102 -550 0 -550 0 4 -40z"/>
</g>
</svg>
