<?xml version="1.0" standalone="no"?>
<!DOCTYPE svg PUBLIC "-//W3C//DTD SVG 20010904//EN"
 "http://www.w3.org/TR/2001/REC-SVG-20010904/DTD/svg10.dtd">
<svg version="1.0" xmlns="http://www.w3.org/2000/svg"
 width="399.000000pt" height="32.000000pt" viewBox="0 0 399.000000 32.000000"
 preserveAspectRatio="xMidYMid meet">
<metadata>
Created by potrace 1.15, written by Peter Selinger 2001-2017
</metadata>
<g transform="translate(0.000000,32.000000) scale(0.100000,-0.100000)"
fill="#000000" stroke="none">
<path d="M1273 313 l-813 -3 0 -40 c0 -38 2 -40 30 -40 17 0 30 -4 30 -10 0
-5 -16 -10 -35 -10 -24 0 -35 -5 -35 -15 0 -13 -32 -15 -225 -15 l-225 0 0
-90 0 -90 538 2 537 3 3 62 3 63 1455 0 1455 0 -3 93 -3 92 -950 0 c-522 0
-1316 -1 -1762 -2z"/>
</g>
</svg>
