<?xml version="1.0" standalone="no"?>
<!DOCTYPE svg PUBLIC "-//W3C//DTD SVG 20010904//EN"
 "http://www.w3.org/TR/2001/REC-SVG-20010904/DTD/svg10.dtd">
<svg version="1.0" xmlns="http://www.w3.org/2000/svg"
 width="402.000000pt" height="118.000000pt" viewBox="0 0 402.000000 118.000000"
 preserveAspectRatio="xMidYMid meet">
<metadata>
Created by potrace 1.15, written by Peter Selinger 2001-2017
</metadata>
<g transform="translate(0.000000,118.000000) scale(0.100000,-0.100000)"
fill="#000000" stroke="none">
<path d="M1515 1170 l-1110 -5 -3 -47 -3 -48 -39 0 c-21 0 -42 -5 -45 -10 -4
-6 -68 -10 -161 -10 l-154 0 2 -337 3 -338 48 -3 c56 -4 54 -22 -4 -22 l-39 0
0 -170 0 -170 546 0 546 0 -4 60 -3 60 1460 2 1460 3 0 160 0 160 -112 3 c-91
2 -113 5 -113 17 0 12 21 15 115 15 l115 0 0 345 0 345 -697 -2 c-384 -2
-1197 -5 -1808 -8z"/>
</g>
</svg>
