<?xml version="1.0" standalone="no"?>
<!DOCTYPE svg PUBLIC "-//W3C//DTD SVG 20010904//EN"
 "http://www.w3.org/TR/2001/REC-SVG-20010904/DTD/svg10.dtd">
<svg version="1.0" xmlns="http://www.w3.org/2000/svg"
 width="403.000000pt" height="71.000000pt" viewBox="0 0 403.000000 71.000000"
 preserveAspectRatio="xMidYMid meet">
<metadata>
Created by potrace 1.15, written by Peter Selinger 2001-2017
</metadata>
<g transform="translate(0.000000,71.000000) scale(0.100000,-0.100000)"
fill="#000000" stroke="none">
<path d="M800 665 l0 -35 175 0 175 0 0 35 0 35 -175 0 -175 0 0 -35z"/>
<path d="M1700 291 l0 -39 -125 -4 c-77 -2 -129 -7 -133 -14 -5 -8 -219 -13
-716 -17 -551 -6 -712 -10 -718 -20 -4 -6 -7 -50 -6 -97 l3 -85 851 -3 851 -2
7 31 c3 17 6 42 6 55 l0 24 1155 0 1155 0 0 98 0 99 -232 6 c-128 4 -653 7
-1165 7 l-933 0 0 -39z"/>
</g>
</svg>
