<?xml version="1.0" standalone="no"?>
<!DOCTYPE svg PUBLIC "-//W3C//DTD SVG 20010904//EN"
 "http://www.w3.org/TR/2001/REC-SVG-20010904/DTD/svg10.dtd">
<svg version="1.0" xmlns="http://www.w3.org/2000/svg"
 width="400.000000pt" height="32.000000pt" viewBox="0 0 400.000000 32.000000"
 preserveAspectRatio="xMidYMid meet">
<metadata>
Created by potrace 1.15, written by Peter Selinger 2001-2017
</metadata>
<g transform="translate(0.000000,32.000000) scale(0.100000,-0.100000)"
fill="#000000" stroke="none">
<path d="M1915 309 c-742 -3 -1361 -7 -1374 -8 -21 -1 -23 -5 -19 -46 2 -25 0
-45 -4 -45 -5 0 -8 -7 -8 -15 0 -13 -35 -15 -255 -15 l-255 0 0 -85 0 -85 680
0 680 0 0 60 0 60 1320 0 1320 0 0 95 0 95 -367 -2 c-203 -1 -975 -5 -1718 -9z"/>
</g>
</svg>
