<?xml version="1.0" standalone="no"?>
<!DOCTYPE svg PUBLIC "-//W3C//DTD SVG 20010904//EN"
 "http://www.w3.org/TR/2001/REC-SVG-20010904/DTD/svg10.dtd">
<svg version="1.0" xmlns="http://www.w3.org/2000/svg"
 width="402.000000pt" height="46.000000pt" viewBox="0 0 402.000000 46.000000"
 preserveAspectRatio="xMidYMid meet">
<metadata>
Created by potrace 1.15, written by Peter Selinger 2001-2017
</metadata>
<g transform="translate(0.000000,46.000000) scale(0.100000,-0.100000)"
fill="#000000" stroke="none">
<path d="M2497 453 c-4 -3 -7 -21 -7 -38 0 -28 -4 -33 -31 -39 -17 -3 -123 -6
-235 -6 -164 0 -204 -3 -204 -13 0 -11 -115 -15 -632 -20 -347 -4 -802 -7
-1010 -7 l-378 0 0 -160 0 -160 350 0 350 0 0 60 0 60 1658 2 1657 3 3 163 2
162 -758 0 c-417 0 -762 -3 -765 -7z"/>
</g>
</svg>
