<?xml version="1.0" standalone="no"?>
<!DOCTYPE svg PUBLIC "-//W3C//DTD SVG 20010904//EN"
 "http://www.w3.org/TR/2001/REC-SVG-20010904/DTD/svg10.dtd">
<svg version="1.0" xmlns="http://www.w3.org/2000/svg"
 width="38.000000pt" height="21.000000pt" viewBox="0 0 38.000000 21.000000"
 preserveAspectRatio="xMidYMid meet">
<metadata>
Created by potrace 1.15, written by Peter Selinger 2001-2017
</metadata>
<g transform="translate(0.000000,21.000000) scale(0.100000,-0.100000)"
fill="#000000" stroke="none">
<path d="M182 188 c-7 -7 -12 -18 -12 -25 0 -8 -13 -13 -35 -13 -19 0 -37 -6
-42 -14 -4 -8 -26 -16 -48 -18 -39 -3 -40 -4 -43 -44 l-3 -41 70 -7 c38 -3 82
-11 96 -16 14 -6 69 -10 121 -10 l94 0 0 100 0 100 -93 0 c-59 0 -97 -4 -105
-12z"/>
</g>
</svg>
