<?xml version="1.0" standalone="no"?>
<!DOCTYPE svg PUBLIC "-//W3C//DTD SVG 20010904//EN"
 "http://www.w3.org/TR/2001/REC-SVG-20010904/DTD/svg10.dtd">
<svg version="1.0" xmlns="http://www.w3.org/2000/svg"
 width="400.000000pt" height="324.000000pt" viewBox="0 0 400.000000 324.000000"
 preserveAspectRatio="xMidYMid meet">
<metadata>
Created by potrace 1.15, written by Peter Selinger 2001-2017
</metadata>
<g transform="translate(0.000000,324.000000) scale(0.100000,-0.100000)"
fill="#000000" stroke="none">
<path d="M2680 3230 c0 -6 -49 -10 -127 -10 -71 0 -145 -3 -165 -6 -36 -6 -38
-8 -38 -45 l0 -39 211 0 c175 0 213 -3 226 -15 13 -13 59 -15 326 -13 l312 3
3 68 3 67 -376 0 c-243 0 -375 -4 -375 -10z"/>
<path d="M3327 296 c-5 -11 -27 -16 -84 -18 -72 -3 -78 -5 -81 -25 -3 -22 -8
-23 -84 -23 -71 0 -80 -2 -85 -20 -5 -19 -14 -20 -169 -20 l-164 0 0 -40 0
-40 670 0 671 0 -3 98 -3 97 -331 3 c-284 2 -333 0 -337 -12z"/>
<path d="M0 90 l0 -90 338 2 337 3 0 85 0 85 -337 3 -338 2 0 -90z"/>
</g>
</svg>
