<?xml version="1.0" standalone="no"?>
<!DOCTYPE svg PUBLIC "-//W3C//DTD SVG 20010904//EN"
 "http://www.w3.org/TR/2001/REC-SVG-20010904/DTD/svg10.dtd">
<svg version="1.0" xmlns="http://www.w3.org/2000/svg"
 width="401.000000pt" height="33.000000pt" viewBox="0 0 401.000000 33.000000"
 preserveAspectRatio="xMidYMid meet">
<metadata>
Created by potrace 1.15, written by Peter Selinger 2001-2017
</metadata>
<g transform="translate(0.000000,33.000000) scale(0.100000,-0.100000)"
fill="#000000" stroke="none">
<path d="M708 323 l-698 -3 0 -40 0 -40 51 0 c31 0 48 -4 44 -10 -3 -5 -26
-10 -50 -10 -54 0 -57 -8 -53 -130 l3 -85 698 -3 697 -2 0 65 0 65 1305 0
1305 0 0 100 0 100 -1302 -2 c-717 -2 -1617 -4 -2000 -5z"/>
</g>
</svg>
