<?xml version="1.0" standalone="no"?>
<!DOCTYPE svg PUBLIC "-//W3C//DTD SVG 20010904//EN"
 "http://www.w3.org/TR/2001/REC-SVG-20010904/DTD/svg10.dtd">
<svg version="1.0" xmlns="http://www.w3.org/2000/svg"
 width="102.000000pt" height="20.000000pt" viewBox="0 0 102.000000 20.000000"
 preserveAspectRatio="xMidYMid meet">
<metadata>
Created by potrace 1.15, written by Peter Selinger 2001-2017
</metadata>
<g transform="translate(0.000000,20.000000) scale(0.100000,-0.100000)"
fill="#000000" stroke="none">
<path d="M244 185 c-5 -11 -21 -15 -60 -15 -51 0 -54 -2 -54 -25 0 -23 -4 -24
-63 -27 l-62 -3 0 -40 0 -40 78 -3 c42 -2 77 -7 77 -12 0 -6 163 -10 430 -10
l431 0 -3 93 -3 92 -383 3 c-334 2 -383 0 -388 -13z"/>
</g>
</svg>
