<?xml version="1.0" standalone="no"?>
<!DOCTYPE svg PUBLIC "-//W3C//DTD SVG 20010904//EN"
 "http://www.w3.org/TR/2001/REC-SVG-20010904/DTD/svg10.dtd">
<svg version="1.0" xmlns="http://www.w3.org/2000/svg"
 width="353.000000pt" height="35.000000pt" viewBox="0 0 353.000000 35.000000"
 preserveAspectRatio="xMidYMid meet">
<metadata>
Created by potrace 1.15, written by Peter Selinger 2001-2017
</metadata>
<g transform="translate(0.000000,35.000000) scale(0.100000,-0.100000)"
fill="#000000" stroke="none">
<path d="M3270 301 l0 -38 -67 -6 c-38 -4 -134 -7 -215 -7 l-148 0 0 -44 0
-43 68 -6 c37 -4 126 -7 199 -7 77 0 134 -4 138 -10 4 -6 63 -10 146 -10 l139
0 0 44 c0 23 -3 71 -6 105 l-7 61 -123 0 -124 0 0 -39z"/>
<path d="M97 203 c-4 -3 -7 -24 -7 -45 l0 -38 -45 0 -45 0 0 -45 0 -45 45 0
c33 0 45 -4 45 -15 0 -13 41 -15 310 -15 l311 0 -3 103 -3 102 -301 3 c-165 1
-303 -1 -307 -5z"/>
</g>
</svg>
