<?xml version="1.0" standalone="no"?>
<!DOCTYPE svg PUBLIC "-//W3C//DTD SVG 20010904//EN"
 "http://www.w3.org/TR/2001/REC-SVG-20010904/DTD/svg10.dtd">
<svg version="1.0" xmlns="http://www.w3.org/2000/svg"
 width="400.000000pt" height="73.000000pt" viewBox="0 0 400.000000 73.000000"
 preserveAspectRatio="xMidYMid meet">
<metadata>
Created by potrace 1.15, written by Peter Selinger 2001-2017
</metadata>
<g transform="translate(0.000000,73.000000) scale(0.100000,-0.100000)"
fill="#000000" stroke="none">
<path d="M3030 720 c-344 -4 -1046 -8 -1560 -9 -514 -1 -952 -4 -972 -7 -36
-6 -38 -9 -38 -44 0 -41 5 -39 -112 -56 -21 -4 -38 -10 -38 -15 0 -5 -22 -9
-48 -9 -27 0 -97 -3 -156 -7 l-106 -6 2 -281 3 -281 1930 0 1930 0 3 62 3 62
62 3 62 3 0 295 0 295 -170 1 c-93 0 -451 -3 -795 -6z"/>
</g>
</svg>
