<?xml version="1.0" standalone="no"?>
<!DOCTYPE svg PUBLIC "-//W3C//DTD SVG 20010904//EN"
 "http://www.w3.org/TR/2001/REC-SVG-20010904/DTD/svg10.dtd">
<svg version="1.0" xmlns="http://www.w3.org/2000/svg"
 width="365.000000pt" height="56.000000pt" viewBox="0 0 365.000000 56.000000"
 preserveAspectRatio="xMidYMid meet">
<metadata>
Created by potrace 1.15, written by Peter Selinger 2001-2017
</metadata>
<g transform="translate(0.000000,56.000000) scale(0.100000,-0.100000)"
fill="#000000" stroke="none">
<path d="M80 522 c0 -37 -2 -40 -40 -51 -38 -11 -40 -14 -40 -51 0 -40 0 -40
40 -40 22 0 40 -4 40 -10 0 -6 53 -10 140 -10 l140 0 0 100 0 100 -140 0 -140
0 0 -38z"/>
<path d="M2460 61 c0 -31 4 -40 23 -46 12 -4 280 -10 595 -12 l572 -5 0 51 0
51 -595 0 -595 0 0 -39z"/>
</g>
</svg>
