<?xml version="1.0" standalone="no"?>
<!DOCTYPE svg PUBLIC "-//W3C//DTD SVG 20010904//EN"
 "http://www.w3.org/TR/2001/REC-SVG-20010904/DTD/svg10.dtd">
<svg version="1.0" xmlns="http://www.w3.org/2000/svg"
 width="401.000000pt" height="69.000000pt" viewBox="0 0 401.000000 69.000000"
 preserveAspectRatio="xMidYMid meet">
<metadata>
Created by potrace 1.15, written by Peter Selinger 2001-2017
</metadata>
<g transform="translate(0.000000,69.000000) scale(0.100000,-0.100000)"
fill="#000000" stroke="none">
<path d="M2255 680 c-511 -4 -1158 -8 -1437 -9 l-508 -1 0 -35 0 -35 98 -1
c106 -2 110 0 -55 -25 -24 -3 -43 -10 -43 -15 0 -5 -70 -9 -155 -9 l-155 0 0
-275 0 -275 1840 0 1840 0 0 60 0 60 165 0 165 0 -2 283 -3 282 -410 1 c-225
0 -828 -3 -1340 -6z"/>
</g>
</svg>
