<?xml version="1.0" standalone="no"?>
<!DOCTYPE svg PUBLIC "-//W3C//DTD SVG 20010904//EN"
 "http://www.w3.org/TR/2001/REC-SVG-20010904/DTD/svg10.dtd">
<svg version="1.0" xmlns="http://www.w3.org/2000/svg"
 width="401.000000pt" height="34.000000pt" viewBox="0 0 401.000000 34.000000"
 preserveAspectRatio="xMidYMid meet">
<metadata>
Created by potrace 1.15, written by Peter Selinger 2001-2017
</metadata>
<g transform="translate(0.000000,34.000000) scale(0.100000,-0.100000)"
fill="#000000" stroke="none">
<path d="M1440 329 c-569 -3 -1058 -7 -1087 -8 l-52 -1 -3 -42 c-3 -39 -6 -43
-30 -46 -22 -3 -28 -9 -28 -28 l0 -24 -120 0 -120 0 0 -90 0 -90 395 0 395 0
0 65 0 65 1610 0 1611 0 -3 103 -3 102 -765 1 c-421 0 -1231 -3 -1800 -7z"/>
</g>
</svg>
