<?xml version="1.0" standalone="no"?>
<!DOCTYPE svg PUBLIC "-//W3C//DTD SVG 20010904//EN"
 "http://www.w3.org/TR/2001/REC-SVG-20010904/DTD/svg10.dtd">
<svg version="1.0" xmlns="http://www.w3.org/2000/svg"
 width="325.000000pt" height="20.000000pt" viewBox="0 0 325.000000 20.000000"
 preserveAspectRatio="xMidYMid meet">
<metadata>
Created by potrace 1.15, written by Peter Selinger 2001-2017
</metadata>
<g transform="translate(0.000000,20.000000) scale(0.100000,-0.100000)"
fill="#000000" stroke="none">
<path d="M1498 193 l-1478 -3 0 -40 0 -40 108 -2 c59 -1 87 -3 62 -5 -25 -1
-78 -8 -118 -15 l-73 -12 3 -36 3 -35 1614 -3 c1285 -2 1616 0 1623 10 9 15
11 149 2 172 -5 14 -25 16 -138 14 -72 -2 -796 -4 -1608 -5z"/>
</g>
</svg>
