<?xml version="1.0" standalone="no"?>
<!DOCTYPE svg PUBLIC "-//W3C//DTD SVG 20010904//EN"
 "http://www.w3.org/TR/2001/REC-SVG-20010904/DTD/svg10.dtd">
<svg version="1.0" xmlns="http://www.w3.org/2000/svg"
 width="402.000000pt" height="82.000000pt" viewBox="0 0 402.000000 82.000000"
 preserveAspectRatio="xMidYMid meet">
<metadata>
Created by potrace 1.15, written by Peter Selinger 2001-2017
</metadata>
<g transform="translate(0.000000,82.000000) scale(0.100000,-0.100000)"
fill="#000000" stroke="none">
<path d="M2088 803 l-228 -3 0 -34 c0 -33 -1 -33 -52 -40 -29 -3 -95 -6 -146
-6 -73 0 -94 -3 -98 -15 -5 -13 -48 -15 -298 -15 -160 0 -510 -3 -778 -7
l-488 -6 0 -99 0 -98 75 0 c59 0 75 -3 75 -15 0 -11 -17 -15 -72 -17 l-73 -3
-3 -37 -3 -38 58 -2 c35 -1 45 -3 26 -5 -18 -2 -33 -8 -33 -14 0 -5 -9 -9 -20
-9 -17 0 -20 -7 -20 -50 l0 -50 60 0 c47 0 60 -3 60 -15 0 -12 -13 -15 -60
-15 l-60 0 0 -100 0 -100 1905 0 1905 0 0 55 0 54 98 3 97 3 3 343 2 342 -852
-2 c-469 -2 -955 -4 -1080 -5z"/>
</g>
</svg>
