<?xml version="1.0" standalone="no"?>
<!DOCTYPE svg PUBLIC "-//W3C//DTD SVG 20010904//EN"
 "http://www.w3.org/TR/2001/REC-SVG-20010904/DTD/svg10.dtd">
<svg version="1.0" xmlns="http://www.w3.org/2000/svg"
 width="401.000000pt" height="32.000000pt" viewBox="0 0 401.000000 32.000000"
 preserveAspectRatio="xMidYMid meet">
<metadata>
Created by potrace 1.15, written by Peter Selinger 2001-2017
</metadata>
<g transform="translate(0.000000,32.000000) scale(0.100000,-0.100000)"
fill="#000000" stroke="none">
<path d="M875 310 l-340 -5 -3 -37 c-3 -32 -7 -38 -27 -38 -13 0 -25 -5 -27
-12 -3 -8 -44 -13 -126 -16 l-122 -4 0 -39 0 -39 1890 0 1890 0 0 100 0 100
-1397 -2 c-769 -2 -1551 -5 -1738 -8z"/>
<path d="M4 177 c-3 -8 -4 -47 -2 -88 l3 -74 102 -3 103 -3 0 91 0 90 -100 0
c-75 0 -102 -3 -106 -13z"/>
</g>
</svg>
