<?xml version="1.0" standalone="no"?>
<!DOCTYPE svg PUBLIC "-//W3C//DTD SVG 20010904//EN"
 "http://www.w3.org/TR/2001/REC-SVG-20010904/DTD/svg10.dtd">
<svg version="1.0" xmlns="http://www.w3.org/2000/svg"
 width="399.000000pt" height="32.000000pt" viewBox="0 0 399.000000 32.000000"
 preserveAspectRatio="xMidYMid meet">
<metadata>
Created by potrace 1.15, written by Peter Selinger 2001-2017
</metadata>
<g transform="translate(0.000000,32.000000) scale(0.100000,-0.100000)"
fill="#000000" stroke="none">
<path d="M1400 270 l0 -39 -87 -3 -88 -3 -3 -42 -3 -43 90 0 c54 0 91 -4 91
-10 0 -7 433 -9 1293 -8 l1292 3 3 93 3 92 -1296 0 -1295 0 0 -40z"/>
<path d="M0 95 l0 -96 128 3 127 3 0 90 0 90 -127 3 -128 3 0 -96z"/>
</g>
</svg>
