<?xml version="1.0" standalone="no"?>
<!DOCTYPE svg PUBLIC "-//W3C//DTD SVG 20010904//EN"
 "http://www.w3.org/TR/2001/REC-SVG-20010904/DTD/svg10.dtd">
<svg version="1.0" xmlns="http://www.w3.org/2000/svg"
 width="402.000000pt" height="69.000000pt" viewBox="0 0 402.000000 69.000000"
 preserveAspectRatio="xMidYMid meet">
<metadata>
Created by potrace 1.15, written by Peter Selinger 2001-2017
</metadata>
<g transform="translate(0.000000,69.000000) scale(0.100000,-0.100000)"
fill="#000000" stroke="none">
<path d="M1253 683 l-733 -3 0 -34 c0 -19 5 -38 10 -41 6 -3 10 -10 10 -14 0
-11 -272 -31 -417 -31 l-123 0 0 -34 c0 -30 4 -35 27 -39 l28 -4 -27 -2 -28
-1 0 -115 0 -115 78 0 c42 0 84 -5 92 -10 11 -7 5 -10 -23 -10 -30 0 -40 -4
-44 -19 -4 -16 -15 -21 -52 -23 l-46 -3 0 -90 0 -90 1005 0 1005 0 3 57 3 58
999 0 1000 0 0 285 0 285 -1017 -2 c-560 -2 -1348 -4 -1750 -5z"/>
</g>
</svg>
