<?xml version="1.0" standalone="no"?>
<!DOCTYPE svg PUBLIC "-//W3C//DTD SVG 20010904//EN"
 "http://www.w3.org/TR/2001/REC-SVG-20010904/DTD/svg10.dtd">
<svg version="1.0" xmlns="http://www.w3.org/2000/svg"
 width="401.000000pt" height="32.000000pt" viewBox="0 0 401.000000 32.000000"
 preserveAspectRatio="xMidYMid meet">
<metadata>
Created by potrace 1.15, written by Peter Selinger 2001-2017
</metadata>
<g transform="translate(0.000000,32.000000) scale(0.100000,-0.100000)"
fill="#000000" stroke="none">
<path d="M3277 313 c-4 -3 -7 -21 -7 -40 l0 -33 -72 0 c-171 0 -328 -13 -328
-27 0 -10 -43 -13 -225 -13 l-225 0 0 -40 0 -40 795 0 795 0 0 100 0 100 -363
0 c-200 0 -367 -3 -370 -7z"/>
<path d="M7 183 c-10 -9 -8 -155 1 -171 7 -9 93 -12 398 -10 l389 3 3 93 3 92
-394 0 c-216 0 -397 -3 -400 -7z"/>
</g>
</svg>
