<?xml version="1.0" standalone="no"?>
<!DOCTYPE svg PUBLIC "-//W3C//DTD SVG 20010904//EN"
 "http://www.w3.org/TR/2001/REC-SVG-20010904/DTD/svg10.dtd">
<svg version="1.0" xmlns="http://www.w3.org/2000/svg"
 width="200.000000pt" height="34.000000pt" viewBox="0 0 200.000000 34.000000"
 preserveAspectRatio="xMidYMid meet">
<metadata>
Created by potrace 1.15, written by Peter Selinger 2001-2017
</metadata>
<g transform="translate(0.000000,34.000000) scale(0.100000,-0.100000)"
fill="#000000" stroke="none">
<path d="M1397 333 c-4 -3 -7 -15 -7 -25 0 -16 -10 -18 -114 -18 -122 0 -146
-4 -146 -26 0 -8 -7 -14 -16 -14 -9 0 -18 -8 -21 -18 -4 -17 -22 -19 -221 -25
-119 -4 -315 -7 -434 -7 -207 0 -218 -1 -228 -20 -9 -17 -21 -20 -75 -20 -58
0 -65 -2 -65 -20 0 -16 -7 -20 -35 -20 -34 0 -35 -1 -35 -39 l0 -39 90 -8 c50
-3 93 -11 96 -15 3 -5 147 -9 320 -9 l314 0 0 60 0 60 590 0 590 0 0 105 0
105 -298 0 c-164 0 -302 -3 -305 -7z"/>
</g>
</svg>
