<?xml version="1.0" standalone="no"?>
<!DOCTYPE svg PUBLIC "-//W3C//DTD SVG 20010904//EN"
 "http://www.w3.org/TR/2001/REC-SVG-20010904/DTD/svg10.dtd">
<svg version="1.0" xmlns="http://www.w3.org/2000/svg"
 width="401.000000pt" height="34.000000pt" viewBox="0 0 401.000000 34.000000"
 preserveAspectRatio="xMidYMid meet">
<metadata>
Created by potrace 1.15, written by Peter Selinger 2001-2017
</metadata>
<g transform="translate(0.000000,34.000000) scale(0.100000,-0.100000)"
fill="#000000" stroke="none">
<path d="M3128 333 l-168 -3 0 -26 c0 -49 -16 -54 -199 -61 -153 -5 -170 -8
-174 -25 -5 -17 -27 -18 -496 -18 l-491 0 0 -34 0 -33 1195 -7 c657 -4 1199
-5 1205 -1 6 4 10 49 10 111 l0 104 -357 -2 c-197 -1 -433 -4 -525 -5z"/>
<path d="M0 100 l0 -100 758 2 757 3 0 95 0 95 -757 3 -758 2 0 -100z"/>
</g>
</svg>
