<?xml version="1.0" standalone="no"?>
<!DOCTYPE svg PUBLIC "-//W3C//DTD SVG 20010904//EN"
 "http://www.w3.org/TR/2001/REC-SVG-20010904/DTD/svg10.dtd">
<svg version="1.0" xmlns="http://www.w3.org/2000/svg"
 width="401.000000pt" height="46.000000pt" viewBox="0 0 401.000000 46.000000"
 preserveAspectRatio="xMidYMid meet">
<metadata>
Created by potrace 1.15, written by Peter Selinger 2001-2017
</metadata>
<g transform="translate(0.000000,46.000000) scale(0.100000,-0.100000)"
fill="#000000" stroke="none">
<path d="M1800 420 c0 -36 -2 -40 -25 -40 -14 0 -25 -4 -25 -10 0 -6 -43 -10
-110 -10 -67 0 -110 -4 -110 -10 0 -7 -244 -10 -712 -10 -392 0 -737 -3 -766
-6 l-52 -7 0 -158 0 -159 492 2 493 3 3 57 3 58 1507 2 1507 3 3 163 2 162
-1105 0 -1105 0 0 -40z"/>
</g>
</svg>
