<?xml version="1.0" standalone="no"?>
<!DOCTYPE svg PUBLIC "-//W3C//DTD SVG 20010904//EN"
 "http://www.w3.org/TR/2001/REC-SVG-20010904/DTD/svg10.dtd">
<svg version="1.0" xmlns="http://www.w3.org/2000/svg"
 width="401.000000pt" height="34.000000pt" viewBox="0 0 401.000000 34.000000"
 preserveAspectRatio="xMidYMid meet">
<metadata>
Created by potrace 1.15, written by Peter Selinger 2001-2017
</metadata>
<g transform="translate(0.000000,34.000000) scale(0.100000,-0.100000)"
fill="#000000" stroke="none">
<path d="M3308 333 l-278 -3 0 -25 c0 -23 -4 -25 -40 -25 -27 0 -43 -5 -46
-15 -5 -12 -25 -15 -94 -15 -141 0 -240 -11 -240 -26 0 -10 -14 -14 -45 -14
l-45 0 0 -40 0 -40 745 0 746 0 -3 103 -3 102 -210 0 c-115 0 -335 -1 -487 -2z"/>
<path d="M0 100 l0 -100 658 2 657 3 3 98 3 97 -661 0 -660 0 0 -100z"/>
</g>
</svg>
