<?xml version="1.0" standalone="no"?>
<!DOCTYPE svg PUBLIC "-//W3C//DTD SVG 20010904//EN"
 "http://www.w3.org/TR/2001/REC-SVG-20010904/DTD/svg10.dtd">
<svg version="1.0" xmlns="http://www.w3.org/2000/svg"
 width="400.000000pt" height="59.000000pt" viewBox="0 0 400.000000 59.000000"
 preserveAspectRatio="xMidYMid meet">
<metadata>
Created by potrace 1.15, written by Peter Selinger 2001-2017
</metadata>
<g transform="translate(0.000000,59.000000) scale(0.100000,-0.100000)"
fill="#000000" stroke="none">
<path d="M1700 579 c-613 -5 -1247 -11 -1407 -15 l-293 -6 0 -34 c0 -24 5 -34
15 -34 19 0 19 -16 0 -24 -13 -4 -15 -40 -15 -231 l0 -225 360 0 360 0 0 65 0
65 1638 2 1637 3 3 223 2 222 -592 -2 c-326 -1 -1095 -5 -1708 -9z"/>
</g>
</svg>
