<?xml version="1.0" standalone="no"?>
<!DOCTYPE svg PUBLIC "-//W3C//DTD SVG 20010904//EN"
 "http://www.w3.org/TR/2001/REC-SVG-20010904/DTD/svg10.dtd">
<svg version="1.0" xmlns="http://www.w3.org/2000/svg"
 width="308.000000pt" height="34.000000pt" viewBox="0 0 308.000000 34.000000"
 preserveAspectRatio="xMidYMid meet">
<metadata>
Created by potrace 1.15, written by Peter Selinger 2001-2017
</metadata>
<g transform="translate(0.000000,34.000000) scale(0.100000,-0.100000)"
fill="#000000" stroke="none">
<path d="M1180 291 c0 -36 3 -40 28 -44 22 -3 20 -4 -10 -6 -27 -1 -38 -6 -38
-16 0 -13 -59 -15 -473 -15 -261 0 -522 -3 -580 -7 l-107 -6 0 -94 0 -93 520
0 520 0 0 60 0 60 1020 0 1020 0 0 100 0 100 -950 0 -950 0 0 -39z"/>
</g>
</svg>
