<?xml version="1.0" standalone="no"?>
<!DOCTYPE svg PUBLIC "-//W3C//DTD SVG 20010904//EN"
 "http://www.w3.org/TR/2001/REC-SVG-20010904/DTD/svg10.dtd">
<svg version="1.0" xmlns="http://www.w3.org/2000/svg"
 width="401.000000pt" height="43.000000pt" viewBox="0 0 401.000000 43.000000"
 preserveAspectRatio="xMidYMid meet">
<metadata>
Created by potrace 1.15, written by Peter Selinger 2001-2017
</metadata>
<g transform="translate(0.000000,43.000000) scale(0.100000,-0.100000)"
fill="#000000" stroke="none">
<path d="M1243 413 l-803 -3 0 -35 0 -35 93 -1 c81 -2 86 -3 42 -9 -27 -4 -77
-13 -110 -19 -33 -6 -111 -11 -172 -11 l-113 0 0 -34 0 -33 61 -7 c34 -3 193
-6 354 -6 396 0 835 -11 835 -22 0 -4 -319 -8 -710 -8 l-710 0 -6 -26 c-4 -15
-3 -56 2 -93 l9 -66 640 0 640 0 3 57 3 57 1352 -2 1352 -2 3 153 3 152 -983
-2 c-541 -2 -1344 -4 -1785 -5z"/>
</g>
</svg>
