<?xml version="1.0" standalone="no"?>
<!DOCTYPE svg PUBLIC "-//W3C//DTD SVG 20010904//EN"
 "http://www.w3.org/TR/2001/REC-SVG-20010904/DTD/svg10.dtd">
<svg version="1.0" xmlns="http://www.w3.org/2000/svg"
 width="401.000000pt" height="70.000000pt" viewBox="0 0 401.000000 70.000000"
 preserveAspectRatio="xMidYMid meet">
<metadata>
Created by potrace 1.15, written by Peter Selinger 2001-2017
</metadata>
<g transform="translate(0.000000,70.000000) scale(0.100000,-0.100000)"
fill="#000000" stroke="none">
<path d="M718 693 l-408 -3 0 -35 c0 -23 6 -38 16 -42 13 -5 12 -8 -5 -24 -17
-16 -40 -19 -168 -21 l-148 -3 0 -275 0 -275 1413 -3 1412 -2 0 60 0 60 588 2
587 3 3 283 2 282 -1442 -2 c-794 -2 -1626 -4 -1850 -5z"/>
</g>
</svg>
