<?xml version="1.0" standalone="no"?>
<!DOCTYPE svg PUBLIC "-//W3C//DTD SVG 20010904//EN"
 "http://www.w3.org/TR/2001/REC-SVG-20010904/DTD/svg10.dtd">
<svg version="1.0" xmlns="http://www.w3.org/2000/svg"
 width="401.000000pt" height="69.000000pt" viewBox="0 0 401.000000 69.000000"
 preserveAspectRatio="xMidYMid meet">
<metadata>
Created by potrace 1.15, written by Peter Selinger 2001-2017
</metadata>
<g transform="translate(0.000000,69.000000) scale(0.100000,-0.100000)"
fill="#000000" stroke="none">
<path d="M2270 679 c-470 -3 -1081 -7 -1357 -8 l-503 -1 0 -34 c0 -28 4 -35
23 -39 19 -4 19 -4 -5 -6 -15 0 -30 -6 -33 -11 -3 -6 -21 -10 -40 -10 -19 0
-37 -5 -40 -10 -4 -6 -68 -10 -161 -10 l-154 0 2 -272 3 -273 1052 -3 1052 -2
3 62 3 63 945 5 945 5 0 78 c0 42 -2 167 -3 277 l-2 200 -437 -2 c-241 -1
-823 -5 -1293 -9z"/>
</g>
</svg>
