<?xml version="1.0" standalone="no"?>
<!DOCTYPE svg PUBLIC "-//W3C//DTD SVG 20010904//EN"
 "http://www.w3.org/TR/2001/REC-SVG-20010904/DTD/svg10.dtd">
<svg version="1.0" xmlns="http://www.w3.org/2000/svg"
 width="400.000000pt" height="31.000000pt" viewBox="0 0 400.000000 31.000000"
 preserveAspectRatio="xMidYMid meet">
<metadata>
Created by potrace 1.15, written by Peter Selinger 2001-2017
</metadata>
<g transform="translate(0.000000,31.000000) scale(0.100000,-0.100000)"
fill="#000000" stroke="none">
<path d="M2030 299 c-476 -3 -967 -7 -1092 -8 l-228 -1 0 -35 c0 -42 1 -41
-165 -53 -73 -6 -120 -13 -123 -21 -3 -8 -65 -11 -213 -11 l-210 0 3 -83 3
-82 1410 0 1410 0 3 52 3 53 582 2 582 3 3 98 3 97 -553 -2 c-304 -1 -942 -5
-1418 -9z"/>
</g>
</svg>
