<?xml version="1.0" standalone="no"?>
<!DOCTYPE svg PUBLIC "-//W3C//DTD SVG 20010904//EN"
 "http://www.w3.org/TR/2001/REC-SVG-20010904/DTD/svg10.dtd">
<svg version="1.0" xmlns="http://www.w3.org/2000/svg"
 width="399.000000pt" height="32.000000pt" viewBox="0 0 399.000000 32.000000"
 preserveAspectRatio="xMidYMid meet">
<metadata>
Created by potrace 1.15, written by Peter Selinger 2001-2017
</metadata>
<g transform="translate(0.000000,32.000000) scale(0.100000,-0.100000)"
fill="#000000" stroke="none">
<path d="M975 310 l-500 -5 -3 -37 -3 -38 53 -1 53 0 -65 -19 c-52 -16 -99
-19 -237 -20 l-173 0 0 -35 c0 -20 -5 -35 -12 -35 -6 0 -29 -8 -49 -18 -35
-15 -39 -21 -39 -54 l0 -38 1780 0 1780 0 0 60 0 60 215 0 215 0 0 95 0 95
-1257 -2 c-692 -2 -1483 -5 -1758 -8z"/>
</g>
</svg>
