<?xml version="1.0" standalone="no"?>
<!DOCTYPE svg PUBLIC "-//W3C//DTD SVG 20010904//EN"
 "http://www.w3.org/TR/2001/REC-SVG-20010904/DTD/svg10.dtd">
<svg version="1.0" xmlns="http://www.w3.org/2000/svg"
 width="401.000000pt" height="73.000000pt" viewBox="0 0 401.000000 73.000000"
 preserveAspectRatio="xMidYMid meet">
<metadata>
Created by potrace 1.15, written by Peter Selinger 2001-2017
</metadata>
<g transform="translate(0.000000,73.000000) scale(0.100000,-0.100000)"
fill="#000000" stroke="none">
<path d="M1778 719 c-763 -4 -1395 -10 -1404 -13 -10 -4 -14 -16 -12 -38 l3
-33 75 -5 75 -5 -98 -8 c-65 -6 -100 -13 -105 -23 -6 -10 -43 -14 -157 -16
l-150 -3 0 -285 0 -285 883 -3 882 -2 0 70 0 70 1118 2 1117 3 3 293 2 292
-422 -2 c-233 -1 -1047 -5 -1810 -9z"/>
</g>
</svg>
