<?xml version="1.0" standalone="no"?>
<!DOCTYPE svg PUBLIC "-//W3C//DTD SVG 20010904//EN"
 "http://www.w3.org/TR/2001/REC-SVG-20010904/DTD/svg10.dtd">
<svg version="1.0" xmlns="http://www.w3.org/2000/svg"
 width="401.000000pt" height="34.000000pt" viewBox="0 0 401.000000 34.000000"
 preserveAspectRatio="xMidYMid meet">
<metadata>
Created by potrace 1.15, written by Peter Selinger 2001-2017
</metadata>
<g transform="translate(0.000000,34.000000) scale(0.100000,-0.100000)"
fill="#000000" stroke="none">
<path d="M2910 330 c-141 -5 -145 -6 -148 -27 -3 -19 -10 -23 -38 -23 -22 0
-34 -5 -34 -14 0 -19 -53 -26 -192 -26 -92 0 -118 -3 -118 -13 0 -11 -138 -15
-772 -20 -425 -4 -959 -7 -1185 -7 l-413 0 -5 -23 c-3 -12 -5 -54 -3 -92 l3
-70 1683 -3 1682 -2 0 60 0 60 320 0 320 0 0 105 0 105 -477 -2 c-263 -1 -543
-5 -623 -8z"/>
</g>
</svg>
