<?xml version="1.0" standalone="no"?>
<!DOCTYPE svg PUBLIC "-//W3C//DTD SVG 20010904//EN"
 "http://www.w3.org/TR/2001/REC-SVG-20010904/DTD/svg10.dtd">
<svg version="1.0" xmlns="http://www.w3.org/2000/svg"
 width="401.000000pt" height="57.000000pt" viewBox="0 0 401.000000 57.000000"
 preserveAspectRatio="xMidYMid meet">
<metadata>
Created by potrace 1.15, written by Peter Selinger 2001-2017
</metadata>
<g transform="translate(0.000000,57.000000) scale(0.100000,-0.100000)"
fill="#000000" stroke="none">
<path d="M2840 531 c0 -37 -2 -39 -37 -45 -21 -3 -98 -6 -170 -6 -105 0 -133
-3 -133 -13 0 -21 -266 -27 -1272 -27 l-898 0 0 -35 c0 -33 -2 -35 -34 -35
-19 0 -38 -5 -41 -10 -3 -6 -19 -10 -36 -10 -16 0 -29 -4 -29 -10 0 -6 -38
-10 -95 -10 l-95 0 0 -165 0 -165 1850 0 1850 0 0 65 0 65 155 0 155 0 0 159
c0 87 -3 186 -6 220 l-7 61 -578 0 -579 0 0 -39z"/>
</g>
</svg>
