<?xml version="1.0" standalone="no"?>
<!DOCTYPE svg PUBLIC "-//W3C//DTD SVG 20010904//EN"
 "http://www.w3.org/TR/2001/REC-SVG-20010904/DTD/svg10.dtd">
<svg version="1.0" xmlns="http://www.w3.org/2000/svg"
 width="386.000000pt" height="45.000000pt" viewBox="0 0 386.000000 45.000000"
 preserveAspectRatio="xMidYMid meet">
<metadata>
Created by potrace 1.15, written by Peter Selinger 2001-2017
</metadata>
<g transform="translate(0.000000,45.000000) scale(0.100000,-0.100000)"
fill="#000000" stroke="none">
<path d="M1098 443 l-658 -3 0 -35 0 -35 58 -1 57 -2 -73 -7 c-41 -3 -77 -12
-81 -18 -5 -8 -68 -12 -201 -14 l-195 -3 0 -160 0 -160 533 -3 532 -2 0 60 0
60 1393 2 1392 3 3 163 2 162 -1052 -2 c-579 -2 -1349 -4 -1710 -5z"/>
</g>
</svg>
