<?xml version="1.0" standalone="no"?>
<!DOCTYPE svg PUBLIC "-//W3C//DTD SVG 20010904//EN"
 "http://www.w3.org/TR/2001/REC-SVG-20010904/DTD/svg10.dtd">
<svg version="1.0" xmlns="http://www.w3.org/2000/svg"
 width="401.000000pt" height="34.000000pt" viewBox="0 0 401.000000 34.000000"
 preserveAspectRatio="xMidYMid meet">
<metadata>
Created by potrace 1.15, written by Peter Selinger 2001-2017
</metadata>
<g transform="translate(0.000000,34.000000) scale(0.100000,-0.100000)"
fill="#000000" stroke="none">
<path d="M488 323 l-58 -4 0 -39 c0 -36 -3 -40 -25 -40 -14 0 -25 -4 -25 -10
0 -5 -18 -10 -40 -10 -22 0 -40 -4 -40 -10 0 -6 -57 -10 -150 -10 l-150 0 0
-100 0 -100 450 0 450 0 0 65 0 65 1555 0 1555 0 0 100 0 100 -1732 -2 c-953
-1 -1759 -3 -1790 -5z"/>
</g>
</svg>
