<?xml version="1.0" standalone="no"?>
<!DOCTYPE svg PUBLIC "-//W3C//DTD SVG 20010904//EN"
 "http://www.w3.org/TR/2001/REC-SVG-20010904/DTD/svg10.dtd">
<svg version="1.0" xmlns="http://www.w3.org/2000/svg"
 width="402.000000pt" height="82.000000pt" viewBox="0 0 402.000000 82.000000"
 preserveAspectRatio="xMidYMid meet">
<metadata>
Created by potrace 1.15, written by Peter Selinger 2001-2017
</metadata>
<g transform="translate(0.000000,82.000000) scale(0.100000,-0.100000)"
fill="#000000" stroke="none">
<path d="M638 803 l-228 -3 0 -40 c0 -31 4 -40 18 -41 30 -2 -30 -17 -71 -18
-23 -1 -40 -7 -43 -16 -5 -12 -32 -15 -160 -15 l-154 0 0 -85 0 -85 294 0
c227 0 295 -3 298 -12 4 -10 239 -14 1121 -16 678 -2 1117 -7 1117 -13 0 -5
-199 -9 -498 -9 -274 0 -911 -3 -1416 -7 l-917 -6 3 -36 c3 -35 4 -36 53 -42
53 -5 45 -16 -15 -21 -34 -3 -35 -5 -35 -43 l0 -40 127 -5 c70 -3 130 -9 134
-13 4 -4 -7 -7 -24 -7 -18 0 -32 -4 -32 -10 0 -5 -45 -11 -102 -12 l-103 -3
-3 -102 -3 -103 741 0 740 0 0 65 0 65 1270 0 1270 0 0 220 0 220 -675 0
c-668 0 -675 0 -675 20 0 20 7 20 675 20 l675 0 0 100 0 100 -1577 -2 c-868
-2 -1680 -4 -1805 -5z"/>
</g>
</svg>
