<?xml version="1.0" standalone="no"?>
<!DOCTYPE svg PUBLIC "-//W3C//DTD SVG 20010904//EN"
 "http://www.w3.org/TR/2001/REC-SVG-20010904/DTD/svg10.dtd">
<svg version="1.0" xmlns="http://www.w3.org/2000/svg"
 width="400.000000pt" height="25.000000pt" viewBox="0 0 400.000000 25.000000"
 preserveAspectRatio="xMidYMid meet">
<metadata>
Created by potrace 1.15, written by Peter Selinger 2001-2017
</metadata>
<g transform="translate(0.000000,25.000000) scale(0.100000,-0.100000)"
fill="#000000" stroke="none">
<path d="M2567 243 c-128 -3 -159 -6 -163 -18 -5 -12 -37 -15 -185 -15 -150 0
-181 -2 -185 -15 -5 -13 -128 -15 -1020 -15 l-1014 0 0 -90 0 -90 1642 2 1643
3 3 57 3 58 352 2 352 3 3 63 3 62 -638 -2 c-351 -1 -709 -4 -796 -5z"/>
</g>
</svg>
