<?xml version="1.0" standalone="no"?>
<!DOCTYPE svg PUBLIC "-//W3C//DTD SVG 20010904//EN"
 "http://www.w3.org/TR/2001/REC-SVG-20010904/DTD/svg10.dtd">
<svg version="1.0" xmlns="http://www.w3.org/2000/svg"
 width="401.000000pt" height="64.000000pt" viewBox="0 0 401.000000 64.000000"
 preserveAspectRatio="xMidYMid meet">
<metadata>
Created by potrace 1.15, written by Peter Selinger 2001-2017
</metadata>
<g transform="translate(0.000000,64.000000) scale(0.100000,-0.100000)"
fill="#000000" stroke="none">
<path d="M844 633 l-392 -3 -7 -81 c-4 -44 -5 -82 -3 -85 3 -2 328 -5 724 -6
l719 -3 0 90 0 90 -325 0 c-179 0 -501 -1 -716 -2z"/>
<path d="M2104 516 c-3 -8 -4 -27 -2 -43 l3 -28 443 -3 c283 -1 442 -6 442
-12 0 -7 -465 -10 -1347 -10 -742 0 -1413 -3 -1492 -7 l-143 -6 5 -49 c4 -28
2 -48 -3 -48 -6 0 -10 -62 -10 -150 l0 -150 915 0 915 0 0 55 0 55 1090 0
1090 0 0 205 0 205 -950 0 c-811 0 -951 -2 -956 -14z"/>
</g>
</svg>
