<?xml version="1.0" standalone="no"?>
<!DOCTYPE svg PUBLIC "-//W3C//DTD SVG 20010904//EN"
 "http://www.w3.org/TR/2001/REC-SVG-20010904/DTD/svg10.dtd">
<svg version="1.0" xmlns="http://www.w3.org/2000/svg"
 width="400.000000pt" height="32.000000pt" viewBox="0 0 400.000000 32.000000"
 preserveAspectRatio="xMidYMid meet">
<metadata>
Created by potrace 1.15, written by Peter Selinger 2001-2017
</metadata>
<g transform="translate(0.000000,32.000000) scale(0.100000,-0.100000)"
fill="#000000" stroke="none">
<path d="M1493 313 l-1023 -3 0 -40 0 -40 88 -1 87 -2 -79 -8 c-55 -6 -83 -13
-88 -24 -8 -13 -43 -15 -243 -15 l-235 0 0 -85 0 -85 363 2 362 3 3 58 3 57
1634 0 1635 0 0 95 0 95 -742 -2 c-409 -2 -1203 -4 -1765 -5z"/>
</g>
</svg>
