<?xml version="1.0" standalone="no"?>
<!DOCTYPE svg PUBLIC "-//W3C//DTD SVG 20010904//EN"
 "http://www.w3.org/TR/2001/REC-SVG-20010904/DTD/svg10.dtd">
<svg version="1.0" xmlns="http://www.w3.org/2000/svg"
 width="401.000000pt" height="34.000000pt" viewBox="0 0 401.000000 34.000000"
 preserveAspectRatio="xMidYMid meet">
<metadata>
Created by potrace 1.15, written by Peter Selinger 2001-2017
</metadata>
<g transform="translate(0.000000,34.000000) scale(0.100000,-0.100000)"
fill="#000000" stroke="none">
<path d="M1393 333 l-1193 -3 0 -40 c0 -35 3 -40 23 -40 20 0 20 -2 -8 -20
-24 -16 -47 -20 -122 -20 l-93 0 0 -100 0 -100 1084 0 c979 0 1084 2 1090 16
3 9 6 38 6 65 l0 49 915 0 915 0 0 100 0 100 -712 -2 c-392 -2 -1250 -4 -1905
-5z"/>
</g>
</svg>
