<?xml version="1.0" standalone="no"?>
<!DOCTYPE svg PUBLIC "-//W3C//DTD SVG 20010904//EN"
 "http://www.w3.org/TR/2001/REC-SVG-20010904/DTD/svg10.dtd">
<svg version="1.0" xmlns="http://www.w3.org/2000/svg"
 width="162.000000pt" height="69.000000pt" viewBox="0 0 162.000000 69.000000"
 preserveAspectRatio="xMidYMid meet">
<metadata>
Created by potrace 1.15, written by Peter Selinger 2001-2017
</metadata>
<g transform="translate(0.000000,69.000000) scale(0.100000,-0.100000)"
fill="#000000" stroke="none">
<path d="M853 683 l-63 -4 0 -34 0 -35 -160 0 -160 0 0 -40 0 -40 200 0 200 0
0 35 0 35 275 0 275 0 0 45 0 45 -252 -2 c-139 -1 -281 -3 -315 -5z"/>
<path d="M280 442 l0 -39 203 -6 c111 -4 262 -7 335 -7 l132 0 0 45 0 45 -335
0 -335 0 0 -38z"/>
<path d="M1112 364 c-5 -10 -28 -18 -55 -21 -26 -3 -47 -10 -47 -16 0 -6 -103
-8 -307 -3 -260 6 -320 4 -383 -9 -41 -9 -109 -20 -150 -26 -41 -6 -80 -17
-86 -24 -5 -7 -26 -15 -45 -17 -32 -3 -34 -5 -37 -45 l-3 -43 115 0 116 0 0
-40 0 -40 55 0 c48 0 55 -2 55 -20 0 -20 7 -20 314 -20 232 0 315 -3 318 -12
7 -19 125 -27 396 -27 l252 -1 0 45 0 45 -94 0 -94 0 -7 50 -7 50 -304 0
c-196 0 -304 4 -304 10 0 6 45 10 115 10 113 0 115 0 115 23 l0 23 174 -4 173
-4 7 32 c3 18 6 48 6 66 l0 34 -140 0 c-117 0 -140 -3 -148 -16z"/>
</g>
</svg>
