<?xml version="1.0" standalone="no"?>
<!DOCTYPE svg PUBLIC "-//W3C//DTD SVG 20010904//EN"
 "http://www.w3.org/TR/2001/REC-SVG-20010904/DTD/svg10.dtd">
<svg version="1.0" xmlns="http://www.w3.org/2000/svg"
 width="401.000000pt" height="82.000000pt" viewBox="0 0 401.000000 82.000000"
 preserveAspectRatio="xMidYMid meet">
<metadata>
Created by potrace 1.15, written by Peter Selinger 2001-2017
</metadata>
<g transform="translate(0.000000,82.000000) scale(0.100000,-0.100000)"
fill="#000000" stroke="none">
<path d="M1087 813 l-778 -3 3 -38 c3 -35 5 -37 40 -40 51 -4 49 -22 -2 -22
-22 0 -40 -4 -40 -10 0 -5 -33 -10 -72 -12 l-73 -3 -3 -37 -3 -38 48 -1 c61
-1 107 -17 51 -18 -21 -1 -38 -5 -38 -11 0 -5 -47 -11 -107 -12 l-108 -3 0
-275 0 -275 527 -3 527 -2 3 62 3 63 1473 3 1472 2 -2 338 -3 337 -1070 0
c-588 0 -1420 -1 -1848 -2z"/>
</g>
</svg>
