<?xml version="1.0" standalone="no"?>
<!DOCTYPE svg PUBLIC "-//W3C//DTD SVG 20010904//EN"
 "http://www.w3.org/TR/2001/REC-SVG-20010904/DTD/svg10.dtd">
<svg version="1.0" xmlns="http://www.w3.org/2000/svg"
 width="402.000000pt" height="58.000000pt" viewBox="0 0 402.000000 58.000000"
 preserveAspectRatio="xMidYMid meet">
<metadata>
Created by potrace 1.15, written by Peter Selinger 2001-2017
</metadata>
<g transform="translate(0.000000,58.000000) scale(0.100000,-0.100000)"
fill="#000000" stroke="none">
<path d="M2030 542 l0 -37 -65 -13 c-35 -6 -123 -12 -195 -12 -109 0 -130 -2
-130 -15 0 -13 -98 -15 -820 -15 l-821 0 3 -157 3 -158 40 -7 c22 -4 248 -7
503 -7 l462 -1 0 -40 0 -40 84 0 c65 0 85 -3 90 -15 5 -13 168 -15 1386 -15
l1380 0 0 59 0 60 33 3 32 3 3 223 2 222 -995 0 -995 0 0 -38z"/>
<path d="M12 43 l3 -38 237 -3 238 -2 0 40 0 40 -241 0 -240 0 3 -37z"/>
</g>
</svg>
