<?xml version="1.0" standalone="no"?>
<!DOCTYPE svg PUBLIC "-//W3C//DTD SVG 20010904//EN"
 "http://www.w3.org/TR/2001/REC-SVG-20010904/DTD/svg10.dtd">
<svg version="1.0" xmlns="http://www.w3.org/2000/svg"
 width="401.000000pt" height="81.000000pt" viewBox="0 0 401.000000 81.000000"
 preserveAspectRatio="xMidYMid meet">
<metadata>
Created by potrace 1.15, written by Peter Selinger 2001-2017
</metadata>
<g transform="translate(0.000000,81.000000) scale(0.100000,-0.100000)"
fill="#000000" stroke="none">
<path d="M1923 803 l-93 -4 0 -38 c0 -35 -3 -39 -31 -45 -17 -3 -75 -6 -128
-6 -60 0 -101 -4 -109 -12 -8 -8 -218 -12 -787 -16 l-775 -5 0 -338 0 -339
1050 0 1049 0 3 63 3 62 953 3 952 2 0 340 0 340 -997 -2 c-549 -1 -1040 -4
-1090 -5z"/>
</g>
</svg>
