<?xml version="1.0" standalone="no"?>
<!DOCTYPE svg PUBLIC "-//W3C//DTD SVG 20010904//EN"
 "http://www.w3.org/TR/2001/REC-SVG-20010904/DTD/svg10.dtd">
<svg version="1.0" xmlns="http://www.w3.org/2000/svg"
 width="401.000000pt" height="43.000000pt" viewBox="0 0 401.000000 43.000000"
 preserveAspectRatio="xMidYMid meet">
<metadata>
Created by potrace 1.15, written by Peter Selinger 2001-2017
</metadata>
<g transform="translate(0.000000,43.000000) scale(0.100000,-0.100000)"
fill="#000000" stroke="none">
<path d="M883 413 l-883 -3 0 -35 0 -35 88 -2 c48 -1 68 -3 45 -5 -24 -2 -43
-8 -43 -13 0 -5 -19 -10 -42 -12 l-43 -3 0 -145 0 -145 878 -3 877 -2 0 55 0
55 1123 2 1122 3 3 148 3 147 -1123 -2 c-618 -2 -1520 -4 -2005 -5z"/>
</g>
</svg>
