<?xml version="1.0" standalone="no"?>
<!DOCTYPE svg PUBLIC "-//W3C//DTD SVG 20010904//EN"
 "http://www.w3.org/TR/2001/REC-SVG-20010904/DTD/svg10.dtd">
<svg version="1.0" xmlns="http://www.w3.org/2000/svg"
 width="400.000000pt" height="32.000000pt" viewBox="0 0 400.000000 32.000000"
 preserveAspectRatio="xMidYMid meet">
<metadata>
Created by potrace 1.15, written by Peter Selinger 2001-2017
</metadata>
<g transform="translate(0.000000,32.000000) scale(0.100000,-0.100000)"
fill="#000000" stroke="none">
<path d="M3445 313 c-11 -2 -29 -8 -40 -13 -20 -9 -52 -13 -192 -26 -59 -5
-74 -10 -78 -25 -6 -18 -19 -19 -161 -19 l-154 0 0 -44 0 -44 208 -6 c114 -3
379 -9 590 -12 l382 -6 0 101 0 101 -267 -1 c-148 -1 -277 -3 -288 -6z"/>
<path d="M0 95 l0 -95 358 2 357 3 0 90 0 90 -357 3 -358 2 0 -95z"/>
</g>
</svg>
