<?xml version="1.0" standalone="no"?>
<!DOCTYPE svg PUBLIC "-//W3C//DTD SVG 20010904//EN"
 "http://www.w3.org/TR/2001/REC-SVG-20010904/DTD/svg10.dtd">
<svg version="1.0" xmlns="http://www.w3.org/2000/svg"
 width="400.000000pt" height="32.000000pt" viewBox="0 0 400.000000 32.000000"
 preserveAspectRatio="xMidYMid meet">
<metadata>
Created by potrace 1.15, written by Peter Selinger 2001-2017
</metadata>
<g transform="translate(0.000000,32.000000) scale(0.100000,-0.100000)"
fill="#000000" stroke="none">
<path d="M1090 310 l-635 -5 -3 -37 -3 -38 48 -1 48 -1 -62 -15 c-35 -8 -63
-19 -63 -24 0 -5 -90 -9 -210 -9 l-210 0 0 -85 0 -85 850 0 850 0 0 55 0 55
1148 2 1147 3 0 95 0 95 -1135 0 c-624 0 -1421 -2 -1770 -5z"/>
</g>
</svg>
