<?xml version="1.0" standalone="no"?>
<!DOCTYPE svg PUBLIC "-//W3C//DTD SVG 20010904//EN"
 "http://www.w3.org/TR/2001/REC-SVG-20010904/DTD/svg10.dtd">
<svg version="1.0" xmlns="http://www.w3.org/2000/svg"
 width="402.000000pt" height="30.000000pt" viewBox="0 0 402.000000 30.000000"
 preserveAspectRatio="xMidYMid meet">
<metadata>
Created by potrace 1.15, written by Peter Selinger 2001-2017
</metadata>
<g transform="translate(0.000000,30.000000) scale(0.100000,-0.100000)"
fill="#000000" stroke="none">
<path d="M3320 290 c0 -6 -35 -10 -85 -10 l-85 0 0 -30 0 -30 -85 0 c-69 0
-85 -3 -85 -15 0 -13 -25 -15 -165 -15 l-165 0 0 -45 0 -45 683 2 682 3 3 98
3 97 -351 0 c-227 0 -350 -4 -350 -10z"/>
<path d="M7 173 c-4 -3 -7 -44 -7 -90 l0 -83 340 0 340 0 0 90 0 90 -333 0
c-184 0 -337 -3 -340 -7z"/>
</g>
</svg>
