<?xml version="1.0" standalone="no"?>
<!DOCTYPE svg PUBLIC "-//W3C//DTD SVG 20010904//EN"
 "http://www.w3.org/TR/2001/REC-SVG-20010904/DTD/svg10.dtd">
<svg version="1.0" xmlns="http://www.w3.org/2000/svg"
 width="400.000000pt" height="57.000000pt" viewBox="0 0 400.000000 57.000000"
 preserveAspectRatio="xMidYMid meet">
<metadata>
Created by potrace 1.15, written by Peter Selinger 2001-2017
</metadata>
<g transform="translate(0.000000,57.000000) scale(0.100000,-0.100000)"
fill="#000000" stroke="none">
<path d="M1350 535 c0 -16 -6 -25 -15 -25 -8 0 -15 -6 -15 -14 0 -10 -26 -15
-101 -21 l-100 -7 3 -41 3 -42 328 -3 327 -2 0 90 0 90 -215 0 -215 0 0 -25z"/>
<path d="M2707 453 l-298 -3 3 -42 c2 -34 7 -43 25 -48 16 -3 20 -9 14 -18 -7
-11 -225 -15 -1230 -19 l-1221 -6 0 -159 0 -158 735 0 735 0 0 65 0 65 1263 2
1262 3 0 160 0 160 -495 0 c-272 0 -629 -1 -793 -2z"/>
</g>
</svg>
