<?xml version="1.0" standalone="no"?>
<!DOCTYPE svg PUBLIC "-//W3C//DTD SVG 20010904//EN"
 "http://www.w3.org/TR/2001/REC-SVG-20010904/DTD/svg10.dtd">
<svg version="1.0" xmlns="http://www.w3.org/2000/svg"
 width="400.000000pt" height="53.000000pt" viewBox="0 0 400.000000 53.000000"
 preserveAspectRatio="xMidYMid meet">
<metadata>
Created by potrace 1.15, written by Peter Selinger 2001-2017
</metadata>
<g transform="translate(0.000000,53.000000) scale(0.100000,-0.100000)"
fill="#000000" stroke="none">
<path d="M1355 509 c-385 -3 -721 -7 -747 -8 l-48 -1 0 -38 c0 -35 -3 -38 -40
-50 -22 -7 -92 -12 -158 -12 -65 0 -174 -3 -240 -7 l-122 -6 0 -194 0 -193
1653 2 1652 3 3 53 3 52 345 0 344 0 0 205 0 205 -972 -2 c-535 -1 -1288 -5
-1673 -9z"/>
</g>
</svg>
