<?xml version="1.0" standalone="no"?>
<!DOCTYPE svg PUBLIC "-//W3C//DTD SVG 20010904//EN"
 "http://www.w3.org/TR/2001/REC-SVG-20010904/DTD/svg10.dtd">
<svg version="1.0" xmlns="http://www.w3.org/2000/svg"
 width="402.000000pt" height="33.000000pt" viewBox="0 0 402.000000 33.000000"
 preserveAspectRatio="xMidYMid meet">
<metadata>
Created by potrace 1.15, written by Peter Selinger 2001-2017
</metadata>
<g transform="translate(0.000000,33.000000) scale(0.100000,-0.100000)"
fill="#000000" stroke="none">
<path d="M1643 317 l-1643 -10 0 -33 0 -34 78 -2 c62 -1 67 -2 25 -5 -29 -2
-53 -8 -53 -14 0 -5 -11 -9 -25 -9 l-25 0 0 -105 0 -105 1915 0 1915 0 0 60 0
60 95 0 96 0 -3 103 -3 102 -365 1 c-201 0 -1104 -4 -2007 -9z"/>
</g>
</svg>
