<?xml version="1.0" standalone="no"?>
<!DOCTYPE svg PUBLIC "-//W3C//DTD SVG 20010904//EN"
 "http://www.w3.org/TR/2001/REC-SVG-20010904/DTD/svg10.dtd">
<svg version="1.0" xmlns="http://www.w3.org/2000/svg"
 width="401.000000pt" height="58.000000pt" viewBox="0 0 401.000000 58.000000"
 preserveAspectRatio="xMidYMid meet">
<metadata>
Created by potrace 1.15, written by Peter Selinger 2001-2017
</metadata>
<g transform="translate(0.000000,58.000000) scale(0.100000,-0.100000)"
fill="#000000" stroke="none">
<path d="M2590 570 c-503 -4 -1204 -8 -1557 -9 l-643 -1 0 -40 0 -40 58 -1
c31 -1 -13 -6 -98 -11 -85 -4 -159 -13 -164 -18 -6 -6 -50 -10 -98 -10 l-88 0
0 -220 0 -220 1125 0 1125 0 0 60 0 60 880 0 880 0 0 59 0 60 -52 4 -53 3 53
2 52 2 -2 163 -3 162 -250 1 c-137 0 -662 -3 -1165 -6z"/>
</g>
</svg>
