<?xml version="1.0" standalone="no"?>
<!DOCTYPE svg PUBLIC "-//W3C//DTD SVG 20010904//EN"
 "http://www.w3.org/TR/2001/REC-SVG-20010904/DTD/svg10.dtd">
<svg version="1.0" xmlns="http://www.w3.org/2000/svg"
 width="370.000000pt" height="54.000000pt" viewBox="0 0 370.000000 54.000000"
 preserveAspectRatio="xMidYMid meet">
<metadata>
Created by potrace 1.15, written by Peter Selinger 2001-2017
</metadata>
<g transform="translate(0.000000,54.000000) scale(0.100000,-0.100000)"
fill="#000000" stroke="none">
<path d="M863 523 l-853 -3 0 -35 0 -35 93 -2 c56 -1 72 -3 42 -5 -27 -2 -54
-8 -59 -14 -6 -5 -25 -9 -43 -9 l-33 0 0 -205 0 -205 245 0 245 0 0 55 0 55
1598 2 1597 3 3 203 2 202 -992 -2 c-546 -2 -1377 -4 -1845 -5z"/>
</g>
</svg>
