<?xml version="1.0" standalone="no"?>
<!DOCTYPE svg PUBLIC "-//W3C//DTD SVG 20010904//EN"
 "http://www.w3.org/TR/2001/REC-SVG-20010904/DTD/svg10.dtd">
<svg version="1.0" xmlns="http://www.w3.org/2000/svg"
 width="401.000000pt" height="70.000000pt" viewBox="0 0 401.000000 70.000000"
 preserveAspectRatio="xMidYMid meet">
<metadata>
Created by potrace 1.15, written by Peter Selinger 2001-2017
</metadata>
<g transform="translate(0.000000,70.000000) scale(0.100000,-0.100000)"
fill="#000000" stroke="none">
<path d="M1780 651 c0 -29 5 -41 18 -44 9 -3 -38 -5 -105 -6 -102 -1 -123 -4
-123 -16 0 -13 -94 -15 -785 -15 l-785 0 0 -45 c0 -38 3 -45 20 -45 11 0 20
-7 20 -15 0 -8 -9 -15 -20 -15 -19 0 -20 -7 -20 -225 l0 -225 755 0 755 0 0
65 0 65 1250 0 1250 0 0 280 0 280 -1115 0 -1115 0 0 -39z"/>
</g>
</svg>
