<?xml version="1.0" standalone="no"?>
<!DOCTYPE svg PUBLIC "-//W3C//DTD SVG 20010904//EN"
 "http://www.w3.org/TR/2001/REC-SVG-20010904/DTD/svg10.dtd">
<svg version="1.0" xmlns="http://www.w3.org/2000/svg"
 width="401.000000pt" height="32.000000pt" viewBox="0 0 401.000000 32.000000"
 preserveAspectRatio="xMidYMid meet">
<metadata>
Created by potrace 1.15, written by Peter Selinger 2001-2017
</metadata>
<g transform="translate(0.000000,32.000000) scale(0.100000,-0.100000)"
fill="#000000" stroke="none">
<path d="M1660 270 l0 -40 -90 0 c-73 0 -90 -3 -90 -15 0 -13 -22 -15 -135
-15 -83 0 -135 -4 -135 -10 0 -7 -197 -10 -570 -10 l-570 0 0 -35 c0 -29 -4
-35 -21 -35 -31 0 -49 -24 -49 -64 l0 -36 640 0 640 0 0 55 0 55 1365 0 1365
0 0 95 0 95 -1175 0 -1175 0 0 -40z"/>
</g>
</svg>
