<?xml version="1.0" encoding="UTF-8" standalone="no"?>
<svg
   xmlns:dc="http://purl.org/dc/elements/1.1/"
   xmlns:cc="http://creativecommons.org/ns#"
   xmlns:rdf="http://www.w3.org/1999/02/22-rdf-syntax-ns#"
   xmlns:svg="http://www.w3.org/2000/svg"
   xmlns="http://www.w3.org/2000/svg"
   xmlns:sodipodi="http://sodipodi.sourceforge.net/DTD/sodipodi-0.dtd"
   xmlns:inkscape="http://www.inkscape.org/namespaces/inkscape"
   version="1.0"
   width="11.8in"
   height="12in"
   viewBox="0 0 849.60001 864.00005"
   preserveAspectRatio="xMidYMid meet"
   id="svg34263"
   inkscape:version="0.91 r13725"
   sodipodi:docname="orbyTShirt.svg"
   inkscape:export-filename="/Users/as220/_RedactionTowers/orby.png"
   inkscape:export-xdpi="57600"
   inkscape:export-ydpi="57600">
  <defs
     id="defs34273" />
  <sodipodi:namedview
     pagecolor="#ffffff"
     bordercolor="#666666"
     borderopacity="1"
     objecttolerance="10"
     gridtolerance="10"
     guidetolerance="10"
     inkscape:pageopacity="0"
     inkscape:pageshadow="2"
     inkscape:window-width="1348"
     inkscape:window-height="649"
     id="namedview34271"
     showgrid="false"
     units="in"
     inkscape:zoom="0.21059485"
     inkscape:cx="872.61974"
     inkscape:cy="462.99096"
     inkscape:window-x="28"
     inkscape:window-y="0"
     inkscape:window-maximized="0"
     inkscape:current-layer="svg34263" />
  <metadata
     id="metadata34265">
Created by potrace 1.15, written by Peter Selinger 2001-2017
<rdf:RDF>
  <cc:Work
     rdf:about="">
    <dc:format>image/svg+xml</dc:format>
    <dc:type
       rdf:resource="http://purl.org/dc/dcmitype/StillImage" />
    <dc:title></dc:title>
  </cc:Work>
</rdf:RDF>
</metadata>
  <path
     style="fill:none;stroke:#000000;stroke-width:0.625;stroke-miterlimit:4;stroke-dasharray:none;stroke-opacity:1"
     d="M 281.04102 736.93555 C 280.46992 736.91346 279.89293 736.92066 279.31055 736.95898 C 278.14736 737.03698 277.02022 737.22933 275.9375 737.5332 C 273.04 738.34745 270.4776 739.9323 268.44336 742.04492 C 257.39035 746.88805 234.57183 757.94638 216.36328 773.84375 C 201.75622 786.597 195.06784 796.50217 192.01953 802.5293 C 187.09464 802.4173 182.11409 802.54738 177.0957 802.9375 C 170.09158 803.48037 163.23537 804.5073 156.56641 805.98242 C 152.08693 800.48817 144.24558 792.87562 130.65625 784.07812 C 110.35812 770.94013 86.180085 763.23544 74.554688 760.02344 C 71.374576 757.55431 67.351327 756.22111 63.080078 756.55273 C 62.207691 756.62086 61.350515 756.75048 60.525391 756.94336 L 60.525391 756.94531 C 60.251578 757.01094 59.985344 757.08461 59.714844 757.16211 C 52.160533 759.38011 46.921503 766.84306 47.572266 775.24219 C 47.593141 775.50444 47.623172 775.76839 47.654297 776.02539 C 46.983997 786.11901 46.305235 807.80422 51.091797 824.33984 C 53.063657 831.15772 56.066058 838.05453 59.28125 844.35742 C 46.269495 846.15646 40.502169 848.37099 39.507812 851.10547 C 36.258963 859.76907 35.17785 907.42062 37.34375 957.23633 L 40.591797 1048.2031 L 535.5 1051.4512 L 1031.4902 1053.6172 L 1031.4902 945.32227 L 1031.4902 837.02734 L 538.74805 837.02734 C 437.33749 837.02734 355.69931 837.16853 290.08008 837.56641 C 294.20591 828.07165 299.11603 814.8312 300.85547 802.34375 C 303.23482 785.27763 299.46798 763.88711 297.36328 754.00586 C 297.35903 753.75536 297.34325 753.50167 297.32812 753.24805 C 296.73448 744.24219 289.60743 737.26689 281.04102 736.93555 z "
     transform="matrix(0.80000015,0,0,0.80000008,-4.8828134e-5,0)"
     id="path34269" />
  <path
     d="m 210.41095,610.6698 c 0.86657,-0.2432 1.7682,-0.3952 2.70107,-0.4566 7.4525,-0.4921 13.9029,5.3352 14.4091,13.0203 0.50621,7.6852 -5.1251,14.3117 -12.57812,14.8019 -1.15695,0.077 -2.29037,0 -3.37897,-0.2079 l -9.73972,15.8193 c -2.96094,-1.4321 -5.98255,-2.7456 -9.07008,-3.9282 l 10.55395,-17.1341 c -1.57802,-2.1143 -2.58775,-4.7134 -2.77618,-7.5689 -0.44193,-6.7248 3.81523,-12.6424 9.87895,-14.3457 z"
     style="fill:none;stroke:#000000;stroke-width:0.50000007;stroke-linecap:butt;stroke-linejoin:miter;stroke-miterlimit:4;stroke-dasharray:none;stroke-opacity:1"
     id="path38796"
     inkscape:connector-curvature="0" />
  <path
     d="m 61.60982,624.5174 c 0.66275,-0.1567 1.34246,-0.2669 2.04037,-0.3214 7.44703,-0.5782 13.96476,5.1784 14.56086,12.8587 0.22208,2.8559 -0.40703,5.5698 -1.66903,7.8909 l 12.26296,14.6993 c -2.78927,1.7364 -5.49537,3.5863 -8.11797,5.5402 L 69.11682,651.3112 c -1.04662,0.3634 -2.15808,0.604 -3.31197,0.6923 -7.44693,0.5786 -13.96313,-5.1784 -14.56036,-12.8567 -0.53978,-6.9588 3.97188,-13.1065 10.36533,-14.6295 z"
     style="fill:none;stroke:#000000;stroke-width:0.50000007;stroke-linecap:butt;stroke-linejoin:miter;stroke-miterlimit:4;stroke-dasharray:none;stroke-opacity:1"
     id="path38800"
     inkscape:connector-curvature="0" />
  <path
     d="m 169.74961,764.7461 c -25.0728,-17.0222 -27.19464,-51.4695 -4.05814,-65.8635 14.51589,-9.0308 34.91878,-8.0173 47.99301,2.3827 25.50543,20.2884 18.34557,55.3421 -13.92327,68.1567 -11.54209,4.5852 -17.8096,3.6076 -30.0116,-4.6759 z"
     style="fill:none;stroke:#000000;stroke-width:0.50000007;stroke-linecap:butt;stroke-linejoin:miter;stroke-miterlimit:4;stroke-dasharray:none;stroke-opacity:1"
     id="path38808"
     inkscape:connector-curvature="0" />
  <path
     d="m 206.48236,736.2934 c 2.10793,-6.491 1.37357,-10.865 -3.00279,-17.8665 -11.02043,-17.6304 -35.13226,-8.4792 -32.75034,12.4312 1.41075,12.3845 7.77374,16.901 21.58908,15.3273 8.66386,-0.9872 12.03792,-3.3437 14.16405,-9.892 z"
     style="fill:none;stroke:#000000;stroke-width:0.50000007;stroke-linecap:butt;stroke-linejoin:miter;stroke-miterlimit:4;stroke-dasharray:none;stroke-opacity:1"
     id="path38812"
     inkscape:connector-curvature="0" />
  <path
     d="m 63.67325,765.2649 c -31.15402,-31.4961 3.95892,-87.3548 43.14203,-68.6301 14.35598,6.8597 20.23798,22.7592 16.65399,45.0235 -2.02821,12.6028 -4.62065,16.6003 -14.36227,22.144 -22.94867,13.0557 -33.62687,13.399 -45.43375,1.4626 z"
     style="fill:none;stroke:#000000;stroke-width:0.50000007;stroke-linecap:butt;stroke-linejoin:miter;stroke-miterlimit:4;stroke-dasharray:none;stroke-opacity:1"
     id="path38816"
     inkscape:connector-curvature="0" />
  <path
     d="m 100.90861,746.788 c 9.94328,-13.866 -1.49189,-35.1065 -17.89485,-33.2374 -7.17027,0.8174 -16.57546,15.1605 -15.59293,23.7822 1.90019,16.6794 23.86062,22.8798 33.48778,9.4552 z"
     style="fill:none;stroke:#000000;stroke-width:0.50000007;stroke-linecap:butt;stroke-linejoin:miter;stroke-miterlimit:4;stroke-dasharray:none;stroke-opacity:1"
     id="path38820"
     inkscape:connector-curvature="0" />
  <path
     style="fill:none;stroke:#000000;stroke-width:0.625;stroke-miterlimit:4;stroke-dasharray:none;stroke-opacity:1"
     d="M 42.931641 511.94336 L 42.931641 620.23828 L 42.931641 728.5332 L 535.67383 728.5332 C 637.08439 728.5332 718.72257 728.39202 784.3418 727.99414 C 780.21596 737.4889 775.30584 750.7294 773.56641 763.2168 C 771.18706 780.28292 774.95585 801.67344 777.06055 811.55469 C 777.0648 811.80519 777.07863 812.05888 777.09375 812.3125 C 777.72697 821.91875 785.79314 829.21481 795.11133 828.60156 C 796.27452 828.52356 797.40165 828.33122 798.48438 828.02734 C 801.38187 827.21309 803.94623 825.62825 805.98047 823.51562 C 817.03348 818.6725 839.85005 807.61417 858.05859 791.7168 C 872.66565 778.96355 879.35403 769.05831 882.40234 763.03125 C 887.32723 763.14319 892.30779 763.01317 897.32617 762.62305 C 904.3303 762.08017 911.18651 761.05325 917.85547 759.57812 C 922.33494 765.07231 930.17629 772.68688 943.76562 781.48438 C 964.06376 794.62237 988.24374 802.32511 999.86914 805.53711 C 1003.0493 808.00623 1007.0725 809.33944 1011.3438 809.00781 C 1012.2161 808.93969 1013.0714 808.81006 1013.8965 808.61719 L 1013.8965 808.61523 C 1014.1703 808.54961 1014.4365 808.47594 1014.707 808.39844 C 1022.2613 806.18044 1027.5004 798.71748 1026.8496 790.31836 C 1026.8287 790.05611 1026.7987 789.79216 1026.7676 789.53516 C 1027.4379 779.44153 1028.1166 757.75633 1023.3301 741.2207 C 1021.3581 734.40252 1018.356 727.50624 1015.1406 721.20312 C 1028.1528 719.40407 1033.9197 717.1896 1034.9141 714.45508 C 1038.1629 705.79148 1039.246 658.14188 1037.0801 608.32617 L 1033.8301 517.35742 L 538.92188 514.10938 L 42.931641 511.94336 z "
     transform="matrix(0.80000015,0,0,0.80000008,-4.8828134e-5,0)"
     id="path8094" />
  <path
     inkscape:connector-curvature="0"
     id="path8098"
     style="fill:none;stroke:#000000;stroke-width:0.50000007;stroke-linecap:butt;stroke-linejoin:miter;stroke-miterlimit:4;stroke-dasharray:none;stroke-opacity:1"
     d="m 649.12697,641.77882 c -0.86657,0.2432 -1.7682,0.3952 -2.70107,0.4566 -7.4525,0.4921 -13.9029,-5.3352 -14.4091,-13.0203 -0.50621,-7.6852 5.1251,-14.3117 12.57812,-14.8019 1.15695,-0.077 2.29037,0 3.37897,0.2079 l 9.73972,-15.81925 c 2.96094,1.4321 5.98255,2.7456 9.07008,3.9282 l -10.55395,17.13405 c 1.57802,2.1143 2.58775,4.7134 2.77618,7.5689 0.44193,6.7248 -3.81523,12.6424 -9.87895,14.3457 z" />
  <path
     inkscape:connector-curvature="0"
     id="path8100"
     style="fill:none;stroke:#000000;stroke-width:0.50000007;stroke-linecap:butt;stroke-linejoin:miter;stroke-miterlimit:4;stroke-dasharray:none;stroke-opacity:1"
     d="m 797.9281,627.93122 c -0.66275,0.1567 -1.34246,0.2669 -2.04037,0.3214 -7.44703,0.5782 -13.96476,-5.1784 -14.56086,-12.8587 -0.22208,-2.8559 0.40703,-5.56975 1.66903,-7.89085 l -12.26296,-14.6993 c 2.78927,-1.7364 5.49537,-3.5863 8.11797,-5.5402 l 11.57019,13.8739 c 1.04662,-0.3634 2.15808,-0.604 3.31197,-0.6923 7.44693,-0.5786 13.96313,5.1784 14.56036,12.85665 0.53978,6.9588 -3.97188,13.1065 -10.36533,14.6295 z" />
  <path
     inkscape:connector-curvature="0"
     id="path8102"
     style="fill:none;stroke:#000000;stroke-width:0.50000007;stroke-linecap:butt;stroke-linejoin:miter;stroke-miterlimit:4;stroke-dasharray:none;stroke-opacity:1"
     d="m 689.78831,487.70257 c 25.0728,17.0222 27.19464,51.4695 4.05814,65.8635 -14.51589,9.0308 -34.91878,8.0173 -47.99301,-2.3827 -25.50543,-20.2884 -18.34557,-55.3421 13.92327,-68.1567 11.54209,-4.5852 17.8096,-3.6076 30.0116,4.6759 z" />
  <path
     inkscape:connector-curvature="0"
     id="path8104"
     style="fill:none;stroke:#000000;stroke-width:0.50000007;stroke-linecap:butt;stroke-linejoin:miter;stroke-miterlimit:4;stroke-dasharray:none;stroke-opacity:1"
     d="m 653.05556,516.15527 c -2.10793,6.491 -1.37357,10.865 3.00279,17.8665 11.02043,17.6304 35.13226,8.4792 32.75034,-12.4312 -1.41075,-12.3845 -7.77374,-16.901 -21.58908,-15.3273 -8.66386,0.9872 -12.03792,3.3437 -14.16405,9.892 z" />
  <path
     inkscape:connector-curvature="0"
     id="path8106"
     style="fill:none;stroke:#000000;stroke-width:0.50000007;stroke-linecap:butt;stroke-linejoin:miter;stroke-miterlimit:4;stroke-dasharray:none;stroke-opacity:1"
     d="m 795.86467,487.18377 c 31.15402,31.4961 -3.95892,87.3548 -43.14203,68.6301 -14.35598,-6.8597 -20.23798,-22.7592 -16.65399,-45.0235 2.02821,-12.6028 4.62065,-16.6003 14.36227,-22.144 22.94867,-13.0557 33.62687,-13.399 45.43375,-1.4626 z" />
  <path
     inkscape:connector-curvature="0"
     id="path8108"
     style="fill:none;stroke:#000000;stroke-width:0.50000007;stroke-linecap:butt;stroke-linejoin:miter;stroke-miterlimit:4;stroke-dasharray:none;stroke-opacity:1"
     d="m 758.62931,505.66067 c -9.94328,13.866 1.49189,35.1065 17.89485,33.2374 7.17027,-0.8174 16.57546,-15.1605 15.59293,-23.7822 -1.90019,-16.6794 -23.86062,-22.8798 -33.48778,-9.4552 z" />
</svg>
