<?xml version="1.0" encoding="UTF-8" standalone="no"?>
<svg
   xmlns:dc="http://purl.org/dc/elements/1.1/"
   xmlns:cc="http://creativecommons.org/ns#"
   xmlns:rdf="http://www.w3.org/1999/02/22-rdf-syntax-ns#"
   xmlns:svg="http://www.w3.org/2000/svg"
   xmlns="http://www.w3.org/2000/svg"
   xmlns:sodipodi="http://sodipodi.sourceforge.net/DTD/sodipodi-0.dtd"
   xmlns:inkscape="http://www.inkscape.org/namespaces/inkscape"
   version="1.0"
   width="2in"
   height="2in"
   viewBox="0 0 144 144.00001"
   preserveAspectRatio="xMidYMid meet"
   id="svg34263"
   inkscape:version="0.91 r13725"
   sodipodi:docname="orby.svg"
   inkscape:export-filename="/Users/as220/_RedactionTowers/orby.png"
   inkscape:export-xdpi="57600"
   inkscape:export-ydpi="57600">
  <defs
     id="defs34273" />
  <sodipodi:namedview
     pagecolor="#ffffff"
     bordercolor="#666666"
     borderopacity="1"
     objecttolerance="10"
     gridtolerance="10"
     guidetolerance="10"
     inkscape:pageopacity="0"
     inkscape:pageshadow="2"
     inkscape:window-width="1348"
     inkscape:window-height="649"
     id="namedview34271"
     showgrid="false"
     units="in"
     inkscape:zoom="1.6847588"
     inkscape:cx="11.271622"
     inkscape:cy="53.680874"
     inkscape:window-x="28"
     inkscape:window-y="0"
     inkscape:window-maximized="0"
     inkscape:current-layer="svg34263" />
  <metadata
     id="metadata34265">
Created by potrace 1.15, written by Peter Selinger 2001-2017
<rdf:RDF>
  <cc:Work
     rdf:about="">
    <dc:format>image/svg+xml</dc:format>
    <dc:type
       rdf:resource="http://purl.org/dc/dcmitype/StillImage" />
    <dc:title></dc:title>
  </cc:Work>
</rdf:RDF>
</metadata>
  <rect
     style="opacity:0.95;fill:#ffffff;fill-opacity:1;stroke:#ffffff;stroke-width:1.06740677;stroke-linecap:round;stroke-linejoin:round;stroke-miterlimit:4;stroke-dasharray:none;stroke-opacity:1"
     id="rect38892"
     width="142.9326"
     height="142.9326"
     x="0.75855136"
     y="2.6830885" />
  <g
     id="g38881"
     transform="matrix(1.1291688,0,0,1.1291688,20.228917,29.685705)">
    <g
       style="fill:#000000;stroke:none"
       id="g34267"
       transform="matrix(0.1,0,0,-0.1,0,54.000001)">
      <path
         inkscape:connector-curvature="0"
         id="path34269"
         d="M 4,187 C 1,179 0,135 2,89 L 5,5 462,2 920,0 l 0,100 0,100 -455,0 C 94,200 8,198 4,187 Z" />
    </g>
    <path
       inkscape:connector-curvature="0"
       id="path38792"
       style="fill:#000000;stroke:#000000;stroke-width:0.00328335;stroke-linecap:butt;stroke-linejoin:miter;stroke-miterlimit:4;stroke-dasharray:none;stroke-opacity:1"
       d="m 2.3407306,26.605052 c 0.076193,-0.01782 0.1552255,-0.02979 0.2357817,-0.03608 0.3944096,-0.03062 0.7659294,0.09243 1.0595814,0.320431 1.0734941,0.296591 3.3061519,1.007932 5.1804899,2.221108 1.2548434,0.812356 1.9789894,1.515468 2.3926254,2.022813 0.615815,-0.136209 1.248915,-0.23116 1.895679,-0.281287 0.463399,-0.03603 0.923276,-0.04802 1.378042,-0.03768 0.281482,-0.556548 0.899102,-1.471132 2.247923,-2.648775 1.681384,-1.467965 3.788361,-2.48915 4.809001,-2.936365 0.187842,-0.195081 0.424467,-0.34148 0.692023,-0.416666 0.09998,-0.02806 0.204084,-0.04567 0.311493,-0.05287 0.860445,-0.05663 1.605255,0.617008 1.663728,1.504058 0.0014,0.02342 0.0028,0.04683 0.0032,0.06996 0.194349,0.91244 0.542303,2.887604 0.322592,4.4635 -0.185058,1.328526 -0.759096,2.75075 -1.162811,3.62813 2.412283,2.235895 4.021474,5.350857 4.29635,8.889393 0.03744,0.484029 0.0445,0.968644 0.03134,1.443335 -3.202501,2.299122 -7.465716,3.87909 -12.245451,4.250065 -5.7577353,0.447161 -11.0642901,-0.946414 -14.80368855,-3.504467 -0.00237,-0.03033 -0.00434,-0.06096 -0.00676,-0.09129 C 0.38110285,42.05298 1.3678834,38.885488 3.2125396,36.364833 2.688813,35.568508 1.8605056,34.179952 1.4695909,32.82834 1.0275977,31.301428 1.0902486,29.299004 1.152145,28.366954 c -0.00287,-0.02373 -0.00565,-0.04806 -0.00757,-0.07228 -0.060092,-0.775575 0.4237453,-1.464761 1.121313,-1.669567 0.024978,-0.0072 0.049554,-0.01399 0.074838,-0.02005 z" />
    <path
       inkscape:connector-curvature="0"
       id="path38796"
       style="fill:#ffffff;stroke:#000000;stroke-width:0.00328335;stroke-linecap:butt;stroke-linejoin:miter;stroke-miterlimit:4;stroke-dasharray:none;stroke-opacity:1"
       d="m 21.038527,27.19537 c 0.100024,-0.02807 0.204096,-0.04562 0.311772,-0.05271 0.860209,-0.0568 1.604749,0.615822 1.663177,1.502883 0.05843,0.887061 -0.591567,1.651928 -1.451835,1.708512 -0.133541,0.0089 -0.264367,3.97e-4 -0.390019,-0.024 l -1.124212,1.825951 c -0.341767,-0.165297 -0.690538,-0.316915 -1.046918,-0.453417 l 1.218195,-1.977706 c -0.182144,-0.244043 -0.298692,-0.544045 -0.320442,-0.873649 -0.05101,-0.776215 0.440375,-1.459256 1.140282,-1.65586 z" />
    <path
       inkscape:connector-curvature="0"
       id="path38800"
       style="fill:#ffffff;stroke:#000000;stroke-width:0.00328335;stroke-linecap:butt;stroke-linejoin:miter;stroke-miterlimit:4;stroke-dasharray:none;stroke-opacity:1"
       d="m 3.8630911,28.793729 c 0.076498,-0.01808 0.1549541,-0.0308 0.2355102,-0.03709 0.859577,-0.06674 1.6118884,0.597715 1.680694,1.484215 0.025634,0.329649 -0.046982,0.642899 -0.192649,0.910809 l 1.4154578,1.696681 C 6.6801511,33.048766 6.3677989,33.26229 6.0650842,33.48782 l -1.335494,-1.601402 c -0.120807,0.04195 -0.2490981,0.06972 -0.3822865,0.07991 -0.8595652,0.06678 -1.6117005,-0.597719 -1.680635,-1.483995 -0.062305,-0.803215 0.4584559,-1.512823 1.1964224,-1.688607 z" />
    <path
       inkscape:connector-curvature="0"
       id="path38808"
       style="fill:#ffffff;stroke:#000000;stroke-width:0.00328335;stroke-linecap:butt;stroke-linejoin:miter;stroke-miterlimit:4;stroke-dasharray:none;stroke-opacity:1"
       d="m 16.345174,44.979693 c -2.894039,-1.964799 -3.138953,-5.940889 -0.468412,-7.602326 1.675502,-1.042388 4.030515,-0.925404 5.539614,0.275022 2.943975,2.341805 2.117545,6.387885 -1.6071,7.867025 -1.332251,0.529248 -2.055681,0.41641 -3.464102,-0.539721 z" />
    <path
       inkscape:connector-curvature="0"
       id="path38812"
       style="fill:#000000;stroke:#000000;stroke-width:0.00328335;stroke-linecap:butt;stroke-linejoin:miter;stroke-miterlimit:4;stroke-dasharray:none;stroke-opacity:1"
       d="m 20.585068,41.695527 c 0.243309,-0.749231 0.158545,-1.254099 -0.346598,-2.062254 -1.272038,-2.034993 -4.055157,-0.978705 -3.780223,1.434879 0.162837,1.429485 0.897288,1.950811 2.491929,1.769167 1.00003,-0.113956 1.389482,-0.385956 1.634892,-1.141792 z" />
    <path
       inkscape:connector-curvature="0"
       id="path38816"
       style="fill:#ffffff;stroke:#000000;stroke-width:0.00328335;stroke-linecap:butt;stroke-linejoin:miter;stroke-miterlimit:4;stroke-dasharray:none;stroke-opacity:1"
       d="m 4.1012631,45.039579 c -3.59596685,-3.635453 0.45696,-10.082969 4.9796885,-7.921669 1.6570444,0.791786 2.3359774,2.626993 1.9222934,5.196859 -0.234107,1.454691 -0.53334,1.916097 -1.6577715,2.555984 -2.6488594,1.506961 -3.8813953,1.546588 -5.2442104,0.168826 z" />
    <path
       inkscape:connector-curvature="0"
       id="path38820"
       style="fill:#000000;stroke:#000000;stroke-width:0.00328335;stroke-linecap:butt;stroke-linejoin:miter;stroke-miterlimit:4;stroke-dasharray:none;stroke-opacity:1"
       d="m 8.3991713,42.906871 c 1.147707,-1.600488 -0.1722021,-4.052178 -2.0655216,-3.836439 -0.827631,0.09434 -1.9132292,1.749901 -1.7998198,2.745073 0.2193294,1.925217 2.754122,2.64091 3.8653414,1.091366 z" />
  </g>
</svg>
