<?xml version="1.0" standalone="no"?>
<!DOCTYPE svg PUBLIC "-//W3C//DTD SVG 20010904//EN"
 "http://www.w3.org/TR/2001/REC-SVG-20010904/DTD/svg10.dtd">
<svg version="1.0" xmlns="http://www.w3.org/2000/svg"
 width="800.000000pt" height="1200.000000pt" viewBox="0 0 800.000000 1200.000000"
 preserveAspectRatio="xMidYMid meet">
<metadata>
Created by potrace 1.15, written by Peter Selinger 2001-2017
</metadata>
<g transform="translate(0.000000,1200.000000) scale(0.100000,-0.100000)"
fill="#000000" stroke="none">
<path d="M2153 11123 l-143 -4 0 -38 0 -38 -61 -7 c-34 -3 -100 -6 -146 -6
l-84 0 3 -42 3 -43 135 -6 c74 -3 148 -11 163 -17 21 -9 267 -12 943 -12 603
0 914 -3 914 -10 0 -7 -239 -10 -697 -10 -384 0 -1046 -3 -1470 -7 l-773 -6 0
-47 c0 -59 -17 -69 -125 -72 l-80 -3 -3 -97 -3 -98 1226 0 1225 0 0 60 0 60
785 0 785 0 -2 163 -3 162 -132 3 -133 3 0 59 0 60 -1092 -2 c-601 -1 -1157
-4 -1235 -5z"/>
<path d="M2548 8723 l-208 -3 0 -40 0 -40 -115 0 c-94 0 -117 -3 -121 -15 -5
-13 -80 -15 -590 -15 l-584 0 0 -39 c0 -22 5 -42 13 -44 7 -3 5 -6 -5 -6 -14
-1 -18 -10 -18 -35 0 -66 1 -66 126 -66 l114 0 0 -25 c0 -23 4 -25 43 -26 40
-1 40 -1 11 -8 -47 -12 -54 -19 -54 -62 0 -28 4 -39 15 -39 14 0 15 -11 9 -73
l-6 -74 383 -6 c637 -11 1059 -9 1064 6 2 6 6 84 7 172 l3 160 -117 3 -118 3
0 39 0 40 750 0 750 0 0 100 0 100 -572 -2 c-315 -2 -666 -4 -780 -5z"/>
<path d="M2844 8166 c-3 -8 -4 -27 -2 -43 l3 -28 443 -3 c283 -1 442 -6 442
-12 0 -7 -465 -10 -1347 -10 -742 0 -1413 -3 -1492 -7 l-143 -6 5 -49 c4 -28
2 -48 -3 -48 -6 0 -10 -62 -10 -150 l0 -150 915 0 915 0 0 55 0 55 1090 0
1090 0 0 205 0 205 -950 0 c-811 0 -951 -2 -956 -14z"/>
<path d="M1120 7590 c0 -39 -1 -40 -40 -46 -39 -6 -40 -8 -40 -45 0 -35 3 -39
25 -39 14 0 25 -4 25 -10 0 -7 295 -10 865 -10 l866 0 -3 93 -3 92 -847 3
-848 2 0 -40z"/>
<path d="M1348 7133 l-138 -4 0 -37 c0 -26 -6 -42 -20 -52 -15 -11 -20 -26
-20 -57 l0 -43 920 0 920 0 0 100 0 100 -762 -2 c-420 -1 -825 -4 -900 -5z"/>
<path d="M3547 6973 c-4 -3 -7 -21 -7 -40 l0 -33 -149 0 c-81 0 -169 -3 -195
-6 -46 -7 -46 -7 -46 -45 l0 -39 185 0 c117 0 185 -4 185 -10 0 -5 7 -10 15
-10 9 0 15 -9 15 -25 0 -23 -3 -25 -52 -25 -29 0 -97 -3 -150 -7 l-98 -6 0
-39 0 -38 139 0 c115 0 140 -3 145 -15 5 -13 79 -15 608 -13 l603 3 -3 165
c-1 91 -4 171 -7 178 -3 9 -131 12 -593 12 -324 0 -592 -3 -595 -7z"/>
<path d="M3020 6450 l0 -39 -102 -3 -103 -3 -3 -37 -3 -38 -252 -2 -252 -3 -3
-37 c-3 -36 -4 -37 -50 -40 l-47 -3 -3 -41 -3 -41 50 -7 c28 -4 51 -11 51 -16
0 -6 241 -10 655 -10 l655 0 0 85 0 85 510 0 510 0 0 95 0 95 -805 0 -805 0 0
-40z"/>
</g>
</svg>
