<?xml version="1.0" standalone="no"?>
<!DOCTYPE svg PUBLIC "-//W3C//DTD SVG 20010904//EN"
 "http://www.w3.org/TR/2001/REC-SVG-20010904/DTD/svg10.dtd">
<svg version="1.0" xmlns="http://www.w3.org/2000/svg"
 width="800.000000pt" height="1200.000000pt" viewBox="0 0 800.000000 1200.000000"
 preserveAspectRatio="xMidYMid meet">
<metadata>
Created by potrace 1.15, written by Peter Selinger 2001-2017
</metadata>
<g transform="translate(0.000000,1200.000000) scale(0.100000,-0.100000)"
fill="#000000" stroke="none">
<path d="M2580 11119 c-740 -4 -1432 -11 -1537 -14 l-193 -7 0 -34 c0 -40 -6
-44 -76 -51 l-55 -6 3 -111 3 -111 153 -3 152 -3 0 -34 c0 -33 1 -34 48 -38
l47 -3 -53 -2 -53 -2 3 -57 3 -58 73 -3 72 -3 0 -38 c0 -37 -2 -39 -38 -45
-20 -3 -51 -6 -68 -6 -19 0 -34 -6 -38 -15 -4 -11 -22 -15 -73 -15 -37 0 -105
-3 -151 -7 l-82 -6 2 -221 3 -221 203 -3 202 -2 0 -35 0 -35 53 -1 c41 -2 32
-4 -46 -13 -76 -8 -101 -15 -108 -28 -9 -16 -27 -18 -159 -18 l-150 0 0 -150
0 -150 1655 0 1655 0 0 65 0 65 345 0 345 0 0 167 0 166 -977 -7 c-538 -3
-1049 -9 -1135 -13 l-158 -6 0 71 0 72 1135 0 1135 0 -2 228 -3 227 -880 -3
c-484 -1 -1201 -5 -1592 -8 l-713 -6 0 96 0 96 593 2 592 3 3 73 3 72 1000 0
1000 0 -3 98 -3 97 -395 1 c-217 0 -1000 -3 -1740 -7z"/>
</g>
</svg>
