<?xml version="1.0" standalone="no"?>
<!DOCTYPE svg PUBLIC "-//W3C//DTD SVG 20010904//EN"
 "http://www.w3.org/TR/2001/REC-SVG-20010904/DTD/svg10.dtd">
<svg version="1.0" xmlns="http://www.w3.org/2000/svg"
 width="800.000000pt" height="1200.000000pt" viewBox="0 0 800.000000 1200.000000"
 preserveAspectRatio="xMidYMid meet">
<metadata>
Created by potrace 1.15, written by Peter Selinger 2001-2017
</metadata>
<g transform="translate(0.000000,1200.000000) scale(0.100000,-0.100000)"
fill="#000000" stroke="none">
<path d="M3183 10393 c-7 -2 -13 -20 -13 -39 0 -25 5 -34 18 -36 32 -3 -173
-16 -270 -17 -80 -1 -98 -4 -98 -16 0 -13 -51 -15 -398 -15 -219 0 -622 -3
-895 -7 l-497 -6 0 -33 c0 -27 -5 -34 -31 -43 -18 -6 -43 -11 -55 -11 -13 0
-24 -4 -24 -10 0 -6 -37 -10 -90 -10 l-90 0 0 -155 0 -155 1330 0 1330 0 0 60
0 60 675 0 675 0 0 220 0 220 -777 -1 c-428 0 -784 -3 -790 -6z"/>
<path d="M2945 9680 l-1430 -5 0 -40 c0 -33 4 -40 25 -46 15 -4 -5 -7 -53 -8
-70 -1 -79 -3 -84 -21 -5 -19 -14 -20 -335 -20 l-329 0 3 -92 3 -93 1491 -3
1491 -2 7 37 c3 21 6 50 6 66 l0 27 505 0 505 0 0 105 0 105 -187 -2 c-104 -2
-831 -5 -1618 -8z"/>
<path d="M2303 7353 l-1033 -3 0 -40 c0 -28 -4 -40 -14 -40 -8 0 -16 -6 -18
-12 -4 -10 -65 -14 -244 -18 l-239 -5 -3 -202 -2 -203 460 0 460 0 0 60 0 60
1539 0 1540 0 1 205 0 205 -707 -2 c-390 -2 -1173 -4 -1740 -5z"/>
</g>
</svg>
