<?xml version="1.0" standalone="no"?>
<!DOCTYPE svg PUBLIC "-//W3C//DTD SVG 20010904//EN"
 "http://www.w3.org/TR/2001/REC-SVG-20010904/DTD/svg10.dtd">
<svg version="1.0" xmlns="http://www.w3.org/2000/svg"
 width="800.000000pt" height="1200.000000pt" viewBox="0 0 800.000000 1200.000000"
 preserveAspectRatio="xMidYMid meet">
<metadata>
Created by potrace 1.15, written by Peter Selinger 2001-2017
</metadata>
<g transform="translate(0.000000,1200.000000) scale(0.100000,-0.100000)"
fill="#000000" stroke="none">
<path d="M3710 8017 c0 -22 -6 -24 -97 -35 -54 -7 -126 -12 -160 -12 -35 0
-82 -4 -105 -10 -24 -5 -69 -12 -100 -16 l-58 -5 0 -40 c0 -21 1 -40 3 -40 6
-3 489 -21 680 -25 l217 -5 0 106 0 105 -190 0 -190 0 0 -23z"/>
<path d="M1170 7302 c0 -37 -2 -40 -40 -51 -38 -11 -40 -14 -40 -51 0 -40 0
-40 40 -40 22 0 40 -4 40 -10 0 -6 53 -10 140 -10 l140 0 0 100 0 100 -140 0
-140 0 0 -38z"/>
<path d="M3550 6841 l0 -38 -67 -6 c-38 -4 -128 -7 -201 -7 -109 0 -134 -3
-138 -15 -5 -13 -35 -15 -185 -15 -150 0 -181 -2 -185 -15 -5 -13 -128 -15
-1020 -15 l-1014 0 0 -90 0 -90 1643 2 1642 3 3 57 3 58 352 2 352 3 3 103 3
102 -596 0 -595 0 0 -39z"/>
</g>
</svg>
