<?xml version="1.0" standalone="no"?>
<!DOCTYPE svg PUBLIC "-//W3C//DTD SVG 20010904//EN"
 "http://www.w3.org/TR/2001/REC-SVG-20010904/DTD/svg10.dtd">
<svg version="1.0" xmlns="http://www.w3.org/2000/svg"
 width="800.000000pt" height="1200.000000pt" viewBox="0 0 800.000000 1200.000000"
 preserveAspectRatio="xMidYMid meet">
<metadata>
Created by potrace 1.15, written by Peter Selinger 2001-2017
</metadata>
<g transform="translate(0.000000,1200.000000) scale(0.100000,-0.100000)"
fill="#000000" stroke="none">
<path d="M2153 11123 l-143 -4 0 -38 0 -38 -61 -7 c-34 -3 -100 -6 -146 -6
l-84 0 3 -42 3 -43 135 -6 c74 -3 148 -11 163 -17 21 -9 267 -12 943 -12 603
0 914 -3 914 -10 0 -7 -239 -10 -697 -10 -384 0 -1046 -3 -1470 -7 l-773 -6 0
-47 c0 -59 -17 -69 -125 -72 l-80 -3 -3 -97 -3 -98 1226 0 1225 0 0 60 0 60
785 0 785 0 -2 163 -3 162 -132 3 -133 3 0 59 0 60 -1092 -2 c-601 -1 -1157
-4 -1235 -5z"/>
<path d="M2548 8723 l-208 -3 0 -40 0 -40 -115 0 c-94 0 -117 -3 -121 -15 -5
-13 -80 -15 -590 -15 l-584 0 0 -39 c0 -22 5 -42 13 -44 7 -3 5 -6 -5 -6 -14
-1 -18 -10 -18 -35 0 -72 -67 -66 746 -66 l734 0 0 55 0 55 750 0 750 0 0 100
0 100 -572 -2 c-315 -2 -666 -4 -780 -5z"/>
</g>
</svg>
