<?xml version="1.0" standalone="no"?>
<!DOCTYPE svg PUBLIC "-//W3C//DTD SVG 20010904//EN"
 "http://www.w3.org/TR/2001/REC-SVG-20010904/DTD/svg10.dtd">
<svg version="1.0" xmlns="http://www.w3.org/2000/svg"
 width="800.000000pt" height="1200.000000pt" viewBox="0 0 800.000000 1200.000000"
 preserveAspectRatio="xMidYMid meet">
<metadata>
Created by potrace 1.15, written by Peter Selinger 2001-2017
</metadata>
<g transform="translate(0.000000,1200.000000) scale(0.100000,-0.100000)"
fill="#000000" stroke="none">
<path d="M2628 10383 c-26 -4 -28 -8 -28 -49 l0 -44 -150 0 c-122 0 -151 -3
-157 -15 -8 -13 -108 -15 -778 -17 l-770 -3 0 -215 0 -215 758 -3 757 -2 0 60
0 60 1245 0 1245 0 -2 223 -3 222 -1045 1 c-575 1 -1057 -1 -1072 -3z"/>
<path d="M2750 8546 c0 -42 -1 -44 -37 -50 -21 -3 -100 -6 -175 -6 -78 0 -138
-4 -138 -9 0 -6 -328 -11 -820 -13 -716 -3 -822 -5 -830 -18 -11 -17 -14 -149
-4 -174 5 -12 21 -16 68 -17 62 -1 185 -15 154 -18 -10 0 -18 -5 -18 -11 0 -6
-40 -10 -100 -10 l-100 0 0 -220 0 -220 1358 2 1357 3 3 63 3 62 639 0 640 0
0 340 0 340 -1000 0 -1000 0 0 -44z"/>
<path d="M2080 7500 l0 -39 -57 -3 -58 -3 -3 -36 c-3 -41 10 -49 81 -49 20 0
37 -4 37 -10 0 -7 173 -10 500 -10 493 0 500 0 500 -20 0 -16 -7 -20 -37 -21
-21 -1 -87 -4 -148 -8 l-110 -6 0 -40 0 -40 115 -8 c63 -5 438 -10 833 -13
l717 -4 0 100 0 100 -380 0 -380 0 0 75 0 75 -805 0 -805 0 0 -40z"/>
<path d="M4168 7163 c-13 -3 -18 -15 -18 -39 0 -24 6 -37 18 -42 41 -17 -119
-25 -565 -29 l-473 -3 0 -40 0 -40 810 0 810 0 0 100 0 100 -282 -1 c-156 -1
-291 -3 -300 -6z"/>
<path d="M750 6945 l0 -95 230 0 c223 0 230 -1 230 -20 0 -16 7 -20 33 -21
l32 -1 -32 -9 c-31 -9 -33 -12 -33 -54 l0 -45 45 0 c43 0 45 -1 45 -30 0 -22
-5 -30 -18 -30 -10 0 -30 -6 -45 -12 -23 -11 -27 -19 -27 -55 l0 -43 705 0
705 0 0 85 0 84 63 3 62 3 0 90 0 90 -512 -3 -513 -2 0 80 0 80 -485 0 -485 0
0 -95z"/>
<path d="M3113 6403 c-18 -4 -23 -11 -23 -37 0 -31 -3 -34 -37 -40 -21 -3 -89
-6 -150 -6 l-113 0 0 -40 0 -40 -340 0 -340 0 0 -40 0 -39 -82 -3 -83 -3 -3
-36 c-3 -35 -2 -36 35 -42 21 -4 59 -7 86 -7 47 0 47 0 47 -35 l0 -34 -92 -3
-93 -3 -3 -37 -3 -38 -350 0 -349 0 0 -40 c0 -38 1 -40 33 -41 17 0 25 -3 17
-6 -61 -20 -70 -40 -54 -122 6 -28 10 -31 48 -33 37 -1 38 -2 9 -5 -18 -2 -33
-8 -33 -14 0 -5 -7 -9 -15 -9 -11 0 -15 -11 -15 -40 l0 -40 770 0 770 0 0 160
0 160 445 0 445 0 0 95 0 95 -60 0 -60 0 0 70 0 70 485 0 485 0 0 95 0 95
-677 -1 c-373 -1 -688 -4 -700 -6z"/>
</g>
</svg>
