<?xml version="1.0" standalone="no"?>
<!DOCTYPE svg PUBLIC "-//W3C//DTD SVG 20010904//EN"
 "http://www.w3.org/TR/2001/REC-SVG-20010904/DTD/svg10.dtd">
<svg version="1.0" xmlns="http://www.w3.org/2000/svg"
 width="800.000000pt" height="1200.000000pt" viewBox="0 0 800.000000 1200.000000"
 preserveAspectRatio="xMidYMid meet">
<metadata>
Created by potrace 1.15, written by Peter Selinger 2001-2017
</metadata>
<g transform="translate(0.000000,1200.000000) scale(0.100000,-0.100000)"
fill="#000000" stroke="none">
<path d="M2463 10023 c-7 -2 -13 -20 -13 -39 0 -20 5 -34 13 -35 35 -4 -59
-17 -125 -18 -62 -1 -78 -4 -78 -16 0 -13 -40 -15 -302 -15 -167 0 -509 -3
-760 -7 l-458 -6 0 -154 0 -153 1198 2 1197 3 3 63 3 62 804 0 805 0 0 160 0
160 -1137 -1 c-626 0 -1144 -3 -1150 -6z"/>
<path d="M2570 7235 l0 -45 -90 0 -90 0 0 -44 0 -44 88 -7 c48 -4 434 -8 857
-9 l770 -1 0 95 0 95 -767 3 -768 2 0 -45z"/>
<path d="M1200 6570 c0 -34 -5 -52 -16 -58 -10 -6 -14 -20 -12 -43 l3 -34 743
-3 742 -2 0 95 0 95 -730 0 -730 0 0 -50z"/>
<path d="M2421 6353 l-353 -3 4 -40 4 -40 -63 0 -63 0 0 -40 0 -40 -365 0
-365 0 0 -40 c0 -25 5 -40 13 -40 6 0 -3 -8 -20 -16 -32 -16 -33 -18 -33 -80
0 -50 3 -64 15 -64 19 0 19 -19 0 -26 -10 -4 -15 -20 -15 -45 l0 -39 740 0
740 0 0 160 0 160 414 0 c368 0 415 2 420 16 8 20 8 132 0 162 l-6 22 -357 -2
c-196 -2 -515 -4 -710 -5z"/>
</g>
</svg>
