<?xml version="1.0" standalone="no"?>
<!DOCTYPE svg PUBLIC "-//W3C//DTD SVG 20010904//EN"
 "http://www.w3.org/TR/2001/REC-SVG-20010904/DTD/svg10.dtd">
<svg version="1.0" xmlns="http://www.w3.org/2000/svg"
 width="800.000000pt" height="1200.000000pt" viewBox="0 0 800.000000 1200.000000"
 preserveAspectRatio="xMidYMid meet">
<metadata>
Created by potrace 1.15, written by Peter Selinger 2001-2017
</metadata>
<g transform="translate(0.000000,1200.000000) scale(0.100000,-0.100000)"
fill="#000000" stroke="none">
<path d="M4388 7443 c-32 -2 -58 -8 -58 -13 0 -6 -32 -10 -70 -10 -54 0 -72
-4 -76 -15 -5 -11 -21 -15 -60 -15 -50 0 -54 -2 -54 -23 l0 -24 -947 -6 c-522
-4 -1271 -10 -1665 -14 l-718 -6 0 -144 0 -143 1075 0 1075 0 0 60 0 60 923 2
922 3 3 125 c4 186 18 170 -151 168 -78 -1 -168 -3 -199 -5z"/>
</g>
</svg>
