<?xml version="1.0" standalone="no"?>
<!DOCTYPE svg PUBLIC "-//W3C//DTD SVG 20010904//EN"
 "http://www.w3.org/TR/2001/REC-SVG-20010904/DTD/svg10.dtd">
<svg version="1.0" xmlns="http://www.w3.org/2000/svg"
 width="800.000000pt" height="1200.000000pt" viewBox="0 0 800.000000 1200.000000"
 preserveAspectRatio="xMidYMid meet">
<metadata>
Created by potrace 1.15, written by Peter Selinger 2001-2017
</metadata>
<g transform="translate(0.000000,1200.000000) scale(0.100000,-0.100000)"
fill="#000000" stroke="none">
<path d="M740 11220 l0 -40 103 -2 c99 -1 100 -1 37 -8 -36 -4 -84 -11 -108
-15 l-42 -8 2 -226 3 -226 1496 -3 1496 -2 7 31 c3 17 6 42 6 55 l0 24 503 2
502 3 3 228 2 227 -2005 0 -2005 0 0 -40z"/>
<path d="M1050 10620 l0 -40 46 0 c27 0 43 -4 39 -10 -3 -5 -24 -10 -45 -10
-21 0 -42 -4 -45 -10 -4 -6 -69 -10 -161 -10 l-155 0 3 -97 3 -98 147 -5 c81
-3 150 -9 154 -13 4 -4 -13 -7 -39 -7 -25 0 -49 -4 -52 -10 -3 -6 -51 -10
-109 -10 l-103 0 -5 -632 c-3 -348 -4 -636 -1 -640 2 -5 393 -8 869 -8 l864 0
0 53 0 52 1143 0 1142 0 3 768 2 767 -1850 0 -1850 0 0 -40z"/>
</g>
</svg>
