<?xml version="1.0" standalone="no"?>
<!DOCTYPE svg PUBLIC "-//W3C//DTD SVG 20010904//EN"
 "http://www.w3.org/TR/2001/REC-SVG-20010904/DTD/svg10.dtd">
<svg version="1.0" xmlns="http://www.w3.org/2000/svg"
 width="800.000000pt" height="1200.000000pt" viewBox="0 0 800.000000 1200.000000"
 preserveAspectRatio="xMidYMid meet">
<metadata>
Created by potrace 1.15, written by Peter Selinger 2001-2017
</metadata>
<g transform="translate(0.000000,1200.000000) scale(0.100000,-0.100000)"
fill="#000000" stroke="none">
<path d="M2540 10690 l0 -40 43 -2 c34 -1 31 -2 -23 -8 -36 -4 -93 -8 -127 -9
l-63 -1 0 -40 0 -40 59 0 c38 0 61 -4 63 -12 3 -9 52 -13 166 -16 89 -3 162
-8 162 -13 0 -5 -20 -9 -45 -9 l-45 0 0 -40 0 -40 540 0 540 0 0 50 0 50 298
2 297 3 3 103 3 102 -936 0 -935 0 0 -40z"/>
</g>
</svg>
