<?xml version="1.0" standalone="no"?>
<!DOCTYPE svg PUBLIC "-//W3C//DTD SVG 20010904//EN"
 "http://www.w3.org/TR/2001/REC-SVG-20010904/DTD/svg10.dtd">
<svg version="1.0" xmlns="http://www.w3.org/2000/svg"
 width="800.000000pt" height="1200.000000pt" viewBox="0 0 800.000000 1200.000000"
 preserveAspectRatio="xMidYMid meet">
<metadata>
Created by potrace 1.15, written by Peter Selinger 2001-2017
</metadata>
<g transform="translate(0.000000,1200.000000) scale(0.100000,-0.100000)"
fill="#000000" stroke="none">
<path d="M3048 9663 l-188 -3 0 -25 c0 -15 -6 -25 -14 -25 -8 0 -22 -8 -32
-17 -15 -15 -41 -19 -158 -22 -78 -1 -143 -7 -146 -12 -4 -5 -399 -12 -888
-15 l-882 -7 2 -221 3 -221 545 0 545 0 3 62 3 63 1452 2 1452 3 3 223 2 222
-757 -2 c-417 -2 -842 -4 -945 -5z"/>
</g>
</svg>
