<?xml version="1.0" standalone="no"?>
<!DOCTYPE svg PUBLIC "-//W3C//DTD SVG 20010904//EN"
 "http://www.w3.org/TR/2001/REC-SVG-20010904/DTD/svg10.dtd">
<svg version="1.0" xmlns="http://www.w3.org/2000/svg"
 width="800.000000pt" height="1200.000000pt" viewBox="0 0 800.000000 1200.000000"
 preserveAspectRatio="xMidYMid meet">
<metadata>
Created by potrace 1.15, written by Peter Selinger 2001-2017
</metadata>
<g transform="translate(0.000000,1200.000000) scale(0.100000,-0.100000)"
fill="#000000" stroke="none">
<path d="M2988 8753 l-928 -3 0 -45 0 -45 -54 0 c-35 0 -60 -5 -70 -15 -13
-13 -93 -15 -600 -15 l-586 0 -5 -22 c-3 -13 -4 -111 -3 -218 l3 -195 1853 -3
1852 -2 0 60 0 60 150 0 150 0 0 225 0 225 -417 -2 c-230 -2 -835 -4 -1345 -5z"/>
</g>
</svg>
