<?xml version="1.0" standalone="no"?>
<!DOCTYPE svg PUBLIC "-//W3C//DTD SVG 20010904//EN"
 "http://www.w3.org/TR/2001/REC-SVG-20010904/DTD/svg10.dtd">
<svg version="1.0" xmlns="http://www.w3.org/2000/svg"
 width="800.000000pt" height="1200.000000pt" viewBox="0 0 800.000000 1200.000000"
 preserveAspectRatio="xMidYMid meet">
<metadata>
Created by potrace 1.15, written by Peter Selinger 2001-2017
</metadata>
<g transform="translate(0.000000,1200.000000) scale(0.100000,-0.100000)"
fill="#000000" stroke="none">
<path d="M2550 10970 c0 -33 3 -40 20 -40 11 0 20 -4 20 -10 0 -6 -53 -10
-140 -10 -77 0 -148 -4 -158 -10 -10 -6 -318 -13 -787 -17 l-770 -8 -3 -97 -3
-98 83 -1 c78 -1 80 -2 38 -11 -25 -5 -62 -11 -82 -15 l-38 -5 0 -284 0 -284
183 2 182 3 3 63 3 62 1824 0 1825 0 0 280 0 280 -55 0 c-42 0 -55 3 -55 15 0
12 13 15 55 15 l55 0 0 105 0 105 -1100 0 -1100 0 0 -40z"/>
<path d="M4145 10083 c-164 -4 -165 -4 -165 -53 l0 -40 74 0 c56 0 75 -4 80
-15 5 -13 49 -15 311 -15 l305 0 0 65 0 65 -242 -2 c-134 -1 -297 -4 -363 -5z"/>
<path d="M737 10033 c-4 -3 -7 -48 -7 -100 l0 -93 368 2 367 3 3 75 c2 41 0
85 -3 97 l-5 23 -359 0 c-197 0 -361 -3 -364 -7z"/>
<path d="M1983 9803 l-933 -3 0 -35 0 -35 68 -2 c37 0 52 -3 35 -5 -18 -2 -33
-8 -33 -14 0 -5 -16 -9 -36 -9 -27 0 -37 -5 -41 -20 -5 -19 -14 -20 -160 -20
l-154 0 3 -87 c3 -86 4 -88 28 -90 14 -1 69 -5 123 -8 l97 -7 0 -38 c0 -35 2
-38 38 -44 20 -3 279 -6 575 -6 l537 0 0 90 0 90 -50 0 c-47 0 -50 2 -50 25
l0 25 1360 0 1360 0 0 100 0 100 -917 -2 c-505 -2 -1338 -4 -1850 -5z"/>
<path d="M2670 9416 c0 -70 -16 -66 281 -66 148 0 269 -4 269 -8 0 -9 -1216
-22 -2027 -22 l-464 0 3 -37 c3 -38 4 -38 53 -44 53 -5 45 -16 -15 -21 -34 -3
-35 -5 -35 -43 l0 -40 117 -5 c64 -3 120 -8 124 -12 4 -5 -2 -8 -12 -8 -11 0
-24 -4 -30 -10 -5 -5 -52 -10 -104 -12 l-95 -3 -3 -42 -3 -43 363 0 c200 0
373 -3 386 -6 12 -4 22 -13 22 -20 0 -11 -66 -14 -382 -16 l-383 -3 -3 -37 -3
-38 395 0 c345 0 396 2 396 15 0 11 11 15 39 15 22 0 41 -4 43 -9 2 -5 349
-12 791 -16 l787 -7 0 66 0 66 785 0 785 0 0 220 0 220 -1040 0 -1040 0 0 -34z"/>
<path d="M1293 8113 c-31 -4 -33 -7 -33 -44 l0 -39 -45 0 -45 0 0 -44 c0 -24
3 -58 6 -75 l7 -31 81 -2 c51 -1 64 -3 36 -5 -25 -3 -49 -8 -54 -14 -6 -5
-111 -9 -242 -9 -128 0 -239 -3 -248 -6 -14 -5 -16 -52 -16 -425 l0 -419 1614
0 1614 0 6 23 c3 12 6 37 6 54 l0 33 383 2 382 3 3 423 2 422 -1305 0 -1305 0
0 80 0 80 -407 -2 c-225 0 -423 -3 -440 -5z"/>
</g>
</svg>
