<?xml version="1.0" standalone="no"?>
<!DOCTYPE svg PUBLIC "-//W3C//DTD SVG 20010904//EN"
 "http://www.w3.org/TR/2001/REC-SVG-20010904/DTD/svg10.dtd">
<svg version="1.0" xmlns="http://www.w3.org/2000/svg"
 width="800.000000pt" height="1200.000000pt" viewBox="0 0 800.000000 1200.000000"
 preserveAspectRatio="xMidYMid meet">
<metadata>
Created by potrace 1.15, written by Peter Selinger 2001-2017
</metadata>
<g transform="translate(0.000000,1200.000000) scale(0.100000,-0.100000)"
fill="#000000" stroke="none">
<path d="M2370 11230 l-1635 -5 -3 -37 -3 -38 68 -1 c37 -1 57 -4 43 -6 -14
-3 -29 -9 -34 -14 -6 -5 -25 -9 -43 -9 l-33 0 0 -105 0 -105 1245 0 1245 0 0
60 0 60 763 2 762 3 3 103 3 102 -373 -2 c-205 -2 -1109 -5 -2008 -8z"/>
</g>
</svg>
