<?xml version="1.0" standalone="no"?>
<!DOCTYPE svg PUBLIC "-//W3C//DTD SVG 20010904//EN"
 "http://www.w3.org/TR/2001/REC-SVG-20010904/DTD/svg10.dtd">
<svg version="1.0" xmlns="http://www.w3.org/2000/svg"
 width="800.000000pt" height="1200.000000pt" viewBox="0 0 800.000000 1200.000000"
 preserveAspectRatio="xMidYMid meet">
<metadata>
Created by potrace 1.15, written by Peter Selinger 2001-2017
</metadata>
<g transform="translate(0.000000,1200.000000) scale(0.100000,-0.100000)"
fill="#000000" stroke="none">
<path d="M2153 11123 l-143 -4 0 -38 0 -38 -61 -7 c-34 -3 -100 -6 -146 -6
l-84 0 3 -42 3 -43 135 -6 c74 -3 149 -11 165 -17 46 -17 2633 -22 2640 -4 2
7 22 12 45 12 l41 0 -3 38 -3 37 -132 3 -133 3 0 59 0 60 -1092 -2 c-601 -1
-1157 -4 -1235 -5z"/>
</g>
</svg>
