<?xml version="1.0" standalone="no"?>
<!DOCTYPE svg PUBLIC "-//W3C//DTD SVG 20010904//EN"
 "http://www.w3.org/TR/2001/REC-SVG-20010904/DTD/svg10.dtd">
<svg version="1.0" xmlns="http://www.w3.org/2000/svg"
 width="800.000000pt" height="1200.000000pt" viewBox="0 0 800.000000 1200.000000"
 preserveAspectRatio="xMidYMid meet">
<metadata>
Created by potrace 1.15, written by Peter Selinger 2001-2017
</metadata>
<g transform="translate(0.000000,1200.000000) scale(0.100000,-0.100000)"
fill="#000000" stroke="none">
<path d="M3125 10770 c-599 -4 -1161 -8 -1247 -9 l-157 -1 -3 -42 -3 -43 -87
-3 -88 -3 0 -38 0 -38 57 -6 c32 -3 59 -11 61 -17 3 -7 480 -10 1548 -10
l1545 0 -3 108 -3 107 -265 1 c-146 0 -755 -3 -1355 -6z"/>
<path d="M732 10533 l3 -98 242 -3 243 -2 5 22 c3 13 5 57 3 98 l-3 75 -248 3
-248 2 3 -97z"/>
<path d="M1903 10403 l-853 -3 0 -40 c0 -40 0 -40 40 -40 53 0 51 -18 -2 -22
l-43 -3 0 -525 0 -525 377 -3 377 -2 3 62 3 63 1473 3 1472 2 -2 518 -3 517
-995 0 c-547 0 -1379 -1 -1847 -2z"/>
<path d="M2095 8849 c-627 -3 -1171 -7 -1209 -8 l-69 -1 5 -50 5 -50 -43 0
-44 0 0 -110 0 -110 473 2 472 3 3 63 3 62 1529 0 1530 0 0 105 0 105 -757 -2
c-417 -1 -1271 -5 -1898 -9z"/>
</g>
</svg>
