<?xml version="1.0" standalone="no"?>
<!DOCTYPE svg PUBLIC "-//W3C//DTD SVG 20010904//EN"
 "http://www.w3.org/TR/2001/REC-SVG-20010904/DTD/svg10.dtd">
<svg version="1.0" xmlns="http://www.w3.org/2000/svg"
 width="800.000000pt" height="1200.000000pt" viewBox="0 0 800.000000 1200.000000"
 preserveAspectRatio="xMidYMid meet">
<metadata>
Created by potrace 1.15, written by Peter Selinger 2001-2017
</metadata>
<g transform="translate(0.000000,1200.000000) scale(0.100000,-0.100000)"
fill="#000000" stroke="none">
<path d="M2290 10029 c-509 -3 -964 -7 -1012 -8 l-87 -1 -3 -37 c-3 -37 -4
-38 -48 -43 l-45 -5 0 -40 c0 -40 0 -40 42 -43 24 -2 43 -7 43 -13 0 -6 423
-8 1128 -7 l1127 3 3 70 c2 39 0 85 -3 103 l-6 32 -107 -2 c-59 -1 -523 -5
-1032 -9z"/>
<path d="M3097 8713 c-4 -3 -7 -21 -7 -39 0 -31 -1 -32 -63 -43 -35 -6 -136
-11 -225 -11 -137 0 -162 -2 -162 -15 0 -13 -64 -15 -513 -15 -324 0 -517 -4
-523 -10 -6 -6 -150 -11 -369 -12 l-360 -3 -3 -65 c-2 -35 0 -75 3 -87 l5 -23
1425 0 1425 0 0 65 0 65 510 0 511 0 -3 98 -3 97 -821 3 c-451 1 -824 -1 -827
-5z"/>
<path d="M2628 6683 l-228 -3 0 -34 c0 -33 -1 -33 -52 -40 -29 -3 -70 -6 -90
-6 -38 0 -38 0 -38 -40 l0 -40 90 0 c53 0 90 -4 90 -10 0 -7 345 -10 1015 -10
l1015 0 0 95 0 95 -787 -2 c-434 -2 -890 -4 -1015 -5z"/>
</g>
</svg>
