<?xml version="1.0" standalone="no"?>
<!DOCTYPE svg PUBLIC "-//W3C//DTD SVG 20010904//EN"
 "http://www.w3.org/TR/2001/REC-SVG-20010904/DTD/svg10.dtd">
<svg version="1.0" xmlns="http://www.w3.org/2000/svg"
 width="800.000000pt" height="1200.000000pt" viewBox="0 0 800.000000 1200.000000"
 preserveAspectRatio="xMidYMid meet">
<metadata>
Created by potrace 1.15, written by Peter Selinger 2001-2017
</metadata>
<g transform="translate(0.000000,1200.000000) scale(0.100000,-0.100000)"
fill="#000000" stroke="none">
<path d="M3800 11225 l0 -25 -120 0 c-113 0 -120 -1 -120 -20 0 -19 -8 -20
-167 -22 l-168 -3 0 -40 0 -40 270 -3 c200 -2 271 -5 277 -15 5 -9 65 -12 235
-12 l228 0 0 100 0 100 -217 3 -218 2 0 -25z"/>
<path d="M2187 10643 c-4 -3 -7 -21 -7 -39 0 -23 5 -34 18 -37 9 -3 -1 -5 -22
-6 -24 -1 -44 -7 -52 -18 -11 -17 -53 -18 -553 -22 l-541 -3 0 -34 c0 -30 -3
-34 -25 -34 -14 0 -25 -4 -25 -8 0 -20 -57 -32 -145 -32 l-95 0 0 -105 c0 -98
1 -105 20 -105 11 0 20 -4 20 -10 0 -5 -9 -10 -20 -10 -17 0 -20 -7 -20 -45
l0 -45 1550 0 1550 0 0 100 0 100 -785 0 c-690 0 -785 2 -785 15 0 13 147 15
1238 17 l1237 3 3 163 2 162 -1278 0 c-703 0 -1282 -3 -1285 -7z"/>
<path d="M1796 9933 l-709 -3 5 -50 c5 -47 4 -49 -25 -60 -16 -5 -97 -10 -178
-10 l-149 0 0 -340 0 -340 1965 0 1965 0 0 60 0 60 40 0 40 0 -2 343 -3 342
-1120 0 c-616 0 -1439 -1 -1829 -2z"/>
<path d="M1480 9050 l0 -40 48 0 c43 -1 46 -2 28 -15 -11 -8 -32 -15 -48 -15
-27 0 -28 -2 -28 -45 l0 -45 1340 0 1340 0 0 100 0 100 -1340 0 -1340 0 0 -40z"/>
<path d="M1050 8815 l0 -35 73 -2 c40 -1 55 -3 35 -5 -21 -2 -38 -8 -38 -14 0
-5 -15 -9 -34 -9 -19 0 -38 -4 -41 -10 -4 -6 -67 -10 -156 -10 l-149 0 0 -160
0 -160 1965 0 1965 0 0 60 0 60 40 0 40 0 0 160 0 160 -1850 0 -1850 0 0 -35z"/>
<path d="M2430 8336 c0 -33 -1 -33 -52 -40 -29 -3 -81 -6 -116 -6 -46 0 -64
-4 -68 -15 -5 -13 -96 -15 -730 -15 l-724 0 0 -285 0 -285 185 0 185 0 0 60 0
60 1820 0 1820 0 0 280 0 280 -1160 0 -1160 0 0 -34z"/>
<path d="M1160 7597 c0 -18 6 -39 12 -45 10 -10 10 -14 0 -21 -8 -5 -12 -23
-10 -47 l3 -39 895 0 895 0 3 93 3 92 -901 0 -900 0 0 -33z"/>
<path d="M1167 7303 c-4 -3 -7 -46 -7 -95 l0 -88 710 0 711 0 -3 93 -3 92
-701 3 c-385 1 -704 -1 -707 -5z"/>
</g>
</svg>
