<?xml version="1.0" standalone="no"?>
<!DOCTYPE svg PUBLIC "-//W3C//DTD SVG 20010904//EN"
 "http://www.w3.org/TR/2001/REC-SVG-20010904/DTD/svg10.dtd">
<svg version="1.0" xmlns="http://www.w3.org/2000/svg"
 width="800.000000pt" height="1200.000000pt" viewBox="0 0 800.000000 1200.000000"
 preserveAspectRatio="xMidYMid meet">
<metadata>
Created by potrace 1.15, written by Peter Selinger 2001-2017
</metadata>
<g transform="translate(0.000000,1200.000000) scale(0.100000,-0.100000)"
fill="#000000" stroke="none">
<path d="M2370 11230 l-1635 -5 -3 -37 -3 -38 68 -1 c37 -1 57 -4 43 -6 -14
-3 -29 -9 -34 -14 -6 -5 -25 -9 -43 -9 l-33 0 0 -105 0 -105 1245 0 1245 0 0
60 0 60 763 2 762 3 3 103 3 102 -373 -2 c-205 -2 -1109 -5 -2008 -8z"/>
<path d="M2200 10869 c-476 -3 -907 -7 -957 -8 l-93 -1 0 -39 c0 -41 -13 -51
-71 -51 -14 0 -29 -4 -35 -10 -5 -5 -77 -11 -159 -12 l-150 -3 -3 -105 c-2
-58 0 -129 3 -157 l6 -53 110 0 c66 0 109 -4 109 -10 0 -5 -16 -10 -35 -10
-19 0 -35 -4 -35 -10 0 -6 -32 -10 -75 -10 l-75 0 0 -280 0 -280 574 0 c642 0
586 -7 586 76 l0 44 1423 2 1422 3 0 460 0 460 -840 1 c-462 0 -1229 -3 -1705
-7z"/>
<path d="M1408 9793 l-688 -3 0 -40 0 -40 46 0 c27 0 43 -4 39 -10 -3 -5 -24
-10 -46 -10 l-39 0 2 -1102 3 -1103 2013 -3 2012 -2 0 1160 0 1160 -1327 -2
c-731 -2 -1637 -4 -2015 -5z"/>
</g>
</svg>
