<?xml version="1.0" standalone="no"?>
<!DOCTYPE svg PUBLIC "-//W3C//DTD SVG 20010904//EN"
 "http://www.w3.org/TR/2001/REC-SVG-20010904/DTD/svg10.dtd">
<svg version="1.0" xmlns="http://www.w3.org/2000/svg"
 width="800.000000pt" height="1200.000000pt" viewBox="0 0 800.000000 1200.000000"
 preserveAspectRatio="xMidYMid meet">
<metadata>
Created by potrace 1.15, written by Peter Selinger 2001-2017
</metadata>
<g transform="translate(0.000000,1200.000000) scale(0.100000,-0.100000)"
fill="#000000" stroke="none">
<path d="M1228 10403 l-58 -4 0 -39 c0 -36 -3 -40 -25 -40 -14 0 -25 -4 -25
-10 0 -5 -18 -10 -40 -10 -22 0 -40 -4 -40 -10 0 -6 -57 -10 -150 -10 l-150 0
0 -100 0 -100 450 0 450 0 0 65 0 65 1555 0 1555 0 0 100 0 100 -1732 -2
c-953 -1 -1759 -3 -1790 -5z"/>
<path d="M1373 10043 l-273 -3 0 -35 0 -35 63 -1 62 -1 -50 -8 c-27 -5 -68
-12 -90 -17 l-40 -9 0 -104 0 -105 53 -3 c36 -2 52 -7 52 -17 0 -10 -16 -15
-52 -17 l-53 -3 -3 -260 c-2 -143 0 -324 3 -402 l7 -143 89 0 89 0 0 65 0 65
1760 0 1760 0 0 520 0 520 -1552 -2 c-854 -2 -1676 -4 -1825 -5z"/>
<path d="M1418 8853 l-678 -3 0 -40 0 -40 93 -1 c82 -2 87 -3 42 -9 -27 -5
-69 -11 -92 -15 l-43 -8 0 -163 0 -164 1365 0 1365 0 0 60 0 60 640 0 640 0
-2 163 -3 162 -1325 0 c-729 0 -1630 -1 -2002 -2z"/>
</g>
</svg>
