<?xml version="1.0" standalone="no"?>
<!DOCTYPE svg PUBLIC "-//W3C//DTD SVG 20010904//EN"
 "http://www.w3.org/TR/2001/REC-SVG-20010904/DTD/svg10.dtd">
<svg version="1.0" xmlns="http://www.w3.org/2000/svg"
 width="800.000000pt" height="1200.000000pt" viewBox="0 0 800.000000 1200.000000"
 preserveAspectRatio="xMidYMid meet">
<metadata>
Created by potrace 1.15, written by Peter Selinger 2001-2017
</metadata>
<g transform="translate(0.000000,1200.000000) scale(0.100000,-0.100000)"
fill="#000000" stroke="none">
<path d="M2590 11229 c-971 -3 -1768 -7 -1772 -8 -12 -2 -9 -81 3 -81 5 0 7
-4 4 -10 -3 -5 -24 -10 -45 -10 -21 0 -41 -4 -45 -9 -3 -6 -2 -190 1 -410 l7
-401 257 0 258 0 6 31 c3 17 6 47 6 65 l0 34 1738 2 1737 3 3 403 2 402 -197
-2 c-109 -1 -992 -5 -1963 -9z"/>
<path d="M3113 10153 l-523 -3 0 -35 0 -34 108 -3 c69 -2 10 -6 -166 -12 -216
-7 -275 -11 -279 -22 -4 -12 -92 -14 -512 -14 -278 0 -617 -3 -754 -7 l-248
-6 3 -151 3 -151 113 -3 c63 -1 112 -7 112 -12 0 -6 -16 -10 -36 -10 -27 0
-37 -5 -41 -20 -5 -18 -14 -20 -79 -20 l-74 0 0 -90 0 -90 1195 0 1195 0 0 60
0 60 808 2 807 3 3 283 2 282 -557 -2 c-307 -2 -793 -4 -1080 -5z"/>
<path d="M4390 9427 c0 -21 -75 -37 -170 -37 -83 0 -90 -1 -90 -20 0 -17 -7
-20 -43 -20 -24 0 -47 -4 -53 -10 -9 -9 -2027 -29 -2951 -30 l-333 0 0 -40 0
-40 98 -2 c93 -1 95 -1 37 -9 -33 -4 -78 -11 -100 -16 l-40 -8 0 -280 0 -280
658 -3 657 -2 0 65 0 65 1345 0 1345 0 0 340 0 340 -180 0 c-138 0 -180 -3
-180 -13z"/>
<path d="M2510 8480 c-492 -4 -896 -8 -897 -8 -2 -1 -3 -18 -3 -37 0 -32 -2
-35 -29 -35 -17 0 -33 -4 -36 -10 -3 -5 -35 -10 -71 -10 -50 0 -64 -3 -64 -15
0 -13 -46 -15 -333 -17 l-332 -3 -3 -79 c-2 -44 1 -83 5 -87 4 -4 54 -11 110
-15 56 -4 100 -11 97 -15 -3 -5 -20 -9 -38 -9 -17 0 -36 -4 -42 -9 -5 -6 -36
-11 -69 -13 l-60 -3 -3 -140 c-1 -77 0 -150 3 -163 l5 -22 1568 2 1567 3 3 63
3 62 429 0 430 0 0 285 0 285 -672 -2 c-370 -1 -1076 -5 -1568 -8z"/>
</g>
</svg>
