<?xml version="1.0" standalone="no"?>
<!DOCTYPE svg PUBLIC "-//W3C//DTD SVG 20010904//EN"
 "http://www.w3.org/TR/2001/REC-SVG-20010904/DTD/svg10.dtd">
<svg version="1.0" xmlns="http://www.w3.org/2000/svg"
 width="800.000000pt" height="1200.000000pt" viewBox="0 0 800.000000 1200.000000"
 preserveAspectRatio="xMidYMid meet">
<metadata>
Created by potrace 1.15, written by Peter Selinger 2001-2017
</metadata>
<g transform="translate(0.000000,1200.000000) scale(0.100000,-0.100000)"
fill="#000000" stroke="none">
<path d="M3383 8853 l-863 -3 0 -40 c0 -31 4 -40 18 -41 50 -3 -77 -18 -160
-18 -58 -1 -98 -5 -98 -11 0 -6 -137 -10 -390 -10 -250 0 -390 -4 -390 -10 0
-6 -137 -11 -378 -12 l-377 -3 0 -85 0 -85 1918 -3 1917 -2 0 55 0 54 83 3 82
3 3 108 3 107 -253 -2 c-139 -2 -641 -4 -1115 -5z"/>
<path d="M2275 8369 c-566 -3 -1123 -7 -1237 -8 l-208 -1 0 -34 c0 -54 -8 -66
-46 -66 -41 0 -46 -14 -42 -125 l3 -80 1335 0 1335 0 3 58 3 57 664 0 665 0 0
105 0 105 -722 -2 c-398 -1 -1186 -5 -1753 -9z"/>
</g>
</svg>
