<?xml version="1.0" standalone="no"?>
<!DOCTYPE svg PUBLIC "-//W3C//DTD SVG 20010904//EN"
 "http://www.w3.org/TR/2001/REC-SVG-20010904/DTD/svg10.dtd">
<svg version="1.0" xmlns="http://www.w3.org/2000/svg"
 width="800.000000pt" height="1200.000000pt" viewBox="0 0 800.000000 1200.000000"
 preserveAspectRatio="xMidYMid meet">
<metadata>
Created by potrace 1.15, written by Peter Selinger 2001-2017
</metadata>
<g transform="translate(0.000000,1200.000000) scale(0.100000,-0.100000)"
fill="#000000" stroke="none">
<path d="M2360 7770 l0 -39 -92 -3 -93 -3 -3 -37 -3 -38 -500 0 -499 0 0 -40
0 -40 68 -2 c48 -1 55 -3 25 -5 -24 -2 -43 -8 -43 -14 0 -5 -11 -9 -25 -9 -23
0 -25 -4 -25 -45 l0 -45 65 0 c63 0 65 -1 65 -25 0 -21 5 -25 30 -25 17 0 30
-4 30 -9 0 -14 -85 -21 -294 -22 -111 -1 -228 -4 -261 -8 l-60 -6 -3 -65 c-2
-35 0 -75 3 -87 l5 -23 868 2 867 3 3 53 3 52 1130 0 1129 0 0 95 0 95 -1160
0 -1160 0 0 70 0 70 560 0 560 0 0 95 0 95 -595 0 -595 0 0 -40z"/>
</g>
</svg>
