<?xml version="1.0" standalone="no"?>
<!DOCTYPE svg PUBLIC "-//W3C//DTD SVG 20010904//EN"
 "http://www.w3.org/TR/2001/REC-SVG-20010904/DTD/svg10.dtd">
<svg version="1.0" xmlns="http://www.w3.org/2000/svg"
 width="800.000000pt" height="1200.000000pt" viewBox="0 0 800.000000 1200.000000"
 preserveAspectRatio="xMidYMid meet">
<metadata>
Created by potrace 1.15, written by Peter Selinger 2001-2017
</metadata>
<g transform="translate(0.000000,1200.000000) scale(0.100000,-0.100000)"
fill="#000000" stroke="none">
<path d="M2450 10609 c-283 -3 -651 -7 -817 -8 l-303 -1 -6 -27 c-4 -16 -13
-33 -21 -38 -15 -11 -20 -144 -12 -322 l5 -102 -125 -3 -126 -3 -3 -72 -3 -73
-89 0 -90 0 0 -60 0 -60 90 0 c116 0 118 -18 3 -22 l-88 -3 -3 -52 -3 -52 128
-3 c106 -3 128 -6 128 -18 0 -11 -13 -16 -47 -18 -27 -2 -48 -7 -48 -13 0 -5
-27 -9 -61 -9 l-60 0 3 -37 c3 -34 6 -38 38 -45 19 -3 232 -10 473 -14 415 -7
437 -8 437 -26 0 -15 8 -18 58 -18 82 0 132 -10 132 -26 0 -10 -13 -14 -44
-14 -66 0 -76 -7 -76 -50 0 -44 3 -46 93 -55 37 -4 67 -11 67 -16 0 -5 28 -9
63 -10 34 0 82 -4 107 -8 39 -8 34 -9 -42 -10 l-88 -1 0 -50 0 -50 100 0 c159
0 116 -16 -62 -24 -116 -4 -166 -10 -176 -20 -8 -7 -16 -40 -19 -73 l-5 -60
53 -10 54 -10 -42 -2 -43 -1 0 -40 c0 -25 -6 -42 -16 -48 -11 -6 -14 -20 -12
-47 2 -32 8 -40 28 -46 21 -6 18 -7 -15 -8 -23 -1 -45 -5 -50 -10 -6 -5 -55
-16 -110 -25 -55 -9 -122 -21 -150 -26 -27 -6 -70 -11 -95 -13 -44 -2 -45 -3
-48 -39 l-3 -38 1580 0 1581 0 0 219 c0 260 -3 279 -38 283 -21 2 -33 15 -56
61 l-29 57 -197 0 -196 0 -22 45 -22 45 180 0 180 0 0 76 c0 78 -8 103 -43
142 -20 22 -23 22 -309 22 -249 0 -288 2 -288 15 0 13 -57 15 -450 15 l-450 0
0 35 c0 33 -2 35 -35 35 -31 0 -35 3 -35 25 l0 25 -195 0 c-167 0 -195 2 -195
15 0 8 7 15 15 15 11 0 15 12 15 44 l0 45 -42 3 -43 3 -3 68 -3 67 681 0 680
0 0 28 c0 15 -7 131 -15 257 -8 127 -15 245 -15 263 l0 32 -387 -2 c-214 -1
-620 -5 -903 -9z"/>
</g>
</svg>
