<?xml version="1.0" standalone="no"?>
<!DOCTYPE svg PUBLIC "-//W3C//DTD SVG 20010904//EN"
 "http://www.w3.org/TR/2001/REC-SVG-20010904/DTD/svg10.dtd">
<svg version="1.0" xmlns="http://www.w3.org/2000/svg"
 width="800.000000pt" height="1200.000000pt" viewBox="0 0 800.000000 1200.000000"
 preserveAspectRatio="xMidYMid meet">
<metadata>
Created by potrace 1.15, written by Peter Selinger 2001-2017
</metadata>
<g transform="translate(0.000000,1200.000000) scale(0.100000,-0.100000)"
fill="#000000" stroke="none">
<path d="M1310 11161 c0 -39 1 -40 38 -44 24 -2 14 -4 -28 -5 -81 -3 -92 -10
-88 -53 3 -30 7 -34 36 -37 20 -2 32 -9 32 -18 0 -12 48 -14 320 -14 l320 0 0
105 0 105 -315 0 -315 0 0 -39z"/>
<path d="M1187 7383 c-4 -3 -7 -21 -7 -40 0 -27 4 -33 22 -33 l21 0 -21 -19
c-19 -16 -22 -29 -22 -90 0 -66 2 -71 22 -71 l21 0 -22 -19 c-17 -15 -22 -28
-19 -58 l3 -38 473 -3 c459 -2 472 -3 472 -21 0 -16 -8 -20 -37 -23 -37 -3
-38 -4 -41 -45 l-3 -43 40 0 c22 0 43 -4 46 -10 4 -7 235 -10 661 -10 l655 0
-3 93 -3 92 -487 3 -488 2 0 65 0 65 593 2 592 3 0 100 0 100 -1231 3 c-677 1
-1234 -1 -1237 -5z"/>
</g>
</svg>
