<?xml version="1.0" standalone="no"?>
<!DOCTYPE svg PUBLIC "-//W3C//DTD SVG 20010904//EN"
 "http://www.w3.org/TR/2001/REC-SVG-20010904/DTD/svg10.dtd">
<svg version="1.0" xmlns="http://www.w3.org/2000/svg"
 width="800.000000pt" height="1200.000000pt" viewBox="0 0 800.000000 1200.000000"
 preserveAspectRatio="xMidYMid meet">
<metadata>
Created by potrace 1.15, written by Peter Selinger 2001-2017
</metadata>
<g transform="translate(0.000000,1200.000000) scale(0.100000,-0.100000)"
fill="#000000" stroke="none">
<path d="M2300 11110 c-338 -4 -798 -8 -1022 -9 l-408 -1 0 -39 c0 -42 -4 -45
-107 -58 l-43 -5 0 -169 0 -169 1485 0 1485 0 0 65 0 65 513 2 512 3 0 160 0
160 -900 1 c-495 0 -1177 -3 -1515 -6z"/>
<path d="M1031 10550 l0 -100 29 0 c28 0 30 -3 30 -35 l0 -35 73 -1 72 -2
-100 -12 c-118 -15 -105 -12 -105 -30 0 -13 -24 -15 -155 -15 l-155 0 2 -212
3 -213 1650 0 1650 0 3 63 3 62 351 0 351 0 -6 113 c-4 61 -7 163 -7 226 l0
114 -1478 -6 c-812 -4 -1512 -10 -1555 -13 l-77 -7 0 102 0 101 -289 0 -290 0
0 -100z"/>
<path d="M1110 9831 c0 -40 0 -40 -42 -43 -43 -3 -43 -3 -46 -45 -2 -26 1 -43
7 -43 6 0 11 -7 11 -15 0 -12 14 -15 70 -15 l70 0 0 -35 c0 -28 -4 -35 -20
-35 -11 0 -20 -4 -20 -10 0 -5 -22 -10 -49 -10 -40 0 -50 -3 -54 -20 -5 -18
-15 -20 -158 -22 l-154 -3 -3 -200 c-1 -110 0 -210 3 -222 5 -23 8 -23 160
-23 l155 0 0 -35 0 -35 53 -2 52 -1 -55 -6 c-61 -7 -67 -16 -55 -77 5 -28 10
-34 30 -34 22 0 25 -4 25 -40 l0 -40 78 -1 77 -2 -102 -10 c-77 -7 -103 -13
-103 -23 0 -11 -29 -14 -155 -14 l-155 0 -6 -25 c-3 -14 -2 -112 2 -218 l9
-192 1483 -3 1482 -2 0 65 0 65 514 0 c459 0 515 2 520 16 8 21 8 338 0 397
l-7 47 -1361 -7 -1361 -6 3 91 3 91 82 3 82 3 3 73 3 72 1274 0 1275 0 0 230
0 230 -652 -5 c-359 -3 -1028 -7 -1485 -10 l-833 -6 0 96 0 95 -325 0 -325 0
0 -39z"/>
</g>
</svg>
