<?xml version="1.0" standalone="no"?>
<!DOCTYPE svg PUBLIC "-//W3C//DTD SVG 20010904//EN"
 "http://www.w3.org/TR/2001/REC-SVG-20010904/DTD/svg10.dtd">
<svg version="1.0" xmlns="http://www.w3.org/2000/svg"
 width="800.000000pt" height="1200.000000pt" viewBox="0 0 800.000000 1200.000000"
 preserveAspectRatio="xMidYMid meet">
<metadata>
Created by potrace 1.15, written by Peter Selinger 2001-2017
</metadata>
<g transform="translate(0.000000,1200.000000) scale(0.100000,-0.100000)"
fill="#000000" stroke="none">
<path d="M2540 10690 l0 -40 43 -2 c34 -1 31 -2 -23 -8 -36 -4 -93 -8 -127 -9
l-63 -1 0 -40 0 -40 59 0 c38 0 61 -4 63 -12 3 -9 52 -13 166 -16 89 -3 162
-8 162 -13 0 -5 -20 -9 -45 -9 -38 0 -45 -3 -45 -20 0 -18 -7 -20 -85 -20
l-85 0 0 -40 0 -40 160 0 c100 0 160 -4 160 -10 0 -7 162 -10 465 -10 l465 0
0 80 0 80 298 2 297 3 3 103 3 102 -936 0 -935 0 0 -40z"/>
<path d="M2590 8445 c0 -21 5 -36 13 -37 27 -3 -123 -16 -200 -17 l-83 -1 0
-39 c0 -41 11 -51 56 -51 20 0 24 -5 24 -30 0 -22 6 -33 23 -40 18 -7 15 -9
-20 -9 -31 -1 -43 -5 -43 -16 0 -13 -40 -15 -302 -15 -167 0 -313 -3 -325 -6
-22 -6 -23 -11 -23 -105 l0 -99 518 2 517 3 3 62 3 63 937 2 937 3 3 98 3 97
-681 0 -680 0 0 85 0 85 -340 0 -340 0 0 -35z"/>
<path d="M2293 7673 l-93 -4 0 -34 0 -35 -54 0 c-30 0 -58 -4 -61 -10 -3 -5
-24 -10 -46 -10 -39 0 -39 0 -39 -40 l0 -40 41 0 c23 0 47 -7 56 -15 13 -13
64 -15 376 -13 l362 3 3 103 3 102 -228 -2 c-125 -1 -270 -4 -320 -5z"/>
<path d="M1694 6797 c-3 -8 -4 -52 -2 -98 l3 -84 458 -3 457 -2 0 100 0 100
-455 0 c-371 0 -457 -2 -461 -13z"/>
<path d="M1700 6261 c0 -22 -4 -43 -10 -46 -13 -8 -13 -66 0 -99 l10 -26 438
0 439 0 7 38 c8 48 8 136 0 156 -5 14 -54 16 -445 16 l-439 0 0 -39z"/>
</g>
</svg>
