<?xml version="1.0" standalone="no"?>
<!DOCTYPE svg PUBLIC "-//W3C//DTD SVG 20010904//EN"
 "http://www.w3.org/TR/2001/REC-SVG-20010904/DTD/svg10.dtd">
<svg version="1.0" xmlns="http://www.w3.org/2000/svg"
 width="800.000000pt" height="1200.000000pt" viewBox="0 0 800.000000 1200.000000"
 preserveAspectRatio="xMidYMid meet">
<metadata>
Created by potrace 1.15, written by Peter Selinger 2001-2017
</metadata>
<g transform="translate(0.000000,1200.000000) scale(0.100000,-0.100000)"
fill="#000000" stroke="none">
<path d="M2675 11239 c-792 -3 -1549 -7 -1682 -8 l-243 -1 0 -35 0 -35 58 -1
c64 0 49 -12 -32 -24 l-46 -7 2 -462 3 -461 1084 -3 c861 -2 1086 0 1093 10 4
7 8 34 8 60 l0 48 913 2 912 3 3 397 2 397 -87 3 -88 3 -3 63 -3 62 -227 -2
c-125 -1 -875 -5 -1667 -9z"/>
<path d="M2850 10121 c0 -36 3 -40 28 -44 22 -3 20 -4 -10 -6 -27 -1 -38 -6
-38 -16 0 -13 -59 -15 -473 -15 -261 0 -522 -3 -580 -7 l-107 -6 0 -94 0 -93
520 0 520 0 0 60 0 60 1020 0 1020 0 0 100 0 100 -950 0 -950 0 0 -39z"/>
</g>
</svg>
