<?xml version="1.0" standalone="no"?>
<!DOCTYPE svg PUBLIC "-//W3C//DTD SVG 20010904//EN"
 "http://www.w3.org/TR/2001/REC-SVG-20010904/DTD/svg10.dtd">
<svg version="1.0" xmlns="http://www.w3.org/2000/svg"
 width="800.000000pt" height="1200.000000pt" viewBox="0 0 800.000000 1200.000000"
 preserveAspectRatio="xMidYMid meet">
<metadata>
Created by potrace 1.15, written by Peter Selinger 2001-2017
</metadata>
<g transform="translate(0.000000,1200.000000) scale(0.100000,-0.100000)"
fill="#000000" stroke="none">
<path d="M1180 6100 c0 -39 1 -40 38 -41 28 -2 31 -3 11 -6 -37 -6 -61 -35
-57 -70 l3 -28 943 -3 943 -2 -3 92 -3 93 -937 3 -938 2 0 -40z"/>
<path d="M1553 5753 l-373 -3 0 -35 0 -35 68 -1 67 -1 -67 -15 -68 -16 0 -38
0 -39 710 0 710 0 0 95 0 95 -337 -2 c-186 -2 -506 -4 -710 -5z"/>
</g>
</svg>
