<?xml version="1.0" standalone="no"?>
<!DOCTYPE svg PUBLIC "-//W3C//DTD SVG 20010904//EN"
 "http://www.w3.org/TR/2001/REC-SVG-20010904/DTD/svg10.dtd">
<svg version="1.0" xmlns="http://www.w3.org/2000/svg"
 width="800.000000pt" height="1200.000000pt" viewBox="0 0 800.000000 1200.000000"
 preserveAspectRatio="xMidYMid meet">
<metadata>
Created by potrace 1.15, written by Peter Selinger 2001-2017
</metadata>
<g transform="translate(0.000000,1200.000000) scale(0.100000,-0.100000)"
fill="#000000" stroke="none">
<path d="M1240 9650 c0 -39 1 -40 38 -41 33 -2 34 -2 7 -6 -16 -3 -34 -12 -40
-20 -10 -13 -52 -16 -264 -21 l-251 -5 2 -156 3 -156 953 -3 952 -2 0 60 0 60
1055 0 1055 0 -2 163 -3 162 -1752 3 -1753 2 0 -40z"/>
<path d="M3227 9083 c-4 -3 -7 -21 -7 -38 0 -28 -4 -33 -31 -39 -17 -3 -123
-6 -235 -6 -164 0 -204 -3 -204 -13 0 -11 -115 -15 -632 -20 -347 -4 -802 -7
-1010 -7 l-378 0 0 -160 0 -160 350 0 350 0 0 60 0 60 1658 2 1657 3 3 163 2
162 -758 0 c-417 0 -762 -3 -765 -7z"/>
<path d="M1785 8130 l-660 -5 -3 -37 c-2 -21 -8 -38 -14 -38 -6 0 -17 -8 -24
-17 -11 -16 -34 -18 -184 -21 l-171 -3 3 -97 3 -97 115 -3 c63 -1 119 -7 124
-12 7 -7 -5 -10 -33 -10 l-42 0 3 -52 3 -53 1923 -3 1922 -2 0 223 0 224 -547
6 c-559 7 -1243 6 -2418 -3z"/>
</g>
</svg>
