<?xml version="1.0" standalone="no"?>
<!DOCTYPE svg PUBLIC "-//W3C//DTD SVG 20010904//EN"
 "http://www.w3.org/TR/2001/REC-SVG-20010904/DTD/svg10.dtd">
<svg version="1.0" xmlns="http://www.w3.org/2000/svg"
 width="800.000000pt" height="1200.000000pt" viewBox="0 0 800.000000 1200.000000"
 preserveAspectRatio="xMidYMid meet">
<metadata>
Created by potrace 1.15, written by Peter Selinger 2001-2017
</metadata>
<g transform="translate(0.000000,1200.000000) scale(0.100000,-0.100000)"
fill="#000000" stroke="none">
<path d="M4234 8582 c-6 -4 -13 -14 -16 -23 -6 -14 -31 -18 -162 -24 -143 -7
-156 -9 -156 -26 0 -16 -8 -19 -55 -19 -30 0 -55 -4 -55 -10 0 -7 -315 -10
-922 -11 -508 -1 -1191 -5 -1518 -8 l-595 -6 -3 -37 c-3 -38 -3 -38 35 -39
l38 0 -37 -16 -38 -15 0 -99 0 -99 2000 0 2000 0 0 220 0 220 -252 0 c-139 0
-258 -4 -264 -8z"/>
<path d="M1593 7373 c-41 -4 -43 -6 -43 -37 0 -35 -15 -46 -67 -46 -20 0 -23
-5 -23 -40 0 -37 2 -40 29 -40 16 0 31 -6 35 -15 5 -13 97 -15 746 -15 l740 0
0 100 0 100 -687 -2 c-379 -1 -707 -3 -730 -5z"/>
<path d="M2160 5990 l0 -39 -87 -3 -88 -3 -3 -42 -3 -43 90 0 c54 0 91 -4 91
-10 0 -7 433 -9 1293 -8 l1292 3 3 93 3 92 -1296 0 -1295 0 0 -40z"/>
<path d="M760 5815 l0 -96 128 3 127 3 0 90 0 90 -127 3 -128 3 0 -96z"/>
<path d="M2223 5753 c-30 -4 -33 -8 -33 -37 0 -41 -13 -46 -122 -46 l-78 0 0
-40 0 -40 90 0 c54 0 90 -4 90 -10 0 -7 228 -9 677 -8 657 3 678 4 681 22 2
11 1 52 -3 93 l-7 73 -631 -2 c-348 0 -647 -3 -664 -5z"/>
</g>
</svg>
