<?xml version="1.0" standalone="no"?>
<!DOCTYPE svg PUBLIC "-//W3C//DTD SVG 20010904//EN"
 "http://www.w3.org/TR/2001/REC-SVG-20010904/DTD/svg10.dtd">
<svg version="1.0" xmlns="http://www.w3.org/2000/svg"
 width="800.000000pt" height="1200.000000pt" viewBox="0 0 800.000000 1200.000000"
 preserveAspectRatio="xMidYMid meet">
<metadata>
Created by potrace 1.15, written by Peter Selinger 2001-2017
</metadata>
<g transform="translate(0.000000,1200.000000) scale(0.100000,-0.100000)"
fill="#000000" stroke="none">
<path d="M2300 11110 c-338 -4 -798 -8 -1022 -9 l-408 -1 0 -39 c0 -42 -4 -45
-107 -58 l-43 -5 0 -169 0 -169 1485 0 1485 0 0 65 0 65 513 2 512 3 0 160 0
160 -900 1 c-495 0 -1177 -3 -1515 -6z"/>
<path d="M1031 10550 l0 -100 29 0 c28 0 30 -3 30 -35 l0 -35 73 -1 72 -2
-100 -12 c-118 -15 -105 -12 -105 -30 0 -13 -24 -15 -155 -15 l-155 0 2 -212
3 -213 1650 0 1650 0 3 63 3 62 351 0 351 0 -6 113 c-4 61 -7 163 -7 226 l0
114 -1478 -6 c-812 -4 -1512 -10 -1555 -13 l-77 -7 0 102 0 101 -289 0 -290 0
0 -100z"/>
</g>
</svg>
