<?xml version="1.0" standalone="no"?>
<!DOCTYPE svg PUBLIC "-//W3C//DTD SVG 20010904//EN"
 "http://www.w3.org/TR/2001/REC-SVG-20010904/DTD/svg10.dtd">
<svg version="1.0" xmlns="http://www.w3.org/2000/svg"
 width="800.000000pt" height="1200.000000pt" viewBox="0 0 800.000000 1200.000000"
 preserveAspectRatio="xMidYMid meet">
<metadata>
Created by potrace 1.15, written by Peter Selinger 2001-2017
</metadata>
<g transform="translate(0.000000,1200.000000) scale(0.100000,-0.100000)"
fill="#000000" stroke="none">
<path d="M2590 11229 c-971 -3 -1768 -7 -1772 -8 -12 -2 -9 -81 3 -81 5 0 7
-4 4 -10 -3 -5 -24 -10 -45 -10 -21 0 -41 -4 -45 -9 -3 -6 -2 -190 1 -410 l7
-401 257 0 258 0 6 31 c3 17 6 47 6 65 l0 34 1738 2 1737 3 3 403 2 402 -197
-2 c-109 -1 -992 -5 -1963 -9z"/>
<path d="M3113 10153 l-523 -3 0 -35 0 -34 108 -3 c69 -2 10 -6 -166 -12 -216
-7 -275 -11 -279 -22 -4 -12 -92 -14 -512 -14 -278 0 -617 -3 -754 -7 l-248
-6 3 -151 3 -151 113 -3 c63 -1 112 -7 112 -12 0 -6 -16 -10 -36 -10 -27 0
-37 -5 -41 -20 -5 -18 -14 -20 -79 -20 l-74 0 0 -90 0 -90 1195 0 1195 0 0 60
0 60 808 2 807 3 3 283 2 282 -557 -2 c-307 -2 -793 -4 -1080 -5z"/>
<path d="M4390 9427 c0 -21 -75 -37 -170 -37 -83 0 -90 -1 -90 -20 0 -17 -7
-20 -43 -20 -24 0 -47 -4 -53 -10 -9 -9 -2027 -29 -2951 -30 l-333 0 0 -40 0
-40 98 -2 c93 -1 95 -1 37 -9 -33 -4 -78 -11 -100 -16 l-40 -8 0 -280 0 -280
658 -3 657 -2 0 65 0 65 1345 0 1345 0 0 340 0 340 -180 0 c-138 0 -180 -3
-180 -13z"/>
<path d="M2510 8480 c-492 -4 -896 -8 -897 -8 -2 -1 -3 -18 -3 -37 0 -32 -2
-35 -29 -35 -17 0 -33 -4 -36 -10 -3 -5 -35 -10 -71 -10 -50 0 -64 -3 -64 -15
0 -13 -46 -15 -333 -17 l-332 -3 -3 -79 c-2 -44 1 -83 5 -87 4 -4 54 -11 110
-15 56 -4 100 -11 97 -15 -3 -5 -20 -9 -38 -9 -17 0 -36 -4 -42 -9 -5 -6 -36
-11 -69 -13 l-60 -3 -3 -140 c-1 -77 0 -150 3 -163 l5 -22 1568 2 1567 3 3 63
3 62 429 0 430 0 0 285 0 285 -672 -2 c-370 -1 -1076 -5 -1568 -8z"/>
<path d="M1363 7123 l-93 -4 0 -39 c0 -33 -3 -40 -20 -40 -11 0 -20 -4 -20
-10 0 -5 -18 -10 -40 -10 l-40 0 0 -40 0 -40 945 0 945 0 0 -24 c0 -15 7 -26
18 -29 9 -3 -16 -5 -55 -6 l-73 -1 0 -40 0 -40 55 0 c30 0 55 -4 55 -10 0 -7
292 -10 855 -10 l855 0 0 95 0 95 -435 0 -435 0 0 80 0 80 -1212 -2 c-667 -1
-1255 -4 -1305 -5z"/>
<path d="M750 6755 l0 -95 170 0 170 0 0 95 0 95 -170 0 -170 0 0 -95z"/>
<path d="M1888 6693 l-738 -3 0 -40 0 -40 103 -1 102 -2 -102 -10 -103 -9 0
-39 c0 -32 3 -39 20 -39 16 0 20 -7 20 -30 l0 -30 93 -2 92 -1 -75 -9 c-41 -5
-181 -12 -310 -16 l-235 -7 -4 -30 c-1 -16 0 -108 4 -203 l7 -172 1507 2 1506
3 3 52 3 53 482 2 482 3 3 208 2 207 -274 0 -275 0 -3 78 -3 77 -785 0 c-432
0 -1117 -1 -1522 -2z"/>
<path d="M2165 5930 c-490 -4 -891 -7 -892 -8 -2 -1 -3 -20 -3 -42 0 -33 -3
-40 -19 -40 -11 0 -23 -4 -26 -10 -3 -5 -22 -10 -41 -10 -33 0 -34 -1 -34 -40
0 -22 5 -40 10 -40 6 0 10 -11 10 -25 0 -24 3 -25 63 -26 34 -1 50 -4 35 -6
-16 -2 -28 -9 -28 -14 0 -5 -18 -9 -40 -9 l-40 0 0 -40 0 -40 1788 2 1787 3 3
93 3 92 -220 0 -220 0 -3 83 -3 82 -620 0 c-341 1 -1020 -2 -1510 -5z"/>
</g>
</svg>
