<?xml version="1.0" standalone="no"?>
<!DOCTYPE svg PUBLIC "-//W3C//DTD SVG 20010904//EN"
 "http://www.w3.org/TR/2001/REC-SVG-20010904/DTD/svg10.dtd">
<svg version="1.0" xmlns="http://www.w3.org/2000/svg"
 width="800.000000pt" height="1200.000000pt" viewBox="0 0 800.000000 1200.000000"
 preserveAspectRatio="xMidYMid meet">
<metadata>
Created by potrace 1.15, written by Peter Selinger 2001-2017
</metadata>
<g transform="translate(0.000000,1200.000000) scale(0.100000,-0.100000)"
fill="#000000" stroke="none">
<path d="M1240 9650 c0 -39 1 -40 38 -41 33 -2 34 -2 7 -6 -16 -3 -34 -12 -40
-20 -10 -13 -52 -16 -264 -21 l-251 -5 2 -156 3 -156 953 -3 952 -2 0 60 0 60
1055 0 1055 0 -2 163 -3 162 -1752 3 -1753 2 0 -40z"/>
</g>
</svg>
