<?xml version="1.0" standalone="no"?>
<!DOCTYPE svg PUBLIC "-//W3C//DTD SVG 20010904//EN"
 "http://www.w3.org/TR/2001/REC-SVG-20010904/DTD/svg10.dtd">
<svg version="1.0" xmlns="http://www.w3.org/2000/svg"
 width="800.000000pt" height="1200.000000pt" viewBox="0 0 800.000000 1200.000000"
 preserveAspectRatio="xMidYMid meet">
<metadata>
Created by potrace 1.15, written by Peter Selinger 2001-2017
</metadata>
<g transform="translate(0.000000,1200.000000) scale(0.100000,-0.100000)"
fill="#000000" stroke="none">
<path d="M4048 10883 l-278 -3 0 -25 c0 -23 -4 -25 -40 -25 -27 0 -43 -5 -46
-15 -5 -12 -25 -15 -94 -15 -141 0 -240 -11 -240 -26 0 -10 -14 -14 -45 -14
l-45 0 0 -40 0 -40 745 0 746 0 -3 103 -3 102 -210 0 c-115 0 -335 -1 -487 -2z"/>
<path d="M740 10650 l0 -100 658 2 657 3 3 98 3 97 -661 0 -660 0 0 -100z"/>
<path d="M1600 10040 l-545 -5 -3 -37 -3 -38 98 -1 c106 -2 111 0 -55 -25 -23
-3 -45 -10 -48 -15 -3 -5 -72 -9 -155 -9 l-149 0 0 -150 0 -150 53 0 c91 0
217 -13 217 -21 0 -5 -18 -9 -40 -9 -22 0 -40 -4 -40 -10 0 -6 -38 -10 -95
-10 l-95 0 0 -154 0 -153 31 -7 c17 -3 75 -6 128 -7 100 0 179 -17 89 -18 -27
-1 -48 -5 -48 -11 0 -5 -44 -11 -97 -12 l-98 -3 0 -155 0 -155 1073 -3 1072
-2 0 55 c0 30 1 56 3 57 1 1 418 5 927 8 l925 5 3 523 2 522 -1302 -2 c-717
-2 -1548 -5 -1848 -8z"/>
<path d="M1827 8843 l-778 -3 3 -38 c3 -35 5 -37 40 -40 51 -4 49 -22 -2 -22
-22 0 -40 -4 -40 -10 0 -5 -33 -10 -72 -12 l-73 -3 -3 -37 -3 -38 48 -1 c61
-1 107 -17 51 -18 -21 -1 -38 -5 -38 -11 0 -5 -47 -11 -107 -12 l-108 -3 0
-275 0 -275 527 -3 527 -2 3 62 3 63 1473 3 1472 2 -2 338 -3 337 -1070 0
c-588 0 -1420 -1 -1848 -2z"/>
<path d="M1938 7403 l-1158 -3 0 -35 0 -35 58 -2 c42 -1 47 -2 20 -5 -21 -2
-38 -8 -38 -14 0 -5 -16 -9 -35 -9 l-35 0 0 -100 0 -100 685 0 685 0 0 60 0
60 1313 2 1312 3 3 93 3 92 -828 -2 c-455 -2 -1349 -4 -1985 -5z"/>
<path d="M1180 6931 l0 -40 63 -4 62 -3 -67 -2 -68 -2 0 -37 c0 -21 3 -55 6
-75 l7 -38 61 -2 61 -1 -65 -6 c-74 -7 -76 -10 -65 -97 l6 -54 57 -2 57 -1
-60 -6 -60 -6 -3 -47 -3 -48 450 0 451 0 0 159 c0 158 0 160 23 163 21 3 22 7
22 93 l0 90 -467 3 -468 2 0 -39z"/>
</g>
</svg>
