<?xml version="1.0" standalone="no"?>
<!DOCTYPE svg PUBLIC "-//W3C//DTD SVG 20010904//EN"
 "http://www.w3.org/TR/2001/REC-SVG-20010904/DTD/svg10.dtd">
<svg version="1.0" xmlns="http://www.w3.org/2000/svg"
 width="800.000000pt" height="1200.000000pt" viewBox="0 0 800.000000 1200.000000"
 preserveAspectRatio="xMidYMid meet">
<metadata>
Created by potrace 1.15, written by Peter Selinger 2001-2017
</metadata>
<g transform="translate(0.000000,1200.000000) scale(0.100000,-0.100000)"
fill="#000000" stroke="none">
<path d="M3150 11240 c-558 -4 -1293 -8 -1632 -9 l-618 -1 0 -35 0 -35 88 -2
c50 -1 68 -3 42 -5 -24 -3 -47 -9 -51 -14 -3 -5 -60 -13 -127 -16 l-122 -6 0
-39 0 -38 52 0 c48 0 51 -1 32 -14 -11 -8 -33 -16 -49 -18 l-30 -3 -2 -342 -2
-343 794 0 795 0 0 60 0 60 1215 0 1215 0 -2 403 -3 402 -290 1 c-159 0 -747
-3 -1305 -6z"/>
</g>
</svg>
