<?xml version="1.0" standalone="no"?>
<!DOCTYPE svg PUBLIC "-//W3C//DTD SVG 20010904//EN"
 "http://www.w3.org/TR/2001/REC-SVG-20010904/DTD/svg10.dtd">
<svg version="1.0" xmlns="http://www.w3.org/2000/svg"
 width="800.000000pt" height="1200.000000pt" viewBox="0 0 800.000000 1200.000000"
 preserveAspectRatio="xMidYMid meet">
<metadata>
Created by potrace 1.15, written by Peter Selinger 2001-2017
</metadata>
<g transform="translate(0.000000,1200.000000) scale(0.100000,-0.100000)"
fill="#000000" stroke="none">
<path d="M1770 9286 c0 -23 6 -39 18 -45 13 -8 -1 -10 -55 -11 l-73 0 0 -44
c0 -44 0 -44 43 -51 23 -4 435 -9 914 -12 l873 -3 5 23 c3 12 5 56 3 97 l-3
75 -862 3 -863 2 0 -34z"/>
<path d="M2540 8810 c0 -36 -2 -40 -25 -40 -14 0 -25 -4 -25 -10 0 -6 -43 -10
-110 -10 -67 0 -110 -4 -110 -10 0 -7 -244 -10 -712 -10 -392 0 -737 -3 -766
-6 l-52 -7 0 -158 0 -159 492 2 493 3 3 57 3 58 1507 2 1507 3 3 163 2 162
-1105 0 -1105 0 0 -40z"/>
<path d="M2222 7965 l3 -45 -97 0 c-72 0 -100 -4 -112 -15 -13 -13 -97 -15
-640 -15 l-626 0 -5 -22 c-3 -13 -4 -84 -3 -158 l3 -135 2003 -3 2002 -2 0
220 0 220 -1266 0 -1266 0 4 -45z"/>
<path d="M3408 7203 l-928 -3 0 -35 0 -34 58 -4 c31 -2 -3 -4 -75 -5 l-133 -2
0 -40 0 -40 -575 0 -575 0 0 -40 c0 -36 3 -40 25 -40 38 0 30 -17 -13 -24 -20
-3 -128 -6 -239 -6 l-202 0 -6 -32 c-3 -18 -5 -60 -3 -93 l3 -60 634 -3 c501
-2 636 0 643 10 4 7 8 32 8 55 l0 43 1358 2 1357 3 0 95 0 95 -97 3 -97 3 -3
77 -3 77 -105 0 c-58 0 -522 -1 -1032 -2z"/>
<path d="M1993 6603 l-503 -3 0 -40 0 -40 -49 0 c-69 0 -81 -6 -81 -45 0 -37
12 -45 71 -45 21 0 39 -4 39 -10 0 -7 365 -10 1074 -10 970 0 1074 2 1080 16
8 20 8 148 0 168 -7 17 -22 17 -1631 9z"/>
</g>
</svg>
