<?xml version="1.0" standalone="no"?>
<!DOCTYPE svg PUBLIC "-//W3C//DTD SVG 20010904//EN"
 "http://www.w3.org/TR/2001/REC-SVG-20010904/DTD/svg10.dtd">
<svg version="1.0" xmlns="http://www.w3.org/2000/svg"
 width="800.000000pt" height="1200.000000pt" viewBox="0 0 800.000000 1200.000000"
 preserveAspectRatio="xMidYMid meet">
<metadata>
Created by potrace 1.15, written by Peter Selinger 2001-2017
</metadata>
<g transform="translate(0.000000,1200.000000) scale(0.100000,-0.100000)"
fill="#000000" stroke="none">
<path d="M2435 10360 c-710 -3 -1296 -9 -1304 -14 -9 -6 -12 -21 -8 -47 6 -42
-2 -49 -58 -49 -19 0 -37 -4 -40 -10 -4 -6 -67 -10 -156 -10 l-149 0 0 -215 0
-215 1385 0 1385 0 0 65 0 65 610 0 610 0 5 23 c3 12 4 110 3 217 l-3 195
-495 1 c-272 0 -1075 -2 -1785 -6z"/>
<path d="M720 9615 l0 -34 63 -4 62 -3 -62 -2 -63 -2 0 -60 0 -60 203 2 202 3
3 98 3 97 -206 0 -205 0 0 -35z"/>
<path d="M2600 9510 l0 -40 410 0 410 0 0 40 0 40 -410 0 -410 0 0 -40z"/>
</g>
</svg>
