<?xml version="1.0" standalone="no"?>
<!DOCTYPE svg PUBLIC "-//W3C//DTD SVG 20010904//EN"
 "http://www.w3.org/TR/2001/REC-SVG-20010904/DTD/svg10.dtd">
<svg version="1.0" xmlns="http://www.w3.org/2000/svg"
 width="800.000000pt" height="1200.000000pt" viewBox="0 0 800.000000 1200.000000"
 preserveAspectRatio="xMidYMid meet">
<metadata>
Created by potrace 1.15, written by Peter Selinger 2001-2017
</metadata>
<g transform="translate(0.000000,1200.000000) scale(0.100000,-0.100000)"
fill="#000000" stroke="none">
<path d="M2133 11213 l-1193 -3 0 -40 c0 -35 3 -40 23 -40 20 0 20 -2 -8 -20
-24 -16 -47 -20 -122 -20 l-93 0 0 -100 0 -100 1084 0 c979 0 1084 2 1090 16
3 9 6 38 6 65 l0 49 915 0 915 0 0 100 0 100 -712 -2 c-392 -2 -1250 -4 -1905
-5z"/>
<path d="M1594 9045 c-4 -8 -4 -29 -2 -45 6 -37 -3 -40 -103 -40 l-79 0 0 -39
0 -39 193 -7 c105 -3 336 -5 512 -3 l320 3 0 90 0 90 -418 3 c-366 2 -418 0
-423 -13z"/>
<path d="M3012 8943 l-423 -3 3 -38 c3 -36 4 -37 53 -44 28 -3 132 -7 232 -7
168 -1 213 -8 181 -27 -7 -5 -530 -11 -1163 -14 l-1150 -5 -3 -75 c-2 -41 0
-85 3 -97 l5 -23 1154 0 1154 0 6 23 c3 12 6 41 6 65 l0 42 840 0 841 0 -3
103 -3 102 -655 0 c-360 0 -845 -1 -1078 -2z"/>
</g>
</svg>
