<?xml version="1.0" standalone="no"?>
<!DOCTYPE svg PUBLIC "-//W3C//DTD SVG 20010904//EN"
 "http://www.w3.org/TR/2001/REC-SVG-20010904/DTD/svg10.dtd">
<svg version="1.0" xmlns="http://www.w3.org/2000/svg"
 width="800.000000pt" height="1200.000000pt" viewBox="0 0 800.000000 1200.000000"
 preserveAspectRatio="xMidYMid meet">
<metadata>
Created by potrace 1.15, written by Peter Selinger 2001-2017
</metadata>
<g transform="translate(0.000000,1200.000000) scale(0.100000,-0.100000)"
fill="#000000" stroke="none">
<path d="M2680 6126 c0 -19 6 -37 13 -39 6 -3 -30 -6 -80 -6 l-93 -1 0 -40 0
-40 80 0 c64 0 80 -3 80 -15 0 -13 108 -15 915 -15 l915 0 5 23 c3 12 5 54 3
92 l-3 70 -917 3 -918 2 0 -34z"/>
<path d="M1170 5851 c0 -22 5 -42 13 -44 9 -4 8 -8 -3 -16 -9 -7 -93 -11 -222
-11 -240 0 -221 10 -216 -115 l3 -70 1577 -3 1578 -2 0 55 0 55 422 2 423 3 3
93 3 92 -1791 0 -1790 0 0 -39z"/>
</g>
</svg>
