<?xml version="1.0" standalone="no"?>
<!DOCTYPE svg PUBLIC "-//W3C//DTD SVG 20010904//EN"
 "http://www.w3.org/TR/2001/REC-SVG-20010904/DTD/svg10.dtd">
<svg version="1.0" xmlns="http://www.w3.org/2000/svg"
 width="800.000000pt" height="1200.000000pt" viewBox="0 0 800.000000 1200.000000"
 preserveAspectRatio="xMidYMid meet">
<metadata>
Created by potrace 1.15, written by Peter Selinger 2001-2017
</metadata>
<g transform="translate(0.000000,1200.000000) scale(0.100000,-0.100000)"
fill="#000000" stroke="none">
<path d="M1713 10363 l-663 -3 0 -40 0 -40 46 0 c27 0 43 -4 39 -10 -3 -5 -24
-10 -45 -10 -21 0 -42 -4 -45 -10 -4 -6 -67 -10 -156 -10 l-149 0 0 -275 0
-275 43 0 c24 0 47 -3 50 -7 12 -11 -27 -32 -60 -33 -32 0 -33 -2 -33 -40 l0
-40 83 -2 c45 0 66 -3 47 -5 -19 -3 -39 -9 -44 -14 -6 -5 -27 -9 -48 -9 l-38
0 2 -582 3 -583 1968 -3 1967 -2 0 60 0 60 35 0 35 0 0 940 0 940 -1187 -2
c-654 -2 -1486 -4 -1850 -5z"/>
</g>
</svg>
