<?xml version="1.0" standalone="no"?>
<!DOCTYPE svg PUBLIC "-//W3C//DTD SVG 20010904//EN"
 "http://www.w3.org/TR/2001/REC-SVG-20010904/DTD/svg10.dtd">
<svg version="1.0" xmlns="http://www.w3.org/2000/svg"
 width="800.000000pt" height="1200.000000pt" viewBox="0 0 800.000000 1200.000000"
 preserveAspectRatio="xMidYMid meet">
<metadata>
Created by potrace 1.15, written by Peter Selinger 2001-2017
</metadata>
<g transform="translate(0.000000,1200.000000) scale(0.100000,-0.100000)"
fill="#000000" stroke="none">
<path d="M2290 10029 c-509 -3 -964 -7 -1012 -8 l-87 -1 -3 -37 c-3 -37 -4
-38 -48 -43 l-45 -5 0 -40 c0 -40 0 -40 42 -43 24 -2 43 -7 43 -13 0 -6 423
-8 1128 -7 l1127 3 3 70 c2 39 0 85 -3 103 l-6 32 -107 -2 c-59 -1 -523 -5
-1032 -9z"/>
</g>
</svg>
