<?xml version="1.0" standalone="no"?>
<!DOCTYPE svg PUBLIC "-//W3C//DTD SVG 20010904//EN"
 "http://www.w3.org/TR/2001/REC-SVG-20010904/DTD/svg10.dtd">
<svg version="1.0" xmlns="http://www.w3.org/2000/svg"
 width="800.000000pt" height="1200.000000pt" viewBox="0 0 800.000000 1200.000000"
 preserveAspectRatio="xMidYMid meet">
<metadata>
Created by potrace 1.15, written by Peter Selinger 2001-2017
</metadata>
<g transform="translate(0.000000,1200.000000) scale(0.100000,-0.100000)"
fill="#000000" stroke="none">
<path d="M3480 10320 c0 -5 -27 -15 -60 -22 l-60 -12 0 -38 0 -38 124 0 c115
0 124 -1 129 -20 5 -20 14 -20 366 -20 l361 0 0 45 0 45 -340 0 -340 0 0 35 0
35 -90 0 c-51 0 -90 -4 -90 -10z"/>
<path d="M3940 10060 c0 -29 -1 -30 -50 -30 -43 0 -50 -3 -50 -20 0 -18 -8
-20 -127 -22 l-128 -3 0 -40 0 -40 78 -3 77 -3 0 -39 c0 -27 4 -40 14 -40 17
0 28 -62 12 -72 -6 -4 -93 -8 -193 -8 l-183 0 0 -45 0 -45 78 -2 c54 -1 63 -3
30 -5 l-48 -4 0 -45 0 -44 215 0 c137 0 215 -4 215 -10 0 -6 -60 -10 -160 -10
l-160 0 0 -40 0 -40 200 0 200 0 0 35 0 35 275 0 c267 0 275 1 275 20 0 18 8
20 113 22 l112 3 3 243 2 242 -290 0 c-283 0 -290 0 -290 20 0 19 -7 20 -110
20 l-110 0 0 -30z"/>
<path d="M3370 9362 l0 -39 203 -6 c111 -4 262 -7 335 -7 l132 0 0 45 0 45
-335 0 -335 0 0 -38z"/>
<path d="M4202 9284 c-5 -10 -28 -18 -55 -21 -26 -3 -47 -10 -47 -16 0 -6
-103 -8 -307 -3 -260 6 -320 4 -383 -9 -41 -9 -109 -20 -150 -26 -41 -6 -80
-17 -86 -24 -5 -7 -26 -15 -45 -17 -32 -3 -34 -5 -37 -45 l-3 -43 115 0 116 0
0 -40 0 -40 55 0 c48 0 55 -2 55 -20 0 -20 7 -20 314 -20 232 0 315 -3 318
-12 7 -19 125 -27 396 -27 l252 -1 0 45 0 45 -94 0 -94 0 -7 50 -7 50 -304 0
c-196 0 -304 4 -304 10 0 6 45 10 115 10 113 0 115 0 115 23 l0 23 174 -4 173
-4 7 32 c3 18 6 48 6 66 l0 34 -140 0 c-117 0 -140 -3 -148 -16z"/>
<path d="M3430 8820 c0 -6 -49 -10 -127 -10 -71 0 -145 -3 -165 -6 -36 -6 -38
-8 -38 -45 l0 -39 211 0 c175 0 213 -3 226 -15 13 -13 59 -15 326 -13 l312 3
3 68 3 67 -376 0 c-243 0 -375 -4 -375 -10z"/>
<path d="M4077 5886 c-5 -11 -27 -16 -84 -18 -72 -3 -78 -5 -81 -25 -3 -22 -8
-23 -84 -23 -71 0 -80 -2 -85 -20 -5 -19 -14 -20 -169 -20 l-164 0 0 -40 0
-40 670 0 671 0 -3 98 -3 97 -331 3 c-284 2 -333 0 -337 -12z"/>
<path d="M750 5680 l0 -90 338 2 337 3 0 85 0 85 -337 3 -338 2 0 -90z"/>
</g>
</svg>
