<?xml version="1.0" standalone="no"?>
<!DOCTYPE svg PUBLIC "-//W3C//DTD SVG 20010904//EN"
 "http://www.w3.org/TR/2001/REC-SVG-20010904/DTD/svg10.dtd">
<svg version="1.0" xmlns="http://www.w3.org/2000/svg"
 width="800.000000pt" height="1200.000000pt" viewBox="0 0 800.000000 1200.000000"
 preserveAspectRatio="xMidYMid meet">
<metadata>
Created by potrace 1.15, written by Peter Selinger 2001-2017
</metadata>
<g transform="translate(0.000000,1200.000000) scale(0.100000,-0.100000)"
fill="#000000" stroke="none">
<path d="M1483 10273 c-38 -4 -43 -7 -43 -29 0 -20 -5 -24 -30 -24 -23 0 -30
-4 -30 -20 0 -16 -7 -20 -30 -20 -28 0 -30 -2 -30 -40 l0 -40 54 0 c39 0 55
-4 60 -15 5 -13 53 -15 378 -13 l373 3 3 103 3 102 -333 -2 c-183 -1 -352 -3
-375 -5z"/>
<path d="M2308 10043 l-238 -3 0 -39 0 -39 -85 -7 -85 -7 0 -43 0 -42 128 -6
c70 -4 367 -7 660 -7 348 0 532 -3 532 -10 0 -6 118 -10 335 -10 l335 0 0 -40
0 -40 73 0 c49 0 80 -5 93 -15 16 -12 76 -14 357 -15 l337 0 0 105 0 105 -750
0 -750 0 0 60 0 60 -352 -2 c-194 -2 -460 -4 -590 -5z"/>
<path d="M1610 9782 c0 -37 -24 -72 -50 -72 -57 -1 -70 -10 -70 -51 l0 -39 60
0 c33 0 60 -4 60 -10 0 -7 186 -10 539 -10 482 0 539 2 545 16 8 20 8 148 0
168 -6 14 -63 16 -545 16 -512 0 -539 -1 -539 -18z"/>
<path d="M1938 6863 l-158 -4 0 -39 0 -40 -54 0 c-39 0 -55 -4 -60 -15 -5 -13
-56 -15 -376 -15 l-370 0 0 -40 c0 -38 -2 -40 -30 -40 -16 0 -30 -4 -30 -10 0
-5 -15 -10 -32 -10 -18 0 -43 -3 -56 -6 l-22 -6 2 -202 3 -201 1685 0 1685 0
3 57 3 58 307 2 307 3 3 258 2 257 -1327 -2 c-731 -1 -1399 -4 -1485 -5z"/>
</g>
</svg>
