<?xml version="1.0" standalone="no"?>
<!DOCTYPE svg PUBLIC "-//W3C//DTD SVG 20010904//EN"
 "http://www.w3.org/TR/2001/REC-SVG-20010904/DTD/svg10.dtd">
<svg version="1.0" xmlns="http://www.w3.org/2000/svg"
 width="800.000000pt" height="1200.000000pt" viewBox="0 0 800.000000 1200.000000"
 preserveAspectRatio="xMidYMid meet">
<metadata>
Created by potrace 1.15, written by Peter Selinger 2001-2017
</metadata>
<g transform="translate(0.000000,1200.000000) scale(0.100000,-0.100000)"
fill="#000000" stroke="none">
<path d="M1483 10273 c-38 -4 -43 -7 -43 -29 0 -20 -5 -24 -30 -24 -23 0 -30
-4 -30 -20 0 -16 -7 -20 -30 -20 -28 0 -30 -2 -30 -40 l0 -40 54 0 c39 0 55
-4 60 -15 5 -13 53 -15 378 -13 l373 3 3 103 3 102 -333 -2 c-183 -1 -352 -3
-375 -5z"/>
</g>
</svg>
