<?xml version="1.0" standalone="no"?>
<!DOCTYPE svg PUBLIC "-//W3C//DTD SVG 20010904//EN"
 "http://www.w3.org/TR/2001/REC-SVG-20010904/DTD/svg10.dtd">
<svg version="1.0" xmlns="http://www.w3.org/2000/svg"
 width="800.000000pt" height="1200.000000pt" viewBox="0 0 800.000000 1200.000000"
 preserveAspectRatio="xMidYMid meet">
<metadata>
Created by potrace 1.15, written by Peter Selinger 2001-2017
</metadata>
<g transform="translate(0.000000,1200.000000) scale(0.100000,-0.100000)"
fill="#000000" stroke="none">
<path d="M858 11223 l-108 -4 0 -49 c0 -26 -4 -50 -10 -52 -5 -2 -7 -45 -3
-111 l6 -107 491 2 491 3 3 62 3 63 1507 2 1507 3 3 98 3 97 -1893 -2 c-1041
-1 -1941 -4 -2000 -5z"/>
<path d="M1170 7460 c0 -39 1 -40 38 -41 l37 -1 -37 -10 c-37 -10 -38 -12 -38
-54 l0 -44 750 0 750 0 0 95 0 95 -750 0 -750 0 0 -40z"/>
</g>
</svg>
