<?xml version="1.0" standalone="no"?>
<!DOCTYPE svg PUBLIC "-//W3C//DTD SVG 20010904//EN"
 "http://www.w3.org/TR/2001/REC-SVG-20010904/DTD/svg10.dtd">
<svg version="1.0" xmlns="http://www.w3.org/2000/svg"
 width="800.000000pt" height="1200.000000pt" viewBox="0 0 800.000000 1200.000000"
 preserveAspectRatio="xMidYMid meet">
<metadata>
Created by potrace 1.15, written by Peter Selinger 2001-2017
</metadata>
<g transform="translate(0.000000,1200.000000) scale(0.100000,-0.100000)"
fill="#000000" stroke="none">
<path d="M1543 9063 l-143 -4 0 -24 c0 -22 -4 -25 -40 -25 -28 0 -40 -4 -40
-14 0 -8 -13 -17 -30 -21 -27 -6 -30 -10 -30 -46 l0 -39 64 0 c48 0 65 -4 70
-15 5 -13 51 -15 331 -15 l325 0 0 89 c0 49 -3 96 -6 105 -6 17 -72 18 -501 9z"/>
<path d="M3327 8113 c-4 -3 -7 -15 -7 -25 0 -16 -10 -18 -114 -18 -122 0 -146
-4 -146 -26 0 -8 -7 -14 -16 -14 -9 0 -18 -8 -21 -18 -4 -17 -22 -19 -221 -25
-119 -4 -315 -7 -434 -7 -207 0 -218 -1 -228 -20 -9 -17 -21 -20 -75 -20 -58
0 -65 -2 -65 -20 0 -16 -7 -20 -35 -20 -34 0 -35 -1 -35 -39 l0 -39 90 -8 c50
-3 93 -11 96 -15 3 -5 147 -9 320 -9 l314 0 0 60 0 60 590 0 590 0 0 105 0
105 -298 0 c-164 0 -302 -3 -305 -7z"/>
<path d="M745 7358 c-3 -18 -5 -62 -3 -98 l3 -65 65 -6 c36 -4 255 -7 488 -8
368 -1 422 -3 422 -16 0 -9 -9 -15 -25 -15 -20 0 -25 -5 -25 -25 0 -25 -1 -25
-90 -25 -83 0 -90 -1 -90 -20 0 -11 -7 -20 -15 -20 -11 0 -15 -11 -15 -40 l0
-40 104 0 c83 0 105 -3 110 -15 4 -13 36 -15 195 -15 213 0 201 -5 201 83 l0
37 200 0 200 0 0 60 0 60 50 0 50 0 0 100 0 100 -910 0 -909 0 -6 -32z"/>
</g>
</svg>
