<?xml version="1.0" standalone="no"?>
<!DOCTYPE svg PUBLIC "-//W3C//DTD SVG 20010904//EN"
 "http://www.w3.org/TR/2001/REC-SVG-20010904/DTD/svg10.dtd">
<svg version="1.0" xmlns="http://www.w3.org/2000/svg"
 width="800.000000pt" height="1200.000000pt" viewBox="0 0 800.000000 1200.000000"
 preserveAspectRatio="xMidYMid meet">
<metadata>
Created by potrace 1.15, written by Peter Selinger 2001-2017
</metadata>
<g transform="translate(0.000000,1200.000000) scale(0.100000,-0.100000)"
fill="#000000" stroke="none">
<path d="M2468 10233 c-65 -4 -68 -5 -68 -28 0 -24 -3 -25 -65 -25 -49 0 -67
-4 -71 -15 -4 -11 -21 -15 -55 -15 l-49 0 0 -44 0 -45 88 -5 c48 -3 252 -9
455 -12 l367 -6 0 101 0 101 -267 -2 c-148 -1 -298 -3 -335 -5z"/>
</g>
</svg>
