<?xml version="1.0" standalone="no"?>
<!DOCTYPE svg PUBLIC "-//W3C//DTD SVG 20010904//EN"
 "http://www.w3.org/TR/2001/REC-SVG-20010904/DTD/svg10.dtd">
<svg version="1.0" xmlns="http://www.w3.org/2000/svg"
 width="800.000000pt" height="1200.000000pt" viewBox="0 0 800.000000 1200.000000"
 preserveAspectRatio="xMidYMid meet">
<metadata>
Created by potrace 1.15, written by Peter Selinger 2001-2017
</metadata>
<g transform="translate(0.000000,1200.000000) scale(0.100000,-0.100000)"
fill="#000000" stroke="none">
<path d="M740 9035 c0 -33 2 -35 33 -35 l32 -1 -32 -14 c-30 -13 -33 -18 -33
-60 0 -42 2 -45 28 -46 16 0 21 -3 12 -6 -29 -12 -40 -32 -40 -72 l0 -41 660
0 661 0 -3 98 -3 97 -112 3 -113 3 0 54 0 55 -545 0 -545 0 0 -35z"/>
</g>
</svg>
