<?xml version="1.0" standalone="no"?>
<!DOCTYPE svg PUBLIC "-//W3C//DTD SVG 20010904//EN"
 "http://www.w3.org/TR/2001/REC-SVG-20010904/DTD/svg10.dtd">
<svg version="1.0" xmlns="http://www.w3.org/2000/svg"
 width="800.000000pt" height="1200.000000pt" viewBox="0 0 800.000000 1200.000000"
 preserveAspectRatio="xMidYMid meet">
<metadata>
Created by potrace 1.15, written by Peter Selinger 2001-2017
</metadata>
<g transform="translate(0.000000,1200.000000) scale(0.100000,-0.100000)"
fill="#000000" stroke="none">
<path d="M2180 10231 c0 -39 -1 -40 -42 -45 -24 -4 -63 -7 -88 -9 l-45 -2 0
-40 0 -40 83 -3 c45 -2 82 -7 82 -12 0 -6 155 -10 410 -10 l410 0 0 100 0 100
-405 0 -405 0 0 -39z"/>
<path d="M2860 7750 l0 -40 -92 0 c-152 0 -258 -11 -258 -26 0 -12 -80 -14
-452 -15 -249 -1 -646 -5 -883 -8 l-430 -6 -3 -65 c-2 -35 0 -75 3 -87 l5 -23
588 2 587 3 3 53 3 52 1410 0 1409 0 0 100 0 100 -945 0 -945 0 0 -40z"/>
</g>
</svg>
