<?xml version="1.0" standalone="no"?>
<!DOCTYPE svg PUBLIC "-//W3C//DTD SVG 20010904//EN"
 "http://www.w3.org/TR/2001/REC-SVG-20010904/DTD/svg10.dtd">
<svg version="1.0" xmlns="http://www.w3.org/2000/svg"
 width="800.000000pt" height="1200.000000pt" viewBox="0 0 800.000000 1200.000000"
 preserveAspectRatio="xMidYMid meet">
<metadata>
Created by potrace 1.15, written by Peter Selinger 2001-2017
</metadata>
<g transform="translate(0.000000,1200.000000) scale(0.100000,-0.100000)"
fill="#000000" stroke="none">
<path d="M3850 11101 c0 -15 -10 -20 -50 -25 -34 -5 -50 -11 -50 -21 0 -12
-23 -15 -135 -15 -106 0 -136 -3 -142 -14 -7 -13 -128 -16 -811 -22 l-802 -7
0 -39 c0 -36 2 -38 33 -40 17 -1 -17 -4 -76 -7 -69 -4 -110 -10 -115 -18 -6
-10 -119 -13 -488 -15 l-479 -3 -3 -42 -3 -43 55 0 c71 0 73 -18 4 -22 l-53
-3 -3 -107 -3 -108 484 0 c266 0 505 -3 530 -6 43 -6 46 -9 49 -38 3 -30 5
-31 57 -34 30 -2 60 -10 68 -18 12 -12 131 -14 819 -14 l804 0 0 60 0 60 603
2 602 3 3 223 2 222 -179 0 -180 0 -3 53 -3 52 -267 3 c-257 2 -268 2 -268
-17z"/>
<path d="M732 10473 l3 -38 278 -3 277 -2 0 40 0 40 -281 0 -280 0 3 -37z"/>
<path d="M734 10306 c-3 -7 -4 -35 -2 -62 l3 -49 164 -3 c181 -3 181 -3 181
60 0 70 6 68 -176 68 -131 0 -166 -3 -170 -14z"/>
<path d="M4000 10012 l0 -39 -97 -6 c-54 -4 -171 -7 -260 -7 l-163 0 0 -43 0
-44 137 -6 c75 -4 189 -7 254 -7 68 0 120 -4 124 -10 3 -5 1 -10 -4 -10 -6 0
-11 -20 -11 -45 l0 -45 265 0 c170 0 265 -4 265 -10 0 -6 47 -10 120 -10 l120
0 0 62 0 61 -245 -6 -245 -5 0 104 0 104 -130 0 -130 0 0 -38z"/>
<path d="M1760 9600 c-8 -5 -59 -10 -112 -10 l-98 0 0 -40 0 -40 135 0 c113 0
135 -2 135 -15 0 -12 19 -15 115 -15 l115 0 0 65 0 65 -137 0 c-76 0 -145 -5
-153 -10z"/>
<path d="M1175 6504 c-4 -49 -3 -90 2 -95 5 -5 197 -8 454 -7 l444 3 3 93 3
92 -449 0 -450 0 -7 -86z"/>
</g>
</svg>
