<?xml version="1.0" standalone="no"?>
<!DOCTYPE svg PUBLIC "-//W3C//DTD SVG 20010904//EN"
 "http://www.w3.org/TR/2001/REC-SVG-20010904/DTD/svg10.dtd">
<svg version="1.0" xmlns="http://www.w3.org/2000/svg"
 width="800.000000pt" height="1200.000000pt" viewBox="0 0 800.000000 1200.000000"
 preserveAspectRatio="xMidYMid meet">
<metadata>
Created by potrace 1.15, written by Peter Selinger 2001-2017
</metadata>
<g transform="translate(0.000000,1200.000000) scale(0.100000,-0.100000)"
fill="#000000" stroke="none">
<path d="M3207 6743 c-4 -3 -7 -21 -7 -38 l0 -32 -77 -7 c-42 -3 -93 -6 -115
-6 -38 0 -38 0 -38 -39 0 -31 4 -40 23 -46 12 -4 412 -10 890 -12 l867 -5 0
96 0 96 -768 0 c-423 0 -772 -3 -775 -7z"/>
<path d="M4426 6305 c-4 -11 -21 -15 -61 -15 -30 0 -55 -4 -55 -10 0 -5 -27
-12 -60 -16 -41 -4 -60 -11 -60 -20 0 -10 -15 -14 -54 -14 -39 0 -55 -4 -60
-15 -5 -13 -142 -15 -1156 -15 l-1150 0 0 -40 0 -40 48 -2 c40 -1 42 -2 12 -5
-19 -3 -38 -10 -42 -16 -5 -9 -143 -13 -523 -15 l-515 -3 0 -34 0 -35 1535 0
1535 0 0 55 0 55 465 0 465 0 0 100 0 100 -159 0 c-132 0 -160 -3 -165 -15z"/>
</g>
</svg>
