<?xml version="1.0" standalone="no"?>
<!DOCTYPE svg PUBLIC "-//W3C//DTD SVG 20010904//EN"
 "http://www.w3.org/TR/2001/REC-SVG-20010904/DTD/svg10.dtd">
<svg version="1.0" xmlns="http://www.w3.org/2000/svg"
 width="800.000000pt" height="1200.000000pt" viewBox="0 0 800.000000 1200.000000"
 preserveAspectRatio="xMidYMid meet">
<metadata>
Created by potrace 1.15, written by Peter Selinger 2001-2017
</metadata>
<g transform="translate(0.000000,1200.000000) scale(0.100000,-0.100000)"
fill="#000000" stroke="none">
<path d="M1368 11113 l-228 -3 0 -40 c0 -31 4 -40 18 -41 30 -2 -30 -17 -71
-18 -23 -1 -40 -7 -43 -16 -5 -12 -32 -15 -160 -15 l-154 0 0 -85 0 -85 294 0
c227 0 295 -3 298 -12 4 -10 239 -14 1121 -16 678 -2 1117 -7 1117 -13 0 -5
-199 -9 -498 -9 -274 0 -911 -3 -1416 -7 l-917 -6 3 -36 c3 -35 4 -36 53 -42
53 -5 45 -16 -15 -21 -34 -3 -35 -5 -35 -43 l0 -40 127 -5 c70 -3 130 -9 134
-13 4 -4 -7 -7 -24 -7 -18 0 -32 -4 -32 -10 0 -5 -45 -11 -102 -12 l-103 -3
-3 -102 -3 -103 741 0 740 0 0 65 0 65 1270 0 1270 0 0 220 0 220 -675 0
c-668 0 -675 0 -675 20 0 20 7 20 675 20 l675 0 0 100 0 100 -1577 -2 c-868
-2 -1680 -4 -1805 -5z"/>
<path d="M1047 10273 c-14 -13 -7 -74 9 -80 13 -5 12 -8 -5 -24 -18 -17 -37
-19 -171 -19 l-150 0 0 -160 0 -160 124 0 c140 0 136 -2 136 81 l0 49 1880 0
1880 0 0 160 0 160 -1848 0 c-1017 0 -1852 -3 -1855 -7z"/>
<path d="M2245 9320 l-1110 -5 -3 -47 -3 -48 -39 0 c-21 0 -42 -4 -45 -10 -4
-6 -68 -10 -161 -10 l-154 0 2 -337 3 -338 48 -3 c56 -4 54 -22 -4 -22 l-39 0
0 -170 0 -170 546 0 546 0 -4 60 -3 60 1460 2 1460 3 0 160 0 160 -112 3 c-91
2 -113 5 -113 17 0 12 21 15 115 15 l115 0 0 345 0 345 -697 -2 c-384 -2
-1197 -5 -1808 -8z"/>
<path d="M1588 7843 l-418 -3 0 -95 0 -95 619 0 619 0 6 23 c8 29 8 141 0 161
-5 14 -32 16 -208 14 -110 -2 -389 -4 -618 -5z"/>
<path d="M1171 7425 l0 -95 54 0 c54 0 55 0 55 -30 0 -30 -1 -30 -55 -30 l-55
0 0 -44 c0 -66 10 -106 28 -106 12 0 10 -5 -7 -24 -16 -17 -22 -33 -19 -57 l3
-34 795 0 795 0 0 95 0 95 -222 3 -223 2 0 80 0 80 -155 0 -155 0 0 80 0 80
-419 0 -420 0 0 -95z"/>
</g>
</svg>
