<?xml version="1.0" standalone="no"?>
<!DOCTYPE svg PUBLIC "-//W3C//DTD SVG 20010904//EN"
 "http://www.w3.org/TR/2001/REC-SVG-20010904/DTD/svg10.dtd">
<svg version="1.0" xmlns="http://www.w3.org/2000/svg"
 width="800.000000pt" height="1200.000000pt" viewBox="0 0 800.000000 1200.000000"
 preserveAspectRatio="xMidYMid meet">
<metadata>
Created by potrace 1.15, written by Peter Selinger 2001-2017
</metadata>
<g transform="translate(0.000000,1200.000000) scale(0.100000,-0.100000)"
fill="#000000" stroke="none">
<path d="M1883 11243 l-1113 -3 0 -40 c0 -35 3 -40 23 -41 17 -1 14 -4 -15
-16 l-38 -16 0 -103 0 -104 47 0 c54 0 48 -17 -7 -22 -33 -3 -35 -5 -38 -44
l-3 -42 116 -7 c144 -9 141 -25 -7 -34 l-103 -6 -3 -223 -2 -222 1587 2 1588
3 3 63 3 62 414 0 415 0 0 281 0 282 -1710 -5 c-1650 -4 -1710 -4 -1710 14 0
17 63 18 1708 20 l1707 3 3 103 3 102 -878 -2 c-483 -2 -1379 -4 -1990 -5z"/>
<path d="M1913 10043 l-863 -3 0 -35 0 -35 83 -2 c45 -1 65 -3 44 -5 -20 -2
-37 -8 -37 -14 0 -5 -20 -9 -45 -9 -25 0 -45 -4 -45 -10 0 -6 -58 -10 -155
-10 l-155 0 0 -95 0 -95 89 0 c50 0 93 -4 96 -10 3 -6 -5 -10 -19 -10 -14 0
-28 -4 -31 -10 -3 -5 -35 -10 -71 -10 l-64 0 0 -165 0 -165 710 0 710 0 0 60
0 60 1293 2 1292 3 3 283 2 282 -987 -2 c-544 -2 -1376 -4 -1850 -5z"/>
</g>
</svg>
