<?xml version="1.0" standalone="no"?>
<!DOCTYPE svg PUBLIC "-//W3C//DTD SVG 20010904//EN"
 "http://www.w3.org/TR/2001/REC-SVG-20010904/DTD/svg10.dtd">
<svg version="1.0" xmlns="http://www.w3.org/2000/svg"
 width="800.000000pt" height="1200.000000pt" viewBox="0 0 800.000000 1200.000000"
 preserveAspectRatio="xMidYMid meet">
<metadata>
Created by potrace 1.15, written by Peter Selinger 2001-2017
</metadata>
<g transform="translate(0.000000,1200.000000) scale(0.100000,-0.100000)"
fill="#000000" stroke="none">
<path d="M1110 11205 c0 -18 -5 -25 -20 -25 -13 0 -20 -7 -20 -20 0 -11 -7
-20 -16 -20 -12 0 -14 -9 -12 -42 3 -40 5 -43 36 -46 17 -2 32 -7 32 -13 0 -5
77 -9 185 -9 l186 0 -3 98 -3 97 -182 3 -183 2 0 -25z"/>
</g>
</svg>
