<?xml version="1.0" standalone="no"?>
<!DOCTYPE svg PUBLIC "-//W3C//DTD SVG 20010904//EN"
 "http://www.w3.org/TR/2001/REC-SVG-20010904/DTD/svg10.dtd">
<svg version="1.0" xmlns="http://www.w3.org/2000/svg"
 width="800.000000pt" height="1200.000000pt" viewBox="0 0 800.000000 1200.000000"
 preserveAspectRatio="xMidYMid meet">
<metadata>
Created by potrace 1.15, written by Peter Selinger 2001-2017
</metadata>
<g transform="translate(0.000000,1200.000000) scale(0.100000,-0.100000)"
fill="#000000" stroke="none">
<path d="M1265 7030 c-5 -16 -15 -20 -46 -20 -32 0 -39 -3 -39 -20 0 -11 -4
-20 -10 -20 -5 0 -10 -18 -10 -40 l0 -40 49 0 c28 0 53 -4 56 -10 4 -6 152
-10 411 -10 l404 0 0 90 0 90 -404 0 c-396 0 -405 0 -411 -20z"/>
<path d="M2754 6885 c-5 -11 -21 -15 -60 -15 -51 0 -54 -2 -54 -25 0 -23 -4
-24 -62 -27 l-63 -3 0 -40 0 -40 78 -3 c42 -2 77 -7 77 -12 0 -6 163 -10 430
-10 l431 0 -3 93 -3 92 -383 3 c-334 2 -383 0 -388 -13z"/>
</g>
</svg>
