<?xml version="1.0" standalone="no"?>
<!DOCTYPE svg PUBLIC "-//W3C//DTD SVG 20010904//EN"
 "http://www.w3.org/TR/2001/REC-SVG-20010904/DTD/svg10.dtd">
<svg version="1.0" xmlns="http://www.w3.org/2000/svg"
 width="800.000000pt" height="1200.000000pt" viewBox="0 0 800.000000 1200.000000"
 preserveAspectRatio="xMidYMid meet">
<metadata>
Created by potrace 1.15, written by Peter Selinger 2001-2017
</metadata>
<g transform="translate(0.000000,1200.000000) scale(0.100000,-0.100000)"
fill="#000000" stroke="none">
<path d="M2740 9651 l0 -39 -47 -6 c-27 -3 -113 -9 -193 -12 -108 -5 -147 -10
-153 -20 -7 -12 -119 -14 -695 -14 -378 0 -738 -3 -799 -7 l-113 -6 0 -94 0
-93 890 0 890 0 0 60 0 60 1115 0 1115 0 0 105 0 105 -1005 0 -1005 0 0 -39z"/>
<path d="M4350 7155 c0 -12 -16 -15 -85 -15 -50 0 -85 -4 -85 -10 0 -6 -42
-10 -105 -10 -98 0 -105 -1 -105 -20 0 -19 -7 -20 -95 -20 -78 0 -95 -3 -95
-15 0 -13 -154 -15 -1325 -15 -877 0 -1325 -3 -1325 -10 0 -6 -52 -10 -135
-10 l-135 0 0 -33 c0 -32 -2 -33 -58 -47 l-57 -15 0 -40 0 -40 1618 -3 1617
-2 0 55 0 55 385 0 385 0 0 105 0 105 -200 0 c-171 0 -200 -2 -200 -15z"/>
</g>
</svg>
