<?xml version="1.0" standalone="no"?>
<!DOCTYPE svg PUBLIC "-//W3C//DTD SVG 20010904//EN"
 "http://www.w3.org/TR/2001/REC-SVG-20010904/DTD/svg10.dtd">
<svg version="1.0" xmlns="http://www.w3.org/2000/svg"
 width="800.000000pt" height="1200.000000pt" viewBox="0 0 800.000000 1200.000000"
 preserveAspectRatio="xMidYMid meet">
<metadata>
Created by potrace 1.15, written by Peter Selinger 2001-2017
</metadata>
<g transform="translate(0.000000,1200.000000) scale(0.100000,-0.100000)"
fill="#000000" stroke="none">
<path d="M1057 9423 c-4 -3 -7 -21 -7 -40 0 -29 3 -33 26 -33 23 0 24 -2 10
-15 -8 -8 -19 -15 -25 -15 -6 0 -11 -7 -11 -15 0 -12 -26 -15 -152 -17 l-153
-3 0 -85 0 -85 1357 -3 1358 -2 0 60 0 60 645 0 645 0 0 100 0 100 -1843 0
c-1014 0 -1847 -3 -1850 -7z"/>
<path d="M2900 8710 c-855 -4 -1619 -8 -1697 -9 l-143 -1 0 -35 c0 -26 4 -35
17 -35 14 0 14 -3 -5 -20 -19 -18 -35 -20 -171 -20 -126 0 -150 -2 -155 -16
-9 -22 -7 -157 2 -171 5 -7 49 -15 114 -19 90 -6 104 -9 93 -20 -10 -10 -42
-14 -109 -14 -112 0 -109 3 -104 -120 l3 -75 2000 0 2000 0 0 280 0 280 -145
1 c-80 0 -845 -3 -1700 -6z"/>
<path d="M1237 7863 c-4 -3 -7 -21 -7 -40 0 -27 4 -33 23 -34 19 -1 19 -2 3
-6 -32 -8 -46 -29 -46 -67 l0 -36 700 0 700 0 0 95 0 95 -683 0 c-376 0 -687
-3 -690 -7z"/>
<path d="M4546 7705 c-12 -9 -42 -15 -77 -15 -32 0 -61 -4 -64 -10 -3 -5 -28
-10 -56 -10 -42 0 -49 -3 -49 -20 0 -18 -7 -20 -70 -20 -56 0 -70 -3 -70 -15
0 -13 -44 -15 -340 -15 l-340 0 0 -40 0 -40 635 0 636 0 -3 98 -3 97 -90 2
c-67 2 -95 -1 -109 -12z"/>
<path d="M781 7591 c-10 -6 -12 -21 -8 -49 4 -30 1 -42 -10 -46 -10 -4 -13
-18 -11 -48 l3 -43 570 0 570 0 0 95 0 95 -550 2 c-308 2 -556 -1 -564 -6z"/>
<path d="M2207 7433 c-4 -3 -7 -21 -7 -39 l0 -33 -87 -3 -88 -3 -3 -42 -3 -43
90 0 c55 0 91 -4 91 -10 0 -7 241 -9 718 -8 l717 3 3 93 3 92 -714 0 c-392 0
-717 -3 -720 -7z"/>
<path d="M4070 6646 c0 -34 1 -35 43 -39 23 -2 -74 -4 -215 -5 l-258 -2 0 -40
0 -40 85 0 c69 0 85 -3 85 -15 0 -13 59 -15 470 -15 l470 0 0 95 0 95 -340 0
-340 0 0 -34z"/>
<path d="M757 6563 c-4 -3 -7 -46 -7 -95 l0 -88 439 0 c391 0 440 2 445 16 8
20 8 122 0 152 l-6 22 -432 0 c-238 0 -436 -3 -439 -7z"/>
<path d="M2120 6370 l0 -40 -50 0 -50 0 0 -40 0 -40 -390 0 -390 0 0 -44 c0
-28 -6 -48 -16 -57 -13 -11 -15 -26 -10 -78 3 -36 11 -68 18 -72 9 -6 8 -10
-5 -15 -12 -4 -17 -18 -17 -50 l0 -44 703 2 702 3 3 83 3 82 59 0 60 0 0 80 0
80 393 2 392 3 0 90 0 90 -702 3 -703 2 0 -40z"/>
</g>
</svg>
