<?xml version="1.0" standalone="no"?>
<!DOCTYPE svg PUBLIC "-//W3C//DTD SVG 20010904//EN"
 "http://www.w3.org/TR/2001/REC-SVG-20010904/DTD/svg10.dtd">
<svg version="1.0" xmlns="http://www.w3.org/2000/svg"
 width="800.000000pt" height="1200.000000pt" viewBox="0 0 800.000000 1200.000000"
 preserveAspectRatio="xMidYMid meet">
<metadata>
Created by potrace 1.15, written by Peter Selinger 2001-2017
</metadata>
<g transform="translate(0.000000,1200.000000) scale(0.100000,-0.100000)"
fill="#000000" stroke="none">
<path d="M2550 11076 c0 -39 -14 -46 -101 -46 -88 0 -149 -11 -149 -26 0 -12
-101 -14 -606 -14 l-606 0 4 -39 c3 -38 2 -40 -29 -46 -31 -5 -33 -9 -33 -45
0 -37 2 -40 29 -40 20 0 30 -6 34 -20 5 -20 12 -20 1749 -18 l1743 3 3 103 3
102 -481 0 -480 0 0 60 0 60 -540 0 -540 0 0 -34z"/>
</g>
</svg>
