<?xml version="1.0" standalone="no"?>
<!DOCTYPE svg PUBLIC "-//W3C//DTD SVG 20010904//EN"
 "http://www.w3.org/TR/2001/REC-SVG-20010904/DTD/svg10.dtd">
<svg version="1.0" xmlns="http://www.w3.org/2000/svg"
 width="800.000000pt" height="1200.000000pt" viewBox="0 0 800.000000 1200.000000"
 preserveAspectRatio="xMidYMid meet">
<metadata>
Created by potrace 1.15, written by Peter Selinger 2001-2017
</metadata>
<g transform="translate(0.000000,1200.000000) scale(0.100000,-0.100000)"
fill="#000000" stroke="none">
<path d="M1883 11243 l-1113 -3 0 -40 c0 -35 3 -40 23 -41 17 -1 14 -4 -15
-16 l-38 -16 0 -103 0 -104 47 0 c54 0 48 -17 -7 -22 -33 -3 -35 -5 -38 -44
l-3 -42 116 -7 c144 -9 141 -25 -7 -34 l-103 -6 -3 -223 -2 -222 1587 2 1588
3 3 63 3 62 414 0 415 0 0 281 0 282 -1710 -5 c-1650 -4 -1710 -4 -1710 14 0
17 63 18 1708 20 l1707 3 3 103 3 102 -878 -2 c-483 -2 -1379 -4 -1990 -5z"/>
<path d="M1913 10043 l-863 -3 0 -35 0 -35 83 -2 c45 -1 65 -3 44 -5 -20 -2
-37 -8 -37 -14 0 -5 -20 -9 -45 -9 -25 0 -45 -4 -45 -10 0 -6 -58 -10 -155
-10 l-155 0 0 -95 0 -95 89 0 c50 0 93 -4 96 -10 3 -6 -5 -10 -19 -10 -14 0
-28 -4 -31 -10 -3 -5 -35 -10 -71 -10 l-64 0 0 -165 0 -165 710 0 710 0 0 60
0 60 1293 2 1292 3 3 283 2 282 -987 -2 c-544 -2 -1376 -4 -1850 -5z"/>
<path d="M1527 9323 l-478 -3 3 -38 c3 -37 3 -37 51 -40 63 -4 61 -22 -3 -22
-27 0 -50 -4 -50 -10 0 -6 -58 -10 -155 -10 l-155 0 0 -395 0 -395 115 0 c70
0 115 -4 115 -10 0 -5 -17 -10 -38 -10 -21 0 -42 -4 -47 -9 -6 -6 -39 -11 -75
-13 l-65 -3 0 -160 0 -160 543 -3 542 -2 0 65 0 65 1460 0 1460 0 -2 578 -3
577 -1370 0 c-753 0 -1585 -1 -1848 -2z"/>
<path d="M1948 8013 l-898 -3 0 -40 0 -40 108 -1 107 -2 -70 -8 c-38 -4 -90
-12 -115 -18 -25 -6 -109 -10 -187 -11 -166 0 -156 8 -151 -120 l3 -75 2003
-3 2002 -2 -2 162 -3 163 -950 0 c-522 0 -1354 -1 -1847 -2z"/>
<path d="M1463 7353 l-203 -3 0 -39 c0 -41 -13 -51 -67 -51 -12 0 -26 -7 -30
-15 -7 -12 -45 -15 -213 -17 l-205 -3 0 -80 0 -80 203 -3 202 -2 0 -30 0 -29
-157 -4 c-87 -3 -180 -9 -208 -13 l-50 -9 0 -210 0 -210 2005 0 2005 0 3 268
2 267 -600 0 -600 0 0 40 0 40 600 0 600 0 0 95 0 95 -1542 -2 c-849 -2 -1634
-4 -1745 -5z"/>
</g>
</svg>
