<?xml version="1.0" standalone="no"?>
<!DOCTYPE svg PUBLIC "-//W3C//DTD SVG 20010904//EN"
 "http://www.w3.org/TR/2001/REC-SVG-20010904/DTD/svg10.dtd">
<svg version="1.0" xmlns="http://www.w3.org/2000/svg"
 width="800.000000pt" height="1200.000000pt" viewBox="0 0 800.000000 1200.000000"
 preserveAspectRatio="xMidYMid meet">
<metadata>
Created by potrace 1.15, written by Peter Selinger 2001-2017
</metadata>
<g transform="translate(0.000000,1200.000000) scale(0.100000,-0.100000)"
fill="#000000" stroke="none">
<path d="M2675 11119 c-572 -3 -1244 -7 -1493 -8 l-453 -1 3 -37 3 -38 110 -5
110 -5 -104 -8 c-57 -4 -107 -10 -112 -13 -5 -3 -9 -25 -9 -50 l0 -44 55 0
c42 0 55 -3 55 -15 0 -12 -13 -15 -55 -15 l-55 0 0 -40 0 -40 48 -1 c26 -1 39
-3 30 -6 -10 -2 -18 -8 -18 -13 0 -5 -12 -10 -27 -12 l-28 -3 -3 -103 -3 -102
1798 2 1798 3 3 58 3 57 210 0 209 0 -2 223 -3 222 -515 1 c-283 0 -983 -3
-1555 -7z"/>
<path d="M1798 10283 l-968 -3 0 -38 c0 -45 -26 -72 -70 -72 l-30 0 7 -165 6
-165 -56 0 -57 0 0 -40 0 -40 98 -2 c53 0 81 -3 62 -5 -19 -1 -68 -8 -108 -14
l-72 -12 2 -861 3 -861 2068 -3 2067 -2 0 925 0 926 -1415 -7 -1415 -7 0 61 0
62 1415 0 1415 0 0 165 0 165 -992 -2 c-546 -2 -1428 -4 -1960 -5z"/>
<path d="M1448 7193 l-698 -3 0 -40 0 -40 51 0 c31 0 48 -4 44 -10 -3 -5 -26
-10 -50 -10 -54 0 -57 -8 -53 -130 l3 -85 698 -3 697 -2 0 65 0 65 1305 0
1305 0 0 100 0 100 -1302 -2 c-717 -2 -1617 -4 -2000 -5z"/>
</g>
</svg>
