<?xml version="1.0" standalone="no"?>
<!DOCTYPE svg PUBLIC "-//W3C//DTD SVG 20010904//EN"
 "http://www.w3.org/TR/2001/REC-SVG-20010904/DTD/svg10.dtd">
<svg version="1.0" xmlns="http://www.w3.org/2000/svg"
 width="800.000000pt" height="1200.000000pt" viewBox="0 0 800.000000 1200.000000"
 preserveAspectRatio="xMidYMid meet">
<metadata>
Created by potrace 1.15, written by Peter Selinger 2001-2017
</metadata>
<g transform="translate(0.000000,1200.000000) scale(0.100000,-0.100000)"
fill="#000000" stroke="none">
<path d="M2760 9331 c-26 -4 -36 -12 -38 -28 -3 -21 -8 -23 -74 -23 -61 0 -70
-2 -75 -20 -5 -18 -14 -20 -84 -20 -59 0 -79 -3 -79 -13 0 -15 -553 -27 -1277
-27 l-393 0 0 -155 0 -155 244 0 c153 0 247 -4 251 -10 4 -6 142 -10 381 -10
l374 0 0 -39 0 -40 138 -6 c363 -15 555 -16 564 -3 4 7 8 34 8 60 l0 48 1023
2 1022 3 3 223 2 222 -977 -1 c-538 -1 -994 -4 -1013 -8z"/>
</g>
</svg>
