<?xml version="1.0" standalone="no"?>
<!DOCTYPE svg PUBLIC "-//W3C//DTD SVG 20010904//EN"
 "http://www.w3.org/TR/2001/REC-SVG-20010904/DTD/svg10.dtd">
<svg version="1.0" xmlns="http://www.w3.org/2000/svg"
 width="800.000000pt" height="1200.000000pt" viewBox="0 0 800.000000 1200.000000"
 preserveAspectRatio="xMidYMid meet">
<metadata>
Created by potrace 1.15, written by Peter Selinger 2001-2017
</metadata>
<g transform="translate(0.000000,1200.000000) scale(0.100000,-0.100000)"
fill="#000000" stroke="none">
<path d="M4506 7940 c-35 -18 -61 -20 -223 -20 l-183 0 0 -35 0 -35 -440 0
-440 0 0 -40 0 -40 765 0 765 0 0 95 0 95 -102 0 c-82 -1 -111 -5 -142 -20z"/>
<path d="M810 7800 c0 -29 -4 -40 -15 -40 -30 0 -57 -36 -53 -71 l3 -34 663
-3 662 -2 0 95 0 95 -630 0 -630 0 0 -40z"/>
</g>
</svg>
