<?xml version="1.0" standalone="no"?>
<!DOCTYPE svg PUBLIC "-//W3C//DTD SVG 20010904//EN"
 "http://www.w3.org/TR/2001/REC-SVG-20010904/DTD/svg10.dtd">
<svg version="1.0" xmlns="http://www.w3.org/2000/svg"
 width="800.000000pt" height="1200.000000pt" viewBox="0 0 800.000000 1200.000000"
 preserveAspectRatio="xMidYMid meet">
<metadata>
Created by potrace 1.15, written by Peter Selinger 2001-2017
</metadata>
<g transform="translate(0.000000,1200.000000) scale(0.100000,-0.100000)"
fill="#000000" stroke="none">
<path d="M3850 11101 c0 -15 -10 -20 -50 -25 -34 -5 -50 -11 -50 -21 0 -12
-23 -15 -135 -15 -106 0 -136 -3 -142 -14 -7 -13 -128 -16 -811 -22 l-802 -7
0 -39 c0 -36 2 -38 33 -40 17 -1 -17 -4 -76 -7 -69 -4 -110 -10 -115 -18 -6
-10 -119 -13 -488 -15 l-479 -3 -3 -42 -3 -43 55 0 c71 0 73 -18 4 -22 l-53
-3 -3 -107 -3 -108 484 0 c266 0 505 -3 530 -6 43 -6 46 -9 49 -38 3 -30 5
-31 57 -34 30 -2 60 -10 68 -18 12 -12 131 -14 819 -14 l804 0 0 60 0 60 603
2 602 3 3 223 2 222 -179 0 -180 0 -3 53 -3 52 -267 3 c-257 2 -268 2 -268
-17z"/>
<path d="M732 10473 l3 -38 278 -3 277 -2 0 40 0 40 -281 0 -280 0 3 -37z"/>
</g>
</svg>
