<?xml version="1.0" standalone="no"?>
<!DOCTYPE svg PUBLIC "-//W3C//DTD SVG 20010904//EN"
 "http://www.w3.org/TR/2001/REC-SVG-20010904/DTD/svg10.dtd">
<svg version="1.0" xmlns="http://www.w3.org/2000/svg"
 width="800.000000pt" height="1200.000000pt" viewBox="0 0 800.000000 1200.000000"
 preserveAspectRatio="xMidYMid meet">
<metadata>
Created by potrace 1.15, written by Peter Selinger 2001-2017
</metadata>
<g transform="translate(0.000000,1200.000000) scale(0.100000,-0.100000)"
fill="#000000" stroke="none">
<path d="M1983 9923 l-733 -3 0 -34 c0 -19 5 -38 10 -41 6 -3 10 -10 10 -14 0
-11 -272 -31 -417 -31 l-123 0 0 -34 c0 -30 4 -35 27 -39 l28 -4 -27 -2 -28
-1 0 -115 0 -115 78 0 c42 0 84 -5 92 -10 11 -7 5 -10 -23 -10 -30 0 -40 -4
-44 -19 -4 -16 -15 -21 -52 -23 l-46 -3 0 -90 0 -90 1005 0 1005 0 3 58 3 57
999 0 1000 0 0 285 0 285 -1017 -2 c-560 -2 -1348 -4 -1750 -5z"/>
<path d="M2818 9203 l-228 -3 0 -34 c0 -33 -1 -33 -52 -40 -29 -3 -95 -6 -146
-6 -73 0 -94 -3 -98 -15 -5 -13 -48 -15 -298 -15 -160 0 -510 -3 -778 -7
l-488 -6 0 -99 0 -98 75 0 c59 0 75 -3 75 -15 0 -11 -17 -15 -72 -17 l-73 -3
-3 -37 -3 -38 58 -2 c35 -1 45 -3 26 -5 -18 -2 -33 -8 -33 -14 0 -5 -9 -9 -20
-9 -17 0 -20 -7 -20 -50 l0 -50 60 0 c47 0 60 -3 60 -15 0 -12 -13 -15 -60
-15 l-60 0 0 -100 0 -100 1905 0 1905 0 0 55 0 54 98 3 97 3 3 343 2 342 -852
-2 c-469 -2 -955 -4 -1080 -5z"/>
<path d="M1073 8243 l-223 -3 0 -36 c0 -19 -6 -36 -12 -38 -101 -28 -98 -26
-98 -73 l0 -43 2005 0 2005 0 0 100 0 100 -1727 -2 c-951 -2 -1828 -4 -1950
-5z"/>
<path d="M2128 6483 l-998 -3 0 -40 c0 -40 0 -40 40 -40 22 0 40 -4 40 -9 0
-12 -106 -21 -265 -21 -78 0 -157 -3 -174 -6 l-31 -6 0 -89 0 -89 175 0 175 0
0 55 0 55 1830 0 1830 0 0 100 0 100 -812 -2 c-447 -2 -1262 -4 -1810 -5z"/>
</g>
</svg>
