<?xml version="1.0" standalone="no"?>
<!DOCTYPE svg PUBLIC "-//W3C//DTD SVG 20010904//EN"
 "http://www.w3.org/TR/2001/REC-SVG-20010904/DTD/svg10.dtd">
<svg version="1.0" xmlns="http://www.w3.org/2000/svg"
 width="800.000000pt" height="1200.000000pt" viewBox="0 0 800.000000 1200.000000"
 preserveAspectRatio="xMidYMid meet">
<metadata>
Created by potrace 1.15, written by Peter Selinger 2001-2017
</metadata>
<g transform="translate(0.000000,1200.000000) scale(0.100000,-0.100000)"
fill="#000000" stroke="none">
<path d="M4070 10490 l-255 -5 -3 -27 c-3 -26 -6 -28 -53 -28 -37 0 -49 -4
-49 -15 0 -12 -18 -15 -101 -15 l-100 0 3 -42 3 -43 135 -7 c74 -3 150 -11
170 -18 24 -7 137 -10 355 -8 l320 3 3 108 3 107 -88 -2 c-48 -1 -203 -5 -343
-8z"/>
<path d="M1530 9760 c0 -38 2 -40 31 -40 44 0 27 -17 -26 -24 l-45 -7 0 -45 0
-44 675 0 674 0 6 33 c3 17 5 61 3 97 l-3 65 -657 3 -658 2 0 -40z"/>
<path d="M2620 9580 c-767 -4 -1414 -8 -1437 -9 -43 -1 -43 -1 -43 -39 0 -32
-5 -41 -25 -50 -14 -7 -39 -12 -55 -12 -16 0 -32 -4 -35 -10 -3 -5 -17 -10
-30 -10 -21 0 -24 -5 -27 -42 -3 -39 -6 -43 -32 -46 -40 -5 -58 -26 -54 -64 3
-32 5 -33 51 -36 57 -4 63 -22 8 -22 -22 0 -43 -4 -46 -10 -3 -5 -44 -10 -91
-10 l-84 0 0 -165 0 -165 410 0 410 0 0 70 0 70 1588 2 1587 3 0 275 0 275
-350 1 c-192 0 -978 -3 -1745 -6z"/>
<path d="M2135 8879 c-401 -3 -794 -7 -872 -8 l-143 -1 0 -35 c0 -34 1 -35 43
-36 36 -2 34 -3 -23 -11 -36 -5 -79 -13 -96 -18 -17 -6 -96 -10 -177 -10
l-147 0 0 -100 0 -99 102 -3 c89 -3 103 -5 106 -20 3 -16 -7 -18 -102 -18
l-106 0 0 -45 0 -45 160 0 c100 0 160 4 160 10 0 7 620 10 1840 10 l1840 0 -2
218 -3 217 -925 1 c-509 0 -1253 -3 -1655 -7z"/>
<path d="M2728 8093 c-46 -3 -68 -8 -68 -16 0 -7 -6 -25 -12 -40 -13 -26 -15
-26 -118 -29 l-105 -3 -3 -41 -3 -41 152 -6 c84 -4 363 -7 621 -7 l469 0 -3
93 -3 92 -430 1 c-236 0 -460 -1 -497 -3z"/>
<path d="M1097 7753 c-4 -3 -7 -21 -7 -39 0 -30 -3 -34 -36 -40 -33 -6 -35 -8
-32 -43 3 -33 6 -36 36 -39 17 -2 32 -7 32 -13 0 -5 164 -9 415 -9 l416 0 -3
93 -3 92 -406 3 c-223 1 -408 -1 -412 -5z"/>
<path d="M3245 6630 c-379 -4 -979 -8 -1332 -9 l-643 -1 0 -39 c0 -25 -5 -41
-15 -45 -8 -3 -15 -15 -15 -26 0 -20 -5 -20 -254 -20 -292 0 -271 8 -259 -102
l6 -58 678 0 679 0 0 60 0 60 1320 0 1321 0 -3 93 -3 92 -395 1 c-217 0 -705
-3 -1085 -6z"/>
</g>
</svg>
