<?xml version="1.0" standalone="no"?>
<!DOCTYPE svg PUBLIC "-//W3C//DTD SVG 20010904//EN"
 "http://www.w3.org/TR/2001/REC-SVG-20010904/DTD/svg10.dtd">
<svg version="1.0" xmlns="http://www.w3.org/2000/svg"
 width="800.000000pt" height="1200.000000pt" viewBox="0 0 800.000000 1200.000000"
 preserveAspectRatio="xMidYMid meet">
<metadata>
Created by potrace 1.15, written by Peter Selinger 2001-2017
</metadata>
<g transform="translate(0.000000,1200.000000) scale(0.100000,-0.100000)"
fill="#000000" stroke="none">
<path d="M3405 11219 c-445 -3 -1147 -7 -1560 -8 -412 0 -814 -4 -892 -8
l-143 -6 0 -38 c0 -42 4 -44 105 -52 22 -2 -11 -4 -72 -5 l-113 -2 0 -160 c0
-154 1 -161 21 -168 19 -7 19 -9 5 -21 -13 -11 -16 -34 -16 -112 l0 -99 1830
0 1830 0 0 60 0 60 175 0 175 0 0 105 0 105 -60 0 c-46 0 -60 3 -60 15 0 10
15 15 58 17 l57 3 3 163 2 162 -267 -2 c-148 -1 -632 -5 -1078 -9z"/>
<path d="M3050 10379 c-410 -3 -1027 -7 -1372 -8 l-628 -1 0 -39 c0 -22 5 -41
13 -44 8 -3 6 -10 -8 -21 -16 -12 -48 -15 -167 -16 l-148 0 0 -95 0 -95 1948
2 1947 3 3 58 3 57 54 0 55 0 0 105 0 105 -477 -2 c-263 -1 -813 -5 -1223 -9z"/>
<path d="M2295 9899 c-418 -3 -869 -7 -1002 -8 l-243 -1 0 -35 c0 -34 2 -35
38 -36 26 -1 30 -3 13 -6 -13 -3 -31 -11 -38 -19 -11 -11 -49 -14 -169 -14
l-154 0 0 -165 0 -165 275 0 275 0 0 65 0 65 1728 2 1727 3 3 163 2 162 -847
-2 c-467 -1 -1190 -5 -1608 -9z"/>
<path d="M4410 8317 l0 -44 -152 -6 c-83 -4 -195 -7 -249 -7 -76 0 -100 -3
-106 -15 -7 -12 -213 -15 -1575 -21 l-1566 -7 -12 -21 c-6 -12 -10 -52 -8 -91
l3 -70 2002 -3 2002 -2 -2 162 -2 163 -167 3 -168 2 0 -43z"/>
<path d="M1210 7770 c0 -38 1 -40 33 -41 l32 -1 -32 -9 -33 -10 0 -69 0 -70
38 -1 c27 -1 30 -3 12 -6 -43 -8 -50 -21 -50 -94 0 -59 3 -69 18 -69 16 -1 16
-1 0 -14 -12 -9 -18 -27 -18 -55 l0 -41 548 2 547 3 3 163 2 162 215 0 215 0
0 95 0 95 -765 0 -765 0 0 -40z"/>
<path d="M1403 7163 l-193 -3 0 -39 c0 -22 6 -42 13 -45 10 -5 10 -7 0 -12 -7
-3 -13 -23 -13 -45 l0 -39 458 -2 457 -3 3 -27 c3 -27 2 -28 -47 -28 l-51 0 0
-40 0 -40 -410 0 -410 0 0 -44 c0 -26 5 -47 13 -50 10 -5 10 -7 0 -12 -7 -3
-13 -23 -13 -45 l0 -39 703 2 702 3 3 78 3 77 454 0 455 0 0 100 0 100 -455 0
-454 0 -3 78 -3 77 -510 0 c-280 0 -597 -1 -702 -2z"/>
<path d="M3473 6683 l-403 -3 0 -34 c0 -24 5 -36 18 -39 9 -3 -25 -5 -75 -6
l-93 -1 0 -40 0 -40 -355 0 -355 0 0 -39 c0 -46 -9 -51 -91 -51 l-59 0 0 -33
0 -34 -112 -6 c-62 -4 -251 -7 -420 -7 l-308 0 0 -39 c0 -29 5 -41 18 -44 14
-4 13 -6 -6 -12 -20 -7 -23 -13 -20 -49 l3 -41 760 0 760 0 3 82 3 83 532 2
532 3 3 77 3 78 467 2 467 3 3 98 3 97 -438 -2 c-241 -2 -619 -4 -840 -5z"/>
<path d="M1483 6083 l-263 -3 0 -40 0 -40 43 -1 42 0 -50 -14 c-35 -10 -115
-14 -272 -15 l-223 0 0 -90 0 -90 1854 0 c1681 0 1854 1 1860 16 3 9 6 33 6
55 l0 38 133 3 132 3 3 93 3 92 -1503 -2 c-827 -2 -1621 -4 -1765 -5z"/>
</g>
</svg>
