<?xml version="1.0" standalone="no"?>
<!DOCTYPE svg PUBLIC "-//W3C//DTD SVG 20010904//EN"
 "http://www.w3.org/TR/2001/REC-SVG-20010904/DTD/svg10.dtd">
<svg version="1.0" xmlns="http://www.w3.org/2000/svg"
 width="800.000000pt" height="1200.000000pt" viewBox="0 0 800.000000 1200.000000"
 preserveAspectRatio="xMidYMid meet">
<metadata>
Created by potrace 1.15, written by Peter Selinger 2001-2017
</metadata>
<g transform="translate(0.000000,1200.000000) scale(0.100000,-0.100000)"
fill="#000000" stroke="none">
<path d="M3463 10373 l-263 -3 0 -35 c0 -19 -1 -36 -2 -36 -2 -1 -64 -4 -138
-8 l-135 -6 0 -45 0 -45 95 -3 c52 -2 99 -7 104 -12 6 -6 316 -10 818 -10
l808 0 0 105 0 105 -512 -2 c-282 -2 -631 -4 -775 -5z"/>
<path d="M2240 10205 l0 -35 320 0 320 0 0 35 0 35 -320 0 -320 0 0 -35z"/>
</g>
</svg>
