<?xml version="1.0" standalone="no"?>
<!DOCTYPE svg PUBLIC "-//W3C//DTD SVG 20010904//EN"
 "http://www.w3.org/TR/2001/REC-SVG-20010904/DTD/svg10.dtd">
<svg version="1.0" xmlns="http://www.w3.org/2000/svg"
 width="800.000000pt" height="1200.000000pt" viewBox="0 0 800.000000 1200.000000"
 preserveAspectRatio="xMidYMid meet">
<metadata>
Created by potrace 1.15, written by Peter Selinger 2001-2017
</metadata>
<g transform="translate(0.000000,1200.000000) scale(0.100000,-0.100000)"
fill="#000000" stroke="none">
<path d="M1110 11205 c0 -18 -5 -25 -20 -25 -13 0 -20 -7 -20 -20 0 -11 -7
-20 -16 -20 -12 0 -14 -9 -12 -42 3 -40 5 -43 36 -46 17 -2 32 -7 32 -13 0 -5
77 -9 185 -9 l186 0 -3 98 -3 97 -182 3 -183 2 0 -25z"/>
<path d="M2227 7883 l-519 -3 4 -45 c3 -43 2 -45 -24 -45 -26 0 -28 -3 -28
-39 0 -26 5 -41 16 -45 9 -3 290 -6 625 -6 535 0 609 -2 609 -15 0 -13 53 -15
420 -15 351 0 420 -2 420 -14 0 -12 -216 -15 -1397 -20 -769 -3 -1419 -9
-1445 -12 -45 -6 -48 -8 -48 -35 0 -20 -6 -31 -17 -35 -10 -3 -26 -10 -35 -15
-10 -5 -27 -9 -38 -9 -17 0 -20 -7 -20 -43 l0 -44 152 -6 c83 -4 243 -7 355
-7 l203 0 0 -40 c0 -38 2 -40 30 -40 20 0 30 -5 30 -15 0 -13 186 -15 1615
-15 l1615 0 0 105 0 105 -885 0 c-780 0 -885 2 -885 15 0 13 105 15 885 15
l885 0 0 105 0 105 -795 0 -794 0 -3 58 -3 57 -205 0 c-113 0 -438 -1 -723 -2z"/>
<path d="M3670 7206 c0 -43 -9 -46 -172 -46 -105 0 -128 -3 -128 -14 0 -9 -12
-16 -32 -18 -30 -3 -33 -6 -36 -39 l-3 -37 363 -6 c200 -4 525 -6 723 -4 l360
3 3 52 3 52 -58 4 -58 3 58 2 57 2 0 40 0 40 -540 0 -540 0 0 -34z"/>
<path d="M744 7107 c-3 -8 -4 -47 -2 -88 l3 -74 178 -3 177 -2 0 90 0 90 -175
0 c-138 0 -177 -3 -181 -13z"/>
<path d="M3258 6813 l-1028 -3 0 -40 0 -40 -50 0 c-38 0 -50 -4 -50 -15 0 -13
-83 -15 -690 -15 l-690 0 -5 -22 c-3 -13 -4 -81 -3 -153 l3 -130 590 0 590 0
3 58 3 57 1410 0 1410 0 -3 153 -3 152 -230 0 c-126 0 -692 -1 -1257 -2z"/>
</g>
</svg>
