<?xml version="1.0" standalone="no"?>
<!DOCTYPE svg PUBLIC "-//W3C//DTD SVG 20010904//EN"
 "http://www.w3.org/TR/2001/REC-SVG-20010904/DTD/svg10.dtd">
<svg version="1.0" xmlns="http://www.w3.org/2000/svg"
 width="800.000000pt" height="1200.000000pt" viewBox="0 0 800.000000 1200.000000"
 preserveAspectRatio="xMidYMid meet">
<metadata>
Created by potrace 1.15, written by Peter Selinger 2001-2017
</metadata>
<g transform="translate(0.000000,1200.000000) scale(0.100000,-0.100000)"
fill="#000000" stroke="none">
<path d="M1723 11243 l-673 -3 0 -40 0 -40 78 -1 77 -2 -75 -11 c-41 -7 -82
-15 -90 -19 -8 -4 -80 -8 -160 -9 l-145 -3 -3 -215 c-2 -118 0 -297 3 -397 l7
-183 833 0 833 0 6 23 c3 12 6 41 6 65 l0 42 1165 0 1165 0 0 400 0 400 -1177
-2 c-648 -2 -1481 -4 -1850 -5z"/>
<path d="M3340 10290 c-597 -4 -1356 -8 -1687 -9 l-603 -1 0 -35 0 -35 83 -2
c45 -1 63 -3 40 -5 -24 -2 -43 -8 -43 -14 0 -5 -18 -9 -39 -9 -22 0 -43 -4
-46 -10 -4 -6 -67 -10 -156 -10 l-149 0 0 -460 0 -460 769 0 769 0 6 23 c3 12
6 41 6 65 l0 42 1230 0 1230 0 -2 463 -3 462 -160 1 c-88 0 -648 -3 -1245 -6z"/>
</g>
</svg>
