<?xml version="1.0" standalone="no"?>
<!DOCTYPE svg PUBLIC "-//W3C//DTD SVG 20010904//EN"
 "http://www.w3.org/TR/2001/REC-SVG-20010904/DTD/svg10.dtd">
<svg version="1.0" xmlns="http://www.w3.org/2000/svg"
 width="800.000000pt" height="1200.000000pt" viewBox="0 0 800.000000 1200.000000"
 preserveAspectRatio="xMidYMid meet">
<metadata>
Created by potrace 1.15, written by Peter Selinger 2001-2017
</metadata>
<g transform="translate(0.000000,1200.000000) scale(0.100000,-0.100000)"
fill="#000000" stroke="none">
<path d="M1050 10970 l0 -40 93 -1 c80 -2 86 -3 42 -9 -27 -4 -74 -12 -104
-19 -29 -6 -118 -11 -196 -11 -121 0 -144 -2 -149 -16 -3 -9 -6 -54 -6 -100
l0 -84 113 -2 c61 -1 94 -3 72 -5 -22 -1 -73 -8 -114 -15 l-74 -11 7 -111 c3
-61 6 -164 6 -229 l0 -117 223 2 222 3 3 63 3 62 1780 0 1779 0 -2 223 -3 222
-42 3 c-29 2 -43 8 -43 18 0 10 12 14 45 14 l45 0 0 100 0 100 -1850 0 -1850
0 0 -40z"/>
<path d="M1220 9930 l-405 -5 -3 -25 c-6 -58 -12 -68 -42 -75 -28 -6 -30 -10
-30 -51 l0 -44 79 0 c61 0 80 -3 85 -15 4 -13 -8 -15 -80 -15 l-85 0 3 -42 c2
-36 7 -44 26 -46 30 -5 28 -22 -3 -22 l-25 0 0 -230 0 -230 1490 0 1490 0 0
65 0 65 515 0 515 0 0 340 0 340 -1562 -2 c-860 -2 -1745 -5 -1968 -8z"/>
<path d="M3580 8941 c0 -37 -2 -39 -37 -45 -21 -3 -98 -6 -170 -6 -105 0 -133
-3 -133 -13 0 -21 -266 -27 -1272 -27 l-898 0 0 -35 c0 -33 -2 -35 -34 -35
-19 0 -38 -4 -41 -10 -3 -5 -19 -10 -36 -10 -16 0 -29 -4 -29 -10 0 -6 -38
-10 -95 -10 l-95 0 0 -165 0 -165 1850 0 1850 0 0 65 0 65 155 0 155 0 0 159
c0 87 -3 186 -6 220 l-7 61 -578 0 -579 0 0 -39z"/>
<path d="M2828 8243 l-1588 -3 0 -38 c0 -69 7 -67 -260 -71 l-240 -3 0 -94 0
-94 1312 2 1313 3 3 52 3 53 687 2 687 3 3 98 3 97 -168 -2 c-92 -2 -882 -4
-1755 -5z"/>
</g>
</svg>
