<?xml version="1.0" standalone="no"?>
<!DOCTYPE svg PUBLIC "-//W3C//DTD SVG 20010904//EN"
 "http://www.w3.org/TR/2001/REC-SVG-20010904/DTD/svg10.dtd">
<svg version="1.0" xmlns="http://www.w3.org/2000/svg"
 width="800.000000pt" height="1200.000000pt" viewBox="0 0 800.000000 1200.000000"
 preserveAspectRatio="xMidYMid meet">
<metadata>
Created by potrace 1.15, written by Peter Selinger 2001-2017
</metadata>
<g transform="translate(0.000000,1200.000000) scale(0.100000,-0.100000)"
fill="#000000" stroke="none">
<path d="M1050 10370 l0 -40 68 -2 c37 0 52 -3 35 -5 -18 -2 -33 -8 -33 -14 0
-5 -18 -9 -40 -9 -22 0 -40 -4 -40 -10 0 -6 -58 -10 -155 -10 l-155 0 0 -215
0 -215 103 0 c56 0 108 -4 116 -9 19 -12 -73 -31 -154 -31 l-65 0 0 -99 c0
-86 2 -100 18 -104 16 -4 16 -5 0 -6 -16 -1 -18 -14 -18 -121 l0 -120 839 0
839 0 6 23 c3 12 6 39 6 59 l0 38 1163 2 1162 3 0 460 0 460 -1847 3 -1848 2
0 -40z"/>
<path d="M1050 9291 l0 -40 53 -4 52 -3 -58 -2 -58 -2 3 -52 3 -53 493 -3 492
-2 0 100 0 100 -490 0 -490 0 0 -39z"/>
<path d="M3610 9052 l0 -39 -97 -6 c-54 -4 -207 -7 -340 -7 -209 0 -243 -2
-243 -15 0 -13 -129 -15 -1100 -15 l-1100 0 0 -39 c0 -40 0 -40 43 -44 l42 -4
-42 -1 -43 -2 0 -235 0 -235 254 0 c282 0 266 -4 266 71 l0 39 1748 2 1747 3
3 283 2 282 -570 0 -570 0 0 -38z"/>
<path d="M730 7535 l0 -95 573 2 572 3 0 90 0 90 -572 3 -573 2 0 -95z"/>
<path d="M4050 7460 c0 -6 -35 -10 -85 -10 l-85 0 0 -30 0 -30 -85 0 c-69 0
-85 -3 -85 -15 0 -13 -25 -15 -165 -15 l-165 0 0 -45 0 -45 683 2 682 3 3 98
3 97 -351 0 c-227 0 -350 -4 -350 -10z"/>
<path d="M737 7343 c-4 -3 -7 -44 -7 -90 l0 -83 340 0 340 0 0 90 0 90 -333 0
c-184 0 -337 -3 -340 -7z"/>
<path d="M3015 6920 c-80 -18 -95 -23 -95 -31 0 -5 -36 -9 -80 -9 l-80 0 0
-40 c0 -22 5 -40 10 -40 6 0 10 -9 10 -20 0 -19 7 -20 90 -20 53 0 90 -4 90
-10 0 -6 123 -10 350 -10 l350 0 0 90 0 90 -78 0 c-43 0 -180 2 -303 5 -123 2
-242 0 -264 -5z"/>
</g>
</svg>
