<?xml version="1.0" standalone="no"?>
<!DOCTYPE svg PUBLIC "-//W3C//DTD SVG 20010904//EN"
 "http://www.w3.org/TR/2001/REC-SVG-20010904/DTD/svg10.dtd">
<svg version="1.0" xmlns="http://www.w3.org/2000/svg"
 width="800.000000pt" height="1200.000000pt" viewBox="0 0 800.000000 1200.000000"
 preserveAspectRatio="xMidYMid meet">
<metadata>
Created by potrace 1.15, written by Peter Selinger 2001-2017
</metadata>
<g transform="translate(0.000000,1200.000000) scale(0.100000,-0.100000)"
fill="#000000" stroke="none">
<path d="M2580 11119 c-740 -4 -1432 -11 -1537 -14 l-193 -7 0 -34 c0 -40 -6
-44 -76 -51 l-55 -6 3 -111 3 -111 153 -3 152 -3 0 -34 c0 -33 1 -34 48 -38
l47 -3 -53 -2 -53 -2 3 -57 3 -58 253 -3 252 -2 0 100 0 100 593 2 592 3 3 73
3 72 1000 0 1000 0 -3 98 -3 97 -395 1 c-217 0 -1000 -3 -1740 -7z"/>
</g>
</svg>
