<?xml version="1.0" standalone="no"?>
<!DOCTYPE svg PUBLIC "-//W3C//DTD SVG 20010904//EN"
 "http://www.w3.org/TR/2001/REC-SVG-20010904/DTD/svg10.dtd">
<svg version="1.0" xmlns="http://www.w3.org/2000/svg"
 width="800.000000pt" height="1200.000000pt" viewBox="0 0 800.000000 1200.000000"
 preserveAspectRatio="xMidYMid meet">
<metadata>
Created by potrace 1.15, written by Peter Selinger 2001-2017
</metadata>
<g transform="translate(0.000000,1200.000000) scale(0.100000,-0.100000)"
fill="#000000" stroke="none">
<path d="M2535 11240 c-676 -4 -1357 -8 -1512 -9 l-283 -1 0 -155 0 -155 1840
0 1840 0 0 60 0 60 165 0 166 0 -3 103 -3 102 -490 1 c-269 0 -1043 -3 -1720
-6z"/>
<path d="M3002 8925 l3 -44 -135 -3 -135 -3 0 -40 c0 -38 1 -40 40 -47 22 -4
72 -7 110 -7 39 -1 76 -6 81 -11 7 -7 312 -9 895 -8 l884 3 3 103 3 102 -877
0 -876 0 4 -45z"/>
</g>
</svg>
