<?xml version="1.0" standalone="no"?>
<!DOCTYPE svg PUBLIC "-//W3C//DTD SVG 20010904//EN"
 "http://www.w3.org/TR/2001/REC-SVG-20010904/DTD/svg10.dtd">
<svg version="1.0" xmlns="http://www.w3.org/2000/svg"
 width="800.000000pt" height="1200.000000pt" viewBox="0 0 800.000000 1200.000000"
 preserveAspectRatio="xMidYMid meet">
<metadata>
Created by potrace 1.15, written by Peter Selinger 2001-2017
</metadata>
<g transform="translate(0.000000,1200.000000) scale(0.100000,-0.100000)"
fill="#000000" stroke="none">
<path d="M2463 10023 c-7 -2 -13 -20 -13 -39 0 -20 5 -34 13 -35 35 -4 -59
-17 -125 -18 -62 -1 -78 -4 -78 -16 0 -13 -40 -15 -302 -15 -167 0 -509 -3
-760 -7 l-458 -6 0 -154 0 -153 1198 2 1197 3 3 63 3 62 804 0 805 0 0 160 0
160 -1137 -1 c-626 0 -1144 -3 -1150 -6z"/>
</g>
</svg>
