<?xml version="1.0" standalone="no"?>
<!DOCTYPE svg PUBLIC "-//W3C//DTD SVG 20010904//EN"
 "http://www.w3.org/TR/2001/REC-SVG-20010904/DTD/svg10.dtd">
<svg version="1.0" xmlns="http://www.w3.org/2000/svg"
 width="800.000000pt" height="1200.000000pt" viewBox="0 0 800.000000 1200.000000"
 preserveAspectRatio="xMidYMid meet">
<metadata>
Created by potrace 1.15, written by Peter Selinger 2001-2017
</metadata>
<g transform="translate(0.000000,1200.000000) scale(0.100000,-0.100000)"
fill="#000000" stroke="none">
<path d="M1988 11233 l-938 -3 0 -35 0 -35 88 -2 c52 -1 68 -3 39 -5 -26 -2
-47 -8 -47 -14 0 -5 -18 -9 -39 -9 -22 0 -43 -4 -46 -10 -4 -6 -69 -10 -161
-10 l-155 0 3 -97 3 -98 50 -5 c41 -4 46 -6 25 -12 -14 -4 -37 -8 -53 -8 l-27
0 2 -227 3 -228 898 -3 897 -2 0 65 0 65 1110 0 1110 0 0 220 0 220 -95 0
c-78 0 -95 3 -95 15 0 12 17 15 95 15 l95 0 0 105 0 105 -912 -2 c-502 -2
-1335 -4 -1850 -5z"/>
<path d="M1533 10393 l-463 -3 0 -35 0 -35 73 -1 c71 -1 72 -1 23 -9 -26 -5
-55 -12 -65 -16 -9 -4 -95 -10 -191 -13 l-175 -6 -3 -97 -3 -98 1016 0 1015 0
0 60 0 60 995 0 995 0 0 100 0 100 -1377 -2 c-758 -2 -1586 -4 -1840 -5z"/>
<path d="M1044 10027 c-2 -7 -3 -118 -2 -247 l3 -235 1708 -3 1707 -2 0 105 0
105 -610 0 -610 0 0 45 0 45 610 0 610 0 0 100 0 100 -1705 0 c-1370 0 -1707
-2 -1711 -13z"/>
<path d="M1373 9503 l-483 -3 0 -100 0 -100 878 2 877 3 3 103 3 102 -398 -2
c-219 -2 -615 -4 -880 -5z"/>
<path d="M2428 9283 l-1538 -3 0 -100 0 -100 75 0 74 0 3 -57 3 -58 288 -3
287 -2 0 60 0 60 1420 0 1420 0 0 105 0 105 -247 -2 c-137 -2 -940 -4 -1785
-5z"/>
<path d="M890 8840 l0 -100 865 0 865 0 0 100 0 100 -865 0 -865 0 0 -100z"/>
<path d="M890 8620 l0 -100 1409 0 c1275 0 1409 1 1415 16 8 20 8 132 0 162
l-6 22 -1409 0 -1409 0 0 -100z"/>
<path d="M1048 7653 l-188 -3 0 -40 c0 -39 -1 -40 -35 -40 -19 0 -35 -4 -35
-10 0 -5 -11 -10 -25 -10 l-25 0 0 -225 0 -225 104 0 c58 0 107 -4 110 -9 6
-10 -26 -21 -61 -21 -20 0 -23 -5 -23 -43 l0 -44 1930 -7 c1062 -4 1935 -4
1940 -1 6 4 10 137 10 346 l0 339 -1757 -2 c-967 -2 -1842 -4 -1945 -5z"/>
<path d="M1140 6660 c0 -39 1 -40 35 -40 47 0 45 -18 -2 -22 -37 -3 -38 -4
-38 -43 l0 -40 78 -3 c74 -3 77 -4 77 -27 0 -21 -5 -25 -29 -25 -16 0 -31 -6
-33 -12 -4 -10 -64 -14 -247 -16 l-242 -4 3 -96 3 -97 387 -3 387 -2 7 60 7
60 1608 0 1609 0 0 95 0 95 -125 0 -125 0 0 80 0 80 -1680 0 -1680 0 0 -40z"/>
</g>
</svg>
