<?xml version="1.0" standalone="no"?>
<!DOCTYPE svg PUBLIC "-//W3C//DTD SVG 20010904//EN"
 "http://www.w3.org/TR/2001/REC-SVG-20010904/DTD/svg10.dtd">
<svg version="1.0" xmlns="http://www.w3.org/2000/svg"
 width="800.000000pt" height="1200.000000pt" viewBox="0 0 800.000000 1200.000000"
 preserveAspectRatio="xMidYMid meet">
<metadata>
Created by potrace 1.15, written by Peter Selinger 2001-2017
</metadata>
<g transform="translate(0.000000,1200.000000) scale(0.100000,-0.100000)"
fill="#000000" stroke="none">
<path d="M2628 10383 c-26 -4 -28 -8 -28 -49 l0 -44 -150 0 c-122 0 -151 -3
-157 -15 -8 -13 -108 -15 -778 -17 l-770 -3 0 -215 0 -215 758 -3 757 -2 0 60
0 60 1245 0 1245 0 -2 223 -3 222 -1045 1 c-575 1 -1057 -1 -1072 -3z"/>
</g>
</svg>
