<?xml version="1.0" standalone="no"?>
<!DOCTYPE svg PUBLIC "-//W3C//DTD SVG 20010904//EN"
 "http://www.w3.org/TR/2001/REC-SVG-20010904/DTD/svg10.dtd">
<svg version="1.0" xmlns="http://www.w3.org/2000/svg"
 width="800.000000pt" height="1200.000000pt" viewBox="0 0 800.000000 1200.000000"
 preserveAspectRatio="xMidYMid meet">
<metadata>
Created by potrace 1.15, written by Peter Selinger 2001-2017
</metadata>
<g transform="translate(0.000000,1200.000000) scale(0.100000,-0.100000)"
fill="#000000" stroke="none">
<path d="M2310 8281 c0 -38 0 -38 -46 -45 -26 -3 -75 -6 -110 -6 l-64 0 0 -40
0 -40 95 0 c57 0 95 -4 95 -10 0 -7 272 -10 795 -10 l795 0 0 95 0 95 -780 0
-780 0 0 -39z"/>
<path d="M1648 8043 l-468 -3 0 -39 c0 -22 5 -41 13 -44 8 -3 6 -9 -7 -19 -17
-13 -18 -23 -12 -74 4 -32 12 -62 19 -66 9 -6 7 -11 -5 -19 -29 -16 -19 -139
11 -139 12 0 11 -5 -7 -18 -18 -14 -23 -26 -20 -53 l3 -34 795 0 795 0 3 258
2 257 -327 -2 c-181 -2 -538 -4 -795 -5z"/>
<path d="M1180 7360 c0 -31 4 -40 18 -40 14 -1 13 -4 -6 -20 -17 -14 -23 -28
-20 -52 l3 -33 798 -3 797 -2 0 95 0 95 -795 0 -795 0 0 -40z"/>
<path d="M3783 7083 l-443 -3 0 -40 0 -40 -105 0 c-81 0 -105 -3 -105 -13 0
-11 -135 -15 -752 -20 -413 -4 -949 -7 -1190 -7 l-438 0 0 -97 c0 -54 3 -142
7 -195 l6 -98 1829 0 1828 0 0 55 0 55 165 0 165 0 0 205 0 205 -262 -2 c-145
-2 -462 -4 -705 -5z"/>
<path d="M3960 6396 c0 -30 -4 -34 -31 -40 -17 -3 -78 -6 -135 -6 l-104 0 0
-45 0 -45 124 0 c73 0 127 -4 131 -10 4 -6 150 -10 406 -10 l399 0 0 95 0 95
-395 0 -395 0 0 -34z"/>
<path d="M760 6215 l0 -95 325 0 325 0 0 95 0 95 -325 0 -325 0 0 -95z"/>
</g>
</svg>
