<?xml version="1.0" standalone="no"?>
<!DOCTYPE svg PUBLIC "-//W3C//DTD SVG 20010904//EN"
 "http://www.w3.org/TR/2001/REC-SVG-20010904/DTD/svg10.dtd">
<svg version="1.0" xmlns="http://www.w3.org/2000/svg"
 width="800.000000pt" height="1200.000000pt" viewBox="0 0 800.000000 1200.000000"
 preserveAspectRatio="xMidYMid meet">
<metadata>
Created by potrace 1.15, written by Peter Selinger 2001-2017
</metadata>
<g transform="translate(0.000000,1200.000000) scale(0.100000,-0.100000)"
fill="#000000" stroke="none">
<path d="M2628 10383 c-26 -4 -28 -8 -28 -49 l0 -44 -150 0 c-122 0 -151 -3
-157 -15 -8 -13 -108 -15 -778 -17 l-770 -3 0 -215 0 -215 758 -3 757 -2 0 60
0 60 1245 0 1245 0 -2 223 -3 222 -1045 1 c-575 1 -1057 -1 -1072 -3z"/>
<path d="M2750 8546 c0 -42 -1 -44 -37 -50 -21 -3 -100 -6 -175 -6 -78 0 -138
-4 -138 -9 0 -6 -328 -11 -820 -13 -716 -3 -822 -5 -830 -18 -11 -17 -14 -149
-4 -174 5 -12 21 -16 68 -17 62 -1 185 -15 154 -18 -10 0 -18 -5 -18 -11 0 -6
-40 -10 -100 -10 l-100 0 0 -220 0 -220 1358 2 1357 3 3 63 3 62 639 0 640 0
0 340 0 340 -1000 0 -1000 0 0 -44z"/>
<path d="M2080 7500 l0 -39 -57 -3 -58 -3 -3 -36 c-3 -41 10 -49 81 -49 20 0
37 -4 37 -10 0 -7 173 -10 500 -10 493 0 500 0 500 -20 0 -16 -7 -20 -37 -21
-21 -1 -87 -4 -148 -8 l-110 -6 0 -40 0 -40 115 -8 c63 -5 438 -10 833 -13
l717 -4 0 100 0 100 -380 0 -380 0 0 75 0 75 -805 0 -805 0 0 -40z"/>
</g>
</svg>
