<?xml version="1.0" standalone="no"?>
<!DOCTYPE svg PUBLIC "-//W3C//DTD SVG 20010904//EN"
 "http://www.w3.org/TR/2001/REC-SVG-20010904/DTD/svg10.dtd">
<svg version="1.0" xmlns="http://www.w3.org/2000/svg"
 width="800.000000pt" height="1200.000000pt" viewBox="0 0 800.000000 1200.000000"
 preserveAspectRatio="xMidYMid meet">
<metadata>
Created by potrace 1.15, written by Peter Selinger 2001-2017
</metadata>
<g transform="translate(0.000000,1200.000000) scale(0.100000,-0.100000)"
fill="#000000" stroke="none">
<path d="M1290 10840 c0 -38 -2 -40 -30 -40 -38 0 -120 -22 -120 -32 0 -4 -90
-8 -200 -8 l-200 0 0 -165 0 -165 1253 2 1252 3 3 58 3 57 749 0 750 0 0 165
0 165 -1730 0 -1730 0 0 -40z"/>
<path d="M1160 7750 l0 -40 63 -1 c34 -1 51 -4 37 -6 -14 -3 -29 -9 -34 -14
-6 -5 -117 -9 -248 -9 l-238 0 0 -315 0 -315 555 0 555 0 0 55 0 55 1450 0
1450 0 0 315 0 315 -1795 0 -1795 0 0 -40z"/>
<path d="M2236 6839 c-12 -11 -33 -19 -53 -19 -26 0 -33 -4 -33 -20 0 -18 -8
-20 -127 -22 l-128 -3 0 -40 0 -40 166 -5 c112 -3 171 -9 181 -18 12 -9 125
-12 514 -10 l499 3 3 98 3 97 -503 -1 c-484 0 -504 -1 -522 -20z"/>
</g>
</svg>
