<?xml version="1.0" standalone="no"?>
<!DOCTYPE svg PUBLIC "-//W3C//DTD SVG 20010904//EN"
 "http://www.w3.org/TR/2001/REC-SVG-20010904/DTD/svg10.dtd">
<svg version="1.0" xmlns="http://www.w3.org/2000/svg"
 width="800.000000pt" height="1200.000000pt" viewBox="0 0 800.000000 1200.000000"
 preserveAspectRatio="xMidYMid meet">
<metadata>
Created by potrace 1.15, written by Peter Selinger 2001-2017
</metadata>
<g transform="translate(0.000000,1200.000000) scale(0.100000,-0.100000)"
fill="#000000" stroke="none">
<path d="M2260 11239 c-300 -3 -686 -7 -857 -8 l-313 -1 0 -35 0 -35 68 -1
c73 -1 73 -2 -40 -20 -43 -7 -78 -17 -78 -21 0 -4 -69 -8 -154 -8 -131 0 -155
-2 -160 -16 -8 -20 -8 -248 0 -268 6 -15 186 -16 1940 -16 l1934 0 0 54 0 55
58 6 c31 3 64 7 72 8 12 2 15 29 18 160 l3 157 -973 -2 c-535 -1 -1218 -5
-1518 -9z"/>
<path d="M3505 7100 c-385 -4 -1050 -8 -1477 -9 l-778 -1 0 -40 0 -40 78 -1
77 -2 -75 -9 c-41 -5 -187 -12 -325 -16 l-250 -7 -3 -197 -2 -198 1275 0 1275
0 0 60 0 60 725 0 725 0 -2 203 -3 202 -270 1 c-148 0 -585 -3 -970 -6z"/>
</g>
</svg>
