<?xml version="1.0" standalone="no"?>
<!DOCTYPE svg PUBLIC "-//W3C//DTD SVG 20010904//EN"
 "http://www.w3.org/TR/2001/REC-SVG-20010904/DTD/svg10.dtd">
<svg version="1.0" xmlns="http://www.w3.org/2000/svg"
 width="800.000000pt" height="1200.000000pt" viewBox="0 0 800.000000 1200.000000"
 preserveAspectRatio="xMidYMid meet">
<metadata>
Created by potrace 1.15, written by Peter Selinger 2001-2017
</metadata>
<g transform="translate(0.000000,1200.000000) scale(0.100000,-0.100000)"
fill="#000000" stroke="none">
<path d="M2590 11229 c-971 -3 -1768 -7 -1772 -8 -12 -2 -9 -81 3 -81 5 0 7
-4 4 -10 -3 -5 -24 -10 -45 -10 -21 0 -41 -4 -45 -9 -3 -6 -2 -190 1 -410 l7
-401 257 0 258 0 6 31 c3 17 6 47 6 65 l0 34 1738 2 1737 3 3 403 2 402 -197
-2 c-109 -1 -992 -5 -1963 -9z"/>
<path d="M3113 10153 l-523 -3 0 -35 0 -34 108 -3 c69 -2 10 -6 -166 -12 -216
-7 -275 -11 -279 -22 -4 -12 -92 -14 -512 -14 -278 0 -617 -3 -754 -7 l-248
-6 3 -151 3 -151 113 -3 c63 -1 112 -7 112 -12 0 -6 -16 -10 -36 -10 -27 0
-37 -5 -41 -20 -5 -18 -14 -20 -79 -20 l-74 0 0 -90 0 -90 1195 0 1195 0 0 60
0 60 808 2 807 3 3 283 2 282 -557 -2 c-307 -2 -793 -4 -1080 -5z"/>
</g>
</svg>
