<?xml version="1.0" standalone="no"?>
<!DOCTYPE svg PUBLIC "-//W3C//DTD SVG 20010904//EN"
 "http://www.w3.org/TR/2001/REC-SVG-20010904/DTD/svg10.dtd">
<svg version="1.0" xmlns="http://www.w3.org/2000/svg"
 width="800.000000pt" height="1200.000000pt" viewBox="0 0 800.000000 1200.000000"
 preserveAspectRatio="xMidYMid meet">
<metadata>
Created by potrace 1.15, written by Peter Selinger 2001-2017
</metadata>
<g transform="translate(0.000000,1200.000000) scale(0.100000,-0.100000)"
fill="#000000" stroke="none">
<path d="M1223 6943 c-31 -4 -33 -7 -33 -43 0 -22 5 -40 13 -43 39 -14 -28
-23 -206 -27 l-202 -5 -6 -44 c-3 -25 -11 -47 -17 -49 -8 -2 -12 -48 -12 -148
l0 -144 1740 0 1740 0 0 55 0 55 255 0 256 0 -3 148 -3 147 -697 3 -698 2 0
50 0 50 -1047 -2 c-577 0 -1063 -3 -1080 -5z"/>
</g>
</svg>
