<?xml version="1.0" standalone="no"?>
<!DOCTYPE svg PUBLIC "-//W3C//DTD SVG 20010904//EN"
 "http://www.w3.org/TR/2001/REC-SVG-20010904/DTD/svg10.dtd">
<svg version="1.0" xmlns="http://www.w3.org/2000/svg"
 width="800.000000pt" height="1200.000000pt" viewBox="0 0 800.000000 1200.000000"
 preserveAspectRatio="xMidYMid meet">
<metadata>
Created by potrace 1.15, written by Peter Selinger 2001-2017
</metadata>
<g transform="translate(0.000000,1200.000000) scale(0.100000,-0.100000)"
fill="#000000" stroke="none">
<path d="M3160 11239 c-580 -3 -1364 -7 -1742 -8 l-688 -1 0 -35 0 -35 78 -2
c46 -1 60 -3 35 -5 -24 -2 -43 -8 -43 -14 0 -5 -16 -9 -35 -9 l-36 0 3 -112 3
-113 147 -3 148 -3 0 -39 c0 -27 4 -40 14 -40 7 0 16 -9 19 -20 5 -19 14 -20
175 -20 l170 0 6 31 c3 17 6 49 6 70 l0 39 1665 0 1665 0 0 165 0 165 -267 -2
c-148 -1 -743 -5 -1323 -9z"/>
<path d="M1993 10490 l-11 -30 -106 0 c-99 0 -106 -1 -106 -20 0 -18 -7 -20
-65 -20 l-65 0 0 -40 0 -40 166 0 c135 0 168 -3 181 -15 13 -13 52 -15 266
-13 l252 3 0 100 0 100 -250 3 -250 2 -12 -30z"/>
<path d="M2663 8843 l-93 -4 0 -38 c0 -35 -3 -39 -31 -45 -17 -3 -75 -6 -128
-6 -60 0 -101 -4 -109 -12 -8 -8 -218 -12 -787 -16 l-775 -5 0 -338 0 -339
1050 0 1049 0 3 63 3 62 953 3 952 2 0 340 0 340 -997 -2 c-549 -1 -1040 -4
-1090 -5z"/>
<path d="M1521 7900 l-1 -100 420 0 420 0 0 100 0 100 -419 0 -420 0 0 -100z"/>
</g>
</svg>
