<?xml version="1.0" standalone="no"?>
<!DOCTYPE svg PUBLIC "-//W3C//DTD SVG 20010904//EN"
 "http://www.w3.org/TR/2001/REC-SVG-20010904/DTD/svg10.dtd">
<svg version="1.0" xmlns="http://www.w3.org/2000/svg"
 width="800.000000pt" height="1200.000000pt" viewBox="0 0 800.000000 1200.000000"
 preserveAspectRatio="xMidYMid meet">
<metadata>
Created by potrace 1.15, written by Peter Selinger 2001-2017
</metadata>
<g transform="translate(0.000000,1200.000000) scale(0.100000,-0.100000)"
fill="#000000" stroke="none">
<path d="M2988 8753 l-928 -3 0 -45 0 -45 -54 0 c-35 0 -60 -5 -70 -15 -13
-13 -93 -15 -600 -15 l-586 0 -5 -22 c-3 -13 -4 -111 -3 -218 l3 -195 1853 -3
1852 -2 0 60 0 60 150 0 150 0 0 225 0 225 -417 -2 c-230 -2 -835 -4 -1345 -5z"/>
<path d="M3967 6705 c-11 -11 -36 -15 -86 -15 -67 0 -71 -1 -77 -25 l-6 -25
-143 0 c-78 0 -157 -3 -174 -6 -28 -6 -31 -10 -31 -45 l0 -39 250 0 c160 0
250 -4 250 -10 0 -7 140 -10 400 -10 l401 0 -3 93 -3 92 -382 3 c-329 2 -383
0 -396 -13z"/>
<path d="M744 6587 c-3 -8 -4 -49 -2 -93 l3 -79 104 -3 c77 -2 107 1 113 10 9
15 11 139 2 162 -5 13 -25 16 -110 16 -78 0 -106 -3 -110 -13z"/>
<path d="M3490 6425 c-7 -8 -34 -18 -61 -21 -39 -5 -49 -10 -49 -25 0 -18 -10
-19 -130 -19 -102 0 -130 -3 -130 -13 0 -11 -81 -15 -427 -20 -236 -4 -502 -7
-592 -7 -185 0 -190 -2 -191 -74 l0 -39 218 6 c119 4 333 7 475 7 222 0 257 2
257 15 0 13 76 15 620 15 l620 0 0 95 0 95 -299 0 c-251 0 -300 -2 -311 -15z"/>
</g>
</svg>
