<?xml version="1.0" standalone="no"?>
<!DOCTYPE svg PUBLIC "-//W3C//DTD SVG 20010904//EN"
 "http://www.w3.org/TR/2001/REC-SVG-20010904/DTD/svg10.dtd">
<svg version="1.0" xmlns="http://www.w3.org/2000/svg"
 width="800.000000pt" height="1200.000000pt" viewBox="0 0 800.000000 1200.000000"
 preserveAspectRatio="xMidYMid meet">
<metadata>
Created by potrace 1.15, written by Peter Selinger 2001-2017
</metadata>
<g transform="translate(0.000000,1200.000000) scale(0.100000,-0.100000)"
fill="#000000" stroke="none">
<path d="M2023 7353 l-293 -3 0 -25 c0 -23 -3 -25 -50 -25 -43 0 -50 -3 -50
-20 0 -17 -7 -20 -50 -20 l-50 0 0 -40 0 -40 85 0 c50 0 85 -4 85 -10 0 -7
145 -10 415 -10 l416 0 -3 98 -3 97 -105 0 c-58 0 -237 -1 -397 -2z"/>
<path d="M740 7190 l0 -40 145 0 145 0 0 40 0 40 -145 0 -145 0 0 -40z"/>
</g>
</svg>
