<?xml version="1.0" standalone="no"?>
<!DOCTYPE svg PUBLIC "-//W3C//DTD SVG 20010904//EN"
 "http://www.w3.org/TR/2001/REC-SVG-20010904/DTD/svg10.dtd">
<svg version="1.0" xmlns="http://www.w3.org/2000/svg"
 width="800.000000pt" height="1200.000000pt" viewBox="0 0 800.000000 1200.000000"
 preserveAspectRatio="xMidYMid meet">
<metadata>
Created by potrace 1.15, written by Peter Selinger 2001-2017
</metadata>
<g transform="translate(0.000000,1200.000000) scale(0.100000,-0.100000)"
fill="#000000" stroke="none">
<path d="M2360 7770 l0 -39 -92 -3 -93 -3 -3 -37 -3 -38 -500 0 -499 0 0 -40
0 -40 68 -2 c48 -1 55 -3 25 -5 -24 -2 -43 -8 -43 -14 0 -5 -11 -9 -25 -9 -23
0 -25 -4 -25 -45 l0 -45 65 0 c63 0 65 -1 65 -25 0 -21 5 -25 30 -25 17 0 30
-4 30 -9 0 -14 -85 -21 -294 -22 -111 -1 -228 -4 -261 -8 l-60 -6 -3 -65 c-2
-35 0 -75 3 -87 l5 -23 215 0 215 0 0 -25 c0 -23 4 -25 42 -25 34 0 40 -3 30
-12 -10 -10 -81 -14 -260 -18 l-247 -5 0 -250 0 -250 215 -5 215 -5 3 -27 c3
-25 8 -28 38 -28 19 0 34 -4 34 -10 0 -13 18 -12 -260 -19 l-245 -6 -3 -82
c-3 -77 -1 -83 20 -94 17 -9 147 -14 496 -17 259 -3 472 -8 472 -13 0 -5 -222
-10 -492 -11 l-493 -3 0 -145 0 -145 263 -3 262 -2 0 -25 c0 -20 -5 -25 -24
-25 -13 0 -26 -5 -28 -12 -3 -8 -44 -13 -126 -16 l-122 -4 0 -39 0 -39 1890 0
1890 0 0 100 0 100 -1270 0 -1270 0 0 35 0 35 1268 2 1267 3 0 260 0 260 -433
3 -433 2 3 38 3 37 433 3 432 2 0 261 0 260 -1130 -3 -1130 -3 0 38 0 37 1130
0 1130 0 0 95 0 95 -1160 0 -1160 0 0 70 0 70 560 0 560 0 0 95 0 95 -595 0
-595 0 0 -40z"/>
<path d="M744 5877 c-3 -8 -4 -47 -2 -88 l3 -74 103 -3 102 -3 0 91 0 90 -100
0 c-75 0 -102 -3 -106 -13z"/>
</g>
</svg>
