<?xml version="1.0" standalone="no"?>
<!DOCTYPE svg PUBLIC "-//W3C//DTD SVG 20010904//EN"
 "http://www.w3.org/TR/2001/REC-SVG-20010904/DTD/svg10.dtd">
<svg version="1.0" xmlns="http://www.w3.org/2000/svg"
 width="800.000000pt" height="1200.000000pt" viewBox="0 0 800.000000 1200.000000"
 preserveAspectRatio="xMidYMid meet">
<metadata>
Created by potrace 1.15, written by Peter Selinger 2001-2017
</metadata>
<g transform="translate(0.000000,1200.000000) scale(0.100000,-0.100000)"
fill="#000000" stroke="none">
<path d="M1030 8940 l0 -40 108 -1 107 -2 -70 -8 c-38 -4 -90 -12 -115 -18
-25 -6 -111 -10 -191 -11 l-146 0 -6 -827 c-4 -454 -7 -1035 -7 -1290 l0 -463
1745 0 1745 0 0 60 0 60 258 2 257 3 0 1285 0 1285 -1842 3 -1843 2 0 -40z"/>
</g>
</svg>
