<?xml version="1.0" standalone="no"?>
<!DOCTYPE svg PUBLIC "-//W3C//DTD SVG 20010904//EN"
 "http://www.w3.org/TR/2001/REC-SVG-20010904/DTD/svg10.dtd">
<svg version="1.0" xmlns="http://www.w3.org/2000/svg"
 width="800.000000pt" height="1200.000000pt" viewBox="0 0 800.000000 1200.000000"
 preserveAspectRatio="xMidYMid meet">
<metadata>
Created by potrace 1.15, written by Peter Selinger 2001-2017
</metadata>
<g transform="translate(0.000000,1200.000000) scale(0.100000,-0.100000)"
fill="#000000" stroke="none">
<path d="M1110 11205 c0 -18 -5 -25 -20 -25 -13 0 -20 -7 -20 -20 0 -11 -7
-20 -16 -20 -12 0 -14 -9 -12 -42 3 -40 5 -43 36 -46 17 -2 32 -7 32 -13 0 -5
77 -9 185 -9 l186 0 -3 98 -3 97 -182 3 -183 2 0 -25z"/>
<path d="M2227 7883 l-519 -3 4 -45 c3 -43 2 -45 -24 -45 -26 0 -28 -3 -28
-39 0 -26 5 -41 16 -45 9 -3 290 -6 625 -6 535 0 609 -2 609 -15 0 -13 53 -15
420 -15 351 0 420 -2 420 -14 0 -12 -216 -15 -1397 -20 -769 -3 -1419 -9
-1445 -12 -45 -6 -48 -8 -48 -35 0 -20 -6 -31 -17 -35 -10 -3 -26 -10 -35 -15
-10 -5 -27 -9 -38 -9 -17 0 -20 -7 -20 -43 l0 -44 152 -6 c83 -4 243 -7 355
-7 l203 0 0 -40 c0 -38 2 -40 30 -40 20 0 30 -5 30 -15 0 -13 186 -15 1615
-15 l1615 0 0 105 0 105 -885 0 c-780 0 -885 2 -885 15 0 13 105 15 885 15
l885 0 0 105 0 105 -795 0 -794 0 -3 58 -3 57 -205 0 c-113 0 -438 -1 -723 -2z"/>
</g>
</svg>
