<?xml version="1.0" standalone="no"?>
<!DOCTYPE svg PUBLIC "-//W3C//DTD SVG 20010904//EN"
 "http://www.w3.org/TR/2001/REC-SVG-20010904/DTD/svg10.dtd">
<svg version="1.0" xmlns="http://www.w3.org/2000/svg"
 width="800.000000pt" height="1200.000000pt" viewBox="0 0 800.000000 1200.000000"
 preserveAspectRatio="xMidYMid meet">
<metadata>
Created by potrace 1.15, written by Peter Selinger 2001-2017
</metadata>
<g transform="translate(0.000000,1200.000000) scale(0.100000,-0.100000)"
fill="#000000" stroke="none">
<path d="M1050 11160 c0 -25 5 -40 13 -40 8 0 11 -14 9 -45 l-4 -45 160 0 c97
0 163 -4 167 -10 3 -5 19 -10 35 -10 16 0 32 -4 35 -10 4 -6 148 -10 400 -10
217 0 396 -4 399 -8 7 -11 -498 -22 -1020 -22 -226 0 -432 -3 -458 -6 l-46 -7
2 -276 3 -276 425 0 425 0 3 68 3 67 1574 0 1575 0 0 170 c0 94 -1 171 -2 171
-2 1 -59 5 -128 9 l-125 6 128 2 127 2 0 107 0 106 -1305 -7 -1305 -7 0 56 0
55 -545 0 -545 0 0 -40z"/>
<path d="M1227 7473 c-12 -12 -8 -73 6 -73 7 -1 5 -6 -5 -14 -12 -9 -18 -27
-18 -55 l0 -41 923 2 922 3 3 93 3 92 -914 0 c-502 0 -917 -3 -920 -7z"/>
</g>
</svg>
