<?xml version="1.0" standalone="no"?>
<!DOCTYPE svg PUBLIC "-//W3C//DTD SVG 20010904//EN"
 "http://www.w3.org/TR/2001/REC-SVG-20010904/DTD/svg10.dtd">
<svg version="1.0" xmlns="http://www.w3.org/2000/svg"
 width="800.000000pt" height="1200.000000pt" viewBox="0 0 800.000000 1200.000000"
 preserveAspectRatio="xMidYMid meet">
<metadata>
Created by potrace 1.15, written by Peter Selinger 2001-2017
</metadata>
<g transform="translate(0.000000,1200.000000) scale(0.100000,-0.100000)"
fill="#000000" stroke="none">
<path d="M3480 10320 c0 -5 -27 -15 -60 -22 l-60 -12 0 -38 0 -38 124 0 c115
0 124 -1 129 -20 5 -20 14 -20 366 -20 l361 0 0 45 0 45 -340 0 -340 0 0 35 0
35 -90 0 c-51 0 -90 -4 -90 -10z"/>
<path d="M3940 10060 c0 -29 -1 -30 -50 -30 -43 0 -50 -3 -50 -20 0 -18 -8
-20 -127 -22 l-128 -3 0 -40 0 -40 78 -3 77 -3 0 -39 c0 -27 4 -40 14 -40 17
0 28 -62 12 -72 -6 -4 -93 -8 -193 -8 l-183 0 0 -45 0 -45 78 -2 c54 -1 63 -3
30 -5 l-48 -4 0 -45 0 -45 633 6 c347 4 638 8 645 10 9 3 12 61 12 245 l0 240
-290 0 c-283 0 -290 0 -290 20 0 19 -7 20 -110 20 l-110 0 0 -30z"/>
</g>
</svg>
