<?xml version="1.0" standalone="no"?>
<!DOCTYPE svg PUBLIC "-//W3C//DTD SVG 20010904//EN"
 "http://www.w3.org/TR/2001/REC-SVG-20010904/DTD/svg10.dtd">
<svg version="1.0" xmlns="http://www.w3.org/2000/svg"
 width="800.000000pt" height="1200.000000pt" viewBox="0 0 800.000000 1200.000000"
 preserveAspectRatio="xMidYMid meet">
<metadata>
Created by potrace 1.15, written by Peter Selinger 2001-2017
</metadata>
<g transform="translate(0.000000,1200.000000) scale(0.100000,-0.100000)"
fill="#000000" stroke="none">
<path d="M2530 9895 c0 -24 -3 -25 -59 -25 -33 0 -63 -4 -66 -10 -3 -5 -23
-10 -44 -10 -21 0 -52 -5 -70 -11 -28 -10 -31 -15 -31 -50 l0 -39 129 0 c105
0 130 -3 135 -15 4 -13 38 -15 215 -15 244 0 224 -11 219 120 l-3 75 -212 3
-213 2 0 -25z"/>
</g>
</svg>
