<?xml version="1.0" standalone="no"?>
<!DOCTYPE svg PUBLIC "-//W3C//DTD SVG 20010904//EN"
 "http://www.w3.org/TR/2001/REC-SVG-20010904/DTD/svg10.dtd">
<svg version="1.0" xmlns="http://www.w3.org/2000/svg"
 width="800.000000pt" height="1200.000000pt" viewBox="0 0 800.000000 1200.000000"
 preserveAspectRatio="xMidYMid meet">
<metadata>
Created by potrace 1.15, written by Peter Selinger 2001-2017
</metadata>
<g transform="translate(0.000000,1200.000000) scale(0.100000,-0.100000)"
fill="#000000" stroke="none">
<path d="M1050 10866 c0 -25 -5 -48 -11 -52 -7 -4 -9 -23 -4 -53 3 -25 9 -63
12 -83 l5 -38 77 -2 c42 0 60 -3 41 -5 -19 -3 -39 -9 -44 -14 -6 -5 -25 -9
-43 -9 -21 0 -36 -6 -39 -15 -5 -12 -32 -15 -155 -15 l-149 0 0 -285 0 -285
1428 2 1427 3 3 68 3 67 569 0 570 0 0 292 0 291 -1272 -6 c-700 -4 -1344 -10
-1430 -14 l-157 -6 -3 99 -3 99 -412 3 -413 2 0 -44z"/>
<path d="M1248 9223 l-198 -3 0 -35 c0 -27 4 -34 23 -38 l22 -4 -22 -2 c-21
-1 -23 -6 -23 -61 0 -57 1 -60 24 -60 21 0 25 -6 28 -32 l3 -33 75 -5 75 -5
-98 -8 c-65 -6 -100 -13 -105 -23 -6 -10 -43 -14 -157 -16 l-150 -3 0 -285 0
-285 159 -3 159 -3 -7 -74 c-4 -40 -4 -85 0 -99 6 -25 9 -26 80 -26 l74 0 0
-39 c0 -42 6 -40 -112 -57 -21 -4 -38 -10 -38 -15 0 -5 -22 -9 -48 -9 -27 0
-97 -3 -156 -7 l-106 -6 2 -281 3 -281 453 -3 452 -2 0 -39 0 -39 -62 -12
c-35 -7 -80 -15 -100 -17 -36 -5 -38 -7 -38 -43 l0 -37 122 -6 c66 -4 271 -7
455 -7 l333 0 0 100 0 100 1123 2 1122 3 3 62 3 62 62 3 62 3 0 295 0 295
-175 0 c-96 0 -804 -4 -1572 -9 l-1398 -9 0 96 0 97 455 0 455 0 0 70 0 70
1118 2 1117 3 3 292 2 293 -1317 -5 c-725 -3 -1429 -7 -1565 -10 l-248 -5 0
100 0 100 -87 -2 c-49 -2 -177 -4 -285 -5z"/>
<path d="M4080 7082 c0 -29 0 -29 -102 -46 -57 -10 -132 -20 -168 -24 l-65 -7
-3 -42 -3 -41 138 -6 c76 -3 304 -9 506 -12 l368 -6 -3 103 -3 104 -332 3
-333 2 0 -28z"/>
<path d="M4058 6653 l-318 -3 0 -25 c0 -22 -4 -25 -35 -25 -21 0 -43 -8 -55
-20 -16 -16 -36 -20 -117 -22 l-98 -3 -3 -42 -3 -41 58 -6 c32 -3 289 -9 571
-12 l513 -6 -3 103 -3 104 -95 0 c-52 0 -238 -1 -412 -2z"/>
<path d="M1303 5923 l-232 -3 0 -95 c-1 -77 2 -95 14 -95 11 0 15 -11 15 -40
l0 -40 83 -1 c45 -1 71 -3 57 -5 -14 -2 -58 -9 -97 -15 l-73 -12 0 -33 0 -34
1840 0 1841 0 -3 98 -3 97 -360 0 c-198 0 -863 -4 -1477 -9 l-1118 -9 0 102 0
101 -127 -2 c-71 -2 -232 -4 -360 -5z"/>
</g>
</svg>
