<?xml version="1.0" standalone="no"?>
<!DOCTYPE svg PUBLIC "-//W3C//DTD SVG 20010904//EN"
 "http://www.w3.org/TR/2001/REC-SVG-20010904/DTD/svg10.dtd">
<svg version="1.0" xmlns="http://www.w3.org/2000/svg"
 width="800.000000pt" height="1200.000000pt" viewBox="0 0 800.000000 1200.000000"
 preserveAspectRatio="xMidYMid meet">
<metadata>
Created by potrace 1.15, written by Peter Selinger 2001-2017
</metadata>
<g transform="translate(0.000000,1200.000000) scale(0.100000,-0.100000)"
fill="#000000" stroke="none">
<path d="M2760 9632 l0 -37 -65 -13 c-35 -6 -123 -12 -195 -12 -109 0 -130 -2
-130 -15 0 -13 -98 -15 -820 -15 l-821 0 3 -157 3 -158 40 -7 c22 -4 248 -7
503 -7 l462 -1 0 -40 0 -40 84 0 c65 0 85 -3 90 -15 5 -13 168 -15 1386 -15
l1380 0 0 59 0 60 33 3 32 3 3 223 2 222 -995 0 -995 0 0 -38z"/>
<path d="M742 9133 l3 -38 238 -3 237 -2 0 40 0 40 -241 0 -240 0 3 -37z"/>
<path d="M3860 8950 c-305 -4 -1080 -8 -1722 -9 l-1168 -1 0 -35 c0 -35 0 -35
48 -36 30 -1 36 -3 17 -6 -16 -2 -49 -8 -73 -15 l-43 -11 3 -46 3 -46 1913 -3
1913 -2 -3 107 -3 108 -165 1 c-91 0 -415 -3 -720 -6z"/>
<path d="M1793 8533 l-623 -3 0 -40 0 -40 43 -1 c23 -1 33 -3 22 -6 -47 -10
-65 -26 -65 -59 0 -20 6 -34 16 -38 9 -3 192 -6 408 -6 216 0 454 -3 529 -7
l136 -6 3 -36 3 -36 68 -3 67 -3 0 -34 0 -35 -90 0 c-73 0 -90 -3 -90 -15 0
-13 -22 -15 -135 -15 -83 0 -135 -4 -135 -10 0 -7 -197 -10 -570 -10 l-570 0
0 -35 c0 -29 -4 -35 -21 -35 -31 0 -49 -24 -49 -64 l0 -36 640 0 640 0 0 55 0
55 1365 0 1365 0 0 95 0 95 -205 0 -204 0 2 138 2 137 -965 0 c-531 0 -1245
-1 -1587 -2z"/>
<path d="M3530 7790 l0 -40 -185 0 c-156 0 -187 -2 -191 -15 -5 -13 -149 -15
-1210 -15 l-1204 0 0 -150 0 -150 925 0 925 0 0 -24 c0 -28 -28 -36 -126 -36
-50 0 -64 -3 -64 -15 0 -13 -39 -15 -295 -15 l-295 0 0 -34 0 -34 783 -6 c430
-4 1090 -6 1467 -4 l685 3 3 99 3 99 -871 -8 -870 -7 0 46 0 46 870 0 871 0
-3 148 -3 147 -607 3 -608 2 0 -40z"/>
<path d="M742 7238 l3 -93 390 0 390 0 0 90 0 90 -393 3 -393 2 3 -92z"/>
</g>
</svg>
