<?xml version="1.0" standalone="no"?>
<!DOCTYPE svg PUBLIC "-//W3C//DTD SVG 20010904//EN"
 "http://www.w3.org/TR/2001/REC-SVG-20010904/DTD/svg10.dtd">
<svg version="1.0" xmlns="http://www.w3.org/2000/svg"
 width="800.000000pt" height="1200.000000pt" viewBox="0 0 800.000000 1200.000000"
 preserveAspectRatio="xMidYMid meet">
<metadata>
Created by potrace 1.15, written by Peter Selinger 2001-2017
</metadata>
<g transform="translate(0.000000,1200.000000) scale(0.100000,-0.100000)"
fill="#000000" stroke="none">
<path d="M1210 11180 l0 -50 135 0 135 0 0 34 c0 54 -28 66 -160 66 l-110 0 0
-50z"/>
<path d="M2650 11185 c0 -8 -4 -15 -9 -15 -5 0 -13 -9 -16 -20 -6 -18 -15 -20
-82 -20 -66 0 -75 -2 -80 -19 -4 -15 -15 -21 -47 -23 -39 -3 -41 -4 -44 -40
-3 -32 0 -37 20 -40 12 -2 24 -11 26 -20 3 -17 -9 -18 -152 -18 -92 0 -157 -4
-161 -10 -3 -5 -26 -10 -51 -10 -36 0 -44 -3 -44 -19 0 -28 -33 -31 -329 -31
-146 0 -276 -3 -288 -6 -19 -5 -23 -13 -23 -45 0 -27 4 -39 14 -39 9 0 16 -12
18 -27 2 -19 10 -29 23 -31 11 -2 26 -11 32 -19 9 -12 36 -18 93 -21 70 -4 80
-7 80 -23 0 -11 7 -19 15 -19 8 0 15 -4 15 -10 0 -5 11 -10 25 -10 14 0 25 -4
25 -10 0 -5 -1 -10 -2 -11 -3 -1 -153 -13 -310 -25 l-98 -7 0 -38 0 -37 63 -6
c34 -4 85 -7 112 -9 42 -2 50 -5 53 -23 2 -17 12 -23 43 -28 51 -8 41 -26 -15
-26 l-44 0 -7 -75 c-3 -41 -4 -79 0 -85 3 -5 -1 -10 -9 -10 -23 0 -22 -75 0
-84 9 -3 51 -6 94 -6 46 0 80 -4 82 -11 2 -5 22 -13 46 -16 35 -5 42 -9 42
-28 0 -20 7 -24 53 -31 49 -7 50 -8 25 -18 -21 -7 -28 -17 -30 -45 l-3 -36
-118 -6 c-64 -4 -133 -10 -152 -13 -33 -6 -35 -10 -35 -44 0 -20 5 -44 10 -52
9 -15 80 -29 247 -49 40 -5 86 -12 103 -16 56 -12 20 -25 -70 -25 -58 0 -93
-4 -102 -13 -15 -15 -118 -37 -171 -37 -33 0 -37 -3 -37 -25 0 -13 -7 -28 -16
-33 -11 -6 -14 -21 -12 -53 l3 -44 70 -8 c39 -4 88 -13 110 -19 28 -8 421 -12
1363 -15 l1322 -4 0 670 c0 369 -4 671 -8 671 -5 0 -8 32 -8 72 l1 71 -55 28
c-30 16 -65 28 -77 29 -20 0 -23 5 -23 40 l0 40 -310 0 -310 0 0 25 0 25 -440
0 c-384 0 -440 -2 -440 -15z"/>
</g>
</svg>
