<?xml version="1.0" standalone="no"?>
<!DOCTYPE svg PUBLIC "-//W3C//DTD SVG 20010904//EN"
 "http://www.w3.org/TR/2001/REC-SVG-20010904/DTD/svg10.dtd">
<svg version="1.0" xmlns="http://www.w3.org/2000/svg"
 width="800.000000pt" height="1200.000000pt" viewBox="0 0 800.000000 1200.000000"
 preserveAspectRatio="xMidYMid meet">
<metadata>
Created by potrace 1.15, written by Peter Selinger 2001-2017
</metadata>
<g transform="translate(0.000000,1200.000000) scale(0.100000,-0.100000)"
fill="#000000" stroke="none">
<path d="M1868 10363 l-78 -4 0 -34 c0 -33 0 -34 -57 -40 -91 -10 -93 -12 -93
-55 l0 -38 123 -6 c67 -4 165 -11 217 -16 52 -5 197 -12 323 -16 125 -3 227
-10 227 -15 0 -5 -158 -10 -352 -10 -194 -1 -596 -5 -893 -8 l-540 -6 0 -90 0
-90 45 -3 c25 -2 49 -7 55 -13 5 -5 22 -9 37 -9 15 0 28 -4 28 -10 0 -6 -33
-10 -79 -10 -63 0 -80 -3 -85 -16 -8 -22 -7 -157 2 -170 4 -7 42 -15 85 -19
64 -6 76 -10 66 -21 -8 -9 -34 -14 -79 -14 -53 0 -69 -4 -74 -16 -9 -24 -7
-162 2 -168 5 -3 50 -8 100 -12 80 -6 90 -9 74 -20 -11 -7 -54 -14 -98 -16
l-79 -3 0 -220 0 -220 1209 -3 c961 -2 1211 0 1218 10 4 7 8 34 8 60 l0 48
783 2 782 3 3 583 2 582 -1009 0 -1010 0 -3 53 -3 52 -390 1 c-214 0 -425 -1
-467 -3z"/>
<path d="M2450 8219 c-613 -5 -1247 -11 -1407 -15 l-293 -6 0 -34 c0 -24 5
-34 15 -34 19 0 19 -16 0 -24 -13 -4 -15 -40 -15 -231 l0 -225 360 0 360 0 0
65 0 65 1638 2 1637 3 3 223 2 222 -592 -2 c-326 -1 -1095 -5 -1708 -9z"/>
</g>
</svg>
