<?xml version="1.0" standalone="no"?>
<!DOCTYPE svg PUBLIC "-//W3C//DTD SVG 20010904//EN"
 "http://www.w3.org/TR/2001/REC-SVG-20010904/DTD/svg10.dtd">
<svg version="1.0" xmlns="http://www.w3.org/2000/svg"
 width="800.000000pt" height="1200.000000pt" viewBox="0 0 800.000000 1200.000000"
 preserveAspectRatio="xMidYMid meet">
<metadata>
Created by potrace 1.15, written by Peter Selinger 2001-2017
</metadata>
<g transform="translate(0.000000,1200.000000) scale(0.100000,-0.100000)"
fill="#000000" stroke="none">
<path d="M3240 11000 c-641 -4 -1396 -8 -1678 -9 l-513 -1 3 -37 c3 -37 4 -38
46 -41 52 -4 46 -22 -9 -22 -21 0 -39 -4 -39 -10 0 -6 -58 -10 -155 -10 l-155
0 0 -94 0 -94 60 -7 c41 -5 60 -11 60 -21 0 -10 -15 -14 -60 -14 l-60 0 2
-277 3 -278 1390 0 1390 0 3 58 3 57 609 0 610 0 0 175 0 174 -77 4 -78 3 78
2 77 2 -2 223 -3 222 -170 1 c-93 0 -694 -3 -1335 -6z"/>
<path d="M1543 10053 l-753 -3 0 -40 0 -40 52 0 c60 0 55 -17 -7 -22 l-40 -3
-3 -425 c-2 -234 0 -1106 4 -1937 l6 -1513 1940 0 1940 0 -7 1988 c-4 1093 -9
1990 -12 1995 -4 6 -1163 6 -3120 0z"/>
<path d="M1160 6010 l0 -40 103 -2 c56 -1 77 -3 47 -5 -30 -2 -64 -8 -75 -13
-11 -6 -123 -11 -250 -13 l-230 -2 -3 -92 -3 -93 751 0 750 0 1 -27 c1 -16 0
-54 -1 -86 l-2 -57 734 2 733 3 3 98 3 97 -701 0 -700 0 0 40 0 40 1215 0
1215 0 0 95 0 95 -1795 0 -1795 0 0 -40z"/>
</g>
</svg>
