<?xml version="1.0" standalone="no"?>
<!DOCTYPE svg PUBLIC "-//W3C//DTD SVG 20010904//EN"
 "http://www.w3.org/TR/2001/REC-SVG-20010904/DTD/svg10.dtd">
<svg version="1.0" xmlns="http://www.w3.org/2000/svg"
 width="800.000000pt" height="1200.000000pt" viewBox="0 0 800.000000 1200.000000"
 preserveAspectRatio="xMidYMid meet">
<metadata>
Created by potrace 1.15, written by Peter Selinger 2001-2017
</metadata>
<g transform="translate(0.000000,1200.000000) scale(0.100000,-0.100000)"
fill="#000000" stroke="none">
<path d="M2675 11239 c-792 -3 -1549 -7 -1682 -8 l-243 -1 0 -35 0 -35 58 -1
c64 0 49 -12 -32 -24 l-46 -7 2 -462 3 -461 1084 -3 c861 -2 1086 0 1093 10 4
7 8 34 8 60 l0 48 913 2 912 3 3 397 2 397 -87 3 -88 3 -3 63 -3 62 -227 -2
c-125 -1 -875 -5 -1667 -9z"/>
<path d="M2850 10121 c0 -36 3 -40 28 -44 22 -3 20 -4 -10 -6 -27 -1 -38 -6
-38 -16 0 -13 -59 -15 -473 -15 -261 0 -522 -3 -580 -7 l-107 -6 0 -94 0 -93
520 0 520 0 0 60 0 60 1020 0 1020 0 0 100 0 100 -950 0 -950 0 0 -39z"/>
<path d="M1320 9800 l-175 -5 -3 -37 c-2 -25 -8 -38 -18 -38 -8 0 -14 -3 -14
-8 0 -19 -89 -32 -225 -32 l-145 0 0 -340 0 -340 1125 0 1125 0 0 60 0 60 880
0 880 0 -2 343 -3 342 -1625 0 c-894 1 -1704 -2 -1800 -5z"/>
<path d="M2438 8963 l-1388 -3 0 -35 0 -35 83 -2 c45 -1 63 -3 40 -5 -24 -2
-43 -8 -43 -14 0 -5 -18 -9 -40 -9 -22 0 -40 -4 -40 -10 0 -6 -58 -10 -155
-10 l-155 0 0 -875 0 -875 1445 0 1445 0 0 60 0 60 560 0 560 0 0 880 0 880
-462 -2 c-255 -2 -1087 -4 -1850 -5z"/>
<path d="M2075 7050 l-1020 -5 -3 -37 -3 -38 98 -2 c63 -1 78 -3 43 -5 -30 -2
-59 -8 -64 -14 -6 -5 -25 -9 -43 -9 -18 0 -33 -4 -33 -10 0 -6 -58 -10 -155
-10 l-155 0 0 -160 0 -160 55 0 c42 0 55 -3 55 -15 0 -12 -13 -15 -55 -15
l-56 0 3 -102 3 -103 117 -3 118 -3 0 -24 0 -25 -114 0 c-95 0 -115 -3 -120
-16 -9 -23 -7 -147 2 -162 7 -10 109 -12 478 -10 l469 3 3 64 3 64 1522 -4
1522 -4 3 408 2 407 -827 -2 c-456 -2 -1287 -5 -1848 -8z"/>
</g>
</svg>
