<?xml version="1.0" standalone="no"?>
<!DOCTYPE svg PUBLIC "-//W3C//DTD SVG 20010904//EN"
 "http://www.w3.org/TR/2001/REC-SVG-20010904/DTD/svg10.dtd">
<svg version="1.0" xmlns="http://www.w3.org/2000/svg"
 width="800.000000pt" height="1200.000000pt" viewBox="0 0 800.000000 1200.000000"
 preserveAspectRatio="xMidYMid meet">
<metadata>
Created by potrace 1.15, written by Peter Selinger 2001-2017
</metadata>
<g transform="translate(0.000000,1200.000000) scale(0.100000,-0.100000)"
fill="#000000" stroke="none">
<path d="M1160 7036 c0 -19 6 -37 13 -39 6 -3 -21 -6 -60 -6 l-73 -1 0 -40 0
-40 51 0 c56 0 78 -16 79 -57 0 -17 6 -23 23 -24 l22 0 -22 -11 c-19 -9 -23
-19 -23 -55 l0 -43 725 0 725 0 0 175 0 175 -730 0 -730 0 0 -34z"/>
</g>
</svg>
