<?xml version="1.0" standalone="no"?>
<!DOCTYPE svg PUBLIC "-//W3C//DTD SVG 20010904//EN"
 "http://www.w3.org/TR/2001/REC-SVG-20010904/DTD/svg10.dtd">
<svg version="1.0" xmlns="http://www.w3.org/2000/svg"
 width="800.000000pt" height="1200.000000pt" viewBox="0 0 800.000000 1200.000000"
 preserveAspectRatio="xMidYMid meet">
<metadata>
Created by potrace 1.15, written by Peter Selinger 2001-2017
</metadata>
<g transform="translate(0.000000,1200.000000) scale(0.100000,-0.100000)"
fill="#000000" stroke="none">
<path d="M1050 10866 c0 -25 -5 -48 -11 -52 -7 -4 -9 -23 -4 -53 3 -25 9 -63
12 -83 l5 -38 77 -2 c42 0 60 -3 41 -5 -19 -3 -39 -9 -44 -14 -6 -5 -25 -9
-43 -9 -21 0 -36 -6 -39 -15 -5 -12 -32 -15 -155 -15 l-149 0 0 -285 0 -285
1428 2 1427 3 3 68 3 67 569 0 570 0 0 292 0 291 -1272 -6 c-700 -4 -1344 -10
-1430 -14 l-157 -6 -3 99 -3 99 -412 3 -413 2 0 -44z"/>
<path d="M1248 9223 l-198 -3 0 -35 c0 -27 4 -34 23 -38 l22 -4 -22 -2 c-21
-1 -23 -6 -23 -61 l0 -60 285 0 285 0 0 105 0 105 -87 -2 c-49 -2 -177 -4
-285 -5z"/>
</g>
</svg>
