<?xml version="1.0" standalone="no"?>
<!DOCTYPE svg PUBLIC "-//W3C//DTD SVG 20010904//EN"
 "http://www.w3.org/TR/2001/REC-SVG-20010904/DTD/svg10.dtd">
<svg version="1.0" xmlns="http://www.w3.org/2000/svg"
 width="800.000000pt" height="1200.000000pt" viewBox="0 0 800.000000 1200.000000"
 preserveAspectRatio="xMidYMid meet">
<metadata>
Created by potrace 1.15, written by Peter Selinger 2001-2017
</metadata>
<g transform="translate(0.000000,1200.000000) scale(0.100000,-0.100000)"
fill="#000000" stroke="none">
<path d="M2023 10393 l-543 -3 0 -38 c0 -32 -5 -41 -25 -50 -14 -6 -25 -16
-25 -22 0 -6 -49 -10 -133 -10 -74 0 -229 -3 -345 -7 l-212 -6 0 -154 0 -153
223 2 222 3 3 63 3 62 1780 0 1780 0 -3 158 -3 157 -1090 0 c-600 0 -1334 -1
-1632 -2z"/>
<path d="M1808 7723 l-628 -3 0 -35 c0 -24 5 -35 15 -35 20 0 19 -17 -1 -28
-11 -6 -14 -20 -12 -48 l3 -39 865 0 865 0 3 98 3 97 -243 -2 c-134 -2 -525
-4 -870 -5z"/>
<path d="M1553 7453 l-353 -3 0 -49 c0 -35 -4 -51 -16 -55 -11 -4 -14 -17 -12
-43 l3 -38 765 0 765 0 0 95 0 95 -400 0 c-220 0 -559 -1 -752 -2z"/>
<path d="M3580 5880 l-885 -5 -3 -42 c-2 -26 1 -43 7 -43 6 0 11 -4 11 -10 0
-6 -82 -10 -225 -10 l-225 0 0 -40 0 -40 1245 0 1246 0 -3 98 -3 97 -140 0
c-77 0 -538 -2 -1025 -5z"/>
<path d="M770 5712 c0 -29 -4 -52 -10 -52 -5 0 -10 -20 -10 -45 l0 -45 600 0
600 0 0 90 0 90 -387 0 c-214 0 -479 3 -590 7 l-203 6 0 -51z"/>
</g>
</svg>
