<?xml version="1.0" standalone="no"?>
<!DOCTYPE svg PUBLIC "-//W3C//DTD SVG 20010904//EN"
 "http://www.w3.org/TR/2001/REC-SVG-20010904/DTD/svg10.dtd">
<svg version="1.0" xmlns="http://www.w3.org/2000/svg"
 width="800.000000pt" height="1200.000000pt" viewBox="0 0 800.000000 1200.000000"
 preserveAspectRatio="xMidYMid meet">
<metadata>
Created by potrace 1.15, written by Peter Selinger 2001-2017
</metadata>
<g transform="translate(0.000000,1200.000000) scale(0.100000,-0.100000)"
fill="#000000" stroke="none">
<path d="M1050 10866 c0 -25 -5 -48 -11 -52 -7 -4 -9 -23 -4 -53 3 -25 9 -63
12 -83 l5 -38 77 -2 c42 0 60 -3 41 -5 -19 -3 -39 -9 -44 -14 -6 -5 -25 -9
-43 -9 -21 0 -36 -6 -39 -15 -5 -12 -32 -15 -155 -15 l-149 0 0 -285 0 -285
1428 2 1427 3 3 68 3 67 569 0 570 0 0 292 0 291 -1272 -6 c-700 -4 -1344 -10
-1430 -14 l-157 -6 -3 99 -3 99 -412 3 -413 2 0 -44z"/>
<path d="M1248 9223 l-198 -3 0 -35 c0 -27 4 -34 23 -38 l22 -4 -22 -2 c-21
-1 -23 -6 -23 -61 0 -57 1 -60 24 -60 21 0 25 -6 28 -32 l3 -33 75 -5 75 -5
-98 -8 c-65 -6 -100 -13 -105 -23 -6 -10 -43 -14 -157 -16 l-150 -3 0 -285 0
-285 159 -3 159 -3 -7 -74 c-4 -40 -4 -85 0 -99 l6 -26 267 2 266 3 3 98 3 97
454 0 455 0 0 70 0 70 1118 2 1117 3 3 292 2 293 -1317 -5 c-725 -3 -1429 -7
-1565 -10 l-248 -5 0 100 0 100 -87 -2 c-49 -2 -177 -4 -285 -5z"/>
</g>
</svg>
