<?xml version="1.0" standalone="no"?>
<!DOCTYPE svg PUBLIC "-//W3C//DTD SVG 20010904//EN"
 "http://www.w3.org/TR/2001/REC-SVG-20010904/DTD/svg10.dtd">
<svg version="1.0" xmlns="http://www.w3.org/2000/svg"
 width="800.000000pt" height="1200.000000pt" viewBox="0 0 800.000000 1200.000000"
 preserveAspectRatio="xMidYMid meet">
<metadata>
Created by potrace 1.15, written by Peter Selinger 2001-2017
</metadata>
<g transform="translate(0.000000,1200.000000) scale(0.100000,-0.100000)"
fill="#000000" stroke="none">
<path d="M3483 7503 c-491 -3 -563 -5 -563 -18 0 -10 -11 -15 -35 -15 -19 0
-35 -4 -35 -10 0 -5 -9 -10 -20 -10 -11 0 -23 -7 -26 -15 -5 -12 -29 -15 -128
-15 -66 0 -127 -4 -134 -9 -8 -5 -12 -22 -10 -42 l3 -34 180 -8 c99 -4 330
-10 513 -13 l332 -5 0 -23 c0 -21 -5 -24 -67 -29 -38 -4 -101 -7 -140 -7 l-73
0 0 -40 0 -40 121 0 c94 0 124 -3 136 -15 13 -13 91 -15 611 -13 l597 3 3 98
3 97 -250 0 -250 0 -3 83 -3 82 -100 0 c-55 0 -353 -1 -662 -2z"/>
</g>
</svg>
