<?xml version="1.0" standalone="no"?>
<!DOCTYPE svg PUBLIC "-//W3C//DTD SVG 20010904//EN"
 "http://www.w3.org/TR/2001/REC-SVG-20010904/DTD/svg10.dtd">
<svg version="1.0" xmlns="http://www.w3.org/2000/svg"
 width="800.000000pt" height="1200.000000pt" viewBox="0 0 800.000000 1200.000000"
 preserveAspectRatio="xMidYMid meet">
<metadata>
Created by potrace 1.15, written by Peter Selinger 2001-2017
</metadata>
<g transform="translate(0.000000,1200.000000) scale(0.100000,-0.100000)"
fill="#000000" stroke="none">
<path d="M4506 7940 c-35 -18 -61 -20 -223 -20 l-183 0 0 -35 0 -35 -440 0
-440 0 0 -40 0 -40 765 0 765 0 0 95 0 95 -102 0 c-82 -1 -111 -5 -142 -20z"/>
<path d="M810 7800 c0 -29 -4 -40 -15 -40 -30 0 -57 -36 -53 -71 l3 -34 663
-3 662 -2 0 95 0 95 -630 0 -630 0 0 -40z"/>
<path d="M1698 7523 l-518 -3 0 -39 c0 -22 5 -41 13 -44 8 -3 7 -9 -6 -19 -13
-10 -18 -24 -15 -48 l3 -35 886 -3 887 -2 6 22 c8 30 8 142 0 162 -5 14 -46
16 -373 14 -201 -2 -599 -4 -883 -5z"/>
<path d="M1170 7160 l0 -40 43 -1 42 -1 -42 -10 c-43 -9 -43 -9 -43 -54 l0
-44 1233 2 1232 3 0 90 0 90 -1232 3 -1233 2 0 -40z"/>
<path d="M1593 6213 l-413 -3 0 -35 c0 -31 3 -35 28 -35 27 -1 27 -1 -7 -15
l-34 -15 7 -68 c4 -37 11 -68 16 -70 16 -6 11 -22 -5 -22 -11 0 -15 -11 -15
-41 0 -32 4 -42 20 -46 26 -7 26 -41 -1 -69 -19 -20 -21 -30 -15 -78 5 -40 12
-56 24 -58 15 -3 14 -6 -5 -23 -15 -13 -23 -31 -23 -52 l0 -33 808 2 807 3 3
88 3 87 -36 0 -35 0 0 69 c0 95 -3 101 -56 101 l-44 0 0 65 0 64 83 3 82 3 0
90 0 90 -390 0 c-214 0 -576 -1 -802 -2z"/>
</g>
</svg>
