<?xml version="1.0" standalone="no"?>
<!DOCTYPE svg PUBLIC "-//W3C//DTD SVG 20010904//EN"
 "http://www.w3.org/TR/2001/REC-SVG-20010904/DTD/svg10.dtd">
<svg version="1.0" xmlns="http://www.w3.org/2000/svg"
 width="800.000000pt" height="1200.000000pt" viewBox="0 0 800.000000 1200.000000"
 preserveAspectRatio="xMidYMid meet">
<metadata>
Created by potrace 1.15, written by Peter Selinger 2001-2017
</metadata>
<g transform="translate(0.000000,1200.000000) scale(0.100000,-0.100000)"
fill="#000000" stroke="none">
<path d="M745 11227 c-4 -13 -5 -46 -3 -73 3 -44 6 -49 28 -52 66 -8 123 -42
71 -42 -11 0 -23 -4 -26 -10 -3 -5 -19 -10 -35 -10 -36 0 -40 -14 -37 -125 l2
-79 44 -17 43 -16 -28 -10 c-16 -6 -37 -14 -48 -17 -15 -5 -17 -13 -12 -51 3
-25 9 -66 12 -92 4 -30 13 -53 25 -61 12 -8 19 -25 19 -46 0 -29 4 -34 31 -40
44 -8 26 -26 -27 -26 l-44 0 0 -38 0 -39 383 -6 c210 -4 471 -7 580 -7 l197 0
0 409 c0 225 -3 423 -6 440 l-6 31 -579 0 -579 0 -5 -23z"/>
<path d="M1218 10323 l-468 -3 -6 -24 c-13 -54 -3 -70 51 -80 28 -5 290 -10
583 -13 l532 -4 0 66 0 65 -112 -2 c-62 -2 -323 -4 -580 -5z"/>
<path d="M740 9962 l0 -212 583 2 582 3 3 203 2 202 -358 0 c-197 0 -461 3
-585 7 l-227 6 0 -211z m399 -118 c2 -2 -48 -4 -112 -4 -75 0 -117 4 -117 11
0 7 36 8 113 3 61 -4 114 -8 116 -10z"/>
<path d="M2888 9801 c-10 -10 -18 -30 -18 -44 0 -27 0 -27 -80 -27 -47 0 -80
-4 -80 -10 0 -7 -303 -10 -890 -10 l-890 0 0 -39 0 -38 77 -7 c42 -3 114 -6
160 -6 49 0 83 -4 83 -10 0 -5 -15 -10 -32 -10 -18 0 -55 -7 -82 -15 -33 -10
-93 -15 -182 -15 l-132 0 -5 -37 c-5 -34 -8 -241 -4 -244 1 -1 263 -5 582 -8
319 -3 573 -9 565 -13 -8 -3 -27 -9 -42 -12 -24 -5 -28 -12 -28 -39 0 -17 3
-42 6 -54 l6 -23 744 0 744 0 0 60 0 60 680 0 680 0 0 280 0 280 -922 -1
c-870 0 -924 -1 -940 -18z"/>
<path d="M1520 8725 l0 -35 175 0 175 0 0 35 0 35 -175 0 -175 0 0 -35z"/>
<path d="M2420 8351 l0 -39 -125 -4 c-77 -2 -129 -7 -133 -14 -5 -8 -219 -13
-716 -17 -551 -6 -712 -10 -718 -20 -4 -6 -7 -50 -6 -97 l3 -85 851 -3 851 -2
7 31 c3 17 6 42 6 55 l0 24 1155 0 1155 0 0 98 0 99 -232 6 c-128 4 -653 7
-1165 7 l-933 0 0 -39z"/>
<path d="M1030 7995 l0 -35 73 -2 c39 0 57 -3 40 -5 -18 -2 -33 -8 -33 -14 0
-5 -18 -9 -40 -9 l-40 0 0 -288 0 -289 707 -6 c388 -4 1171 -7 1739 -7 932 0
1032 2 1038 16 3 9 6 36 6 60 l0 44 115 0 115 0 0 285 0 285 -1860 0 -1860 0
0 -35z"/>
</g>
</svg>
