<?xml version="1.0" standalone="no"?>
<!DOCTYPE svg PUBLIC "-//W3C//DTD SVG 20010904//EN"
 "http://www.w3.org/TR/2001/REC-SVG-20010904/DTD/svg10.dtd">
<svg version="1.0" xmlns="http://www.w3.org/2000/svg"
 width="800.000000pt" height="1200.000000pt" viewBox="0 0 800.000000 1200.000000"
 preserveAspectRatio="xMidYMid meet">
<metadata>
Created by potrace 1.15, written by Peter Selinger 2001-2017
</metadata>
<g transform="translate(0.000000,1200.000000) scale(0.100000,-0.100000)"
fill="#000000" stroke="none">
<path d="M1970 9021 c0 -47 -4 -48 -142 -57 l-98 -7 0 -39 0 -38 120 0 c100 0
120 -2 120 -15 0 -13 53 -15 420 -15 l420 0 0 105 0 105 -420 0 -420 0 0 -39z"/>
<path d="M1588 7863 l-198 -3 0 -40 c0 -39 -1 -40 -35 -40 -34 0 -35 -1 -35
-41 0 -32 4 -42 20 -46 11 -3 20 -9 20 -14 0 -5 344 -9 800 -9 l800 0 0 100 0
100 -587 -2 c-324 -2 -677 -4 -785 -5z"/>
<path d="M3020 7666 c0 -19 6 -37 13 -39 6 -3 -63 -6 -155 -6 -105 -1 -168 -5
-168 -11 0 -6 -119 -10 -338 -10 -186 0 -441 -3 -565 -7 l-227 -6 0 -37 c0
-37 -1 -38 -45 -44 -45 -7 -45 -8 -45 -47 0 -37 2 -39 30 -39 17 0 30 -4 30
-10 0 -6 138 -10 395 -10 l395 0 0 -25 c0 -25 -1 -25 -91 -25 l-90 0 3 -42 3
-43 88 -3 c48 -1 87 -7 87 -12 0 -7 285 -9 788 -8 l787 3 0 95 0 95 -572 -4
-573 -4 0 41 0 42 723 2 722 3 3 93 3 92 -601 0 -600 0 0 -34z"/>
</g>
</svg>
