<?xml version="1.0" standalone="no"?>
<!DOCTYPE svg PUBLIC "-//W3C//DTD SVG 20010904//EN"
 "http://www.w3.org/TR/2001/REC-SVG-20010904/DTD/svg10.dtd">
<svg version="1.0" xmlns="http://www.w3.org/2000/svg"
 width="800.000000pt" height="1200.000000pt" viewBox="0 0 800.000000 1200.000000"
 preserveAspectRatio="xMidYMid meet">
<metadata>
Created by potrace 1.15, written by Peter Selinger 2001-2017
</metadata>
<g transform="translate(0.000000,1200.000000) scale(0.100000,-0.100000)"
fill="#000000" stroke="none">
<path d="M3980 10025 c0 -25 0 -25 -96 -25 -87 0 -96 -2 -101 -20 -5 -19 -14
-20 -164 -20 -133 0 -159 -2 -167 -16 -8 -14 -150 -16 -1360 -21 l-1352 -6 0
-339 0 -338 61 0 c52 0 60 -2 57 -17 -2 -14 -15 -19 -61 -21 l-57 -3 0 -459 0
-460 1224 0 1224 0 6 23 c3 12 6 41 6 65 l0 42 775 0 775 0 0 820 0 820 -385
0 -385 0 0 -25z"/>
<path d="M2343 8243 c-53 -4 -53 -4 -53 -37 0 -32 -2 -33 -52 -42 l-53 -9 -3
-42 -3 -43 44 0 c31 0 47 -5 51 -15 5 -13 42 -15 256 -15 l250 0 0 105 0 105
-192 -2 c-106 -1 -217 -3 -245 -5z"/>
<path d="M1050 7970 l0 -40 83 -2 c45 -1 64 -3 42 -5 -22 -3 -43 -9 -46 -15
-5 -7 -74 -13 -193 -16 -179 -4 -186 -5 -192 -26 -2 -11 -3 -84 -2 -161 l3
-140 63 -3 c45 -2 62 -7 62 -17 0 -10 -17 -15 -62 -17 l-63 -3 -3 -800 c-1
-440 0 -810 3 -822 5 -23 6 -23 205 -23 l199 0 3 63 3 62 1798 3 1797 2 0
1000 0 1000 -1850 0 -1850 0 0 -40z"/>
</g>
</svg>
