<?xml version="1.0" standalone="no"?>
<!DOCTYPE svg PUBLIC "-//W3C//DTD SVG 20010904//EN"
 "http://www.w3.org/TR/2001/REC-SVG-20010904/DTD/svg10.dtd">
<svg version="1.0" xmlns="http://www.w3.org/2000/svg"
 width="800.000000pt" height="1200.000000pt" viewBox="0 0 800.000000 1200.000000"
 preserveAspectRatio="xMidYMid meet">
<metadata>
Created by potrace 1.15, written by Peter Selinger 2001-2017
</metadata>
<g transform="translate(0.000000,1200.000000) scale(0.100000,-0.100000)"
fill="#000000" stroke="none">
<path d="M2785 7050 c-319 -4 -748 -11 -952 -15 l-373 -8 0 -32 c0 -30 -3 -33
-42 -39 -77 -12 -340 -25 -515 -26 l-173 0 -6 -24 c-3 -13 -4 -35 -2 -47 l3
-24 302 -3 c265 -2 303 0 303 13 0 13 138 15 1230 15 l1231 0 -3 98 -3 97
-210 1 c-115 0 -471 -3 -790 -6z"/>
</g>
</svg>
