<?xml version="1.0" standalone="no"?>
<!DOCTYPE svg PUBLIC "-//W3C//DTD SVG 20010904//EN"
 "http://www.w3.org/TR/2001/REC-SVG-20010904/DTD/svg10.dtd">
<svg version="1.0" xmlns="http://www.w3.org/2000/svg"
 width="800.000000pt" height="1200.000000pt" viewBox="0 0 800.000000 1200.000000"
 preserveAspectRatio="xMidYMid meet">
<metadata>
Created by potrace 1.15, written by Peter Selinger 2001-2017
</metadata>
<g transform="translate(0.000000,1200.000000) scale(0.100000,-0.100000)"
fill="#000000" stroke="none">
<path d="M1333 11123 l-193 -3 0 -40 c0 -28 -4 -40 -14 -40 -8 0 -16 -5 -18
-12 -3 -9 -56 -14 -184 -18 l-179 -5 0 -1055 0 -1055 798 -3 797 -2 0 60 0 60
1205 0 1205 0 0 1060 0 1060 -1612 -2 c-887 -2 -1700 -4 -1805 -5z"/>
<path d="M1050 8815 l0 -35 78 -2 c42 -1 60 -3 40 -5 -21 -2 -38 -8 -38 -14 0
-5 -18 -9 -40 -9 -22 0 -40 -4 -40 -10 0 -6 -62 -11 -152 -12 l-153 -3 -3
-555 c-1 -305 0 -565 3 -578 l5 -22 993 2 992 3 3 63 3 62 1004 0 1005 0 0
575 0 575 -1850 0 -1850 0 0 -35z"/>
</g>
</svg>
