<?xml version="1.0" standalone="no"?>
<!DOCTYPE svg PUBLIC "-//W3C//DTD SVG 20010904//EN"
 "http://www.w3.org/TR/2001/REC-SVG-20010904/DTD/svg10.dtd">
<svg version="1.0" xmlns="http://www.w3.org/2000/svg"
 width="800.000000pt" height="1200.000000pt" viewBox="0 0 800.000000 1200.000000"
 preserveAspectRatio="xMidYMid meet">
<metadata>
Created by potrace 1.15, written by Peter Selinger 2001-2017
</metadata>
<g transform="translate(0.000000,1200.000000) scale(0.100000,-0.100000)"
fill="#000000" stroke="none">
<path d="M3463 10373 l-263 -3 0 -35 c0 -19 -1 -36 -2 -36 -2 -1 -64 -4 -138
-8 l-135 -6 0 -45 0 -45 95 -3 c52 -2 99 -7 104 -12 6 -6 316 -10 818 -10
l808 0 0 105 0 105 -512 -2 c-282 -2 -631 -4 -775 -5z"/>
<path d="M2240 10205 l0 -35 320 0 320 0 0 35 0 35 -320 0 -320 0 0 -35z"/>
<path d="M3510 9740 c0 -55 -17 -60 -206 -60 l-154 0 0 -40 c0 -39 1 -40 38
-41 20 -1 98 -6 172 -11 74 -5 418 -12 763 -14 l628 -4 -3 102 -3 103 -617 3
-618 2 0 -40z"/>
<path d="M740 9560 l0 -90 34 0 c19 0 38 -4 41 -10 3 -5 23 -11 43 -11 25 -1
29 -3 12 -5 -14 -2 -49 -9 -77 -15 l-53 -10 0 -40 0 -39 1595 0 1595 0 0 102
0 101 -1330 -7 -1330 -7 0 61 0 60 -265 0 -265 0 0 -90z"/>
<path d="M3330 9300 c-503 -4 -1204 -8 -1557 -9 l-643 -1 0 -40 0 -40 58 -1
c31 -1 -13 -6 -98 -11 -85 -4 -159 -13 -164 -18 -6 -6 -50 -10 -98 -10 l-88 0
0 -220 0 -220 1125 0 1125 0 0 60 0 60 880 0 880 0 0 59 0 60 -52 4 -53 3 53
2 52 2 -2 163 -3 162 -250 1 c-137 0 -662 -3 -1165 -6z"/>
<path d="M3100 8541 c0 -26 -5 -41 -16 -45 -9 -3 -85 -6 -170 -6 -130 0 -154
-2 -154 -15 0 -13 -27 -15 -177 -16 -98 -1 -551 -5 -1008 -8 l-830 -6 -3 -70
c-5 -118 -8 -115 106 -116 96 -1 189 -16 114 -18 -19 -1 -35 -7 -38 -16 -5
-12 -25 -15 -90 -15 l-84 0 0 -40 0 -40 598 0 c328 0 1228 3 2000 7 l1402 6 0
219 0 218 -825 0 -825 0 0 -39z"/>
</g>
</svg>
