<?xml version="1.0" standalone="no"?>
<!DOCTYPE svg PUBLIC "-//W3C//DTD SVG 20010904//EN"
 "http://www.w3.org/TR/2001/REC-SVG-20010904/DTD/svg10.dtd">
<svg version="1.0" xmlns="http://www.w3.org/2000/svg"
 width="800.000000pt" height="1200.000000pt" viewBox="0 0 800.000000 1200.000000"
 preserveAspectRatio="xMidYMid meet">
<metadata>
Created by potrace 1.15, written by Peter Selinger 2001-2017
</metadata>
<g transform="translate(0.000000,1200.000000) scale(0.100000,-0.100000)"
fill="#000000" stroke="none">
<path d="M2550 11076 c0 -39 -14 -46 -101 -46 -88 0 -149 -11 -149 -26 0 -12
-101 -14 -606 -14 l-606 0 4 -39 c3 -38 2 -40 -29 -46 -31 -5 -33 -9 -33 -45
0 -37 2 -40 29 -40 20 0 30 -6 34 -20 5 -20 12 -20 1749 -18 l1743 3 3 103 3
102 -481 0 -480 0 0 60 0 60 -540 0 -540 0 0 -34z"/>
<path d="M2260 10476 l0 -34 -57 -6 c-32 -3 -102 -8 -155 -12 -75 -4 -98 -9
-98 -20 0 -12 -92 -14 -610 -14 l-610 0 0 -160 0 -160 555 0 555 0 0 60 0 60
1455 0 1455 0 0 160 0 160 -1245 0 -1245 0 0 -34z"/>
<path d="M1830 9161 c0 -37 -2 -39 -37 -45 -21 -3 -70 -6 -109 -6 -55 0 -73
-4 -78 -15 -5 -13 -63 -15 -441 -15 l-435 0 0 -160 0 -160 510 0 510 0 0 55 0
55 1500 0 1500 0 -2 163 -3 162 -1457 3 -1458 2 0 -39z"/>
<path d="M3060 8682 l0 -39 -97 -6 c-54 -4 -173 -7 -265 -7 -143 0 -168 -2
-168 -15 0 -13 -107 -15 -900 -15 l-901 0 3 -102 3 -103 57 -3 c43 -2 58 -7
58 -17 0 -8 4 -15 9 -15 6 0 11 -17 13 -37 l3 -38 345 -8 c190 -4 351 -5 358
-2 7 3 12 25 12 60 l0 55 1578 2 1577 3 0 160 0 160 -842 3 -843 2 0 -38z"/>
</g>
</svg>
