<?xml version="1.0" standalone="no"?>
<!DOCTYPE svg PUBLIC "-//W3C//DTD SVG 20010904//EN"
 "http://www.w3.org/TR/2001/REC-SVG-20010904/DTD/svg10.dtd">
<svg version="1.0" xmlns="http://www.w3.org/2000/svg"
 width="800.000000pt" height="1200.000000pt" viewBox="0 0 800.000000 1200.000000"
 preserveAspectRatio="xMidYMid meet">
<metadata>
Created by potrace 1.15, written by Peter Selinger 2001-2017
</metadata>
<g transform="translate(0.000000,1200.000000) scale(0.100000,-0.100000)"
fill="#000000" stroke="none">
<path d="M2090 7180 l0 -40 -47 0 c-27 0 -65 -3 -85 -6 -35 -6 -38 -9 -38 -39
0 -30 -3 -33 -37 -39 -21 -3 -181 -6 -355 -6 l-318 0 0 -35 c0 -34 1 -35 43
-36 23 -1 33 -3 22 -6 -50 -11 -65 -25 -65 -65 l0 -38 720 0 720 0 0 80 0 80
498 2 497 3 3 93 3 92 -781 0 -780 0 0 -40z"/>
</g>
</svg>
