<?xml version="1.0" standalone="no"?>
<!DOCTYPE svg PUBLIC "-//W3C//DTD SVG 20010904//EN"
 "http://www.w3.org/TR/2001/REC-SVG-20010904/DTD/svg10.dtd">
<svg version="1.0" xmlns="http://www.w3.org/2000/svg"
 width="800.000000pt" height="1200.000000pt" viewBox="0 0 800.000000 1200.000000"
 preserveAspectRatio="xMidYMid meet">
<metadata>
Created by potrace 1.15, written by Peter Selinger 2001-2017
</metadata>
<g transform="translate(0.000000,1200.000000) scale(0.100000,-0.100000)"
fill="#000000" stroke="none">
<path d="M2260 11239 c-300 -3 -686 -7 -857 -8 l-313 -1 0 -35 0 -35 68 -1
c73 -1 73 -2 -40 -20 -43 -7 -78 -17 -78 -21 0 -4 -69 -8 -154 -8 -131 0 -155
-2 -160 -16 -8 -20 -8 -248 0 -268 6 -15 186 -16 1940 -16 l1934 0 0 54 0 55
58 6 c31 3 64 7 72 8 12 2 15 29 18 160 l3 157 -973 -2 c-535 -1 -1218 -5
-1518 -9z"/>
<path d="M3505 7100 c-385 -4 -1050 -8 -1477 -9 l-778 -1 0 -40 0 -40 78 -1
77 -2 -75 -9 c-41 -5 -187 -12 -325 -16 l-250 -7 -3 -197 -2 -198 1275 0 1275
0 0 60 0 60 725 0 725 0 -2 203 -3 202 -270 1 c-148 0 -585 -3 -970 -6z"/>
<path d="M3372 6598 c-7 -7 -12 -18 -12 -25 0 -8 -13 -13 -35 -13 -19 0 -37
-6 -42 -14 -4 -8 -26 -16 -48 -18 -39 -3 -40 -4 -43 -44 l-3 -41 70 -7 c38 -3
82 -11 96 -16 14 -6 69 -10 121 -10 l94 0 0 100 0 100 -93 0 c-59 0 -97 -4
-105 -12z"/>
<path d="M793 6373 c-42 -4 -43 -5 -43 -42 0 -21 3 -59 6 -85 l7 -47 136 3
c157 3 149 -3 136 115 l-7 63 -96 -2 c-53 -1 -116 -3 -139 -5z"/>
<path d="M1798 6273 l-138 -4 0 -39 c0 -21 3 -41 8 -43 4 -3 119 -8 255 -12
l248 -7 -3 54 -3 53 -115 0 c-63 1 -177 -1 -252 -2z"/>
</g>
</svg>
