<?xml version="1.0" standalone="no"?>
<!DOCTYPE svg PUBLIC "-//W3C//DTD SVG 20010904//EN"
 "http://www.w3.org/TR/2001/REC-SVG-20010904/DTD/svg10.dtd">
<svg version="1.0" xmlns="http://www.w3.org/2000/svg"
 width="800.000000pt" height="1200.000000pt" viewBox="0 0 800.000000 1200.000000"
 preserveAspectRatio="xMidYMid meet">
<metadata>
Created by potrace 1.15, written by Peter Selinger 2001-2017
</metadata>
<g transform="translate(0.000000,1200.000000) scale(0.100000,-0.100000)"
fill="#000000" stroke="none">
<path d="M3780 6695 c0 -13 -22 -15 -135 -15 l-135 0 0 -40 c0 -22 5 -40 10
-40 6 0 10 -13 10 -30 l0 -30 114 0 c83 0 115 -3 118 -12 4 -10 111 -13 494
-13 l489 0 3 98 3 97 -486 0 c-424 0 -485 -2 -485 -15z"/>
</g>
</svg>
