<?xml version="1.0" standalone="no"?>
<!DOCTYPE svg PUBLIC "-//W3C//DTD SVG 20010904//EN"
 "http://www.w3.org/TR/2001/REC-SVG-20010904/DTD/svg10.dtd">
<svg version="1.0" xmlns="http://www.w3.org/2000/svg"
 width="800.000000pt" height="1200.000000pt" viewBox="0 0 800.000000 1200.000000"
 preserveAspectRatio="xMidYMid meet">
<metadata>
Created by potrace 1.15, written by Peter Selinger 2001-2017
</metadata>
<g transform="translate(0.000000,1200.000000) scale(0.100000,-0.100000)"
fill="#000000" stroke="none">
<path d="M2115 11219 c-374 -3 -839 -7 -1032 -8 l-353 -1 0 -35 0 -35 108 -2
c98 -1 102 -2 47 -9 -33 -4 -82 -11 -109 -15 l-49 -7 6 -231 c4 -127 7 -279 7
-338 l0 -108 115 0 c70 0 115 -4 115 -10 0 -5 -18 -10 -39 -10 -22 0 -43 -4
-46 -10 -3 -5 -37 -10 -76 -10 l-69 0 0 -100 0 -100 138 -2 c127 -2 130 -2 35
-5 l-103 -4 0 -37 c0 -49 -9 -60 -50 -64 l-35 -3 -3 -815 c-1 -448 0 -825 3
-837 l5 -23 2010 0 2010 0 0 900 0 900 -230 0 -230 0 0 55 0 55 230 0 230 0 0
460 0 460 -977 -2 c-538 -1 -1284 -5 -1658 -9z"/>
</g>
</svg>
