<?xml version="1.0" standalone="no"?>
<!DOCTYPE svg PUBLIC "-//W3C//DTD SVG 20010904//EN"
 "http://www.w3.org/TR/2001/REC-SVG-20010904/DTD/svg10.dtd">
<svg version="1.0" xmlns="http://www.w3.org/2000/svg"
 width="800.000000pt" height="1200.000000pt" viewBox="0 0 800.000000 1200.000000"
 preserveAspectRatio="xMidYMid meet">
<metadata>
Created by potrace 1.15, written by Peter Selinger 2001-2017
</metadata>
<g transform="translate(0.000000,1200.000000) scale(0.100000,-0.100000)"
fill="#000000" stroke="none">
<path d="M2550 10970 c0 -33 3 -40 20 -40 11 0 20 -4 20 -10 0 -6 -53 -10
-140 -10 -77 0 -148 -4 -158 -10 -10 -6 -318 -13 -787 -17 l-770 -8 -3 -97 -3
-98 83 -1 c78 -1 80 -2 38 -11 -25 -5 -62 -11 -82 -15 l-38 -5 0 -284 0 -284
183 2 182 3 3 63 3 62 1824 0 1825 0 0 280 0 280 -55 0 c-42 0 -55 3 -55 15 0
12 13 15 55 15 l55 0 0 105 0 105 -1100 0 -1100 0 0 -40z"/>
<path d="M4145 10083 c-164 -4 -165 -4 -165 -53 l0 -40 74 0 c56 0 75 -4 80
-15 5 -13 49 -15 311 -15 l305 0 0 65 0 65 -242 -2 c-134 -1 -297 -4 -363 -5z"/>
<path d="M737 10033 c-4 -3 -7 -48 -7 -100 l0 -93 368 2 367 3 3 75 c2 41 0
85 -3 97 l-5 23 -359 0 c-197 0 -361 -3 -364 -7z"/>
</g>
</svg>
