<?xml version="1.0" standalone="no"?>
<!DOCTYPE svg PUBLIC "-//W3C//DTD SVG 20010904//EN"
 "http://www.w3.org/TR/2001/REC-SVG-20010904/DTD/svg10.dtd">
<svg version="1.0" xmlns="http://www.w3.org/2000/svg"
 width="800.000000pt" height="1200.000000pt" viewBox="0 0 800.000000 1200.000000"
 preserveAspectRatio="xMidYMid meet">
<metadata>
Created by potrace 1.15, written by Peter Selinger 2001-2017
</metadata>
<g transform="translate(0.000000,1200.000000) scale(0.100000,-0.100000)"
fill="#000000" stroke="none">
<path d="M1180 7580 l0 -40 53 -1 52 -1 -60 -14 c-40 -9 -131 -13 -267 -14
-240 0 -221 10 -216 -115 l3 -70 1053 -3 1052 -2 0 55 0 55 950 0 950 0 0 95
0 95 -1785 0 -1785 0 0 -40z"/>
<path d="M1170 6710 l0 -40 68 -2 c38 -1 52 -3 32 -5 -19 -3 -39 -9 -44 -14
-6 -5 -113 -9 -243 -9 l-232 0 -6 -32 c-3 -18 -5 -60 -3 -93 l3 -60 1433 -3
1432 -2 0 55 0 55 570 0 570 0 0 95 0 95 -1790 0 -1790 0 0 -40z"/>
</g>
</svg>
