<?xml version="1.0" standalone="no"?>
<!DOCTYPE svg PUBLIC "-//W3C//DTD SVG 20010904//EN"
 "http://www.w3.org/TR/2001/REC-SVG-20010904/DTD/svg10.dtd">
<svg version="1.0" xmlns="http://www.w3.org/2000/svg"
 width="800.000000pt" height="1200.000000pt" viewBox="0 0 800.000000 1200.000000"
 preserveAspectRatio="xMidYMid meet">
<metadata>
Created by potrace 1.15, written by Peter Selinger 2001-2017
</metadata>
<g transform="translate(0.000000,1200.000000) scale(0.100000,-0.100000)"
fill="#000000" stroke="none">
<path d="M2850 10605 l0 -45 -72 0 c-40 0 -104 -3 -141 -7 l-68 -6 3 -36 3
-36 148 -3 c122 -2 147 -5 147 -17 0 -13 91 -15 705 -15 l705 0 0 105 0 105
-715 0 -715 0 0 -45z"/>
<path d="M2800 10011 c0 -38 0 -38 -46 -45 -26 -3 -134 -6 -241 -6 -163 0
-195 -2 -199 -15 -5 -13 -102 -15 -790 -15 l-784 0 0 -165 0 -165 1915 0 1915
0 0 65 0 65 90 0 90 0 0 160 0 160 -975 0 -975 0 0 -39z"/>
</g>
</svg>
