<?xml version="1.0" standalone="no"?>
<!DOCTYPE svg PUBLIC "-//W3C//DTD SVG 20010904//EN"
 "http://www.w3.org/TR/2001/REC-SVG-20010904/DTD/svg10.dtd">
<svg version="1.0" xmlns="http://www.w3.org/2000/svg"
 width="800.000000pt" height="1200.000000pt" viewBox="0 0 800.000000 1200.000000"
 preserveAspectRatio="xMidYMid meet">
<metadata>
Created by potrace 1.15, written by Peter Selinger 2001-2017
</metadata>
<g transform="translate(0.000000,1200.000000) scale(0.100000,-0.100000)"
fill="#000000" stroke="none">
<path d="M1083 6873 c-97 -2 -163 -7 -163 -13 0 -6 -9 -10 -20 -10 -16 0 -20
-7 -20 -30 0 -28 -3 -30 -35 -30 -19 0 -35 -4 -35 -9 0 -5 -12 -11 -27 -13
-25 -3 -28 -7 -28 -43 l0 -40 1022 -3 1023 -2 5 23 c3 12 5 56 3 97 l-3 75
-780 0 c-429 0 -853 -1 -942 -2z"/>
<path d="M1840 6550 l-635 -5 -3 -37 -3 -38 48 -1 48 -1 -62 -15 c-35 -8 -63
-19 -63 -24 0 -5 -90 -9 -210 -9 l-210 0 0 -85 0 -85 850 0 850 0 0 55 0 55
1148 2 1147 3 0 95 0 95 -1135 0 c-624 0 -1421 -2 -1770 -5z"/>
</g>
</svg>
