<?xml version="1.0" standalone="no"?>
<!DOCTYPE svg PUBLIC "-//W3C//DTD SVG 20010904//EN"
 "http://www.w3.org/TR/2001/REC-SVG-20010904/DTD/svg10.dtd">
<svg version="1.0" xmlns="http://www.w3.org/2000/svg"
 width="800.000000pt" height="1200.000000pt" viewBox="0 0 800.000000 1200.000000"
 preserveAspectRatio="xMidYMid meet">
<metadata>
Created by potrace 1.15, written by Peter Selinger 2001-2017
</metadata>
<g transform="translate(0.000000,1200.000000) scale(0.100000,-0.100000)"
fill="#000000" stroke="none">
<path d="M2115 11219 c-374 -3 -839 -7 -1032 -8 l-353 -1 0 -35 0 -35 108 -2
c98 -1 102 -2 47 -9 -33 -4 -82 -11 -109 -15 l-49 -7 6 -231 c4 -127 7 -279 7
-338 l0 -108 115 0 c70 0 115 -4 115 -10 0 -5 -18 -10 -39 -10 -22 0 -43 -4
-46 -10 -3 -5 -37 -10 -76 -10 l-69 0 0 -100 0 -100 138 -2 c127 -2 130 -2 35
-5 l-103 -4 0 -37 c0 -49 -9 -60 -50 -64 l-35 -3 -3 -815 c-1 -448 0 -825 3
-837 l5 -23 2010 0 2010 0 0 900 0 900 -230 0 -230 0 0 55 0 55 230 0 230 0 0
460 0 460 -977 -2 c-538 -1 -1284 -5 -1658 -9z"/>
<path d="M3138 8343 l-158 -4 0 -24 c0 -24 -2 -25 -69 -25 -78 0 -101 -6 -101
-26 0 -10 -15 -14 -58 -14 -33 0 -63 -5 -70 -12 -10 -10 -182 -14 -772 -16
l-760 -4 0 -39 c0 -39 0 -39 40 -39 22 0 40 -4 40 -10 0 -5 -24 -10 -54 -10
-49 0 -55 -2 -58 -22 -3 -23 -5 -23 -188 -28 l-185 -5 0 -70 0 -70 318 -3 317
-2 0 50 0 50 1685 0 1685 0 0 105 0 105 -365 0 -365 0 0 44 c0 82 31 76 -369
74 -196 -1 -427 -4 -513 -5z"/>
<path d="M2268 7983 l-318 -3 0 -34 0 -34 123 -6 c233 -12 277 -17 277 -30 0
-11 -159 -14 -796 -18 -498 -3 -799 -9 -805 -15 -6 -6 -7 -85 -3 -216 l7 -207
589 0 588 0 0 65 0 65 1410 0 1410 0 0 220 0 220 -1082 -2 c-596 -2 -1226 -4
-1400 -5z"/>
<path d="M4290 7351 l0 -38 -67 -6 c-38 -4 -134 -7 -215 -7 l-148 0 0 -44 0
-43 68 -6 c37 -4 126 -7 199 -7 77 0 134 -4 138 -10 4 -6 63 -10 146 -10 l139
0 0 44 c0 23 -3 71 -6 105 l-7 61 -123 0 -124 0 0 -39z"/>
<path d="M1117 7253 c-4 -3 -7 -24 -7 -45 l0 -38 -45 0 -45 0 0 -45 0 -45 45
0 c33 0 45 -4 45 -15 0 -13 41 -15 310 -15 l311 0 -3 103 -3 102 -301 3 c-165
1 -303 -1 -307 -5z"/>
</g>
</svg>
