<?xml version="1.0" standalone="no"?>
<!DOCTYPE svg PUBLIC "-//W3C//DTD SVG 20010904//EN"
 "http://www.w3.org/TR/2001/REC-SVG-20010904/DTD/svg10.dtd">
<svg version="1.0" xmlns="http://www.w3.org/2000/svg"
 width="800.000000pt" height="1200.000000pt" viewBox="0 0 800.000000 1200.000000"
 preserveAspectRatio="xMidYMid meet">
<metadata>
Created by potrace 1.15, written by Peter Selinger 2001-2017
</metadata>
<g transform="translate(0.000000,1200.000000) scale(0.100000,-0.100000)"
fill="#000000" stroke="none">
<path d="M1708 11323 l-1008 -3 0 -40 0 -40 103 -2 c69 -1 83 -3 42 -5 -33 -2
-64 -8 -69 -14 -6 -5 -28 -9 -50 -9 l-39 0 6 -1927 c4 -1061 7 -2291 7 -2735
l0 -808 2025 0 2025 0 -2 2793 -3 2792 -1015 0 c-558 0 -1468 -1 -2022 -2z"/>
</g>
</svg>
