<?xml version="1.0" standalone="no"?>
<!DOCTYPE svg PUBLIC "-//W3C//DTD SVG 20010904//EN"
 "http://www.w3.org/TR/2001/REC-SVG-20010904/DTD/svg10.dtd">
<svg version="1.0" xmlns="http://www.w3.org/2000/svg"
 width="800.000000pt" height="1200.000000pt" viewBox="0 0 800.000000 1200.000000"
 preserveAspectRatio="xMidYMid meet">
<metadata>
Created by potrace 1.15, written by Peter Selinger 2001-2017
</metadata>
<g transform="translate(0.000000,1200.000000) scale(0.100000,-0.100000)"
fill="#000000" stroke="none">
<path d="M1753 7873 l-73 -4 0 -39 0 -38 -65 -7 c-39 -5 -68 -13 -73 -21 -6
-11 -81 -14 -402 -16 l-395 -3 -3 -75 c-5 -121 -8 -117 108 -125 55 -4 97 -11
94 -16 -3 -5 -48 -9 -99 -9 -114 0 -107 13 -103 -185 l3 -140 2003 -3 2002 -2
0 345 0 345 -1462 -2 c-805 -1 -1496 -4 -1535 -5z"/>
<path d="M1180 5881 c0 -22 6 -42 13 -45 8 -3 6 -8 -7 -17 -16 -10 -17 -19
-11 -73 3 -33 12 -64 18 -68 8 -5 7 -11 -6 -21 -13 -9 -18 -23 -15 -47 l3 -35
853 -3 852 -2 0 100 0 100 -75 0 -75 0 0 75 0 75 -775 0 -775 0 0 -39z"/>
</g>
</svg>
