<?xml version="1.0" standalone="no"?>
<!DOCTYPE svg PUBLIC "-//W3C//DTD SVG 20010904//EN"
 "http://www.w3.org/TR/2001/REC-SVG-20010904/DTD/svg10.dtd">
<svg version="1.0" xmlns="http://www.w3.org/2000/svg"
 width="800.000000pt" height="1200.000000pt" viewBox="0 0 800.000000 1200.000000"
 preserveAspectRatio="xMidYMid meet">
<metadata>
Created by potrace 1.15, written by Peter Selinger 2001-2017
</metadata>
<g transform="translate(0.000000,1200.000000) scale(0.100000,-0.100000)"
fill="#000000" stroke="none">
<path d="M1200 11230 l-465 -5 -3 -37 -3 -38 103 -1 c57 -1 90 -4 73 -6 -16
-1 -63 -8 -102 -15 l-73 -12 0 -38 0 -38 1983 2 1982 3 0 95 0 95 -1515 0
c-833 0 -1724 -2 -1980 -5z"/>
<path d="M2995 9680 c-511 -4 -1158 -8 -1437 -9 l-508 -1 0 -35 0 -35 98 -1
c106 -2 110 0 -55 -25 -24 -3 -43 -10 -43 -15 0 -5 -70 -9 -155 -9 l-155 0 0
-275 0 -275 1840 0 1840 0 0 60 0 60 165 0 165 0 -2 283 -3 282 -410 1 c-225
0 -828 -3 -1340 -6z"/>
<path d="M1223 8953 c-19 -4 -23 -11 -23 -44 0 -37 -2 -39 -29 -39 -17 0 -33
-4 -36 -10 -3 -5 -24 -10 -46 -10 l-39 0 0 -285 0 -285 1378 2 1377 3 3 63 3
62 469 0 470 0 0 275 0 275 -1752 -1 c-964 -1 -1763 -4 -1775 -6z"/>
<path d="M2638 7353 l-1478 -3 0 -40 0 -40 108 -2 c59 -1 87 -3 62 -5 -25 -1
-78 -8 -118 -15 l-73 -12 3 -36 3 -35 1614 -3 c1285 -2 1616 0 1623 10 9 15
11 149 2 172 -5 14 -25 16 -138 14 -72 -2 -796 -4 -1608 -5z"/>
<path d="M1978 6753 l-828 -3 0 -35 0 -35 98 -1 c106 -2 110 0 -55 -25 -24 -3
-43 -10 -43 -15 0 -5 -89 -9 -200 -9 l-200 0 0 -85 0 -85 770 0 770 0 0 55 0
55 1228 2 1227 3 3 93 3 92 -973 -2 c-535 -2 -1345 -4 -1800 -5z"/>
</g>
</svg>
