<?xml version="1.0" standalone="no"?>
<!DOCTYPE svg PUBLIC "-//W3C//DTD SVG 20010904//EN"
 "http://www.w3.org/TR/2001/REC-SVG-20010904/DTD/svg10.dtd">
<svg version="1.0" xmlns="http://www.w3.org/2000/svg"
 width="800.000000pt" height="1200.000000pt" viewBox="0 0 800.000000 1200.000000"
 preserveAspectRatio="xMidYMid meet">
<metadata>
Created by potrace 1.15, written by Peter Selinger 2001-2017
</metadata>
<g transform="translate(0.000000,1200.000000) scale(0.100000,-0.100000)"
fill="#000000" stroke="none">
<path d="M1808 9193 l-628 -3 0 -45 c0 -43 -1 -45 -29 -45 -16 0 -31 -6 -35
-15 -4 -13 -36 -15 -196 -15 l-190 0 0 -100 0 -100 245 0 245 0 0 65 0 65
1765 0 1765 0 0 100 0 100 -1157 -2 c-637 -2 -1440 -4 -1785 -5z"/>
<path d="M1180 6051 c0 -22 6 -42 13 -45 8 -3 7 -8 -5 -16 -12 -7 -18 -24 -18
-50 l0 -40 730 0 730 0 0 95 0 95 -725 0 -725 0 0 -39z"/>
</g>
</svg>
