<?xml version="1.0" standalone="no"?>
<!DOCTYPE svg PUBLIC "-//W3C//DTD SVG 20010904//EN"
 "http://www.w3.org/TR/2001/REC-SVG-20010904/DTD/svg10.dtd">
<svg version="1.0" xmlns="http://www.w3.org/2000/svg"
 width="800.000000pt" height="1200.000000pt" viewBox="0 0 800.000000 1200.000000"
 preserveAspectRatio="xMidYMid meet">
<metadata>
Created by potrace 1.15, written by Peter Selinger 2001-2017
</metadata>
<g transform="translate(0.000000,1200.000000) scale(0.100000,-0.100000)"
fill="#000000" stroke="none">
<path d="M3973 9433 l-333 -3 0 -26 c0 -45 -18 -52 -173 -63 -80 -6 -160 -11
-176 -11 -29 0 -31 -2 -31 -39 l0 -39 165 -7 c91 -4 165 -11 165 -16 0 -5 254
-9 580 -9 l581 0 -3 108 -3 107 -220 0 c-121 0 -370 -1 -552 -2z"/>
<path d="M740 9211 c0 -49 3 -96 6 -105 5 -14 53 -16 434 -16 381 0 429 2 434
16 8 20 8 158 0 178 -5 14 -54 16 -440 16 l-434 0 0 -89z"/>
<path d="M2563 8703 c-7 -2 -13 -20 -13 -39 0 -25 5 -34 18 -36 30 -2 -160
-16 -245 -17 l-83 -1 0 -39 c0 -31 4 -40 23 -46 12 -4 577 -10 1255 -12 l1232
-5 0 101 0 101 -1087 -1 c-599 0 -1094 -3 -1100 -6z"/>
<path d="M830 8571 l-85 -6 -3 -75 c-2 -41 0 -85 3 -98 l5 -22 178 2 177 3 3
103 3 102 -98 -2 c-54 -1 -136 -4 -183 -7z"/>
</g>
</svg>
