<?xml version="1.0" standalone="no"?>
<!DOCTYPE svg PUBLIC "-//W3C//DTD SVG 20010904//EN"
 "http://www.w3.org/TR/2001/REC-SVG-20010904/DTD/svg10.dtd">
<svg version="1.0" xmlns="http://www.w3.org/2000/svg"
 width="800.000000pt" height="1200.000000pt" viewBox="0 0 800.000000 1200.000000"
 preserveAspectRatio="xMidYMid meet">
<metadata>
Created by potrace 1.15, written by Peter Selinger 2001-2017
</metadata>
<g transform="translate(0.000000,1200.000000) scale(0.100000,-0.100000)"
fill="#000000" stroke="none">
<path d="M1670 10880 l-635 -5 -3 -37 c-3 -38 -3 -38 35 -39 l38 -1 -37 -10
c-21 -6 -38 -14 -38 -19 0 -5 -70 -9 -155 -9 l-155 0 0 -99 0 -99 95 -7 c81
-6 93 -9 81 -21 -10 -10 -39 -14 -95 -14 l-81 0 0 -100 0 -100 1279 0 c1157 0
1279 2 1285 16 3 9 6 38 6 65 l0 49 715 0 715 0 -2 218 -3 217 -1205 0 c-663
0 -1491 -2 -1840 -5z"/>
<path d="M1122 6003 c3 -35 6 -39 38 -44 20 -4 26 -7 13 -8 -45 -2 -53 -11
-53 -57 0 -24 5 -44 10 -44 6 0 10 -11 10 -24 0 -13 5 -26 12 -28 8 -3 4 -12
-10 -26 -20 -20 -32 -22 -219 -24 l-198 -3 -3 -60 c-2 -32 -1 -69 3 -82 l5
-23 1034 0 1034 0 6 23 c3 12 6 39 6 60 l0 37 960 0 960 0 0 94 0 93 -1035 -5
-1034 -5 -3 79 -3 79 -768 3 -768 2 3 -37z"/>
</g>
</svg>
