<?xml version="1.0" standalone="no"?>
<!DOCTYPE svg PUBLIC "-//W3C//DTD SVG 20010904//EN"
 "http://www.w3.org/TR/2001/REC-SVG-20010904/DTD/svg10.dtd">
<svg version="1.0" xmlns="http://www.w3.org/2000/svg"
 width="800.000000pt" height="1200.000000pt" viewBox="0 0 800.000000 1200.000000"
 preserveAspectRatio="xMidYMid meet">
<metadata>
Created by potrace 1.15, written by Peter Selinger 2001-2017
</metadata>
<g transform="translate(0.000000,1200.000000) scale(0.100000,-0.100000)"
fill="#000000" stroke="none">
<path d="M3650 9650 c-141 -5 -145 -6 -148 -27 -3 -19 -10 -23 -38 -23 -22 0
-34 -5 -34 -14 0 -19 -53 -26 -192 -26 -92 0 -118 -3 -118 -13 0 -11 -138 -15
-772 -20 -425 -4 -959 -7 -1185 -7 l-413 0 -5 -23 c-3 -12 -5 -54 -3 -92 l3
-70 1683 -3 1682 -2 0 60 0 60 320 0 320 0 0 105 0 105 -477 -2 c-263 -1 -543
-5 -623 -8z"/>
<path d="M1900 8405 l0 -44 -82 -3 -83 -3 0 -40 0 -40 75 -3 c52 -2 78 -7 86
-17 10 -13 70 -15 430 -13 l419 3 3 103 3 102 -426 0 -425 0 0 -45z"/>
<path d="M2220 7810 l0 -39 -82 -3 -83 -3 -3 -42 -3 -43 80 0 c47 0 81 -4 81
-10 0 -7 263 -10 770 -10 l771 0 -3 93 -3 92 -762 3 -763 2 0 -40z"/>
<path d="M2888 7203 l-148 -4 0 -39 0 -39 -87 -3 -88 -3 -3 -42 -3 -43 80 0
c47 0 81 -4 81 -10 0 -7 265 -10 775 -10 l776 0 -3 98 -3 97 -615 0 c-338 1
-681 -1 -762 -2z"/>
<path d="M3077 6713 c-4 -3 -7 -21 -7 -40 l0 -33 -74 0 c-98 0 -106 -4 -106
-51 l0 -39 90 0 c53 0 90 -4 90 -10 0 -7 258 -10 755 -10 l756 0 -3 93 -3 92
-746 3 c-410 1 -749 -1 -752 -5z"/>
<path d="M1408 6383 l-198 -3 0 -35 c0 -19 5 -35 10 -35 6 0 10 -7 10 -15 0
-8 -4 -15 -10 -15 -5 0 -10 -18 -10 -40 l0 -40 705 0 706 0 -3 93 -3 92 -505
0 c-278 0 -594 -1 -702 -2z"/>
</g>
</svg>
