<?xml version="1.0" standalone="no"?>
<!DOCTYPE svg PUBLIC "-//W3C//DTD SVG 20010904//EN"
 "http://www.w3.org/TR/2001/REC-SVG-20010904/DTD/svg10.dtd">
<svg version="1.0" xmlns="http://www.w3.org/2000/svg"
 width="800.000000pt" height="1200.000000pt" viewBox="0 0 800.000000 1200.000000"
 preserveAspectRatio="xMidYMid meet">
<metadata>
Created by potrace 1.15, written by Peter Selinger 2001-2017
</metadata>
<g transform="translate(0.000000,1200.000000) scale(0.100000,-0.100000)"
fill="#000000" stroke="none">
<path d="M3612 11080 c2 -22 3 -40 3 -41 0 -1 -69 -4 -153 -8 -108 -5 -156
-11 -161 -20 -7 -10 -255 -14 -1247 -19 l-1239 -7 -3 -37 -3 -38 -50 0 -49 0
2 -172 3 -173 1633 -3 1632 -2 0 65 0 65 368 2 367 3 3 110 c2 61 0 156 -3
213 l-7 102 -550 0 -550 0 4 -40z"/>
<path d="M1730 9891 l0 -40 -47 -6 c-81 -11 -83 -13 -83 -55 l0 -38 133 -6
c72 -3 285 -8 472 -11 187 -3 390 -8 451 -11 102 -6 111 -8 107 -25 -5 -18
-24 -19 -447 -19 -242 0 -701 -3 -1018 -7 l-578 -6 0 -164 0 -163 230 0 230 0
0 70 0 70 1764 0 c1599 0 1764 1 1770 16 3 9 6 86 6 171 l0 156 -1080 -6
-1080 -7 0 60 0 60 -415 0 -415 0 0 -39z"/>
<path d="M2223 9163 l-243 -3 0 -39 c0 -49 5 -51 185 -51 199 0 425 -12 425
-22 0 -4 -153 -8 -341 -8 l-340 0 3 -37 c3 -35 6 -38 38 -42 19 -1 545 0 1168
4 958 6 1134 10 1139 21 3 8 2 53 -2 99 l-7 85 -149 0 -149 0 0 -40 0 -40
-409 0 -410 0 -3 38 -3 37 -330 0 c-181 0 -439 -1 -572 -2z m420 -90 c-7 -2
-21 -2 -30 0 -10 3 -4 5 12 5 17 0 24 -2 18 -5z"/>
<path d="M3005 8780 l-770 -5 -3 -22 c-3 -21 -9 -23 -57 -23 -63 0 -85 -7 -85
-26 0 -8 -9 -14 -21 -14 -12 0 -23 -8 -26 -20 -5 -19 -14 -20 -172 -20 -91 0
-291 -3 -443 -7 l-278 -6 0 -34 0 -33 -75 0 c-43 0 -75 -4 -75 -10 0 -5 -22
-10 -50 -10 -27 0 -50 -4 -50 -10 0 -6 -37 -10 -91 -10 l-90 0 3 -42 3 -43
649 -3 c427 -1 653 1 660 8 7 7 392 10 1133 10 l1123 0 0 60 0 60 215 0 215 0
0 105 0 105 -472 -2 c-260 -2 -819 -5 -1243 -8z"/>
</g>
</svg>
