<?xml version="1.0" standalone="no"?>
<!DOCTYPE svg PUBLIC "-//W3C//DTD SVG 20010904//EN"
 "http://www.w3.org/TR/2001/REC-SVG-20010904/DTD/svg10.dtd">
<svg version="1.0" xmlns="http://www.w3.org/2000/svg"
 width="800.000000pt" height="1200.000000pt" viewBox="0 0 800.000000 1200.000000"
 preserveAspectRatio="xMidYMid meet">
<metadata>
Created by potrace 1.15, written by Peter Selinger 2001-2017
</metadata>
<g transform="translate(0.000000,1200.000000) scale(0.100000,-0.100000)"
fill="#000000" stroke="none">
<path d="M800 9090 c0 -22 5 -40 10 -40 6 0 10 -7 10 -15 0 -11 -11 -15 -40
-15 l-40 0 0 -45 0 -45 965 0 965 0 0 100 0 100 -935 0 -935 0 0 -40z"/>
<path d="M2090 8865 c0 -16 -6 -25 -15 -25 -8 0 -15 -6 -15 -14 0 -10 -26 -15
-101 -21 l-100 -7 3 -41 3 -42 328 -3 327 -2 0 90 0 90 -215 0 -215 0 0 -25z"/>
<path d="M3447 8783 l-298 -3 3 -42 c2 -34 7 -43 25 -48 16 -3 20 -9 14 -18
-7 -11 -225 -15 -1230 -19 l-1221 -6 0 -159 0 -158 735 0 735 0 0 65 0 65
1263 2 1262 3 0 160 0 160 -495 0 c-272 0 -629 -1 -793 -2z"/>
</g>
</svg>
