<?xml version="1.0" standalone="no"?>
<!DOCTYPE svg PUBLIC "-//W3C//DTD SVG 20010904//EN"
 "http://www.w3.org/TR/2001/REC-SVG-20010904/DTD/svg10.dtd">
<svg version="1.0" xmlns="http://www.w3.org/2000/svg"
 width="800.000000pt" height="1200.000000pt" viewBox="0 0 800.000000 1200.000000"
 preserveAspectRatio="xMidYMid meet">
<metadata>
Created by potrace 1.15, written by Peter Selinger 2001-2017
</metadata>
<g transform="translate(0.000000,1200.000000) scale(0.100000,-0.100000)"
fill="#000000" stroke="none">
<path d="M3780 6695 c0 -13 -22 -15 -135 -15 l-135 0 0 -40 c0 -22 5 -40 10
-40 6 0 10 -11 10 -23 l0 -24 -302 -6 c-190 -4 -304 -10 -306 -17 -2 -5 -17
-10 -33 -10 -26 0 -29 -4 -29 -30 l0 -30 -60 0 c-47 0 -60 -3 -60 -15 0 -13
-59 -15 -467 -15 -258 0 -586 -3 -730 -7 l-263 -6 -6 -33 c-6 -32 -8 -33 -58
-36 l-51 -3 0 -40 c0 -37 2 -40 30 -43 17 -2 34 -8 39 -13 6 -5 281 -9 673 -9
l663 0 0 55 0 55 675 0 675 0 0 80 0 80 413 2 412 3 3 98 3 97 -486 0 c-424 0
-485 -2 -485 -15z"/>
</g>
</svg>
