<?xml version="1.0" standalone="no"?>
<!DOCTYPE svg PUBLIC "-//W3C//DTD SVG 20010904//EN"
 "http://www.w3.org/TR/2001/REC-SVG-20010904/DTD/svg10.dtd">
<svg version="1.0" xmlns="http://www.w3.org/2000/svg"
 width="800.000000pt" height="1200.000000pt" viewBox="0 0 800.000000 1200.000000"
 preserveAspectRatio="xMidYMid meet">
<metadata>
Created by potrace 1.15, written by Peter Selinger 2001-2017
</metadata>
<g transform="translate(0.000000,1200.000000) scale(0.100000,-0.100000)"
fill="#000000" stroke="none">
<path d="M3150 11240 c-558 -4 -1293 -8 -1632 -9 l-618 -1 0 -35 0 -35 88 -2
c50 -1 68 -3 42 -5 -24 -3 -47 -9 -51 -14 -3 -5 -60 -13 -127 -16 l-122 -6 0
-39 0 -38 52 0 c48 0 51 -1 32 -14 -11 -8 -33 -16 -49 -18 l-30 -3 -2 -342 -2
-343 794 0 795 0 0 60 0 60 1215 0 1215 0 -2 403 -3 402 -290 1 c-159 0 -747
-3 -1305 -6z"/>
<path d="M1050 10240 l0 -40 78 -2 c42 0 61 -3 42 -5 -19 -3 -39 -9 -44 -14
-6 -5 -27 -9 -48 -9 -21 0 -38 -4 -38 -10 0 -5 -13 -10 -30 -10 -27 0 -30 -3
-30 -31 0 -37 -20 -59 -54 -59 -14 0 -28 -4 -31 -10 -3 -5 -40 -10 -81 -10
l-74 0 0 -94 0 -94 130 -7 c72 -4 130 -11 130 -16 0 -5 -18 -9 -40 -9 -22 0
-40 -4 -40 -10 0 -6 -37 -10 -90 -10 l-90 0 0 -100 0 -100 74 0 c56 0 75 -4
80 -15 4 -13 -8 -15 -74 -15 l-80 0 0 -45 0 -45 98 -1 c53 -1 86 -3 72 -5 -14
-2 -58 -10 -97 -16 l-73 -12 0 -38 0 -38 103 -1 c104 -1 166 -11 137 -22 -26
-10 -83 -18 -162 -24 l-78 -5 0 -159 0 -159 100 0 c81 0 100 -3 100 -15 0 -11
-20 -15 -97 -17 l-98 -3 -3 -42 -3 -43 108 -2 c59 -1 90 -3 68 -5 -22 -1 -70
-8 -107 -14 l-68 -12 0 -224 0 -223 425 0 425 0 0 60 0 60 1578 2 1577 3 3
878 2 877 -1850 0 -1850 0 0 -40z"/>
<path d="M1623 8163 l-883 -3 0 -35 0 -35 88 -2 c48 -1 68 -3 45 -5 -24 -2
-43 -8 -43 -13 0 -5 -19 -10 -42 -12 l-43 -3 0 -145 0 -145 250 -5 c250 -5
250 -5 253 -28 4 -28 -19 -52 -52 -52 -24 0 -26 -3 -26 -45 l0 -45 60 0 c57 0
60 -1 60 -25 0 -20 -5 -25 -25 -25 -14 0 -25 -4 -25 -10 0 -5 -16 -10 -35 -10
l-35 0 0 -64 0 -65 48 -4 47 -3 -47 -2 -48 -2 0 -42 c0 -24 3 -60 6 -80 6 -37
8 -38 47 -38 33 0 39 -3 29 -12 -10 -10 -81 -14 -260 -18 l-247 -5 0 -360 0
-360 276 -3 277 -2 4 -30 c4 -26 1 -30 -18 -30 -13 0 -26 -4 -29 -10 -3 -5
-22 -10 -41 -10 -42 0 -48 -13 -39 -85 6 -51 8 -54 37 -57 49 -5 48 -28 -2
-28 l-41 0 3 -42 3 -43 593 -3 592 -2 0 85 0 85 60 0 60 0 0 85 0 85 569 0
570 0 3 53 3 52 563 3 562 2 -2 368 -3 367 -1292 -3 -1293 -2 0 70 0 70 490 0
490 0 0 95 0 95 -360 0 -360 0 0 65 0 65 40 0 40 0 0 55 0 55 1123 2 1122 3 3
148 3 147 -1123 -2 c-618 -2 -1520 -4 -2005 -5z"/>
</g>
</svg>
