<?xml version="1.0" standalone="no"?>
<!DOCTYPE svg PUBLIC "-//W3C//DTD SVG 20010904//EN"
 "http://www.w3.org/TR/2001/REC-SVG-20010904/DTD/svg10.dtd">
<svg version="1.0" xmlns="http://www.w3.org/2000/svg"
 width="800.000000pt" height="1200.000000pt" viewBox="0 0 800.000000 1200.000000"
 preserveAspectRatio="xMidYMid meet">
<metadata>
Created by potrace 1.15, written by Peter Selinger 2001-2017
</metadata>
<g transform="translate(0.000000,1200.000000) scale(0.100000,-0.100000)"
fill="#000000" stroke="none">
<path d="M2695 9670 c-484 -4 -996 -8 -1139 -9 l-258 -1 4 -45 3 -45 -42 0
-43 0 0 -40 c0 -38 2 -40 31 -40 17 0 37 -7 45 -15 14 -13 168 -15 1297 -13
l1282 3 0 105 0 105 -150 1 c-82 0 -546 -3 -1030 -6z"/>
<path d="M2128 7053 l-478 -3 0 -34 c0 -33 2 -35 38 -39 20 -2 -5 -4 -55 -5
l-93 -2 0 -40 0 -40 55 0 c30 0 55 -4 55 -10 0 -6 133 -10 380 -10 l380 0 0
-24 c0 -21 -5 -24 -59 -29 -75 -6 -81 -10 -81 -53 l0 -34 -545 0 -545 0 0 -40
0 -40 43 -1 42 -1 -38 -8 c-49 -9 -59 -20 -55 -61 l3 -34 765 0 765 0 3 78 3
77 529 0 530 0 0 100 0 100 -355 0 -355 0 0 80 0 80 -227 -2 c-126 -2 -443 -4
-705 -5z"/>
</g>
</svg>
