<?xml version="1.0" standalone="no"?>
<!DOCTYPE svg PUBLIC "-//W3C//DTD SVG 20010904//EN"
 "http://www.w3.org/TR/2001/REC-SVG-20010904/DTD/svg10.dtd">
<svg version="1.0" xmlns="http://www.w3.org/2000/svg"
 width="800.000000pt" height="1200.000000pt" viewBox="0 0 800.000000 1200.000000"
 preserveAspectRatio="xMidYMid meet">
<metadata>
Created by potrace 1.15, written by Peter Selinger 2001-2017
</metadata>
<g transform="translate(0.000000,1200.000000) scale(0.100000,-0.100000)"
fill="#000000" stroke="none">
<path d="M1650 7430 l0 -100 250 0 250 0 5 23 c3 12 5 56 3 97 l-3 75 -252 3
-253 2 0 -100z"/>
<path d="M1060 7255 l0 -35 73 -2 c39 0 57 -3 40 -5 -18 -2 -33 -8 -33 -14 0
-5 -17 -9 -38 -9 -21 0 -42 -4 -48 -10 -5 -5 -77 -11 -159 -12 l-150 -3 -3
-140 c-2 -77 0 -416 3 -753 l7 -612 952 2 951 3 3 52 3 53 1042 2 1042 3 3
758 2 757 -1845 0 -1845 0 0 -35z"/>
</g>
</svg>
