<?xml version="1.0" standalone="no"?>
<!DOCTYPE svg PUBLIC "-//W3C//DTD SVG 20010904//EN"
 "http://www.w3.org/TR/2001/REC-SVG-20010904/DTD/svg10.dtd">
<svg version="1.0" xmlns="http://www.w3.org/2000/svg"
 width="800.000000pt" height="1200.000000pt" viewBox="0 0 800.000000 1200.000000"
 preserveAspectRatio="xMidYMid meet">
<metadata>
Created by potrace 1.15, written by Peter Selinger 2001-2017
</metadata>
<g transform="translate(0.000000,1200.000000) scale(0.100000,-0.100000)"
fill="#000000" stroke="none">
<path d="M1240 9650 c0 -39 1 -40 38 -41 33 -2 34 -2 7 -6 -16 -3 -34 -12 -40
-20 -10 -13 -52 -16 -264 -21 l-251 -5 2 -156 3 -156 953 -3 952 -2 0 60 0 60
1055 0 1055 0 -2 163 -3 162 -1752 3 -1753 2 0 -40z"/>
<path d="M3227 9083 c-4 -3 -7 -21 -7 -38 0 -28 -4 -33 -31 -39 -17 -3 -123
-6 -235 -6 -164 0 -204 -3 -204 -13 0 -11 -115 -15 -632 -20 -347 -4 -802 -7
-1010 -7 l-378 0 0 -160 0 -160 350 0 350 0 0 60 0 60 1658 2 1657 3 3 163 2
162 -758 0 c-417 0 -762 -3 -765 -7z"/>
<path d="M1785 8130 l-660 -5 -3 -37 c-2 -21 -8 -38 -14 -38 -6 0 -17 -8 -24
-17 -11 -16 -34 -18 -184 -21 l-171 -3 3 -97 3 -97 115 -3 c63 -1 119 -7 124
-12 7 -7 -5 -10 -33 -10 l-42 0 3 -52 3 -53 1923 -3 1922 -2 0 223 0 224 -547
6 c-559 7 -1243 6 -2418 -3z"/>
<path d="M2332 7260 l4 -40 -138 0 c-116 0 -138 -2 -138 -15 0 -13 -60 -15
-472 -16 -260 -1 -558 -4 -663 -8 l-190 -6 -3 -87 -3 -88 161 0 160 0 0 -25
c0 -24 2 -25 68 -26 63 -1 65 -2 32 -11 -19 -6 -120 -14 -225 -17 l-190 -6 -3
-202 -2 -202 157 -3 c155 -3 158 -3 161 -25 3 -19 10 -23 38 -23 46 0 43 -18
-3 -22 -37 -3 -38 -4 -41 -45 l-3 -43 1135 0 1136 0 0 80 0 80 225 0 225 0 0
55 0 55 495 0 495 0 0 205 0 205 -1375 0 -1375 0 0 38 0 37 1372 0 1373 0 3
98 3 97 -1212 0 -1211 0 4 -40z"/>
<path d="M1130 6065 l0 -35 78 -2 c42 0 62 -3 45 -5 -18 -2 -33 -8 -33 -14 0
-5 -18 -9 -39 -9 -22 0 -43 -5 -46 -11 -4 -5 -4 -37 0 -70 l7 -59 39 0 c21 0
39 -4 39 -10 0 -5 -18 -10 -40 -10 -49 0 -55 -11 -45 -85 l6 -55 102 -1 c115
-1 111 -5 -16 -14 -81 -6 -87 -8 -93 -31 -3 -13 -3 -35 0 -49 l6 -25 1674 0
c1517 0 1674 1 1680 16 3 9 6 126 6 260 l0 244 -1685 0 -1685 0 0 -35z"/>
</g>
</svg>
