<?xml version="1.0" standalone="no"?>
<!DOCTYPE svg PUBLIC "-//W3C//DTD SVG 20010904//EN"
 "http://www.w3.org/TR/2001/REC-SVG-20010904/DTD/svg10.dtd">
<svg version="1.0" xmlns="http://www.w3.org/2000/svg"
 width="800.000000pt" height="1200.000000pt" viewBox="0 0 800.000000 1200.000000"
 preserveAspectRatio="xMidYMid meet">
<metadata>
Created by potrace 1.15, written by Peter Selinger 2001-2017
</metadata>
<g transform="translate(0.000000,1200.000000) scale(0.100000,-0.100000)"
fill="#000000" stroke="none">
<path d="M3868 10173 l-168 -3 0 -26 c0 -49 -16 -54 -199 -61 -153 -5 -170 -8
-174 -25 -5 -17 -27 -18 -496 -18 l-491 0 0 -34 0 -33 1195 -7 c657 -4 1199
-5 1205 -1 6 4 10 49 10 111 l0 104 -357 -2 c-197 -1 -433 -4 -525 -5z"/>
<path d="M740 9940 l0 -100 758 2 757 3 0 95 0 95 -757 3 -758 2 0 -100z"/>
<path d="M2180 9689 c-569 -3 -1058 -7 -1087 -8 l-52 -1 -3 -42 c-3 -39 -6
-43 -30 -46 -22 -3 -28 -9 -28 -28 l0 -24 -120 0 -120 0 0 -90 0 -90 395 0
395 0 0 65 0 65 1610 0 1611 0 -3 103 -3 102 -765 1 c-421 0 -1231 -3 -1800
-7z"/>
</g>
</svg>
