<?xml version="1.0" standalone="no"?>
<!DOCTYPE svg PUBLIC "-//W3C//DTD SVG 20010904//EN"
 "http://www.w3.org/TR/2001/REC-SVG-20010904/DTD/svg10.dtd">
<svg version="1.0" xmlns="http://www.w3.org/2000/svg"
 width="800.000000pt" height="1200.000000pt" viewBox="0 0 800.000000 1200.000000"
 preserveAspectRatio="xMidYMid meet">
<metadata>
Created by potrace 1.15, written by Peter Selinger 2001-2017
</metadata>
<g transform="translate(0.000000,1200.000000) scale(0.100000,-0.100000)"
fill="#000000" stroke="none">
<path d="M3363 10163 c-277 -2 -433 -7 -433 -13 0 -6 -6 -10 -14 -10 -7 0 -19
-7 -26 -15 -8 -10 -30 -15 -61 -15 -35 0 -49 -4 -49 -14 0 -13 -102 -26 -212
-26 -36 0 -48 -4 -48 -15 0 -13 -32 -15 -230 -15 l-230 0 0 -40 0 -40 1345 0
1345 0 0 105 0 105 -477 -2 c-263 -2 -673 -4 -910 -5z"/>
</g>
</svg>
