<?xml version="1.0" standalone="no"?>
<!DOCTYPE svg PUBLIC "-//W3C//DTD SVG 20010904//EN"
 "http://www.w3.org/TR/2001/REC-SVG-20010904/DTD/svg10.dtd">
<svg version="1.0" xmlns="http://www.w3.org/2000/svg"
 width="800.000000pt" height="1200.000000pt" viewBox="0 0 800.000000 1200.000000"
 preserveAspectRatio="xMidYMid meet">
<metadata>
Created by potrace 1.15, written by Peter Selinger 2001-2017
</metadata>
<g transform="translate(0.000000,1200.000000) scale(0.100000,-0.100000)"
fill="#000000" stroke="none">
<path d="M1903 9443 l-563 -3 0 -40 0 -40 43 -1 42 -1 -39 -8 c-21 -4 -41 -12
-45 -17 -3 -6 -123 -13 -296 -17 -159 -4 -294 -11 -298 -15 -4 -4 -7 -43 -5
-87 l3 -79 73 -3 c39 -2 72 -7 72 -12 0 -6 181 -10 478 -10 264 0 574 -3 690
-7 l211 -6 3 -31 3 -31 105 -3 c58 -1 109 -7 114 -12 6 -6 262 -10 673 -10
l663 0 0 55 0 55 330 0 330 0 0 60 0 59 128 3 127 3 3 103 3 102 -1143 -2
c-629 -2 -1396 -4 -1705 -5z"/>
<path d="M750 9042 l0 -39 128 -6 c70 -4 198 -7 284 -7 136 0 157 -2 152 -15
-5 -13 -46 -15 -285 -15 l-279 0 0 -40 0 -40 108 -2 107 -1 -75 -8 c-41 -4
-91 -11 -110 -16 -33 -8 -35 -11 -35 -48 l0 -40 653 -3 652 -2 0 100 0 100
-75 0 -74 0 -3 58 -3 57 -572 3 -573 2 0 -38z"/>
<path d="M2353 7293 l-973 -3 0 -40 c0 -36 3 -40 25 -40 14 0 25 -4 25 -10 0
-6 -30 -10 -70 -10 l-70 0 0 -40 c0 -36 3 -40 25 -40 14 0 25 -4 25 -10 0 -7
372 -10 1095 -10 l1095 0 0 105 0 105 -102 -2 c-57 -2 -541 -4 -1075 -5z"/>
</g>
</svg>
