<?xml version="1.0" standalone="no"?>
<!DOCTYPE svg PUBLIC "-//W3C//DTD SVG 20010904//EN"
 "http://www.w3.org/TR/2001/REC-SVG-20010904/DTD/svg10.dtd">
<svg version="1.0" xmlns="http://www.w3.org/2000/svg"
 width="800.000000pt" height="1200.000000pt" viewBox="0 0 800.000000 1200.000000"
 preserveAspectRatio="xMidYMid meet">
<metadata>
Created by potrace 1.15, written by Peter Selinger 2001-2017
</metadata>
<g transform="translate(0.000000,1200.000000) scale(0.100000,-0.100000)"
fill="#000000" stroke="none">
<path d="M3630 11179 c-404 -3 -1215 -7 -1802 -8 l-1068 -1 0 -40 0 -40 93 -1
92 -2 -87 -8 c-48 -4 -101 -10 -118 -14 l-30 -7 0 -159 0 -159 93 -1 c50 0
110 -4 132 -8 l40 -7 -52 -7 c-29 -4 -55 -12 -58 -17 -3 -6 -40 -10 -81 -10
l-74 0 0 -330 0 -330 1655 0 1655 0 0 60 0 60 343 2 342 3 3 175 c2 96 0 329
-3 518 l-7 342 -167 -2 c-91 -1 -497 -5 -901 -9z"/>
<path d="M3375 10009 c-401 -3 -1073 -7 -1492 -8 l-763 -1 0 -50 0 -50 -44 0
c-25 0 -48 -4 -51 -10 -4 -6 -69 -10 -162 -10 l-156 0 6 -277 c4 -153 7 -329
7 -390 l0 -113 1655 0 1655 0 0 60 0 60 338 2 337 3 3 398 2 397 -302 -2
c-167 -1 -631 -5 -1033 -9z"/>
<path d="M2308 9073 l-1278 -3 0 -40 0 -40 93 -1 c50 -1 81 -3 67 -5 -89 -13
-162 -29 -166 -36 -3 -4 -72 -8 -155 -8 l-149 0 0 -89 0 -88 37 -7 c21 -3 62
-6 91 -6 39 0 52 -4 52 -15 0 -12 -17 -15 -90 -15 l-90 0 0 -45 0 -45 51 0
c31 0 48 -4 44 -10 -3 -5 -26 -10 -51 -10 l-44 0 0 -39 c0 -26 5 -41 16 -45 9
-3 95 -7 192 -7 314 -2 282 -18 -70 -35 l-138 -7 0 -38 0 -39 46 0 c59 0 55
-24 -4 -28 l-42 -3 0 -100 0 -99 1998 2 1997 3 3 453 2 452 -567 -2 c-313 -2
-1143 -4 -1845 -5z"/>
<path d="M2350 7219 c-767 -3 -1425 -7 -1462 -8 l-68 -1 0 -37 c0 -71 -8 -83
-51 -83 -46 0 -52 -13 -47 -105 l3 -60 245 -5 c245 -5 245 -5 248 -27 3 -21 9
-23 80 -24 88 -1 80 -5 -30 -14 l-78 -7 0 -39 0 -39 1765 0 1765 0 0 97 0 96
-1220 -7 -1220 -7 0 46 0 45 1220 0 1220 0 0 95 0 95 -487 -2 c-269 -1 -1116
-5 -1883 -9z"/>
<path d="M727 6823 c-9 -8 -9 -146 -1 -167 5 -14 33 -16 204 -16 l199 0 6 54
c4 30 4 73 0 95 l-7 41 -197 0 c-109 0 -201 -3 -204 -7z"/>
<path d="M2378 6683 l-1228 -3 0 -40 0 -40 93 -2 c59 -1 73 -3 40 -5 l-53 -4
0 -45 0 -44 1745 0 1745 0 0 95 0 95 -557 -2 c-307 -2 -1110 -4 -1785 -5z"/>
<path d="M2575 6409 c-473 -3 -971 -7 -1107 -8 l-248 -1 0 -35 0 -35 73 -1 72
-2 -95 -9 c-52 -5 -96 -14 -98 -19 -2 -5 -98 -9 -223 -9 l-219 0 -5 -23 c-4
-13 -5 -50 -3 -82 l3 -60 252 -3 253 -2 0 -30 c0 -17 7 -33 18 -39 16 -10 16
-10 0 -11 -10 0 -18 -7 -18 -15 0 -12 -37 -15 -253 -17 l-252 -3 -3 -60 c-2
-32 -1 -69 3 -82 l5 -23 260 0 260 0 0 -25 c0 -20 5 -25 28 -26 46 -1 -5 -17
-59 -18 -25 -1 -49 -5 -55 -11 -5 -5 -100 -11 -219 -12 l-210 -3 -3 -87 -3
-88 966 0 965 0 0 60 0 60 1035 0 1036 0 -3 93 -3 92 -1032 -2 -1033 -3 0 45
0 45 1035 0 1035 0 0 58 c0 31 -3 75 -7 96 l-6 39 -314 -5 -313 -6 0 44 0 44
315 0 315 0 0 95 0 95 -642 -2 c-354 -1 -1030 -5 -1503 -9z"/>
</g>
</svg>
