<?xml version="1.0" standalone="no"?>
<!DOCTYPE svg PUBLIC "-//W3C//DTD SVG 20010904//EN"
 "http://www.w3.org/TR/2001/REC-SVG-20010904/DTD/svg10.dtd">
<svg version="1.0" xmlns="http://www.w3.org/2000/svg"
 width="800.000000pt" height="1200.000000pt" viewBox="0 0 800.000000 1200.000000"
 preserveAspectRatio="xMidYMid meet">
<metadata>
Created by potrace 1.15, written by Peter Selinger 2001-2017
</metadata>
<g transform="translate(0.000000,1200.000000) scale(0.100000,-0.100000)"
fill="#000000" stroke="none">
<path d="M2958 7463 c-254 -2 -398 -7 -398 -13 0 -6 -13 -10 -30 -10 -25 0
-30 -4 -30 -25 0 -24 -3 -25 -55 -25 -48 0 -55 -2 -55 -20 0 -20 -7 -20 -773
-20 -838 0 -827 1 -827 -52 0 -23 -4 -28 -25 -28 -24 0 -25 -3 -25 -55 l0 -55
533 2 532 3 3 53 3 52 910 0 910 0 -3 98 -3 97 -135 0 c-74 0 -314 -1 -532 -2z"/>
</g>
</svg>
