<?xml version="1.0" standalone="no"?>
<!DOCTYPE svg PUBLIC "-//W3C//DTD SVG 20010904//EN"
 "http://www.w3.org/TR/2001/REC-SVG-20010904/DTD/svg10.dtd">
<svg version="1.0" xmlns="http://www.w3.org/2000/svg"
 width="800.000000pt" height="1200.000000pt" viewBox="0 0 800.000000 1200.000000"
 preserveAspectRatio="xMidYMid meet">
<metadata>
Created by potrace 1.15, written by Peter Selinger 2001-2017
</metadata>
<g transform="translate(0.000000,1200.000000) scale(0.100000,-0.100000)"
fill="#000000" stroke="none">
<path d="M780 11161 c0 -49 -8 -71 -26 -71 -10 0 -14 -13 -14 -45 l0 -45 1170
0 1170 0 0 100 0 100 -1150 0 -1150 0 0 -39z"/>
<path d="M4045 10369 c-176 -3 -450 -7 -609 -8 l-288 -1 4 -40 4 -40 -123 0
c-96 0 -123 -3 -123 -13 0 -19 -308 -27 -1085 -27 -348 0 -707 -3 -799 -7
l-167 -6 3 -36 3 -36 233 -3 c224 -2 232 -3 232 -22 0 -19 -8 -20 -295 -20
l-295 0 0 -35 0 -35 1665 0 1665 0 0 60 0 60 338 2 337 3 3 108 3 107 -193 -2
c-106 -1 -337 -5 -513 -9z"/>
<path d="M1743 7573 l-523 -3 0 -35 c0 -29 4 -35 21 -35 18 0 19 -2 5 -15 -8
-8 -19 -15 -25 -15 -6 0 -11 -18 -11 -40 l0 -40 573 -2 572 -3 3 -21 c4 -26
-19 -34 -95 -34 l-53 0 0 -39 0 -39 68 -9 c37 -4 607 -8 1267 -8 l1200 0 3 93
3 92 -1065 0 -1065 0 -3 78 -3 77 -175 0 c-96 0 -410 -1 -697 -2z"/>
<path d="M757 7293 c-9 -8 -9 -76 -1 -137 l7 -46 328 0 329 0 0 95 0 95 -328
0 c-181 0 -332 -3 -335 -7z"/>
<path d="M2808 7143 l-518 -3 0 -35 c0 -33 2 -35 38 -37 20 -1 -8 -4 -63 -7
l-100 -6 0 -40 0 -40 70 -6 c39 -4 620 -7 1293 -8 l1222 -1 0 95 0 95 -712 -2
c-392 -2 -946 -4 -1230 -5z"/>
<path d="M760 6930 l0 -100 190 0 190 0 0 100 0 100 -190 0 -190 0 0 -100z"/>
</g>
</svg>
