<?xml version="1.0" standalone="no"?>
<!DOCTYPE svg PUBLIC "-//W3C//DTD SVG 20010904//EN"
 "http://www.w3.org/TR/2001/REC-SVG-20010904/DTD/svg10.dtd">
<svg version="1.0" xmlns="http://www.w3.org/2000/svg"
 width="800.000000pt" height="1200.000000pt" viewBox="0 0 800.000000 1200.000000"
 preserveAspectRatio="xMidYMid meet">
<metadata>
Created by potrace 1.15, written by Peter Selinger 2001-2017
</metadata>
<g transform="translate(0.000000,1200.000000) scale(0.100000,-0.100000)"
fill="#000000" stroke="none">
<path d="M1193 8113 c-19 -4 -23 -11 -23 -44 0 -37 1 -39 33 -39 l32 -1 -32
-14 c-29 -13 -33 -18 -33 -55 l0 -40 855 0 856 0 -3 98 -3 97 -830 1 c-456 1
-840 -1 -852 -3z"/>
<path d="M2424 7125 c-4 -8 -4 -29 -2 -45 4 -29 3 -30 -34 -30 -38 0 -38 0
-38 -39 0 -44 10 -51 69 -51 20 0 42 -5 47 -10 7 -7 255 -9 725 -8 l714 3 3
98 3 97 -741 0 c-652 0 -741 -2 -746 -15z"/>
</g>
</svg>
