<?xml version="1.0" standalone="no"?>
<!DOCTYPE svg PUBLIC "-//W3C//DTD SVG 20010904//EN"
 "http://www.w3.org/TR/2001/REC-SVG-20010904/DTD/svg10.dtd">
<svg version="1.0" xmlns="http://www.w3.org/2000/svg"
 width="800.000000pt" height="1200.000000pt" viewBox="0 0 800.000000 1200.000000"
 preserveAspectRatio="xMidYMid meet">
<metadata>
Created by potrace 1.15, written by Peter Selinger 2001-2017
</metadata>
<g transform="translate(0.000000,1200.000000) scale(0.100000,-0.100000)"
fill="#000000" stroke="none">
<path d="M3463 10373 l-263 -3 0 -35 c0 -19 -1 -36 -2 -36 -2 -1 -64 -4 -138
-8 l-135 -6 0 -45 0 -45 95 -3 c52 -2 99 -7 104 -12 6 -6 316 -10 818 -10
l808 0 0 105 0 105 -512 -2 c-282 -2 -631 -4 -775 -5z"/>
<path d="M2240 10205 l0 -35 320 0 320 0 0 35 0 35 -320 0 -320 0 0 -35z"/>
<path d="M3510 9740 c0 -55 -17 -60 -206 -60 l-154 0 0 -40 c0 -39 1 -40 38
-41 20 -1 98 -6 172 -11 74 -5 418 -12 763 -14 l628 -4 -3 102 -3 103 -617 3
-618 2 0 -40z"/>
<path d="M740 9560 l0 -90 34 0 c19 0 38 -4 41 -10 3 -5 23 -11 43 -11 25 -1
29 -3 12 -5 -14 -2 -49 -9 -77 -15 l-53 -10 0 -40 0 -39 1595 0 1595 0 0 102
0 101 -1330 -7 -1330 -7 0 61 0 60 -265 0 -265 0 0 -90z"/>
</g>
</svg>
