<?xml version="1.0" standalone="no"?>
<!DOCTYPE svg PUBLIC "-//W3C//DTD SVG 20010904//EN"
 "http://www.w3.org/TR/2001/REC-SVG-20010904/DTD/svg10.dtd">
<svg version="1.0" xmlns="http://www.w3.org/2000/svg"
 width="800.000000pt" height="1200.000000pt" viewBox="0 0 800.000000 1200.000000"
 preserveAspectRatio="xMidYMid meet">
<metadata>
Created by potrace 1.15, written by Peter Selinger 2001-2017
</metadata>
<g transform="translate(0.000000,1200.000000) scale(0.100000,-0.100000)"
fill="#000000" stroke="none">
<path d="M1057 9423 c-4 -3 -7 -21 -7 -40 0 -29 3 -33 26 -33 23 0 24 -2 10
-15 -8 -8 -19 -15 -25 -15 -6 0 -11 -7 -11 -15 0 -12 -26 -15 -152 -17 l-153
-3 0 -85 0 -85 1357 -3 1358 -2 0 60 0 60 645 0 645 0 0 100 0 100 -1843 0
c-1014 0 -1847 -3 -1850 -7z"/>
<path d="M2900 8710 c-855 -4 -1619 -8 -1697 -9 l-143 -1 0 -35 c0 -26 4 -35
17 -35 14 0 14 -3 -5 -20 -19 -18 -35 -20 -171 -20 -126 0 -150 -2 -155 -16
-9 -22 -7 -157 2 -171 5 -7 49 -15 114 -19 90 -6 104 -9 93 -20 -10 -10 -42
-14 -109 -14 -112 0 -109 3 -104 -120 l3 -75 2000 0 2000 0 0 280 0 280 -145
1 c-80 0 -845 -3 -1700 -6z"/>
<path d="M1237 7863 c-4 -3 -7 -21 -7 -40 0 -27 4 -33 23 -34 19 -1 19 -2 3
-6 -32 -8 -46 -29 -46 -67 l0 -36 700 0 700 0 0 95 0 95 -683 0 c-376 0 -687
-3 -690 -7z"/>
</g>
</svg>
