<?xml version="1.0" standalone="no"?>
<!DOCTYPE svg PUBLIC "-//W3C//DTD SVG 20010904//EN"
 "http://www.w3.org/TR/2001/REC-SVG-20010904/DTD/svg10.dtd">
<svg version="1.0" xmlns="http://www.w3.org/2000/svg"
 width="800.000000pt" height="1200.000000pt" viewBox="0 0 800.000000 1200.000000"
 preserveAspectRatio="xMidYMid meet">
<metadata>
Created by potrace 1.15, written by Peter Selinger 2001-2017
</metadata>
<g transform="translate(0.000000,1200.000000) scale(0.100000,-0.100000)"
fill="#000000" stroke="none">
<path d="M2775 11230 c-891 -4 -1664 -8 -1717 -9 l-98 -1 0 -40 c0 -35 3 -40
22 -40 14 0 19 -3 12 -10 -5 -5 -66 -11 -134 -12 l-125 -3 -3 -42 -3 -43 98
-2 c55 -1 76 -3 48 -5 -27 -2 -54 -8 -60 -14 -5 -5 -26 -9 -47 -9 l-38 0 0
-110 0 -110 329 0 329 0 6 31 c3 17 6 47 6 65 l0 34 1675 0 1675 0 -2 163 -3
162 -175 1 c-96 0 -904 -3 -1795 -6z"/>
<path d="M4123 8587 c-15 -25 -75 -37 -185 -37 -101 0 -110 -2 -115 -20 -5
-18 -14 -20 -74 -20 -53 0 -71 -4 -75 -15 -5 -13 -83 -15 -613 -15 -334 0
-986 -3 -1449 -7 l-842 -6 0 -39 c0 -37 1 -38 36 -38 21 0 33 -4 29 -10 -3 -5
-26 -10 -51 -10 l-45 0 3 -102 3 -103 2003 -3 2002 -2 0 220 0 220 -310 0
c-247 0 -311 -3 -317 -13z"/>
<path d="M750 7960 l0 -40 83 -2 c53 -1 65 -3 35 -5 -27 -2 -48 -8 -48 -14 0
-5 -16 -9 -35 -9 -42 0 -47 -14 -43 -120 l3 -75 198 -3 c189 -2 197 -3 197
-22 0 -18 7 -20 93 -21 77 -1 85 -3 47 -9 -25 -4 -72 -13 -105 -19 -33 -6
-142 -11 -242 -11 -211 0 -197 8 -191 -110 l3 -65 198 -3 197 -2 0 -30 c0 -29
1 -30 51 -30 31 0 48 -4 44 -10 -3 -5 -26 -10 -51 -10 -32 0 -44 -4 -44 -15 0
-12 -31 -15 -197 -17 l-198 -3 0 -80 0 -80 263 -3 262 -2 0 -23 c0 -32 -18
-47 -57 -47 -22 0 -33 -5 -33 -15 0 -12 -33 -15 -217 -17 l-218 -3 -3 -60 c-2
-32 -1 -69 3 -82 l5 -23 210 0 210 0 0 -25 c0 -23 4 -25 45 -25 25 0 45 -4 45
-9 0 -13 -119 -21 -322 -21 l-187 0 -6 -32 c-3 -18 -5 -60 -3 -93 l3 -60 213
-3 212 -2 0 55 0 55 1788 2 1787 3 0 95 0 95 -752 3 -753 2 0 35 0 35 753 2
752 3 3 98 3 97 -1631 -7 -1630 -6 0 46 0 47 1630 0 1631 0 -3 93 -3 92 -187
3 -188 2 0 40 0 40 190 0 190 0 0 97 0 96 -1580 -7 -1580 -8 0 46 0 46 1580 0
1580 0 0 95 0 95 -2000 0 -2000 0 0 -40z"/>
</g>
</svg>
