<?xml version="1.0" standalone="no"?>
<!DOCTYPE svg PUBLIC "-//W3C//DTD SVG 20010904//EN"
 "http://www.w3.org/TR/2001/REC-SVG-20010904/DTD/svg10.dtd">
<svg version="1.0" xmlns="http://www.w3.org/2000/svg"
 width="800.000000pt" height="1200.000000pt" viewBox="0 0 800.000000 1200.000000"
 preserveAspectRatio="xMidYMid meet">
<metadata>
Created by potrace 1.15, written by Peter Selinger 2001-2017
</metadata>
<g transform="translate(0.000000,1200.000000) scale(0.100000,-0.100000)"
fill="#000000" stroke="none">
<path d="M3090 11179 c-426 -3 -1105 -7 -1507 -8 l-733 -1 0 -40 c0 -33 -3
-40 -20 -40 -11 0 -20 -4 -20 -10 0 -5 -17 -10 -39 -10 -35 0 -39 -3 -45 -31
-9 -45 -7 -162 2 -177 7 -9 86 -12 363 -10 l354 3 3 68 3 67 1634 0 1635 0 0
100 0 100 -427 -2 c-236 -1 -777 -5 -1203 -9z"/>
<path d="M2685 10839 c-808 -3 -1491 -7 -1517 -8 -48 -1 -48 -1 -48 -36 0 -23
6 -38 16 -42 26 -10 -5 -23 -53 -23 -24 0 -43 -4 -43 -10 0 -5 -16 -10 -35
-10 -34 0 -35 -1 -35 -39 0 -22 5 -42 13 -44 6 -3 -7 -6 -30 -6 -24 -1 -43 -5
-43 -11 0 -5 -42 -11 -92 -12 l-93 -3 0 -143 c0 -116 3 -145 15 -152 8 -5 51
-10 95 -10 44 -1 98 -5 120 -9 39 -7 37 -8 -50 -24 -49 -9 -109 -17 -132 -17
l-43 0 0 -210 0 -210 1788 2 1787 3 3 52 3 53 207 2 207 3 3 458 2 457 -287
-2 c-159 -1 -949 -5 -1758 -9z"/>
<path d="M3000 9789 c-470 -3 -1081 -7 -1357 -8 l-503 -1 0 -34 c0 -28 4 -35
23 -39 19 -4 19 -4 -5 -6 -15 0 -30 -5 -33 -11 -3 -5 -21 -10 -40 -10 -19 0
-37 -4 -40 -10 -4 -6 -68 -10 -161 -10 l-154 0 2 -272 3 -273 1052 -3 1052 -2
3 62 3 63 945 5 945 5 0 78 c0 42 -2 167 -3 277 l-2 200 -437 -2 c-241 -1
-823 -5 -1293 -9z"/>
<path d="M2495 9090 l-1300 -5 -3 -41 c-3 -46 -7 -48 -109 -61 -24 -3 -43 -9
-43 -14 0 -5 -69 -10 -152 -11 l-153 -3 -3 -92 -3 -93 103 -2 c96 -1 99 -2 43
-8 -33 -5 -79 -11 -103 -15 l-43 -8 3 -41 3 -41 83 -3 c45 -2 82 -7 82 -12 0
-5 -37 -10 -82 -12 l-83 -3 -3 -42 -3 -43 135 0 c124 0 170 -9 130 -24 -9 -3
-72 -6 -140 -6 l-124 0 0 -44 0 -45 56 -7 c63 -7 60 -21 -6 -26 l-45 -3 -3
-135 c-2 -74 0 -150 3 -167 l6 -33 219 0 220 0 0 65 0 65 1774 0 c1608 0 1774
1 1780 16 8 20 8 638 0 658 -5 14 -28 16 -150 16 -89 0 -144 4 -144 10 0 6 55
10 145 10 169 0 158 -9 153 125 l-3 80 -470 0 c-258 0 -1055 -2 -1770 -5z"/>
<path d="M1170 7770 l0 -40 98 -2 c92 -1 94 -1 37 -8 -142 -18 -145 -19 -145
-56 0 -26 4 -33 23 -36 16 -2 23 -11 25 -30 l3 -28 87 -1 87 -2 -79 -8 c-55
-6 -83 -13 -88 -24 -8 -13 -43 -15 -243 -15 l-235 0 0 -85 0 -85 280 0 280 0
0 -28 c0 -23 -6 -29 -40 -40 -22 -7 -92 -12 -158 -12 -65 0 -174 -3 -240 -7
l-122 -6 0 -194 0 -193 305 0 305 0 0 -30 c0 -26 -4 -30 -27 -30 -32 0 -93
-21 -93 -32 0 -4 -110 -8 -245 -8 l-245 0 0 -85 0 -85 265 0 265 0 0 -30 c0
-22 5 -30 18 -31 30 -2 -30 -17 -70 -18 -21 -1 -38 -5 -38 -11 0 -6 -80 -10
-220 -10 l-220 0 0 -85 0 -85 215 0 215 0 0 -30 c0 -29 2 -30 46 -30 27 0 43
-4 39 -10 -3 -5 -24 -10 -46 -10 -39 0 -39 0 -39 -40 0 -38 2 -40 29 -40 25 0
30 -4 33 -27 3 -27 5 -28 83 -34 44 -3 62 -6 40 -7 -91 -5 -145 -15 -145 -28
0 -11 -46 -14 -232 -16 l-233 -3 0 -80 0 -80 288 -3 287 -2 0 -25 c0 -20 -5
-25 -24 -25 -14 0 -28 -4 -31 -10 -3 -5 -26 -10 -51 -10 l-44 0 0 -40 0 -40
100 0 100 0 0 -29 c0 -27 -4 -29 -42 -34 -105 -14 -109 -16 -106 -56 l3 -36
1283 -3 1282 -2 0 176 0 176 -1115 -7 -1115 -8 0 47 0 46 1595 0 1595 0 0 98
0 97 -825 -3 -825 -4 0 81 0 81 -333 0 -333 0 4 40 4 40 1149 0 1149 0 0 97 0
96 -1105 -7 -1105 -6 0 45 0 45 1105 0 1105 0 0 95 0 95 -345 0 -345 0 0 40 0
40 345 0 345 0 0 207 0 206 -1572 -7 c-865 -3 -1601 -9 -1635 -13 l-63 -6 0
52 0 51 1635 0 1635 0 0 96 0 95 -800 -3 -800 -3 0 78 0 77 -985 0 -985 0 0
-40z"/>
</g>
</svg>
