<?xml version="1.0" standalone="no"?>
<!DOCTYPE svg PUBLIC "-//W3C//DTD SVG 20010904//EN"
 "http://www.w3.org/TR/2001/REC-SVG-20010904/DTD/svg10.dtd">
<svg version="1.0" xmlns="http://www.w3.org/2000/svg"
 width="800.000000pt" height="1200.000000pt" viewBox="0 0 800.000000 1200.000000"
 preserveAspectRatio="xMidYMid meet">
<metadata>
Created by potrace 1.15, written by Peter Selinger 2001-2017
</metadata>
<g transform="translate(0.000000,1200.000000) scale(0.100000,-0.100000)"
fill="#000000" stroke="none">
<path d="M2370 11230 l-1635 -5 -3 -37 -3 -38 68 -1 c37 -1 57 -4 43 -6 -14
-3 -29 -9 -34 -14 -6 -5 -25 -9 -43 -9 l-33 0 0 -105 0 -105 1245 0 1245 0 0
60 0 60 763 2 762 3 3 103 3 102 -373 -2 c-205 -2 -1109 -5 -2008 -8z"/>
<path d="M2200 10869 c-476 -3 -907 -7 -957 -8 l-93 -1 0 -39 c0 -41 -13 -51
-71 -51 -14 0 -29 -4 -35 -10 -5 -5 -77 -11 -159 -12 l-150 -3 -3 -105 c-2
-58 0 -129 3 -157 l6 -53 110 0 c66 0 109 -4 109 -10 0 -5 -16 -10 -35 -10
-19 0 -35 -4 -35 -10 0 -6 -32 -10 -75 -10 l-75 0 0 -280 0 -280 574 0 c642 0
586 -7 586 76 l0 44 1423 2 1422 3 0 460 0 460 -840 1 c-462 0 -1229 -3 -1705
-7z"/>
<path d="M1408 9793 l-688 -3 0 -40 0 -40 46 0 c27 0 43 -4 39 -10 -3 -5 -24
-10 -46 -10 l-39 0 2 -1102 3 -1103 188 -3 187 -2 0 -30 c0 -30 1 -30 58 -31
l57 -1 -70 -15 c-38 -8 -144 -18 -235 -21 l-165 -7 -3 -260 c-1 -143 0 -270 3
-282 5 -21 11 -23 70 -23 37 0 65 -4 65 -10 0 -6 -28 -10 -65 -10 l-65 0 0
-45 c0 -45 0 -45 36 -45 21 0 33 -4 29 -10 -3 -5 -19 -10 -35 -10 -37 0 -42
-16 -38 -130 l3 -85 973 -3 972 -2 0 60 0 60 1030 0 1030 0 0 1610 0 1610
-1327 -2 c-731 -2 -1637 -4 -2015 -5z"/>
<path d="M2072 6203 l-933 -3 3 -38 c3 -36 4 -37 46 -40 56 -4 54 -22 -4 -22
l-45 0 3 -42 3 -43 1570 0 1570 0 3 98 3 97 -643 -2 c-354 -2 -1063 -4 -1576
-5z"/>
</g>
</svg>
