<?xml version="1.0" standalone="no"?>
<!DOCTYPE svg PUBLIC "-//W3C//DTD SVG 20010904//EN"
 "http://www.w3.org/TR/2001/REC-SVG-20010904/DTD/svg10.dtd">
<svg version="1.0" xmlns="http://www.w3.org/2000/svg"
 width="800.000000pt" height="1200.000000pt" viewBox="0 0 800.000000 1200.000000"
 preserveAspectRatio="xMidYMid meet">
<metadata>
Created by potrace 1.15, written by Peter Selinger 2001-2017
</metadata>
<g transform="translate(0.000000,1200.000000) scale(0.100000,-0.100000)"
fill="#000000" stroke="none">
<path d="M2638 9413 l-508 -3 0 -40 c0 -39 1 -40 38 -41 70 -3 -54 -17 -155
-18 -75 -1 -93 -4 -93 -16 0 -13 -74 -15 -587 -17 l-588 -3 0 -150 0 -150
1729 -3 c1377 -2 1731 0 1738 10 4 7 8 34 8 61 l0 47 265 0 265 0 -2 163 -3
162 -800 0 c-440 0 -1028 -1 -1307 -2z"/>
</g>
</svg>
