<?xml version="1.0" standalone="no"?>
<!DOCTYPE svg PUBLIC "-//W3C//DTD SVG 20010904//EN"
 "http://www.w3.org/TR/2001/REC-SVG-20010904/DTD/svg10.dtd">
<svg version="1.0" xmlns="http://www.w3.org/2000/svg"
 width="800.000000pt" height="1200.000000pt" viewBox="0 0 800.000000 1200.000000"
 preserveAspectRatio="xMidYMid meet">
<metadata>
Created by potrace 1.15, written by Peter Selinger 2001-2017
</metadata>
<g transform="translate(0.000000,1200.000000) scale(0.100000,-0.100000)"
fill="#000000" stroke="none">
<path d="M3630 11179 c-404 -3 -1215 -7 -1802 -8 l-1068 -1 0 -40 0 -40 93 -1
92 -2 -87 -8 c-48 -4 -101 -10 -118 -14 l-30 -7 0 -159 0 -159 93 -1 c50 0
110 -4 132 -8 l40 -7 -52 -7 c-29 -4 -55 -12 -58 -17 -3 -6 -40 -10 -81 -10
l-74 0 0 -330 0 -330 1655 0 1655 0 0 60 0 60 343 2 342 3 3 175 c2 96 0 329
-3 518 l-7 342 -167 -2 c-91 -1 -497 -5 -901 -9z"/>
<path d="M3375 10009 c-401 -3 -1073 -7 -1492 -8 l-763 -1 0 -50 0 -50 -44 0
c-25 0 -48 -4 -51 -10 -4 -6 -69 -10 -162 -10 l-156 0 6 -277 c4 -153 7 -329
7 -390 l0 -113 1655 0 1655 0 0 60 0 60 338 2 337 3 3 398 2 397 -302 -2
c-167 -1 -631 -5 -1033 -9z"/>
</g>
</svg>
