<?xml version="1.0" standalone="no"?>
<!DOCTYPE svg PUBLIC "-//W3C//DTD SVG 20010904//EN"
 "http://www.w3.org/TR/2001/REC-SVG-20010904/DTD/svg10.dtd">
<svg version="1.0" xmlns="http://www.w3.org/2000/svg"
 width="800.000000pt" height="1200.000000pt" viewBox="0 0 800.000000 1200.000000"
 preserveAspectRatio="xMidYMid meet">
<metadata>
Created by potrace 1.15, written by Peter Selinger 2001-2017
</metadata>
<g transform="translate(0.000000,1200.000000) scale(0.100000,-0.100000)"
fill="#000000" stroke="none">
<path d="M1988 11233 l-938 -3 0 -35 0 -35 88 -2 c52 -1 68 -3 39 -5 -26 -2
-47 -8 -47 -14 0 -5 -18 -9 -39 -9 -22 0 -43 -4 -46 -10 -4 -6 -69 -10 -161
-10 l-155 0 3 -97 3 -98 50 -5 c41 -4 46 -6 25 -12 -14 -4 -37 -8 -53 -8 l-27
0 2 -227 3 -228 898 -3 897 -2 0 65 0 65 1110 0 1110 0 0 220 0 220 -95 0
c-78 0 -95 3 -95 15 0 12 17 15 95 15 l95 0 0 105 0 105 -912 -2 c-502 -2
-1335 -4 -1850 -5z"/>
<path d="M1533 10393 l-463 -3 0 -35 0 -35 73 -1 c71 -1 72 -1 23 -9 -26 -5
-55 -12 -65 -16 -9 -4 -95 -10 -191 -13 l-175 -6 -3 -97 -3 -98 1016 0 1015 0
0 60 0 60 995 0 995 0 0 100 0 100 -1377 -2 c-758 -2 -1586 -4 -1840 -5z"/>
<path d="M1044 10027 c-2 -7 -3 -118 -2 -247 l3 -235 1708 -3 1707 -2 0 105 0
105 -610 0 -610 0 0 45 0 45 610 0 610 0 0 100 0 100 -1705 0 c-1370 0 -1707
-2 -1711 -13z"/>
<path d="M1373 9503 l-483 -3 0 -100 0 -100 878 2 877 3 3 103 3 102 -398 -2
c-219 -2 -615 -4 -880 -5z"/>
<path d="M2428 9283 l-1538 -3 0 -100 0 -100 75 0 74 0 3 -57 3 -58 288 -3
287 -2 0 60 0 60 1420 0 1420 0 0 105 0 105 -247 -2 c-137 -2 -940 -4 -1785
-5z"/>
</g>
</svg>
