<?xml version="1.0" standalone="no"?>
<!DOCTYPE svg PUBLIC "-//W3C//DTD SVG 20010904//EN"
 "http://www.w3.org/TR/2001/REC-SVG-20010904/DTD/svg10.dtd">
<svg version="1.0" xmlns="http://www.w3.org/2000/svg"
 width="800.000000pt" height="1200.000000pt" viewBox="0 0 800.000000 1200.000000"
 preserveAspectRatio="xMidYMid meet">
<metadata>
Created by potrace 1.15, written by Peter Selinger 2001-2017
</metadata>
<g transform="translate(0.000000,1200.000000) scale(0.100000,-0.100000)"
fill="#000000" stroke="none">
<path d="M4070 10490 l-255 -5 -3 -27 c-3 -26 -6 -28 -53 -28 -37 0 -49 -4
-49 -15 0 -12 -18 -15 -101 -15 l-100 0 3 -42 3 -43 135 -7 c74 -3 150 -11
170 -18 24 -7 137 -10 355 -8 l320 3 3 108 3 107 -88 -2 c-48 -1 -203 -5 -343
-8z"/>
<path d="M1530 9760 c0 -38 2 -40 31 -40 44 0 27 -17 -26 -24 l-45 -7 0 -45 0
-44 675 0 674 0 6 33 c3 17 5 61 3 97 l-3 65 -657 3 -658 2 0 -40z"/>
</g>
</svg>
