<?xml version="1.0" standalone="no"?>
<!DOCTYPE svg PUBLIC "-//W3C//DTD SVG 20010904//EN"
 "http://www.w3.org/TR/2001/REC-SVG-20010904/DTD/svg10.dtd">
<svg version="1.0" xmlns="http://www.w3.org/2000/svg"
 width="800.000000pt" height="1200.000000pt" viewBox="0 0 800.000000 1200.000000"
 preserveAspectRatio="xMidYMid meet">
<metadata>
Created by potrace 1.15, written by Peter Selinger 2001-2017
</metadata>
<g transform="translate(0.000000,1200.000000) scale(0.100000,-0.100000)"
fill="#000000" stroke="none">
<path d="M1030 11165 c0 -31 -3 -35 -25 -35 -16 0 -25 -6 -25 -15 0 -10 -11
-15 -35 -15 -35 0 -35 0 -35 -44 l0 -45 408 -5 c224 -4 586 -9 805 -12 239 -3
397 -9 397 -15 0 -5 -301 -9 -794 -9 -519 0 -797 -3 -801 -10 -3 -6 -48 -10
-101 -10 l-94 0 0 -95 0 -95 280 0 280 0 0 -40 0 -40 69 0 c52 0 70 -4 75 -15
5 -13 54 -15 348 -16 639 -3 1021 -13 1026 -26 3 -10 -40 -13 -190 -14 -106
-1 -288 -4 -404 -8 -182 -5 -215 -8 -231 -23 -11 -10 -32 -18 -46 -18 -15 0
-27 -4 -27 -9 0 -4 -34 -11 -75 -15 -41 -3 -109 -9 -150 -12 l-75 -7 0 -38 0
-39 114 0 c66 0 117 -4 121 -10 4 -6 97 -10 248 -10 292 0 659 -19 654 -34 -2
-6 -18 -12 -35 -14 -30 -3 -32 -6 -32 -43 l0 -39 1025 0 1025 0 0 100 0 100
-1010 0 c-891 0 -1010 2 -1010 15 0 13 69 15 560 15 l561 0 -3 103 -3 102
-612 3 c-529 2 -613 4 -613 17 0 11 20 15 93 17 l92 3 3 58 3 57 970 0 970 0
-3 103 -3 102 -1172 -2 -1173 -1 0 59 0 59 -675 0 -675 0 0 -35z"/>
<path d="M730 10275 l0 -85 305 0 305 0 0 85 0 85 -305 0 -305 0 0 -85z"/>
<path d="M1550 10221 l0 -38 83 -6 c45 -4 164 -7 265 -7 l182 0 0 -39 c0 -34
4 -40 26 -45 15 -4 33 -14 41 -21 12 -13 118 -15 729 -15 l714 0 0 105 0 105
-1020 0 -1020 0 0 -39z"/>
<path d="M1143 7495 c4 -44 3 -55 -9 -55 -10 0 -14 -13 -14 -45 l0 -45 989 0
990 0 6 43 c4 23 5 65 3 92 l-3 50 -205 6 c-113 3 -556 7 -984 8 l-779 1 6
-55z"/>
<path d="M3860 6550 c-8 -5 -27 -10 -42 -10 -16 0 -28 -4 -28 -10 0 -6 -51
-10 -134 -10 -142 0 -166 -4 -166 -26 0 -11 -31 -14 -170 -14 -132 0 -171 -3
-177 -14 -7 -11 -193 -14 -1083 -19 -591 -3 -1083 -9 -1092 -12 -10 -4 -18
-20 -20 -38 -3 -32 -3 -32 -73 -38 -38 -4 -89 -10 -112 -14 -43 -8 -43 -8 -43
-51 l0 -44 1138 2 1137 3 3 53 3 52 860 0 859 0 0 93 0 94 -127 6 c-198 10
-716 8 -733 -3z"/>
</g>
</svg>
