<?xml version="1.0" standalone="no"?>
<!DOCTYPE svg PUBLIC "-//W3C//DTD SVG 20010904//EN"
 "http://www.w3.org/TR/2001/REC-SVG-20010904/DTD/svg10.dtd">
<svg version="1.0" xmlns="http://www.w3.org/2000/svg"
 width="800.000000pt" height="1200.000000pt" viewBox="0 0 800.000000 1200.000000"
 preserveAspectRatio="xMidYMid meet">
<metadata>
Created by potrace 1.15, written by Peter Selinger 2001-2017
</metadata>
<g transform="translate(0.000000,1200.000000) scale(0.100000,-0.100000)"
fill="#000000" stroke="none">
<path d="M740 9035 c0 -33 2 -35 33 -35 l32 -1 -32 -14 c-30 -13 -33 -18 -33
-60 0 -42 2 -45 28 -46 16 0 21 -3 12 -6 -29 -12 -40 -32 -40 -72 l0 -41 660
0 661 0 -3 98 -3 97 -112 3 -113 3 0 54 0 55 -545 0 -545 0 0 -35z"/>
<path d="M4040 7140 l0 -40 -230 0 c-192 0 -230 -2 -237 -15 -7 -12 -47 -15
-233 -17 l-225 -3 -3 -37 -3 -38 820 0 821 0 0 95 0 95 -355 0 -355 0 0 -40z"/>
<path d="M744 7047 c-3 -8 -4 -49 -2 -93 l3 -79 213 -3 c204 -2 212 -3 212
-22 0 -17 7 -20 58 -21 31 -1 46 -4 32 -6 -14 -3 -29 -9 -34 -14 -6 -5 -20 -9
-33 -9 -22 0 -23 -4 -23 -69 0 -68 0 -68 33 -79 l32 -10 -32 -1 c-32 -1 -33
-2 -33 -46 l0 -45 1304 0 c792 0 1307 4 1311 9 3 5 2 86 -1 178 l-7 169 -1058
-4 -1059 -5 0 82 0 81 -455 0 c-371 0 -457 -2 -461 -13z"/>
<path d="M1428 6423 l-258 -3 0 -40 c0 -39 1 -40 38 -41 l37 0 -35 -12 c-32
-11 -35 -15 -35 -52 l0 -40 915 0 915 0 0 95 0 95 -660 0 c-363 0 -776 -1
-917 -2z"/>
<path d="M1247 6093 l-58 -4 2 -45 c2 -29 -2 -48 -10 -53 -7 -5 -11 -23 -9
-47 l3 -39 755 0 755 0 3 98 3 97 -693 -2 c-381 -1 -719 -3 -751 -5z"/>
</g>
</svg>
