<?xml version="1.0" standalone="no"?>
<!DOCTYPE svg PUBLIC "-//W3C//DTD SVG 20010904//EN"
 "http://www.w3.org/TR/2001/REC-SVG-20010904/DTD/svg10.dtd">
<svg version="1.0" xmlns="http://www.w3.org/2000/svg"
 width="800.000000pt" height="1200.000000pt" viewBox="0 0 800.000000 1200.000000"
 preserveAspectRatio="xMidYMid meet">
<metadata>
Created by potrace 1.15, written by Peter Selinger 2001-2017
</metadata>
<g transform="translate(0.000000,1200.000000) scale(0.100000,-0.100000)"
fill="#000000" stroke="none">
<path d="M3903 10143 l-563 -3 0 -24 c0 -20 -6 -25 -40 -31 -25 -4 -40 -12
-40 -21 0 -11 -22 -14 -108 -14 -73 0 -112 -4 -120 -12 -10 -10 -259 -14
-1150 -18 l-1137 -5 -3 -97 -3 -98 1631 0 1630 0 0 60 0 60 375 0 375 0 0 105
0 105 -142 -2 c-79 -2 -396 -4 -705 -5z"/>
<path d="M2215 9659 c-616 -3 -1126 -7 -1134 -8 -10 -1 -12 -12 -9 -44 7 -63
-3 -67 -182 -67 l-150 0 0 -90 c0 -107 0 -107 123 -116 72 -6 83 -9 72 -20 -9
-10 -40 -14 -99 -14 l-86 0 0 -39 0 -38 68 -6 c37 -4 90 -7 117 -8 28 -1 42
-3 33 -6 -10 -2 -18 -8 -18 -13 0 -5 -46 -11 -102 -12 l-103 -3 -3 -84 c-2
-46 1 -88 6 -93 6 -6 55 -12 111 -15 99 -6 101 -6 82 -24 -15 -14 -39 -19
-108 -21 l-88 -3 0 -95 0 -95 94 -5 c63 -3 96 -9 99 -17 3 -10 -20 -13 -93
-13 l-96 0 3 -42 c3 -40 5 -43 38 -49 28 -5 30 -7 9 -8 -49 -2 -60 -28 -57
-132 l3 -94 1053 -3 1052 -2 0 60 0 60 948 2 947 3 0 580 0 580 -705 1 c-388
0 -1209 -3 -1825 -7z"/>
</g>
</svg>
