<?xml version="1.0" standalone="no"?>
<!DOCTYPE svg PUBLIC "-//W3C//DTD SVG 20010904//EN"
 "http://www.w3.org/TR/2001/REC-SVG-20010904/DTD/svg10.dtd">
<svg version="1.0" xmlns="http://www.w3.org/2000/svg"
 width="800.000000pt" height="1200.000000pt" viewBox="0 0 800.000000 1200.000000"
 preserveAspectRatio="xMidYMid meet">
<metadata>
Created by potrace 1.15, written by Peter Selinger 2001-2017
</metadata>
<g transform="translate(0.000000,1200.000000) scale(0.100000,-0.100000)"
fill="#000000" stroke="none">
<path d="M1650 11220 c-492 -3 -896 -7 -897 -8 -9 -7 -1 -71 9 -74 8 -3 4 -9
-10 -17 -17 -9 -22 -20 -22 -51 l0 -40 1660 0 1661 0 -3 98 -3 97 -750 0
c-412 0 -1153 -2 -1645 -5z"/>
<path d="M1747 10983 l-479 -3 4 -45 c2 -25 0 -45 -4 -45 -9 0 -10 -56 -2 -88
l6 -22 757 2 756 3 3 80 c2 44 0 90 -3 102 l-5 23 -278 -2 c-152 -2 -492 -4
-755 -5z"/>
<path d="M1493 9413 l-333 -3 0 -35 c0 -34 1 -35 43 -36 42 -1 41 -3 -21 -24
-20 -7 -23 -13 -20 -49 l3 -41 797 -3 798 -2 5 23 c3 12 5 56 3 97 l-3 75
-470 0 c-259 0 -620 -1 -802 -2z"/>
<path d="M4310 8541 c0 -13 -69 -22 -207 -27 -114 -5 -123 -7 -123 -25 0 -15
-7 -19 -35 -19 -35 0 -35 0 -35 -45 l0 -45 45 0 c25 0 45 -4 45 -10 0 -6 132
-10 375 -10 l375 0 0 95 0 95 -220 0 c-123 0 -220 -4 -220 -9z"/>
<path d="M750 8390 c0 -29 4 -40 15 -40 22 0 18 -17 -5 -23 -14 -4 -20 -13
-20 -34 0 -56 -27 -53 561 -51 l544 3 3 93 3 92 -551 0 -550 0 0 -40z"/>
</g>
</svg>
