<?xml version="1.0" standalone="no"?>
<!DOCTYPE svg PUBLIC "-//W3C//DTD SVG 20010904//EN"
 "http://www.w3.org/TR/2001/REC-SVG-20010904/DTD/svg10.dtd">
<svg version="1.0" xmlns="http://www.w3.org/2000/svg"
 width="800.000000pt" height="1200.000000pt" viewBox="0 0 800.000000 1200.000000"
 preserveAspectRatio="xMidYMid meet">
<metadata>
Created by potrace 1.15, written by Peter Selinger 2001-2017
</metadata>
<g transform="translate(0.000000,1200.000000) scale(0.100000,-0.100000)"
fill="#000000" stroke="none">
<path d="M3358 9203 l-298 -3 0 -35 c0 -26 -4 -35 -17 -36 -201 -9 -265 -16
-273 -29 -8 -13 -146 -16 -1007 -20 -549 -3 -1004 -9 -1010 -13 -10 -6 -13
-60 -13 -214 0 -196 1 -205 20 -210 25 -7 25 -15 0 -31 -18 -11 -20 -23 -20
-101 0 -50 4 -92 9 -95 5 -3 54 -9 110 -12 83 -6 99 -9 90 -21 -8 -9 -39 -13
-105 -13 -109 0 -107 3 -102 -119 l3 -74 60 -13 c33 -7 90 -13 127 -13 55 -1
66 -4 62 -16 -5 -11 -32 -15 -127 -17 l-122 -3 0 -215 0 -215 183 -3 182 -2 0
65 0 65 1820 0 1820 0 0 460 0 460 -50 0 c-37 0 -50 4 -50 14 0 11 14 16 48
18 l47 3 3 223 2 222 -547 -2 c-302 -2 -682 -4 -845 -5z"/>
<path d="M2270 7181 l-85 -6 -3 -37 c-3 -36 -4 -36 -55 -43 -166 -20 -348 -27
-835 -31 l-543 -5 3 -87 3 -87 213 -3 212 -2 0 -24 c0 -14 6 -27 13 -30 8 -3
7 -8 -5 -16 -12 -7 -18 -24 -18 -50 l0 -40 710 0 710 0 0 80 0 80 374 0 375 0
6 55 7 55 697 2 696 3 3 98 3 97 -1198 -2 c-659 -1 -1236 -4 -1283 -7z"/>
<path d="M1187 6583 c-4 -3 -7 -21 -7 -40 0 -23 5 -33 15 -33 8 0 15 -7 15
-15 0 -8 -7 -15 -15 -15 -12 0 -15 -14 -15 -70 0 -56 3 -70 15 -70 8 0 15 -4
15 -10 0 -5 -7 -10 -15 -10 -12 0 -15 -14 -15 -70 0 -58 3 -70 17 -70 15 0 15
-1 0 -18 -10 -10 -17 -35 -17 -55 l0 -37 1170 0 1171 0 -3 98 -3 97 -367 3
-368 2 0 80 0 80 -55 0 -54 0 -3 78 -3 77 -736 3 c-404 1 -739 -1 -742 -5z"/>
</g>
</svg>
