<?xml version="1.0" standalone="no"?>
<!DOCTYPE svg PUBLIC "-//W3C//DTD SVG 20010904//EN"
 "http://www.w3.org/TR/2001/REC-SVG-20010904/DTD/svg10.dtd">
<svg version="1.0" xmlns="http://www.w3.org/2000/svg"
 width="800.000000pt" height="1200.000000pt" viewBox="0 0 800.000000 1200.000000"
 preserveAspectRatio="xMidYMid meet">
<metadata>
Created by potrace 1.15, written by Peter Selinger 2001-2017
</metadata>
<g transform="translate(0.000000,1200.000000) scale(0.100000,-0.100000)"
fill="#000000" stroke="none">
<path d="M1638 11193 l-898 -3 0 -35 0 -35 88 -2 c48 -1 69 -3 47 -5 -22 -3
-44 -9 -49 -14 -6 -5 -27 -9 -48 -9 l-38 0 0 -885 0 -885 417 2 418 3 3 63 3
62 1584 0 1585 0 0 875 0 875 -1107 -2 c-610 -2 -1512 -4 -2005 -5z"/>
<path d="M2268 9283 l-1158 -3 0 -40 0 -40 88 -1 87 -2 -88 -8 c-49 -4 -96
-11 -105 -15 -9 -4 -91 -10 -182 -13 l-165 -6 -3 -855 c-1 -470 0 -865 3 -878
l5 -22 1178 2 1177 3 3 63 3 62 819 0 820 0 0 880 0 880 -662 -2 c-365 -2
-1184 -4 -1820 -5z"/>
<path d="M1182 7325 c3 -41 1 -45 -19 -45 -12 0 -25 -4 -28 -10 -3 -5 -22 -10
-41 -10 -19 0 -34 -4 -34 -10 0 -6 -58 -10 -155 -10 l-155 0 0 -702 c0 -387 3
-754 7 -815 l6 -113 1994 0 1993 0 0 880 0 880 -1786 0 -1786 0 4 -45z"/>
</g>
</svg>
