<?xml version="1.0" standalone="no"?>
<!DOCTYPE svg PUBLIC "-//W3C//DTD SVG 20010904//EN"
 "http://www.w3.org/TR/2001/REC-SVG-20010904/DTD/svg10.dtd">
<svg version="1.0" xmlns="http://www.w3.org/2000/svg"
 width="800.000000pt" height="1200.000000pt" viewBox="0 0 800.000000 1200.000000"
 preserveAspectRatio="xMidYMid meet">
<metadata>
Created by potrace 1.15, written by Peter Selinger 2001-2017
</metadata>
<g transform="translate(0.000000,1200.000000) scale(0.100000,-0.100000)"
fill="#000000" stroke="none">
<path d="M2530 9780 c-691 -5 -791 -8 -838 -22 -71 -23 -72 -24 -72 -69 0 -32
3 -39 19 -39 11 0 23 -4 26 -10 4 -6 87 -10 215 -10 128 0 211 -4 215 -10 4
-6 55 -10 121 -10 95 0 114 -3 114 -15 0 -13 141 -15 1210 -15 l1210 0 0 105
0 105 -717 -2 c-395 -2 -1071 -5 -1503 -8z"/>
</g>
</svg>
