<?xml version="1.0" standalone="no"?>
<!DOCTYPE svg PUBLIC "-//W3C//DTD SVG 20010904//EN"
 "http://www.w3.org/TR/2001/REC-SVG-20010904/DTD/svg10.dtd">
<svg version="1.0" xmlns="http://www.w3.org/2000/svg"
 width="800.000000pt" height="1200.000000pt" viewBox="0 0 800.000000 1200.000000"
 preserveAspectRatio="xMidYMid meet">
<metadata>
Created by potrace 1.15, written by Peter Selinger 2001-2017
</metadata>
<g transform="translate(0.000000,1200.000000) scale(0.100000,-0.100000)"
fill="#000000" stroke="none">
<path d="M2767 11003 c-4 -3 -7 -24 -7 -45 l0 -38 -155 0 -155 0 0 -45 0 -45
154 0 c128 0 155 -3 160 -15 5 -13 121 -15 993 -13 l988 3 0 100 0 100 -986 3
c-542 1 -989 -1 -992 -5z"/>
<path d="M1533 10283 l-483 -3 0 -35 c0 -34 1 -35 40 -35 22 0 40 -4 40 -9 0
-18 -103 -31 -245 -31 l-145 0 0 -100 0 -100 114 0 c66 0 117 -4 121 -10 4 -6
-8 -10 -29 -10 -20 0 -36 -4 -36 -10 0 -6 -30 -10 -70 -10 l-70 0 0 -40 0 -40
78 -1 c42 0 95 -4 117 -8 l40 -7 -53 -12 c-29 -7 -89 -12 -133 -12 l-80 0 3
-97 3 -98 103 -3 c74 -2 102 -6 99 -15 -5 -17 -43 -25 -129 -26 l-78 -1 0
-105 0 -105 555 0 555 0 0 60 0 60 1448 2 1447 3 3 403 2 402 -1367 -2 c-753
-2 -1585 -4 -1850 -5z"/>
<path d="M1050 9290 l0 -40 88 -1 c74 -1 80 -3 42 -9 -25 -4 -69 -13 -99 -19
-29 -6 -118 -11 -197 -11 l-144 0 0 -94 0 -93 31 -7 c17 -3 67 -6 110 -6 43 0
81 -4 84 -10 3 -5 -3 -10 -14 -10 -11 0 -23 -4 -26 -10 -3 -5 -46 -10 -96 -10
l-89 0 0 -94 0 -93 38 -7 c20 -3 71 -6 112 -7 41 0 86 -4 100 -8 l25 -7 -25
-8 c-14 -4 -76 -10 -137 -13 l-113 -6 0 -88 c0 -48 3 -94 6 -103 5 -14 55 -16
454 -16 l448 0 6 31 c3 17 6 47 6 65 l0 34 1545 0 1545 0 0 340 0 340 -1850 0
-1850 0 0 -40z"/>
<path d="M1050 8450 l0 -40 51 0 c31 0 48 -4 44 -10 -3 -5 -23 -10 -44 -10
-20 0 -41 -4 -47 -10 -5 -5 -77 -11 -159 -12 l-150 -3 -3 -135 c-4 -195 -15
-180 128 -180 73 0 120 -4 120 -10 0 -5 -18 -10 -40 -10 l-40 0 0 -50 0 -50
1920 0 1920 0 0 280 0 280 -1850 0 -1850 0 0 -40z"/>
<path d="M1170 7755 c0 -34 2 -35 38 -36 26 -1 30 -3 13 -6 -37 -7 -51 -27
-51 -72 0 -30 4 -41 15 -41 9 0 15 -9 15 -25 0 -22 4 -25 40 -25 22 0 40 -4
40 -9 0 -14 -111 -21 -327 -21 l-204 0 3 -42 3 -43 83 -3 c45 -2 82 -7 82 -12
0 -5 -39 -11 -87 -12 l-88 -3 0 -255 0 -255 213 -3 c204 -2 212 -3 212 -22 0
-18 7 -20 68 -22 56 -1 59 -2 20 -5 -27 -2 -48 -8 -48 -14 0 -5 -9 -9 -20 -9
-18 0 -20 -7 -20 -70 l0 -70 36 0 c21 0 33 -4 29 -10 -3 -5 -19 -10 -36 -10
l-29 0 0 -70 0 -70 83 -2 c53 -1 65 -3 35 -5 -27 -2 -48 -8 -48 -14 0 -5 -16
-9 -35 -9 -35 0 -35 0 -35 -45 l0 -45 783 2 782 3 3 178 c2 116 -1 177 -8 177
-6 0 -10 27 -10 65 l0 65 275 0 275 0 0 55 0 55 738 2 737 3 3 313 2 312 -885
0 -885 0 0 80 0 80 -905 0 -905 0 0 -35z"/>
</g>
</svg>
