<?xml version="1.0" standalone="no"?>
<!DOCTYPE svg PUBLIC "-//W3C//DTD SVG 20010904//EN"
 "http://www.w3.org/TR/2001/REC-SVG-20010904/DTD/svg10.dtd">
<svg version="1.0" xmlns="http://www.w3.org/2000/svg"
 width="800.000000pt" height="1200.000000pt" viewBox="0 0 800.000000 1200.000000"
 preserveAspectRatio="xMidYMid meet">
<metadata>
Created by potrace 1.15, written by Peter Selinger 2001-2017
</metadata>
<g transform="translate(0.000000,1200.000000) scale(0.100000,-0.100000)"
fill="#000000" stroke="none">
<path d="M2913 10873 c-30 -4 -33 -8 -33 -36 0 -31 -3 -33 -53 -45 -29 -6
-101 -12 -160 -12 -88 0 -107 -3 -107 -15 0 -13 -44 -15 -334 -15 -213 0 -337
-4 -341 -10 -4 -6 -207 -10 -576 -10 l-569 0 0 -90 0 -90 1484 0 c1344 0 1484
1 1490 16 3 9 6 36 6 60 l0 44 515 0 515 0 0 105 0 105 -902 -2 c-497 0 -918
-3 -935 -5z"/>
<path d="M1170 6380 c0 -38 1 -40 33 -41 17 0 25 -3 17 -6 -32 -13 -51 -41
-48 -69 l3 -29 775 0 775 0 0 90 0 90 -777 3 -778 2 0 -40z"/>
</g>
</svg>
