<?xml version="1.0" standalone="no"?>
<!DOCTYPE svg PUBLIC "-//W3C//DTD SVG 20010904//EN"
 "http://www.w3.org/TR/2001/REC-SVG-20010904/DTD/svg10.dtd">
<svg version="1.0" xmlns="http://www.w3.org/2000/svg"
 width="800.000000pt" height="1200.000000pt" viewBox="0 0 800.000000 1200.000000"
 preserveAspectRatio="xMidYMid meet">
<metadata>
Created by potrace 1.15, written by Peter Selinger 2001-2017
</metadata>
<g transform="translate(0.000000,1200.000000) scale(0.100000,-0.100000)"
fill="#000000" stroke="none">
<path d="M3587 7463 c-4 -3 -7 -14 -7 -23 0 -24 -38 -30 -181 -30 -111 0 -119
-1 -119 -20 0 -17 -8 -19 -72 -22 l-73 -3 0 -40 0 -40 215 -8 c118 -4 386 -9
595 -10 l380 -2 0 100 0 100 -366 3 c-201 1 -368 -1 -372 -5z"/>
</g>
</svg>
