<?xml version="1.0" standalone="no"?>
<!DOCTYPE svg PUBLIC "-//W3C//DTD SVG 20010904//EN"
 "http://www.w3.org/TR/2001/REC-SVG-20010904/DTD/svg10.dtd">
<svg version="1.0" xmlns="http://www.w3.org/2000/svg"
 width="800.000000pt" height="1200.000000pt" viewBox="0 0 800.000000 1200.000000"
 preserveAspectRatio="xMidYMid meet">
<metadata>
Created by potrace 1.15, written by Peter Selinger 2001-2017
</metadata>
<g transform="translate(0.000000,1200.000000) scale(0.100000,-0.100000)"
fill="#000000" stroke="none">
<path d="M1130 9748 c0 -18 -3 -63 -7 -100 l-6 -68 587 0 586 0 0 100 0 100
-580 0 -580 0 0 -32z"/>
<path d="M1207 5913 c-4 -3 -7 -28 -7 -54 0 -33 -5 -49 -16 -53 -10 -4 -14
-16 -12 -38 l3 -33 658 -3 657 -2 0 -24 c0 -15 7 -26 18 -29 9 -3 -31 -5 -90
-6 l-108 -1 0 -40 0 -40 90 0 c53 0 90 -4 90 -10 0 -7 292 -10 855 -10 l855 0
0 96 0 96 -650 -3 -649 -4 -3 80 -3 80 -841 3 c-462 1 -844 -1 -847 -5z"/>
</g>
</svg>
